<svg width="43" height="44" viewBox="0 0 43 44" fill="none" xmlns="http://www.w3.org/2000/svg">
<path d="M33.644 6.98258C35.1337 6.98258 36.3427 8.19162 36.3427 9.68125C36.3427 11.171 35.1337 12.38 33.644 12.38C32.1543 12.38 30.9453 11.171 30.9453 9.68125C30.9453 8.19162 32.1543 6.98258 33.644 6.98258Z" stroke="white" stroke-width="3.53517" stroke-miterlimit="10" stroke-linecap="round" stroke-linejoin="round"/>
<path d="M33.644 31.2709C35.1337 31.2709 36.3427 32.48 36.3427 33.9696C36.3427 35.4593 35.1337 36.6683 33.644 36.6683C32.1543 36.6683 30.9453 35.4593 30.9453 33.9696C30.9453 32.48 32.1543 31.2709 33.644 31.2709Z" stroke="white" stroke-width="3.53517" stroke-miterlimit="10" stroke-linecap="round" stroke-linejoin="round"/>
<path d="M33.6444 1.58516C38.1128 1.58516 41.7405 5.21286 41.7405 9.68125C41.7405 14.1496 38.1128 17.7773 33.6444 17.7773C29.176 17.7773 25.5483 14.1496 25.5483 9.68125C25.5483 5.21286 29.176 1.58516 33.6444 1.58516Z" stroke="white" stroke-width="3.53517" stroke-miterlimit="10" stroke-linecap="round" stroke-linejoin="round"/>
<path d="M33.6444 25.8735C38.1128 25.8735 41.7405 29.5012 41.7405 33.9696C41.7405 38.4379 38.1128 42.0657 33.6444 42.0657C29.176 42.0657 25.5483 38.4379 25.5483 33.9696C25.5483 29.5012 29.176 25.8735 33.6444 25.8735Z" stroke="white" stroke-width="3.53517" stroke-miterlimit="10" stroke-linecap="round" stroke-linejoin="round"/>
<path d="M9.3559 19.1267C10.8456 19.1267 12.0546 20.3358 12.0546 21.8254C12.0546 23.3151 10.8456 24.5242 9.3559 24.5242C7.86618 24.5242 6.65723 23.3151 6.65723 21.8254C6.65723 20.3358 7.86618 19.1267 9.3559 19.1267Z" stroke="white" stroke-width="3.53517" stroke-miterlimit="10" stroke-linecap="round" stroke-linejoin="round"/>
<path d="M9.35586 13.7293C13.8242 13.7293 17.452 17.357 17.452 21.8254C17.452 26.2937 13.8242 29.9215 9.35586 29.9215C4.88747 29.9215 1.25977 26.2937 1.25977 21.8254C1.25977 17.357 4.88747 13.7293 9.35586 13.7293Z" stroke="white" stroke-width="3.53517" stroke-miterlimit="10" stroke-linecap="round" stroke-linejoin="round"/>
<path d="M3.32373 27.2228C4.80664 25.5665 6.96017 24.5242 9.35599 24.5242C11.7518 24.5242 13.9053 25.5665 15.3883 27.2228C13.9053 28.8792 11.7518 29.9215 9.35599 29.9215C6.96017 29.9215 4.80664 28.8792 3.32373 27.2228Z" stroke="white" stroke-width="3.53517" stroke-miterlimit="10" stroke-linecap="round" stroke-linejoin="round"/>
<path d="M27.6118 15.0787C29.0947 13.4223 31.2483 12.38 33.6441 12.38C36.0399 12.38 38.1934 13.4223 39.6763 15.0787C38.1934 16.735 36.0399 17.7773 33.6441 17.7773C31.2483 17.7773 29.0947 16.735 27.6118 15.0787Z" stroke="white" stroke-width="3.53517" stroke-miterlimit="10" stroke-linecap="round" stroke-linejoin="round"/>
<path d="M27.6118 39.3669C29.0947 37.7106 31.2483 36.6683 33.6441 36.6683C36.0399 36.6683 38.1934 37.7106 39.6763 39.3669C38.1934 41.0233 36.0399 42.0656 33.6441 42.0656C31.2483 42.0656 29.0947 41.0233 27.6118 39.3669Z" stroke="white" stroke-width="3.53517" stroke-miterlimit="10" stroke-linecap="round" stroke-linejoin="round"/>
<path d="M16.5977 18.2047L26.4029 13.3021" stroke="white" stroke-width="3.53517" stroke-miterlimit="10" stroke-linecap="round" stroke-linejoin="round"/>
<path d="M16.5977 25.4462L26.4029 30.3488" stroke="white" stroke-width="3.53517" stroke-miterlimit="10" stroke-linecap="round" stroke-linejoin="round"/>
</svg>
