<svg width="42" height="42" viewBox="0 0 42 42" fill="none" xmlns="http://www.w3.org/2000/svg">
<g clip-path="url(#clip0_1793_2107)">
<mask id="path-1-outside-1_1793_2107" maskUnits="userSpaceOnUse" x="-1" y="2.53722" width="44" height="37" fill="black">
<rect fill="white" x="-1" y="2.53722" width="44" height="37"/>
<path d="M41.7873 17.1232C41.5093 16.4665 40.9922 15.9574 40.3312 15.6896L39.5929 15.3905V11.4899C39.5929 10.0177 38.3953 8.82001 36.9231 8.82001H23.3735L15.6024 5.6719C15.2867 5.54393 14.9274 5.69626 14.7996 6.01175C14.6717 6.32724 14.8239 6.68671 15.1395 6.81451L20.09 8.82001H7.20379L8.48077 5.66763C8.7783 4.93321 9.61789 4.57768 10.3522 4.87521L12.8547 5.88895C13.1705 6.017 13.5297 5.86459 13.6574 5.5491C13.7853 5.2336 13.6331 4.87423 13.3176 4.74634L10.815 3.7326C9.45087 3.17987 7.89088 3.84022 7.33807 5.20465L5.87357 8.81993H5.07696C3.60483 8.81993 2.40717 10.0176 2.40717 11.4898V17.3769L0.196842 22.8334C-0.0709899 23.4943 -0.0653297 24.2201 0.212756 24.8768C0.49076 25.5335 1.00789 26.0426 1.66889 26.3104L2.40726 26.6095V30.5101C2.40726 31.9824 3.60491 33.18 5.07704 33.18H7.70754C8.04797 33.18 8.32392 32.9041 8.32392 32.5636C8.32392 32.2232 8.04797 31.9472 7.70754 31.9472H5.07704C4.28471 31.9472 3.64002 31.3026 3.64002 30.5102V19.4934H11.7406C10.3175 20.6177 8.41892 22.5625 7.61837 25.3647C7.5297 25.6752 7.70393 26.0101 8.00884 26.1162C8.33894 26.2311 8.70799 26.039 8.80389 25.7034C9.63536 22.7926 11.8832 20.8752 13.1502 19.9903V31.9472H10.1732C9.83281 31.9472 9.55685 32.2231 9.55685 32.5635C9.55685 32.904 9.83281 33.1799 10.1732 33.1799H18.6267L24.7516 35.6611C24.8275 35.6919 24.9057 35.7064 24.9828 35.7064C25.2265 35.7064 25.4572 35.561 25.5543 35.3213C25.6822 35.0058 25.5301 34.6463 25.2145 34.5185L21.9102 33.1799H34.7963L33.5193 36.3323C33.2218 37.0667 32.3819 37.4223 31.6479 37.1247L27.5052 35.4465C27.1895 35.3186 26.8303 35.4709 26.7025 35.7864C26.5746 36.1019 26.7267 36.4613 27.0423 36.5891L31.1851 38.2673C31.5124 38.4 31.8508 38.4627 32.1841 38.4627C33.2398 38.4627 34.2419 37.8323 34.662 36.7953L36.1265 33.18H36.9231C38.3954 33.18 39.593 31.9824 39.593 30.5101V24.623L41.8033 19.1666C42.071 18.5056 42.0653 17.78 41.7873 17.1232ZM2.1318 25.1678C1.77603 25.0236 1.49769 24.7496 1.34799 24.3962C1.19836 24.0427 1.19533 23.6522 1.33946 23.2964L2.40717 20.6606V25.2794L2.1318 25.1678ZM7.66571 15.9687C7.56005 15.7202 7.48417 15.3231 8.04092 14.7455C8.29726 14.4796 8.62203 14.3097 8.99699 14.3663C9.74233 14.4786 10.7263 15.3401 11.7679 16.792C12.1298 17.2964 12.4448 17.7973 12.688 18.2074C10.3257 17.9765 8.11639 17.0292 7.66571 15.9687ZM13.1501 16.6125C12.1715 15.1427 10.7032 13.3772 9.1814 13.1473C8.43188 13.0341 7.73067 13.291 7.15334 13.8899C6.70988 14.3498 6.03944 15.2942 6.53105 16.4509C6.8367 17.1701 7.52707 17.7799 8.42499 18.2604H3.64002V11.4898C3.64002 10.6974 4.28471 10.0528 5.07704 10.0528H13.1502V16.6125H13.1501ZM38.3601 30.5101C38.3601 31.3026 37.7154 31.9472 36.9231 31.9472H14.3829V19.9903C15.6499 20.8752 17.8977 22.7926 18.7292 25.7034C18.8252 26.0397 19.1938 26.2301 19.5242 26.1162C19.8294 26.0111 20.0032 25.6746 19.9147 25.3647C19.1142 22.5625 17.2155 20.6177 15.7925 19.4934H38.3601V30.5101ZM14.8448 18.2073C15.0855 17.8013 15.3973 17.3056 15.7562 16.8044C16.801 15.3451 17.7881 14.4793 18.5357 14.3664C18.9108 14.3095 19.2357 14.4797 19.4921 14.7456C20.0489 15.3233 19.9729 15.7204 19.8673 15.9688C19.4166 17.0292 17.2071 17.9765 14.8448 18.2073ZM38.3601 18.2605H19.108C20.0058 17.7799 20.6963 17.1701 21.0019 16.451C21.4936 15.2943 20.8231 14.3499 20.3796 13.89C19.8022 13.2909 19.1004 13.0343 18.3515 13.1474C16.8298 13.3773 15.3614 15.1428 14.3828 16.6126V10.0529H36.923C37.7153 10.0529 38.36 10.6975 38.36 11.49V18.2605H38.3601ZM40.6606 18.7037L39.5929 21.3395V16.7207L39.8684 16.8322C40.2241 16.9764 40.5025 17.2504 40.652 17.6039C40.8017 17.9573 40.8048 18.3479 40.6606 18.7037Z"/>
</mask>
<path d="M41.7873 17.1232C41.5093 16.4665 40.9922 15.9574 40.3312 15.6896L39.5929 15.3905V11.4899C39.5929 10.0177 38.3953 8.82001 36.9231 8.82001H23.3735L15.6024 5.6719C15.2867 5.54393 14.9274 5.69626 14.7996 6.01175C14.6717 6.32724 14.8239 6.68671 15.1395 6.81451L20.09 8.82001H7.20379L8.48077 5.66763C8.7783 4.93321 9.61789 4.57768 10.3522 4.87521L12.8547 5.88895C13.1705 6.017 13.5297 5.86459 13.6574 5.5491C13.7853 5.2336 13.6331 4.87423 13.3176 4.74634L10.815 3.7326C9.45087 3.17987 7.89088 3.84022 7.33807 5.20465L5.87357 8.81993H5.07696C3.60483 8.81993 2.40717 10.0176 2.40717 11.4898V17.3769L0.196842 22.8334C-0.0709899 23.4943 -0.0653297 24.2201 0.212756 24.8768C0.49076 25.5335 1.00789 26.0426 1.66889 26.3104L2.40726 26.6095V30.5101C2.40726 31.9824 3.60491 33.18 5.07704 33.18H7.70754C8.04797 33.18 8.32392 32.9041 8.32392 32.5636C8.32392 32.2232 8.04797 31.9472 7.70754 31.9472H5.07704C4.28471 31.9472 3.64002 31.3026 3.64002 30.5102V19.4934H11.7406C10.3175 20.6177 8.41892 22.5625 7.61837 25.3647C7.5297 25.6752 7.70393 26.0101 8.00884 26.1162C8.33894 26.2311 8.70799 26.039 8.80389 25.7034C9.63536 22.7926 11.8832 20.8752 13.1502 19.9903V31.9472H10.1732C9.83281 31.9472 9.55685 32.2231 9.55685 32.5635C9.55685 32.904 9.83281 33.1799 10.1732 33.1799H18.6267L24.7516 35.6611C24.8275 35.6919 24.9057 35.7064 24.9828 35.7064C25.2265 35.7064 25.4572 35.561 25.5543 35.3213C25.6822 35.0058 25.5301 34.6463 25.2145 34.5185L21.9102 33.1799H34.7963L33.5193 36.3323C33.2218 37.0667 32.3819 37.4223 31.6479 37.1247L27.5052 35.4465C27.1895 35.3186 26.8303 35.4709 26.7025 35.7864C26.5746 36.1019 26.7267 36.4613 27.0423 36.5891L31.1851 38.2673C31.5124 38.4 31.8508 38.4627 32.1841 38.4627C33.2398 38.4627 34.2419 37.8323 34.662 36.7953L36.1265 33.18H36.9231C38.3954 33.18 39.593 31.9824 39.593 30.5101V24.623L41.8033 19.1666C42.071 18.5056 42.0653 17.78 41.7873 17.1232ZM2.1318 25.1678C1.77603 25.0236 1.49769 24.7496 1.34799 24.3962C1.19836 24.0427 1.19533 23.6522 1.33946 23.2964L2.40717 20.6606V25.2794L2.1318 25.1678ZM7.66571 15.9687C7.56005 15.7202 7.48417 15.3231 8.04092 14.7455C8.29726 14.4796 8.62203 14.3097 8.99699 14.3663C9.74233 14.4786 10.7263 15.3401 11.7679 16.792C12.1298 17.2964 12.4448 17.7973 12.688 18.2074C10.3257 17.9765 8.11639 17.0292 7.66571 15.9687ZM13.1501 16.6125C12.1715 15.1427 10.7032 13.3772 9.1814 13.1473C8.43188 13.0341 7.73067 13.291 7.15334 13.8899C6.70988 14.3498 6.03944 15.2942 6.53105 16.4509C6.8367 17.1701 7.52707 17.7799 8.42499 18.2604H3.64002V11.4898C3.64002 10.6974 4.28471 10.0528 5.07704 10.0528H13.1502V16.6125H13.1501ZM38.3601 30.5101C38.3601 31.3026 37.7154 31.9472 36.9231 31.9472H14.3829V19.9903C15.6499 20.8752 17.8977 22.7926 18.7292 25.7034C18.8252 26.0397 19.1938 26.2301 19.5242 26.1162C19.8294 26.0111 20.0032 25.6746 19.9147 25.3647C19.1142 22.5625 17.2155 20.6177 15.7925 19.4934H38.3601V30.5101ZM14.8448 18.2073C15.0855 17.8013 15.3973 17.3056 15.7562 16.8044C16.801 15.3451 17.7881 14.4793 18.5357 14.3664C18.9108 14.3095 19.2357 14.4797 19.4921 14.7456C20.0489 15.3233 19.9729 15.7204 19.8673 15.9688C19.4166 17.0292 17.2071 17.9765 14.8448 18.2073ZM38.3601 18.2605H19.108C20.0058 17.7799 20.6963 17.1701 21.0019 16.451C21.4936 15.2943 20.8231 14.3499 20.3796 13.89C19.8022 13.2909 19.1004 13.0343 18.3515 13.1474C16.8298 13.3773 15.3614 15.1428 14.3828 16.6126V10.0529H36.923C37.7153 10.0529 38.36 10.6975 38.36 11.49V18.2605H38.3601ZM40.6606 18.7037L39.5929 21.3395V16.7207L39.8684 16.8322C40.2241 16.9764 40.5025 17.2504 40.652 17.6039C40.8017 17.9573 40.8048 18.3479 40.6606 18.7037Z" fill="#FB614C"/>
<path d="M41.7873 17.1232C41.5093 16.4665 40.9922 15.9574 40.3312 15.6896L39.5929 15.3905V11.4899C39.5929 10.0177 38.3953 8.82001 36.9231 8.82001H23.3735L15.6024 5.6719C15.2867 5.54393 14.9274 5.69626 14.7996 6.01175C14.6717 6.32724 14.8239 6.68671 15.1395 6.81451L20.09 8.82001H7.20379L8.48077 5.66763C8.7783 4.93321 9.61789 4.57768 10.3522 4.87521L12.8547 5.88895C13.1705 6.017 13.5297 5.86459 13.6574 5.5491C13.7853 5.2336 13.6331 4.87423 13.3176 4.74634L10.815 3.7326C9.45087 3.17987 7.89088 3.84022 7.33807 5.20465L5.87357 8.81993H5.07696C3.60483 8.81993 2.40717 10.0176 2.40717 11.4898V17.3769L0.196842 22.8334C-0.0709899 23.4943 -0.0653297 24.2201 0.212756 24.8768C0.49076 25.5335 1.00789 26.0426 1.66889 26.3104L2.40726 26.6095V30.5101C2.40726 31.9824 3.60491 33.18 5.07704 33.18H7.70754C8.04797 33.18 8.32392 32.9041 8.32392 32.5636C8.32392 32.2232 8.04797 31.9472 7.70754 31.9472H5.07704C4.28471 31.9472 3.64002 31.3026 3.64002 30.5102V19.4934H11.7406C10.3175 20.6177 8.41892 22.5625 7.61837 25.3647C7.5297 25.6752 7.70393 26.0101 8.00884 26.1162C8.33894 26.2311 8.70799 26.039 8.80389 25.7034C9.63536 22.7926 11.8832 20.8752 13.1502 19.9903V31.9472H10.1732C9.83281 31.9472 9.55685 32.2231 9.55685 32.5635C9.55685 32.904 9.83281 33.1799 10.1732 33.1799H18.6267L24.7516 35.6611C24.8275 35.6919 24.9057 35.7064 24.9828 35.7064C25.2265 35.7064 25.4572 35.561 25.5543 35.3213C25.6822 35.0058 25.5301 34.6463 25.2145 34.5185L21.9102 33.1799H34.7963L33.5193 36.3323C33.2218 37.0667 32.3819 37.4223 31.6479 37.1247L27.5052 35.4465C27.1895 35.3186 26.8303 35.4709 26.7025 35.7864C26.5746 36.1019 26.7267 36.4613 27.0423 36.5891L31.1851 38.2673C31.5124 38.4 31.8508 38.4627 32.1841 38.4627C33.2398 38.4627 34.2419 37.8323 34.662 36.7953L36.1265 33.18H36.9231C38.3954 33.18 39.593 31.9824 39.593 30.5101V24.623L41.8033 19.1666C42.071 18.5056 42.0653 17.78 41.7873 17.1232ZM2.1318 25.1678C1.77603 25.0236 1.49769 24.7496 1.34799 24.3962C1.19836 24.0427 1.19533 23.6522 1.33946 23.2964L2.40717 20.6606V25.2794L2.1318 25.1678ZM7.66571 15.9687C7.56005 15.7202 7.48417 15.3231 8.04092 14.7455C8.29726 14.4796 8.62203 14.3097 8.99699 14.3663C9.74233 14.4786 10.7263 15.3401 11.7679 16.792C12.1298 17.2964 12.4448 17.7973 12.688 18.2074C10.3257 17.9765 8.11639 17.0292 7.66571 15.9687ZM13.1501 16.6125C12.1715 15.1427 10.7032 13.3772 9.1814 13.1473C8.43188 13.0341 7.73067 13.291 7.15334 13.8899C6.70988 14.3498 6.03944 15.2942 6.53105 16.4509C6.8367 17.1701 7.52707 17.7799 8.42499 18.2604H3.64002V11.4898C3.64002 10.6974 4.28471 10.0528 5.07704 10.0528H13.1502V16.6125H13.1501ZM38.3601 30.5101C38.3601 31.3026 37.7154 31.9472 36.9231 31.9472H14.3829V19.9903C15.6499 20.8752 17.8977 22.7926 18.7292 25.7034C18.8252 26.0397 19.1938 26.2301 19.5242 26.1162C19.8294 26.0111 20.0032 25.6746 19.9147 25.3647C19.1142 22.5625 17.2155 20.6177 15.7925 19.4934H38.3601V30.5101ZM14.8448 18.2073C15.0855 17.8013 15.3973 17.3056 15.7562 16.8044C16.801 15.3451 17.7881 14.4793 18.5357 14.3664C18.9108 14.3095 19.2357 14.4797 19.4921 14.7456C20.0489 15.3233 19.9729 15.7204 19.8673 15.9688C19.4166 17.0292 17.2071 17.9765 14.8448 18.2073ZM38.3601 18.2605H19.108C20.0058 17.7799 20.6963 17.1701 21.0019 16.451C21.4936 15.2943 20.8231 14.3499 20.3796 13.89C19.8022 13.2909 19.1004 13.0343 18.3515 13.1474C16.8298 13.3773 15.3614 15.1428 14.3828 16.6126V10.0529H36.923C37.7153 10.0529 38.36 10.6975 38.36 11.49V18.2605H38.3601ZM40.6606 18.7037L39.5929 21.3395V16.7207L39.8684 16.8322C40.2241 16.9764 40.5025 17.2504 40.652 17.6039C40.8017 17.9573 40.8048 18.3479 40.6606 18.7037Z" stroke="#FB614C" stroke-width="0.871354" mask="url(#path-1-outside-1_1793_2107)"/>
<path d="M34.117 25.4765L34.117 25.4765C34.4312 25.8566 34.5937 26.3357 34.5937 26.8557C34.5937 27.4912 34.331 28.121 33.8827 28.5428L34.117 25.4765ZM34.117 25.4765C33.6956 24.9669 33.0473 24.6767 32.226 24.586L32.226 24.586M34.117 25.4765L32.226 24.586M32.226 24.586C31.8945 24.5495 31.7411 24.4502 31.6689 24.3702C31.5969 24.2905 31.5789 24.2004 31.5789 24.1271C31.5789 24.0767 31.5875 23.9298 31.6602 23.8026C31.7226 23.6935 31.8431 23.5759 32.13 23.5759C32.4728 23.5759 32.6211 23.7616 32.662 23.8241C32.791 24.1177 33.0844 24.3238 33.4269 24.3238C34.0692 24.3238 34.4132 23.6599 34.1811 23.1287L34.1811 23.1287M32.226 24.586L34.1811 23.1287M34.1811 23.1287L34.1794 23.1248M34.1811 23.1287L34.1794 23.1248M34.1794 23.1248C34.0225 22.784 33.6241 22.2934 32.9643 22.0524M34.1794 23.1248L32.9643 22.0524M32.7392 27.3278L32.7393 27.3278C32.8696 27.2052 32.9252 27.0064 32.9252 26.8558C32.9252 26.7636 32.9225 26.6547 32.8385 26.55C32.7544 26.4449 32.5511 26.3006 32.043 26.2446C31.2795 26.1603 30.7415 25.8572 30.3953 25.4517C30.0518 25.0494 29.9104 24.5617 29.9104 24.1272C29.9104 23.9562 29.9391 23.3683 30.3185 22.8139L32.7392 27.3278ZM32.7392 27.3278C32.6222 27.4379 32.4162 27.5092 32.0795 27.4885L32.0794 27.4885M32.7392 27.3278L32.0794 27.4885M32.0794 27.4885C31.7383 27.4677 31.5484 27.3537 31.4438 27.2561C31.341 27.1601 31.3067 27.0667 31.3024 27.0541M32.0794 27.4885L31.3024 27.0541M31.3024 27.0541C31.2952 27.0271 31.2868 27.0006 31.277 26.9747L31.2349 26.8426L31.2172 26.8485C31.0728 26.6001 30.8042 26.4326 30.4953 26.4326C29.9213 26.4326 29.5144 27.0159 29.711 27.5544C29.7836 27.7793 30.1469 28.7007 31.2959 29.0374V29.4603C31.2959 29.921 31.6694 30.2945 32.1301 30.2945C32.591 30.2945 32.9643 29.921 32.9643 29.4603V29.0561C33.3816 28.9368 33.6806 28.7331 33.8827 28.5428L31.3024 27.0541ZM32.9643 22.0524V21.6076C32.9643 21.1469 32.5908 20.7734 32.13 20.7734C31.6693 20.7734 31.2958 21.1469 31.2958 21.6076V22.0513C30.8979 22.1991 30.562 22.4579 30.3185 22.8139L32.9643 22.0524Z" fill="#FB614C" stroke="#FB614C" stroke-width="0.435677"/>
</g>
<defs>
<clipPath id="clip0_1793_2107">
<rect width="42" height="42" fill="white"/>
</clipPath>
</defs>
</svg>
