<svg width="44" height="44" viewBox="0 0 44 44" fill="none" xmlns="http://www.w3.org/2000/svg">
<path d="M35.4372 27.8833L34.9107 27.6201L23.0458 33.5525C22.3649 33.8975 21.5258 33.8975 20.8448 33.5525L8.97995 27.6201L8.45347 27.8833C8.17555 28.0222 8 28.3063 8 28.617C8 28.9278 8.17555 29.2118 8.45347 29.3507L21.5785 35.9132C21.8094 36.0287 22.0813 36.0287 22.3122 35.9132L35.4372 29.3507C35.7151 29.2118 35.8906 28.9278 35.8906 28.617C35.8906 28.3063 35.7151 28.0222 35.4372 27.8833Z" fill="#383838"/>
<path d="M35.4372 24.0552L34.9107 23.792L23.0458 29.7244C22.3649 30.0694 21.5258 30.0694 20.8448 29.7244L8.97995 23.792L8.45347 24.0552C8.17555 24.1941 8 24.4782 8 24.7889C8 25.0996 8.17555 25.3837 8.45347 25.5226L21.5785 32.0851C21.8094 32.2006 22.0813 32.2006 22.3122 32.0851L35.4372 25.5226C35.7151 25.3837 35.8906 25.0996 35.8906 24.7889C35.8906 24.4782 35.7151 24.1941 35.4372 24.0552Z" fill="#383838"/>
<path d="M14.7311 17.6534L16.3718 20.4951C16.5983 20.8874 17.1 21.0219 17.4924 20.7953L18.1679 20.4053C18.5775 20.7158 19.0174 20.9718 19.4842 21.1709V21.9453C19.4842 22.3983 19.8515 22.7656 20.3045 22.7656H23.5857C24.0388 22.7656 24.4061 22.3983 24.4061 21.9453V21.1709C24.8728 20.9718 25.3128 20.7158 25.7224 20.4053L26.3979 20.7953C26.7902 21.0218 27.2919 20.8874 27.5184 20.4951L29.1591 17.6534C29.3856 17.2611 29.2512 16.7594 28.8588 16.5328L28.1862 16.1444C28.2181 15.889 28.2342 15.6344 28.2342 15.3828C28.2342 15.1312 28.2181 14.8766 28.1862 14.6212L28.8589 14.2328C29.2512 14.0063 29.3856 13.5046 29.1591 13.1122L27.5185 10.2706C27.292 9.87824 26.7903 9.74377 26.3979 9.97034L25.7224 10.3603C25.3129 10.0498 24.8728 9.7938 24.4061 9.59469V8.82031C24.4061 8.36728 24.0388 8 23.5857 8H20.3045C19.8515 8 19.4842 8.36728 19.4842 8.82031V9.59469C19.0174 9.7938 18.5774 10.0498 18.1679 10.3603L17.4924 9.97028C17.1 9.74377 16.5983 9.87819 16.3718 10.2705L14.7312 13.1122C14.5047 13.5045 14.6391 14.0062 15.0314 14.2327L15.7041 14.6211C15.6721 14.8766 15.6561 15.1312 15.6561 15.3828C15.6561 15.6344 15.6721 15.889 15.704 16.1444L15.0314 16.5328C14.639 16.7594 14.5046 17.2611 14.7311 17.6534ZM21.9451 12.9219C23.3021 12.9219 24.4061 14.0259 24.4061 15.3828C24.4061 16.7398 23.3021 17.8438 21.9451 17.8438C20.5882 17.8438 19.4842 16.7398 19.4842 15.3828C19.4842 14.0259 20.5882 12.9219 21.9451 12.9219Z" fill="#383838"/>
<path d="M8.45347 21.6946L21.5785 28.2571C21.8094 28.3726 22.0813 28.3726 22.3122 28.2571L35.4372 21.6946C35.7151 21.5557 35.8906 21.2717 35.8906 20.961C35.8906 20.6502 35.7151 20.3662 35.4372 20.2273L30.8156 17.9165C30.7614 18.1072 30.6837 18.2943 30.5802 18.4736L28.9395 21.3153C28.5014 22.0743 27.6844 22.546 26.8075 22.546C26.8075 22.546 26.8075 22.546 26.8075 22.546C26.533 22.546 26.2609 22.4996 26.0029 22.4103C25.7848 23.5457 24.784 24.4063 23.5859 24.4063H20.3047C19.1066 24.4063 18.1058 23.5457 17.8878 22.4103C17.6298 22.4997 17.3576 22.546 17.0832 22.546C16.2062 22.546 15.3893 22.0744 14.9511 21.3152L13.3105 18.4738C13.2079 18.2961 13.1289 18.1093 13.0738 17.9172L8.45347 20.2273C8.17555 20.3662 8 20.6502 8 20.961C8 21.2717 8.17555 21.5557 8.45347 21.6946Z" fill="#383838"/>
<rect x="0.5" y="0.5" width="42.8906" height="43" rx="3.5" stroke="#DDDDDD"/>
</svg>
