<svg width="45" height="45" viewBox="0 0 45 45" fill="none" xmlns="http://www.w3.org/2000/svg">
<g clip-path="url(#clip0_3346_22214)">
<path d="M27.2759 18.9384C26.9846 18.6376 26.5871 18.4628 26.1685 18.4513C25.7499 18.4398 25.3434 18.5926 25.036 18.8769C24.2542 19.6323 21.8781 21.8701 21.8781 21.8701L20.8854 20.8775C20.5884 20.5802 20.1854 20.413 19.7651 20.4128C19.3449 20.4126 18.9417 20.5794 18.6444 20.8764C18.347 21.1734 18.1799 21.5764 18.1797 21.9967C18.1795 22.417 18.3462 22.8201 18.6433 23.1175L20.7273 25.2015C21.0184 25.4954 21.4132 25.6633 21.8267 25.6691C22.2403 25.6748 22.6396 25.518 22.9387 25.2323L27.2166 21.1784C27.5195 20.888 27.6956 20.4899 27.7067 20.0706C27.7178 19.6512 27.563 19.2443 27.2759 18.9384Z" fill="#383838"/>
<path d="M10.5377 34.5722H32.2067V35.0937C32.2067 35.2915 32.266 35.4848 32.3771 35.6485C32.4881 35.8123 32.6457 35.9389 32.8295 36.012C33.0133 36.0852 33.2149 36.1015 33.408 36.0588C33.6012 36.0161 33.7771 35.9165 33.913 35.7727L36.6926 32.8357C36.8661 32.6522 36.9629 32.4092 36.9629 32.1566C36.9629 31.904 36.8661 31.661 36.6926 31.4775L33.913 28.5403C33.7771 28.3965 33.6012 28.2969 33.408 28.2542C33.2149 28.2115 33.0133 28.2278 32.8295 28.301C32.6457 28.3741 32.4881 28.5008 32.3771 28.6645C32.266 28.8282 32.2067 29.0215 32.2067 29.2193V29.7409H10.5377C10.101 29.7413 9.68232 29.915 9.37354 30.2238C9.06477 30.5326 8.89109 30.9512 8.89062 31.3879V32.9251C8.89109 33.3618 9.06477 33.7805 9.37354 34.0892C9.68232 34.398 10.101 34.5717 10.5377 34.5722Z" fill="#383838"/>
<path d="M19.6204 12.8512L22.5565 15.9564C22.6924 16.1002 22.8683 16.1998 23.0614 16.2425C23.2546 16.2852 23.4561 16.2689 23.6399 16.1958C23.8237 16.1227 23.9813 15.9961 24.0924 15.8324C24.2034 15.6687 24.2628 15.4754 24.2628 15.2776V14.6999C25.7511 14.9576 27.1303 15.6486 28.2278 16.6862C29.3254 17.7239 30.0926 19.0622 30.4334 20.5336C30.7742 22.0051 30.6735 23.5444 30.1439 24.9589C29.6143 26.3734 28.6793 27.6004 27.4559 28.4862C27.4008 28.5278 27.3601 28.5854 27.3394 28.6512C27.3188 28.717 27.3191 28.7876 27.3405 28.8532C27.3618 28.9188 27.4031 28.9761 27.4585 29.0171C27.514 29.0581 27.5808 29.0808 27.6498 29.082H31.2733C31.3471 29.082 31.4188 29.0572 31.4769 29.0116C31.535 28.9659 31.576 28.9021 31.5934 28.8303C31.6807 28.4702 31.8868 28.1501 32.1784 27.9216C32.4701 27.6931 32.8302 27.5696 33.2007 27.5711C33.4888 27.5711 33.7718 27.6477 34.0205 27.7931C34.0601 27.8159 34.104 27.8303 34.1494 27.8354C34.1948 27.8404 34.2408 27.8361 34.2844 27.8225C34.3281 27.8089 34.3685 27.7865 34.403 27.7565C34.4375 27.7266 34.4655 27.6899 34.4852 27.6486C35.2765 25.9676 35.6853 24.1321 35.6823 22.2742C35.6685 19.1282 34.4965 16.0975 32.3901 13.7607C30.2838 11.4238 27.3905 9.94464 24.2628 9.60547V9.06722C24.2628 8.86942 24.2034 8.67617 24.0924 8.51248C23.9813 8.3488 23.8237 8.22221 23.6399 8.14909C23.4561 8.07598 23.2546 8.0597 23.0614 8.10237C22.8683 8.14504 22.6924 8.24469 22.5565 8.38842L19.6217 11.4917C19.4461 11.6743 19.3479 11.9178 19.3477 12.1712C19.3474 12.4246 19.4451 12.6682 19.6204 12.8512Z" fill="#383838"/>
<path d="M12.371 29.0821H18.2369C18.3058 29.081 18.3727 29.0583 18.4282 29.0173C18.4837 28.9764 18.525 28.9191 18.5463 28.8535C18.5677 28.7879 18.568 28.7173 18.5473 28.6515C18.5266 28.5857 18.4859 28.528 18.4308 28.4865C17.31 27.6737 16.4299 26.573 15.8835 25.3009C15.3371 24.0288 15.1448 22.6326 15.3269 21.2602C15.5089 19.8877 16.0587 18.59 16.9179 17.5044C17.7772 16.4188 18.9139 15.5857 20.2078 15.0933C20.258 15.0735 20.3026 15.0417 20.3378 15.0008C20.373 14.9598 20.3976 14.9109 20.4096 14.8583C20.4215 14.8057 20.4205 14.7509 20.4065 14.6988C20.3925 14.6467 20.366 14.5988 20.3293 14.5592L19.1412 13.3026C18.8494 12.9971 18.6871 12.5904 18.6883 12.1679C18.6896 11.7453 18.8543 11.3397 19.148 11.0359L19.5132 10.6494C19.5618 10.596 19.5916 10.5283 19.5982 10.4565C19.6047 10.3846 19.5876 10.3126 19.5495 10.2514C19.5114 10.1901 19.4543 10.143 19.3869 10.1172C19.3196 10.0913 19.2456 10.0882 19.1763 10.1083C17.3226 10.6812 15.6245 11.6705 14.2117 13.0004C12.799 14.3304 11.7091 15.9658 11.0253 17.7815C10.3416 19.5973 10.0821 21.5454 10.2667 23.4768C10.4514 25.4083 11.0752 27.2719 12.0906 28.9253C12.12 28.9732 12.1613 29.0128 12.2104 29.0402C12.2595 29.0676 12.3148 29.0821 12.371 29.0821Z" fill="#383838"/>
</g>
<rect x="1.39062" y="0.5" width="43.1094" height="43.1094" rx="3.5" stroke="#DDDDDD"/>
<defs>
<clipPath id="clip0_3346_22214">
<rect width="28.1094" height="28.1094" fill="white" transform="translate(8.89062 8)"/>
</clipPath>
</defs>
</svg>
