<svg width="25" height="24" viewBox="0 0 25 24" fill="none" xmlns="http://www.w3.org/2000/svg">
<path d="M12.5 2.40002C6.9775 2.40002 2.5 6.69842 2.5 12C2.5 13.801 3.02695 15.4801 3.92578 16.9203L2.58952 21.6L7.56836 20.3453C9.02446 21.1401 10.7054 21.6 12.5 21.6C18.0225 21.6 22.5 17.3016 22.5 12C22.5 6.69842 18.0225 2.40002 12.5 2.40002ZM9.07715 7.5219C9.23965 7.5219 9.40661 7.52095 9.55078 7.52815C9.72912 7.53215 9.92322 7.54469 10.109 7.93909C10.3299 8.40789 10.8107 9.58395 10.8724 9.70315C10.9341 9.82235 10.9778 9.96277 10.8919 10.1188C10.8103 10.2788 10.7678 10.3756 10.6478 10.5172C10.5236 10.6548 10.3876 10.8257 10.2751 10.9297C10.1509 11.0489 10.0227 11.1796 10.166 11.4172C10.3093 11.6548 10.8071 12.4337 11.543 13.0625C12.4888 13.8737 13.2868 14.123 13.5352 14.2422C13.7835 14.3614 13.9273 14.3428 14.0706 14.1828C14.2181 14.0268 14.6901 13.4915 14.8568 13.2531C15.0193 13.0147 15.1852 13.056 15.4102 13.1344C15.6385 13.2128 16.8562 13.7886 17.1045 13.9078C17.3528 14.027 17.5156 14.086 17.5781 14.1828C17.6423 14.2828 17.6424 14.7589 17.4365 15.3141C17.2307 15.8685 16.2199 16.4046 15.7666 16.4422C15.3091 16.483 14.8821 16.6396 12.793 15.85C10.273 14.8972 8.68374 12.4194 8.55957 12.2594C8.4354 12.1034 7.55046 10.9711 7.55046 9.80315C7.55046 8.63115 8.19055 8.05717 8.41471 7.81877C8.64305 7.58037 8.91048 7.5219 9.07715 7.5219Z" fill="white"/>
</svg>
