<svg width="21" height="12" viewBox="0 0 21 12" fill="none" xmlns="http://www.w3.org/2000/svg">
<path d="M9.45 11.25H5.25C3.7975 11.25 2.55955 10.7379 1.53615 9.71385C0.51205 8.69045 0 7.4525 0 6C0 4.5475 0.51205 3.3092 1.53615 2.2851C2.55955 1.2617 3.7975 0.75 5.25 0.75H9.45V2.85H5.25C4.375 2.85 3.63125 3.15625 3.01875 3.76875C2.40625 4.38125 2.1 5.125 2.1 6C2.1 6.875 2.40625 7.61875 3.01875 8.23125C3.63125 8.84375 4.375 9.15 5.25 9.15H9.45V11.25ZM6.3 7.05V4.95H14.7V7.05H6.3ZM11.55 11.25V9.15H15.75C16.625 9.15 17.3687 8.84375 17.9812 8.23125C18.5938 7.61875 18.9 6.875 18.9 6C18.9 5.125 18.5938 4.38125 17.9812 3.76875C17.3687 3.15625 16.625 2.85 15.75 2.85H11.55V0.75H15.75C17.2025 0.75 18.4408 1.2617 19.4649 2.2851C20.4883 3.3092 21 4.5475 21 6C21 7.4525 20.4883 8.69045 19.4649 9.71385C18.4408 10.7379 17.2025 11.25 15.75 11.25H11.55Z" fill="white"/>
</svg>
