<svg width="23" height="18" viewBox="0 0 23 18" fill="none" xmlns="http://www.w3.org/2000/svg">
<path d="M3.12921 17.5749C2.51671 17.5749 1.98935 17.3538 1.54713 16.9116C1.1049 16.469 0.883789 15.9414 0.883789 15.3289V2.67096C0.883789 2.05846 1.1049 1.5309 1.54713 1.08826C1.98935 0.646039 2.51671 0.424927 3.12921 0.424927H19.8713C20.4838 0.424927 21.0112 0.646039 21.4534 1.08826C21.8956 1.5309 22.1167 2.05846 22.1167 2.67096V15.3289C22.1167 15.9414 21.8956 16.469 21.4534 16.9116C21.0112 17.3538 20.4838 17.5749 19.8713 17.5749H3.12921ZM11.5003 10.1484L3.12921 4.66159V15.3289H19.8713V4.66159L11.5003 10.1484ZM11.5003 8.08118L19.7947 2.67096H3.2315L11.5003 8.08118ZM3.12921 4.66159V2.67096V15.3289V4.66159Z" fill="white"/>
</svg>
