<svg width="27" height="28" viewBox="0 0 27 28" fill="none" xmlns="http://www.w3.org/2000/svg">
<path d="M21.375 3.87512C21.9717 3.87512 22.544 4.11217 22.966 4.53413C23.3879 4.95609 23.625 5.52838 23.625 6.12512V21.8751C23.625 22.4719 23.3879 23.0442 22.966 23.4661C22.544 23.8881 21.9717 24.1251 21.375 24.1251H5.625C5.02826 24.1251 4.45597 23.8881 4.03401 23.4661C3.61205 23.0442 3.375 22.4719 3.375 21.8751V6.12512C3.375 5.52838 3.61205 4.95609 4.03401 4.53413C4.45597 4.11217 5.02826 3.87512 5.625 3.87512H21.375ZM20.8125 21.3126V15.3501C20.8125 14.3774 20.4261 13.4446 19.7383 12.7568C19.0505 12.069 18.1177 11.6826 17.145 11.6826C16.1887 11.6826 15.075 12.2676 14.535 13.1451V11.8964H11.3962V21.3126H14.535V15.7664C14.535 14.9001 15.2325 14.1914 16.0987 14.1914C16.5165 14.1914 16.9171 14.3573 17.2124 14.6527C17.5078 14.948 17.6737 15.3487 17.6737 15.7664V21.3126H20.8125ZM7.74 10.1301C8.24126 10.1301 8.72199 9.931 9.07643 9.57655C9.43088 9.22211 9.63 8.74138 9.63 8.24012C9.63 7.19387 8.78625 6.33887 7.74 6.33887C7.23576 6.33887 6.75217 6.53918 6.39561 6.89573C6.03906 7.25229 5.83875 7.73588 5.83875 8.24012C5.83875 9.28637 6.69375 10.1301 7.74 10.1301ZM9.30375 21.3126V11.8964H6.1875V21.3126H9.30375Z" fill="white"/>
</svg>
