<svg width="21" height="18" viewBox="0 0 21 18" fill="none" xmlns="http://www.w3.org/2000/svg">
<path d="M21 2.51226C20.2271 2.8542 19.3968 3.08432 18.5253 3.18811C19.4154 2.65708 20.0978 1.8163 20.4193 0.813787C19.5874 1.30539 18.6651 1.66262 17.6829 1.85572C16.8971 1.02137 15.7777 0.5 14.5387 0.5C12.1593 0.5 10.2306 2.42215 10.2306 4.79164C10.2306 5.12795 10.2694 5.45622 10.3421 5.7692C6.76174 5.59059 3.58763 3.88166 1.46187 1.28447C1.09196 1.91848 0.879543 2.65547 0.879543 3.44316C0.879543 4.93163 1.63955 6.24552 2.79532 7.0147C2.08942 6.99217 1.42471 6.79907 0.844006 6.47804C0.844006 6.49655 0.844006 6.51344 0.844006 6.53195C0.844006 8.61179 2.32849 10.3465 4.29999 10.7399C3.93896 10.8381 3.55775 10.8904 3.16442 10.8904C2.88739 10.8904 2.61682 10.863 2.35433 10.8139C2.90273 12.5188 4.49383 13.7603 6.37891 13.7949C4.90493 14.9463 3.04731 15.6326 1.02815 15.6326C0.680859 15.6326 0.337602 15.6125 0 15.5722C1.90689 16.7896 4.17076 17.5 6.60425 17.5C14.529 17.5 18.8613 10.9604 18.8613 5.28887C18.8613 5.10301 18.8573 4.91796 18.8492 4.73371C19.6916 4.12786 20.4225 3.37236 21 2.51226Z" fill="white"/>
</svg>
