<svg width="110" height="27" viewBox="0 0 110 27" fill="none" xmlns="http://www.w3.org/2000/svg">
<g opacity="0.7">
<path d="M0.132812 5.58765C0.132812 5.58765 2.85391 16.8283 3.28819 18.6528C3.79507 20.7824 4.70837 21.5661 7.3416 21.0375L9.04073 14.0684C9.47137 12.3374 9.76021 11.1032 10.037 9.34227H10.0857C10.2802 11.1205 10.5572 12.3425 10.9116 14.0745C10.9116 14.0745 11.6033 17.2383 11.9575 18.9C12.3126 20.5612 13.3009 21.6081 15.8802 21.0381L19.9288 5.58884H16.66L15.2779 12.2683C14.9062 14.2126 14.569 15.7318 14.3091 17.5105H14.2629C14.0267 15.7495 13.7261 14.2905 13.3483 12.3962L11.9092 5.58884H8.50343L6.96402 12.2247C6.52789 14.2411 6.11999 15.8694 5.86059 17.5878H5.81361C5.54797 15.9695 5.19415 13.9231 4.81102 11.9711C4.81102 11.9711 3.89642 7.22484 3.57553 5.58884L0.133131 5.58928L0.132812 5.58765ZM31.2935 5.58765V21.037H34.4056V17.7564V5.58691H31.2935V5.58765ZM75.1247 5.58765V16.9849C75.1247 18.5563 75.418 19.6572 76.0456 20.3298C76.594 20.918 77.4971 21.2989 78.5793 21.2989C79.4994 21.2989 80.4047 21.123 80.8314 20.9628L80.7913 18.5111C80.4738 18.5898 80.1086 18.6528 79.609 18.6528C78.5489 18.6528 78.1934 17.9684 78.1934 16.5575V12.1969H80.9038V9.24103H78.1934V5.5877H75.1245L75.1247 5.58765ZM24.3386 9.16913C22.4045 9.16913 20.8692 9.71658 20.0323 10.2041L20.6448 12.3183C21.4107 11.8315 22.6302 11.4286 23.7849 11.4286C25.6967 11.4236 26.0092 12.5183 26.0092 13.2204V13.3864C21.8435 13.3801 19.2121 14.8333 19.2121 17.7955C19.2121 19.604 20.5516 21.2989 22.8808 21.2989C24.3147 21.2989 25.5138 20.7224 26.2325 19.7987H26.3029C26.3029 19.7987 26.7788 21.8047 29.4007 21.0376C29.2629 20.2027 29.2182 19.3126 29.2182 18.2405V14.1133C29.2182 11.4828 28.1041 9.16917 24.3386 9.16917L24.3386 9.16913ZM42.9549 9.16913C41.0075 9.16913 40.1323 10.164 39.6017 11.0081H39.5556V9.43113H36.5856V21.0377H39.7143V14.2309C39.7143 13.9118 39.7504 13.5744 39.8609 13.2808C40.1202 12.5955 40.7526 11.7939 41.7625 11.7939C43.0249 11.7939 43.6156 12.8698 43.6156 14.4226V21.0376H46.7409V14.1485C46.7409 13.8438 46.7823 13.4769 46.8712 13.2076C47.1282 12.4281 47.81 11.7938 48.7487 11.7938C50.0285 11.7938 50.6428 12.851 50.6428 14.6781V21.0376H53.7703V14.2017C53.7703 10.5966 51.9544 9.16919 49.9046 9.16919C48.9968 9.16919 48.2803 9.39866 47.6324 9.7996C47.0879 10.1364 46.6005 10.615 46.1744 11.2452H46.1283C45.6325 9.99436 44.4695 9.16919 42.9544 9.16919L42.9549 9.16913ZM60.1354 9.16913C58.2018 9.16913 56.6667 9.71658 55.8291 10.2041L56.4424 12.3183C57.2076 11.8315 58.4279 11.4286 59.582 11.4286C61.4924 11.4236 61.8057 12.5183 61.8057 13.2204V13.3864C57.6406 13.3801 55.0089 14.8333 55.0089 17.7955C55.0089 19.604 56.3491 21.2989 58.6795 21.2989C60.1122 21.2989 61.3118 20.7224 62.0291 19.7987H62.0999C62.0999 19.7987 62.5757 21.8047 65.1979 21.0376C65.0599 20.2027 65.0157 19.3126 65.0157 18.2405V14.1133C65.0157 11.4828 63.9013 9.16917 60.1354 9.16917L60.1354 9.16913ZM73.128 9.16913C71.9299 9.16913 70.5669 9.94874 69.9947 11.62H69.9074V9.43098H67.0909V21.0375H70.3016V15.0942C70.3016 14.7736 70.3209 14.4941 70.3712 14.2377C70.6087 12.9928 71.5533 12.1969 72.909 12.1969C73.2812 12.1969 73.5475 12.2375 73.8357 12.2795V9.24093C73.594 9.19171 73.4288 9.16902 73.1281 9.16902L73.128 9.16913ZM26.1097 15.4432V16.8911C26.1097 17.1053 26.0912 17.3263 26.0324 17.5195C25.7915 18.3237 24.9652 19.0032 23.9321 19.0032C23.0709 19.0032 22.3867 18.5105 22.3867 17.468C22.3867 15.8736 24.1278 15.4328 26.1098 15.4432H26.1097ZM61.9065 15.4432V16.8911C61.9065 17.1053 61.8877 17.3263 61.8292 17.5195C61.5883 18.3237 60.7623 19.0032 59.7292 19.0032C58.8678 19.0032 58.1835 18.5105 58.1835 17.468C58.1835 15.8736 59.9246 15.4328 61.9066 15.4432H61.9065Z" fill="white"/>
<path d="M97.7299 0C96.7252 0 95.9266 0.565613 95.9266 1.25418L96.5368 8.21929C96.6041 8.63893 97.114 8.96262 97.7305 8.96262C98.3481 8.9618 98.8562 8.63839 98.925 8.21929L99.5381 1.25418C99.5381 0.565672 98.7373 5.91429e-05 97.7311 5.91429e-05L97.7299 0ZM87.7865 5.58708C87.2649 5.59956 86.6724 5.99766 86.2954 6.65644C85.7914 7.53366 85.8807 8.51397 86.4705 8.85789L92.7583 11.8099C93.1511 11.9571 93.6846 11.6759 93.9935 11.139C93.9936 11.1389 93.9935 11.1388 93.9935 11.1387C94.3039 10.5992 94.2799 9.99249 93.9532 9.72339L88.2741 5.70788C88.1267 5.62176 87.9607 5.58301 87.7869 5.58717L87.7865 5.58708ZM107.673 5.58708C107.499 5.58292 107.334 5.62167 107.187 5.70779L101.507 9.7233C101.182 9.99238 101.158 10.5991 101.467 11.1386L101.467 11.1389C101.777 11.6758 102.309 11.9571 102.702 11.8098L108.992 8.85795C109.585 8.51403 109.669 7.53377 109.169 6.6565C108.79 5.99771 108.197 5.59962 107.675 5.58714L107.673 5.58708ZM92.9932 14.7766C92.9119 14.7754 92.833 14.7881 92.7592 14.8161L86.4713 17.7645C85.8816 18.11 85.7923 19.0906 86.2963 19.9688C86.7989 20.8443 87.6847 21.2605 88.2746 20.9172L93.954 16.9048C94.2808 16.6324 94.3049 16.0259 93.9944 15.4868L93.997 15.488C93.746 15.049 93.3457 14.7813 92.9932 14.7765L92.9932 14.7766ZM102.469 14.7766C102.117 14.7814 101.718 15.0491 101.466 15.4881L101.468 15.4869C101.159 16.026 101.183 16.6325 101.508 16.9049L107.188 20.9173C107.777 21.2606 108.664 20.8444 109.168 19.9689C109.669 19.0907 109.584 18.11 108.992 17.7646L102.703 14.8162C102.629 14.7882 102.551 14.7755 102.469 14.7766L102.469 14.7766ZM97.729 17.6632C97.1136 17.6639 96.6049 17.9862 96.5376 18.4048L95.9275 25.3696C95.9275 26.0593 96.726 26.6238 97.7308 26.6238C98.7373 26.6238 99.5374 26.0593 99.5374 25.3696L98.9258 18.4048C98.857 17.9862 98.3489 17.664 97.7313 17.6632H97.729H97.729Z" fill="white"/>
</g>
</svg>
