<svg width="80" height="28" viewBox="0 0 80 28" fill="none" xmlns="http://www.w3.org/2000/svg">
<g opacity="0.7">
<path d="M77.229 16.7198L79.4283 18.2186C78.7145 19.2934 77.0071 21.1373 74.0554 21.1373C70.39 21.1373 67.6602 18.2383 67.6602 14.5506C67.6602 10.6262 70.4189 7.96387 73.7468 7.96387C77.0939 7.96387 78.7337 10.6853 79.2643 12.1545L79.5537 12.9039L70.9301 16.5522C71.5861 17.8735 72.6085 18.544 74.0554 18.544C75.5023 18.544 76.5055 17.8143 77.229 16.7198ZM70.4671 14.3435L76.2258 11.8981C75.9075 11.0797 74.9622 10.498 73.8336 10.498C72.3963 10.498 70.3996 11.7995 70.4671 14.3435Z" fill="white"/>
<path d="M63.5039 1.24902H66.2819V20.5358H63.5039V1.24902Z" fill="white"/>
<path d="M59.1262 8.4767H61.8078V20.1908C61.8078 25.0519 59.0008 27.0536 55.6826 27.0536C52.5573 27.0536 50.6763 24.904 49.9722 23.1587L52.4319 22.1135C52.8756 23.1883 53.9463 24.4603 55.6826 24.4603C57.8144 24.4603 59.1262 23.1094 59.1262 20.5852V19.6386H59.0298C58.3931 20.4274 57.1777 21.1374 55.6344 21.1374C52.4126 21.1374 49.4609 18.268 49.4609 14.5704C49.4609 10.853 52.4126 7.9541 55.6344 7.9541C57.1681 7.9541 58.3931 8.65419 59.0298 9.42329H59.1262V8.4767ZM59.3191 14.5704C59.3191 12.2433 57.8047 10.5474 55.8755 10.5474C53.927 10.5474 52.2872 12.2433 52.2872 14.5704C52.2872 16.8678 53.927 18.5342 55.8755 18.5342C57.8047 18.5441 59.3191 16.8678 59.3191 14.5704Z" fill="white"/>
<path d="M34.2093 14.5214C34.2093 18.3176 31.3155 21.1081 27.7658 21.1081C24.2161 21.1081 21.3223 18.3077 21.3223 14.5214C21.3223 10.7054 24.2161 7.9248 27.7658 7.9248C31.3155 7.9248 34.2093 10.7054 34.2093 14.5214ZM31.3927 14.5214C31.3927 12.1549 29.7143 10.5279 27.7658 10.5279C25.8173 10.5279 24.1389 12.1549 24.1389 14.5214C24.1389 16.8681 25.8173 18.5148 27.7658 18.5148C29.7143 18.5148 31.3927 16.8681 31.3927 14.5214Z" fill="white"/>
<path d="M48.2835 14.5506C48.2835 18.3468 45.3897 21.1373 41.84 21.1373C38.2903 21.1373 35.3965 18.3468 35.3965 14.5506C35.3965 10.7346 38.2903 7.96387 41.84 7.96387C45.3897 7.96387 48.2835 10.7248 48.2835 14.5506ZM45.4572 14.5506C45.4572 12.1841 43.7788 10.5571 41.8304 10.5571C39.8819 10.5571 38.2035 12.1841 38.2035 14.5506C38.2035 16.8973 39.8819 18.544 41.8304 18.544C43.7885 18.544 45.4572 16.8875 45.4572 14.5506Z" fill="white"/>
<path d="M10.731 18.2485C6.68929 18.2485 3.52541 14.9157 3.52541 10.7842C3.52541 6.65275 6.68929 3.31996 10.731 3.31996C12.9109 3.31996 14.5025 4.19753 15.6793 5.32161L17.6182 3.33968C15.9784 1.73245 13.7887 0.509766 10.731 0.509766C5.19417 0.509766 0.535156 5.1244 0.535156 10.7842C0.535156 16.4441 5.19417 21.0587 10.731 21.0587C13.7212 21.0587 15.9784 20.053 17.7436 18.1795C19.557 16.3257 20.1165 13.7226 20.1165 11.6125C20.1165 10.9519 20.0393 10.2715 19.9525 9.76862H10.731V12.5098H17.2999C17.107 14.2255 16.5764 15.3989 15.7951 16.1976C14.8498 17.1737 13.3547 18.2485 10.731 18.2485Z" fill="white"/>
</g>
</svg>
