<svg width="61" height="21" viewBox="0 0 61 21" fill="none" xmlns="http://www.w3.org/2000/svg">
<g opacity="0.7" clip-path="url(#clip0_3960_7066)">
<path d="M4.24123 14.9028C4.4925 15.5471 4.84038 16.098 5.28493 16.5554C5.72948 17.013 6.25614 17.3631 6.86492 17.6059C7.47375 17.8487 8.1357 17.97 8.85083 17.97C9.54665 17.97 10.1989 17.8439 10.8078 17.5918C11.4166 17.3397 11.9481 16.9849 12.4022 16.5274C12.8564 16.0699 13.2092 15.5237 13.4604 14.8888C13.7117 14.2539 13.8373 13.5443 13.8373 12.76V0.65918H16.8814V20.2669H13.8663V18.4461C13.1899 19.137 12.3925 19.6693 11.4745 20.0428C10.5564 20.4163 9.56596 20.603 8.50295 20.603C7.42057 20.603 6.41074 20.4209 5.47334 20.0568C4.536 19.6926 3.7242 19.1745 3.03813 18.5022C2.35206 17.8299 1.81083 17.0223 1.41465 16.0792C1.0184 15.1362 0.820312 14.0858 0.820312 12.928V0.65918H3.86436V12.76C3.86436 13.5443 3.98996 14.2585 4.24123 14.9028Z" fill="white"/>
<path d="M22.1273 0.65918V7.80197C22.8037 7.14839 23.5865 6.63023 24.4756 6.24738C25.3646 5.86453 26.331 5.67313 27.3747 5.67313C28.457 5.67313 29.4716 5.86918 30.4187 6.26133C31.3657 6.65348 32.1871 7.1857 32.8829 7.858C33.5787 8.5303 34.1296 9.3239 34.5354 10.2389C34.9413 11.154 35.1442 12.125 35.1442 13.1521C35.1442 14.1791 34.9413 15.1455 34.5354 16.0512C34.1296 16.9569 33.5787 17.7459 32.8829 18.4181C32.1871 19.0904 31.3657 19.6226 30.4187 20.0147C29.4716 20.4069 28.457 20.6029 27.3747 20.6029C26.331 20.6029 25.3598 20.4115 24.4611 20.0287C23.5624 19.6459 22.7747 19.1277 22.0983 18.4741V20.2668H19.1992V0.65918H22.1273ZM22.4607 15.0848C22.7216 15.6824 23.084 16.2053 23.5479 16.6535C24.0117 17.1017 24.5529 17.4565 25.1713 17.7179C25.7899 17.9794 26.4566 18.1101 27.1717 18.1101C27.8676 18.1101 28.5246 17.9794 29.1431 17.7179C29.7616 17.4565 30.2978 17.1017 30.7521 16.6535C31.2063 16.2054 31.5687 15.6824 31.8393 15.0848C32.1099 14.4873 32.2451 13.8431 32.2451 13.1521C32.2451 12.4612 32.1099 11.8122 31.8393 11.2053C31.5687 10.5984 31.2063 10.0709 30.7521 9.6227C30.2979 9.17459 29.7616 8.8244 29.1431 8.57232C28.5246 8.32025 27.8675 8.19412 27.1717 8.19412C26.476 8.19412 25.8189 8.32019 25.2004 8.57232C24.5819 8.82446 24.0408 9.17459 23.5769 9.6227C23.1131 10.0709 22.7458 10.5984 22.4752 11.2053C22.2047 11.8122 22.0694 12.4612 22.0694 13.1521C22.0693 13.8431 22.1998 14.4873 22.4607 15.0848Z" fill="white"/>
<path d="M36.7985 10.2669C37.185 9.37053 37.7166 8.58158 38.3929 7.89998C39.0693 7.21839 39.8715 6.68151 40.7992 6.28936C41.7269 5.89722 42.732 5.70117 43.8143 5.70117C44.8773 5.70117 45.863 5.88792 46.7714 6.26135C47.6797 6.63484 48.4625 7.15306 49.1196 7.816C49.7768 8.47888 50.289 9.26324 50.6561 10.1689C51.0234 11.0746 51.207 12.0597 51.207 13.1241V14.0485H39.1757C39.2724 14.6274 39.4657 15.1643 39.7556 15.659C40.0455 16.1539 40.4079 16.5834 40.8427 16.9475C41.2776 17.3117 41.7704 17.5965 42.3213 17.8019C42.8721 18.0073 43.4567 18.1101 44.0752 18.1101C45.8341 18.1101 47.2546 17.4097 48.337 16.0092L50.4533 17.5217C49.7188 18.4741 48.8105 19.2211 47.7282 19.7626C46.6458 20.3042 45.4282 20.5749 44.0753 20.5749C42.9736 20.5749 41.9445 20.3881 40.9878 20.0147C40.031 19.6413 39.2 19.1183 38.4946 18.446C37.7891 17.7737 37.2335 16.9848 36.8276 16.0791C36.4217 15.1735 36.2188 14.1884 36.2188 13.124C36.2186 12.1156 36.412 11.1632 36.7985 10.2669ZM40.8717 9.16041C40.0503 9.82335 39.5043 10.7057 39.2337 11.8075H48.25C47.9987 10.7057 47.4623 9.82335 46.6409 9.16041C45.8195 8.49753 44.858 8.16606 43.7563 8.16606C42.6547 8.16606 41.6931 8.49753 40.8717 9.16041Z" fill="white"/>
<path d="M56.684 9.48259C56.0655 10.1362 55.7563 11.0232 55.7563 12.1437V20.2669H52.8281V5.98126H55.7272V7.74596C56.0944 7.16707 56.5728 6.70953 57.1623 6.37341C57.7517 6.03723 58.4524 5.86914 59.2642 5.86914H60.2788V8.50219H59.0612C58.0949 8.50225 57.3024 8.82901 56.684 9.48259Z" fill="white"/>
</g>
<defs>
<clipPath id="clip0_3960_7066">
<rect width="59.4598" height="19.9438" fill="white" transform="translate(0.820312 0.65918)"/>
</clipPath>
</defs>
</svg>
