<svg width="195" height="87" viewBox="0 0 195 87" fill="none" xmlns="http://www.w3.org/2000/svg">
<path d="M3.64201 72.7088H9.91661C10.8333 72.7088 11.7118 72.3456 12.3609 71.6985C13.01 71.0518 13.3756 70.1743 13.3785 69.2576V49.2333C13.3756 48.3161 13.01 47.4372 12.3614 46.7886C11.7128 46.14 10.8342 45.7744 9.91673 45.7715H3.64213C2.72595 45.7744 1.8484 46.1405 1.20128 46.7891C0.554591 47.4382 0.191406 48.3171 0.191406 49.2334V69.2577C0.191406 70.1734 0.555073 71.051 1.20224 71.6981C1.84941 72.3452 2.72685 72.7088 3.64201 72.7088Z" fill="#FFEEDA"/>
<path d="M45.9201 69.2581V38.167C45.9172 37.2508 45.5511 36.3728 44.902 35.7262C44.2534 35.079 43.3745 34.7158 42.4582 34.7158H36.1836C35.2679 34.7158 34.3904 35.0795 33.7433 35.7267C33.0961 36.3738 32.7324 37.2518 32.7324 38.167V69.2581C32.7324 70.1738 33.0961 71.0514 33.7433 71.6985C34.3904 72.3456 35.268 72.7093 36.1836 72.7093H42.4582C43.3744 72.7093 44.2534 72.3461 44.902 71.699C45.5511 71.0523 45.9172 70.1748 45.9201 69.2581Z" fill="#FFEEDA"/>
<path d="M19.9141 40.2442C18.9989 40.2442 18.1208 40.6074 17.4737 41.2545C16.8266 41.9022 16.4629 42.7797 16.4629 43.6949V69.2582C16.4629 70.1738 16.8266 71.0514 17.4737 71.6985C18.1209 72.3456 18.9989 72.7093 19.9141 72.7093H26.1887C27.1049 72.7093 27.9839 72.3462 28.633 71.699C29.2816 71.0523 29.6477 70.1748 29.6506 69.2581V43.6949C29.6477 42.7787 29.2816 41.9011 28.633 41.254C27.9839 40.6073 27.105 40.2441 26.1887 40.2441L19.9141 40.2442Z" fill="#FFEEDA"/>
<path d="M42.2311 18.6075L41.4308 17.1035C41.2096 16.6771 40.8619 16.3294 40.4354 16.1082C39.8742 15.8044 39.214 15.7382 38.6041 15.9256C37.9937 16.1125 37.4841 16.537 37.1899 17.1035L36.4003 18.6075L34.68 18.9103C34.1082 19.0151 33.5943 19.3247 33.2346 19.7811C32.8748 20.2374 32.6932 20.8093 32.7241 21.3898C32.7555 21.9703 32.997 22.5195 33.4036 22.9348L34.626 24.1354L34.3661 25.877C34.2947 26.3619 34.3739 26.8564 34.5936 27.2945C34.8723 27.8576 35.3683 28.2831 35.9676 28.4734C36.2091 28.5497 36.4607 28.5898 36.7138 28.5927C37.0905 28.5961 37.4619 28.5072 37.7956 28.3328L39.3425 27.5538L40.8895 28.3328C41.3869 28.5893 41.9597 28.6603 42.5046 28.5333C43.0493 28.4067 43.5318 28.0899 43.8651 27.6408C44.235 27.1322 44.3939 26.5 44.3084 25.877L44.0486 24.1354L45.2492 22.9348C45.5834 22.5846 45.8094 22.1446 45.8988 21.669C46.005 21.0416 45.8573 20.3983 45.4873 19.8805C45.1179 19.3628 44.5576 19.0136 43.9297 18.9103L42.2311 18.6075Z" fill="#FB5741"/>
<path d="M49.9996 22.2104C49.9996 22.8078 49.5157 23.2922 48.9178 23.2922C48.3203 23.2922 47.8359 22.8078 47.8359 22.2104C47.8359 21.613 48.3203 21.1285 48.9178 21.1285C49.5157 21.1285 49.9996 21.613 49.9996 22.2104Z" fill="#FB5741"/>
<path d="M30.6578 22.2104C30.6578 22.8078 30.1734 23.2922 29.576 23.2922C28.9786 23.2922 28.4941 22.8078 28.4941 22.2104C28.4941 21.613 28.9786 21.1285 29.576 21.1285C30.1734 21.1285 30.6578 21.613 30.6578 22.2104Z" fill="#FB5741"/>
<path d="M47.1637 15.3726C47.1637 15.97 46.6792 16.4544 46.0818 16.4544C45.4839 16.4544 45 15.97 45 15.3726C45 14.7752 45.4839 14.2908 46.0818 14.2908C46.6792 14.2908 47.1637 14.7752 47.1637 15.3726Z" fill="#FB5741"/>
<path d="M33.4898 29.0475C33.4898 29.6449 33.0054 30.1294 32.408 30.1294C31.8106 30.1294 31.3262 29.6449 31.3262 29.0475C31.3262 28.4496 31.8106 27.9657 32.408 27.9657C33.0054 27.9657 33.4898 28.4496 33.4898 29.0475Z" fill="#FB5741"/>
<path d="M47.1637 29.0475C47.1637 29.6449 46.6792 30.1294 46.0818 30.1294C45.4839 30.1294 45 29.6449 45 29.0475C45 28.4496 45.4839 27.9657 46.0818 27.9657C46.6792 27.9657 47.1637 28.4496 47.1637 29.0475Z" fill="#FB5741"/>
<path d="M33.4898 15.3726C33.4898 15.97 33.0054 16.4544 32.408 16.4544C31.8106 16.4544 31.3262 15.97 31.3262 15.3726C31.3262 14.7752 31.8106 14.2908 32.408 14.2908C33.0054 14.2908 33.4898 14.7752 33.4898 15.3726Z" fill="#FB5741"/>
<path d="M1.46823 33.6233C0.974645 33.4345 0.417313 33.6301 0.149267 34.085C-0.118297 34.5405 -0.018324 35.1229 0.386403 35.4625C3.04263 37.7677 6.43252 39.0523 9.95001 39.0865C15.2186 39.0865 19.6865 36.1762 21.9148 34.4023L22.9102 35.3001C23.3656 35.7169 23.9702 35.9318 24.5869 35.8951C25.1964 35.8531 25.7649 35.5735 26.1696 35.1161C26.5748 34.6583 26.783 34.0599 26.7506 33.4498L26.3613 26.2234C26.3222 25.4666 25.9866 24.7557 25.4283 24.2437C24.87 23.7317 24.1325 23.4598 23.3753 23.4864L16.1488 23.865C15.5287 23.8945 14.9457 24.1708 14.5304 24.6325C14.115 25.0937 13.9016 25.7022 13.9373 26.3223C13.973 26.942 14.2551 27.522 14.7206 27.9325L15.8025 28.8955C9.09514 36.3925 1.739 33.7421 1.46823 33.6233Z" fill="#FFEEDA"/>
<path d="M83.36 21.024C86.368 21.024 89.0773 21.7387 91.488 23.168C93.8987 24.576 95.7973 26.5387 97.184 29.056C98.592 31.552 99.296 34.432 99.296 37.696V51.744C99.296 55.2213 98.592 58.2613 97.184 60.864C95.7973 63.4453 93.8453 65.44 91.328 66.848C88.8107 68.256 85.8667 68.96 82.496 68.96C80.1707 68.96 77.9733 68.5653 75.904 67.776C73.8347 66.9653 71.9787 65.728 70.336 64.064L75.872 58.656C76.704 59.616 77.696 60.3733 78.848 60.928C80.0213 61.4613 81.2373 61.728 82.496 61.728C84.288 61.728 85.856 61.312 87.2 60.48C88.544 59.6267 89.5893 58.528 90.336 57.184C91.0827 55.8187 91.456 54.3573 91.456 52.8V45.152L92.832 46.688C91.5307 48.224 89.952 49.4293 88.096 50.304C86.24 51.1573 84.288 51.584 82.24 51.584C79.36 51.584 76.8 50.9227 74.56 49.6C72.3413 48.2773 70.592 46.4853 69.312 44.224C68.0533 41.9413 67.424 39.36 67.424 36.48C67.424 33.6 68.1493 30.9973 69.6 28.672C71.0507 26.3253 72.9813 24.4693 75.392 23.104C77.824 21.7173 80.48 21.024 83.36 21.024ZM83.36 28.384C81.8667 28.384 80.5013 28.7467 79.264 29.472C78.0267 30.1973 77.0453 31.1787 76.32 32.416C75.5947 33.632 75.232 34.9867 75.232 36.48C75.232 37.9733 75.584 39.3387 76.288 40.576C77.0133 41.8133 77.984 42.7947 79.2 43.52C80.4373 44.2453 81.8027 44.608 83.296 44.608C84.7893 44.608 86.1547 44.2453 87.392 43.52C88.6293 42.7947 89.6107 41.8133 90.336 40.576C91.0827 39.3387 91.456 37.9733 91.456 36.48C91.456 35.0293 91.0933 33.696 90.368 32.48C89.6427 31.2427 88.6613 30.2507 87.424 29.504C86.208 28.7573 84.8533 28.384 83.36 28.384ZM119.91 21.024C122.918 21.024 125.627 21.7387 128.038 23.168C130.449 24.576 132.347 26.5387 133.734 29.056C135.142 31.552 135.846 34.432 135.846 37.696V51.744C135.846 55.2213 135.142 58.2613 133.734 60.864C132.347 63.4453 130.395 65.44 127.878 66.848C125.361 68.256 122.417 68.96 119.046 68.96C116.721 68.96 114.523 68.5653 112.454 67.776C110.385 66.9653 108.529 65.728 106.886 64.064L112.422 58.656C113.254 59.616 114.246 60.3733 115.398 60.928C116.571 61.4613 117.787 61.728 119.046 61.728C120.838 61.728 122.406 61.312 123.75 60.48C125.094 59.6267 126.139 58.528 126.886 57.184C127.633 55.8187 128.006 54.3573 128.006 52.8V45.152L129.382 46.688C128.081 48.224 126.502 49.4293 124.646 50.304C122.79 51.1573 120.838 51.584 118.79 51.584C115.91 51.584 113.35 50.9227 111.11 49.6C108.891 48.2773 107.142 46.4853 105.862 44.224C104.603 41.9413 103.974 39.36 103.974 36.48C103.974 33.6 104.699 30.9973 106.15 28.672C107.601 26.3253 109.531 24.4693 111.942 23.104C114.374 21.7173 117.03 21.024 119.91 21.024ZM119.91 28.384C118.417 28.384 117.051 28.7467 115.814 29.472C114.577 30.1973 113.595 31.1787 112.87 32.416C112.145 33.632 111.782 34.9867 111.782 36.48C111.782 37.9733 112.134 39.3387 112.838 40.576C113.563 41.8133 114.534 42.7947 115.75 43.52C116.987 44.2453 118.353 44.608 119.846 44.608C121.339 44.608 122.705 44.2453 123.942 43.52C125.179 42.7947 126.161 41.8133 126.886 40.576C127.633 39.3387 128.006 37.9733 128.006 36.48C128.006 35.0293 127.643 33.696 126.918 32.48C126.193 31.2427 125.211 30.2507 123.974 29.504C122.758 28.7573 121.403 28.384 119.91 28.384ZM147.98 68L142.86 62.88L183.852 21.92L188.972 27.072L147.98 68ZM179.372 68.96C177.26 68.96 175.329 68.448 173.58 67.424C171.852 66.3787 170.465 64.992 169.42 63.264C168.375 61.5147 167.852 59.5733 167.852 57.44C167.852 55.3493 168.385 53.4293 169.452 51.68C170.519 49.9307 171.927 48.5333 173.676 47.488C175.425 46.4427 177.324 45.92 179.372 45.92C181.484 45.92 183.415 46.4427 185.164 47.488C186.913 48.512 188.3 49.8987 189.324 51.648C190.369 53.376 190.892 55.3067 190.892 57.44C190.892 59.5733 190.369 61.5147 189.324 63.264C188.3 64.992 186.913 66.3787 185.164 67.424C183.415 68.448 181.484 68.96 179.372 68.96ZM179.372 62.368C180.247 62.368 181.057 62.144 181.804 61.696C182.572 61.248 183.18 60.6507 183.628 59.904C184.076 59.1573 184.3 58.336 184.3 57.44C184.3 56.544 184.076 55.7227 183.628 54.976C183.18 54.2293 182.572 53.632 181.804 53.184C181.057 52.736 180.247 52.512 179.372 52.512C178.476 52.512 177.655 52.736 176.908 53.184C176.161 53.632 175.553 54.2293 175.084 54.976C174.636 55.7227 174.412 56.544 174.412 57.44C174.412 58.336 174.636 59.1573 175.084 59.904C175.553 60.6507 176.161 61.248 176.908 61.696C177.655 62.144 178.476 62.368 179.372 62.368ZM152.46 44C150.348 44 148.417 43.488 146.668 42.464C144.919 41.4187 143.521 40.032 142.476 38.304C141.452 36.5547 140.94 34.6133 140.94 32.48C140.94 30.3893 141.473 28.4693 142.54 26.72C143.607 24.9707 145.015 23.5733 146.764 22.528C148.513 21.4827 150.412 20.96 152.46 20.96C154.572 20.96 156.492 21.4827 158.22 22.528C159.969 23.552 161.367 24.9387 162.412 26.688C163.457 28.416 163.98 30.3467 163.98 32.48C163.98 34.6133 163.457 36.5547 162.412 38.304C161.367 40.032 159.969 41.4187 158.22 42.464C156.492 43.488 154.572 44 152.46 44ZM152.46 37.408C153.356 37.408 154.177 37.184 154.924 36.736C155.671 36.288 156.268 35.6907 156.716 34.944C157.164 34.1973 157.388 33.376 157.388 32.48C157.388 31.584 157.164 30.7627 156.716 30.016C156.268 29.2693 155.671 28.672 154.924 28.224C154.177 27.776 153.356 27.552 152.46 27.552C151.564 27.552 150.743 27.776 149.996 28.224C149.249 28.672 148.652 29.2693 148.204 30.016C147.756 30.7627 147.532 31.584 147.532 32.48C147.532 33.376 147.756 34.1973 148.204 34.944C148.652 35.6907 149.249 36.288 149.996 36.736C150.743 37.184 151.564 37.408 152.46 37.408Z" fill="#FFEEDA"/>
</svg>
