<svg width="33" height="38" viewBox="0 0 33 38" fill="none" xmlns="http://www.w3.org/2000/svg">
<path d="M20.0144 33.1006C20.2964 33.6575 20.4355 34.2592 20.4355 34.8863V37.4466C20.4355 37.7526 20.1903 38 19.8864 38H13.1134C12.8097 38 12.5642 37.7529 12.5642 37.4466V34.8863C12.5642 34.2663 12.7109 33.6467 12.9853 33.0968C13.659 31.7539 15.006 30.9203 16.4998 30.9203C16.8291 30.9203 17.155 30.961 17.4736 31.042C18.5725 31.3221 19.502 32.0709 20.0144 33.1006ZM16.5 25.3233C17.2253 25.3233 17.904 25.6084 18.4125 26.125C18.9169 26.636 19.1954 27.3161 19.1954 28.0395C19.1954 28.7825 18.8888 29.5018 18.3546 30.0116C17.8514 30.4925 17.1923 30.7576 16.5003 30.7576C15.0139 30.7576 13.8045 29.5383 13.8045 28.0391C13.8042 26.5418 15.0136 25.3233 16.5 25.3233ZM17.6333 26.905C17.3317 26.5984 16.9298 26.4299 16.5 26.4299C15.6194 26.4299 14.9028 27.1518 14.9028 28.0395C14.9028 28.9277 15.6191 29.6508 16.5 29.6508C16.91 29.6508 17.3007 29.4938 17.5989 29.2084C17.9157 28.9063 18.0972 28.4801 18.0972 28.0392C18.0972 27.6109 17.9323 27.2081 17.6333 26.905ZM12.5644 12.1233C12.5644 12.4293 12.8096 12.6767 13.1136 12.6767H19.8863C20.1899 12.6767 20.4354 12.4296 20.4354 12.1233V9.56298C20.4354 8.93594 20.2963 8.33423 20.0143 7.77726C19.5019 6.74794 18.5717 5.99894 17.4737 5.71853C17.1551 5.63754 16.8293 5.59689 16.4999 5.59689C15.0061 5.59689 13.6588 6.43072 12.9855 7.77724C12.711 8.32329 12.5643 8.94296 12.5643 9.56296L12.5644 12.1233ZM13.8041 2.71665C13.8041 1.21843 15.0135 0 16.4999 0C17.2247 0 17.9039 0.285093 18.4122 0.801703C18.9166 1.31269 19.1951 1.99276 19.1951 2.71612C19.1951 3.45979 18.8885 4.17869 18.3543 4.68822C17.8511 5.16918 17.1926 5.43395 16.5 5.43395C15.0136 5.43454 13.8041 4.21518 13.8041 2.71665ZM14.9028 2.71665C14.9028 3.60491 15.6191 4.32797 16.5 4.32797C16.91 4.32797 17.3007 4.171 17.5989 3.88589C17.9157 3.58372 18.0972 3.15754 18.0972 2.71663C18.0972 2.2881 17.9326 1.88522 17.6331 1.58212C17.3318 1.27494 16.9293 1.10647 16.5 1.10647C15.6194 1.10647 14.9028 1.8287 14.9028 2.71665ZM7.8711 24.7855V22.2253C7.8711 21.5982 7.73198 20.9965 7.44996 20.4395C6.93763 19.4102 6.0074 18.6612 4.90938 18.3808C4.59082 18.2998 4.26495 18.2592 3.93555 18.2592C2.44182 18.2592 1.0945 19.093 0.421141 20.4395C0.14671 20.9856 0 21.6052 0 22.2252V24.7855C0 25.0915 0.2452 25.3389 0.549146 25.3389H7.32186C7.62552 25.3389 7.8711 25.0915 7.8711 24.7855ZM1.24039 15.3782C1.24039 13.8802 2.44944 12.6615 3.93614 12.6615C4.66094 12.6615 5.34017 12.9466 5.8484 13.4632C6.35313 13.9745 6.63197 14.6549 6.63197 15.3776C6.63197 16.1213 6.32539 16.8402 5.79117 17.3497C5.2879 17.8307 4.62888 18.0958 3.93681 18.0958C2.44951 18.0966 1.24039 16.877 1.24039 15.3782ZM2.33841 15.3782C2.33841 16.267 3.05473 16.9898 3.93562 16.9898C4.34565 16.9898 4.73639 16.8328 5.03454 16.5474C5.35135 16.2452 5.53284 15.8191 5.53284 15.3782C5.53284 14.9496 5.36772 14.5467 5.06874 14.2436C4.76742 13.9371 4.36528 13.7686 3.93592 13.7686C3.0551 13.7686 2.33841 14.4907 2.33841 15.3782ZM32.5789 20.4395C32.0666 19.4102 31.1364 18.6612 30.0384 18.3808C29.7198 18.2998 29.3939 18.2592 29.0645 18.2592C27.5708 18.2592 26.2235 19.093 25.5501 20.4357C25.2757 20.9855 25.129 21.6052 25.129 22.2252V24.7854C25.129 25.0914 25.3742 25.3388 25.6781 25.3388H32.4509C32.7545 25.3388 33 25.0917 33 24.7854V22.2252C33 21.5975 32.8572 20.9965 32.5789 20.4395ZM29.0642 12.6623C29.789 12.6623 30.4683 12.9474 30.9765 13.464C31.4812 13.9753 31.7595 14.655 31.7595 15.3784C31.7595 16.1221 31.4529 16.841 30.9187 17.3505C30.4154 17.8315 29.7564 18.0965 29.0643 18.0965C27.5779 18.0965 26.3686 16.8772 26.3686 15.3781C26.3686 13.8807 27.5775 12.6623 29.0642 12.6623ZM27.467 15.3783C27.467 16.2672 28.1834 16.9899 29.0642 16.9899C29.4743 16.9899 29.865 16.833 30.1632 16.5476C30.48 16.2454 30.6615 15.8192 30.6615 15.3783C30.6615 14.9498 30.4969 14.5469 30.1974 14.2438C29.896 13.9372 29.4939 13.7687 29.0645 13.7687C28.1834 13.7687 27.467 14.4909 27.467 15.3783ZM11.3319 7.81217C11.4061 7.81217 11.4818 7.79656 11.5549 7.76446C11.8667 7.62456 12.1885 7.49733 12.5108 7.38452C12.7975 7.28439 12.9495 6.96954 12.8501 6.68062C12.7507 6.3917 12.4383 6.23825 12.1516 6.33868C11.7992 6.46149 11.4485 6.6008 11.1083 6.75336C10.8312 6.87735 10.7064 7.20428 10.8298 7.48378C10.9207 7.68965 11.1214 7.81217 11.3319 7.81217ZM9.42491 7.65814C8.88862 7.9989 8.37103 8.38178 7.88823 8.79649C7.65735 8.99441 7.6293 9.34371 7.82627 9.5764C7.9347 9.70511 8.0893 9.77108 8.24449 9.77108C8.37016 9.77108 8.49671 9.72749 8.60016 9.63884C9.04381 9.25831 9.51818 8.90725 10.0108 8.5942C10.2672 8.43133 10.3443 8.08969 10.1827 7.8308C10.0208 7.5728 9.68181 7.49498 9.42491 7.65814ZM5.52998 12.4382C5.62263 12.4995 5.72725 12.5286 5.83042 12.5286C6.00986 12.5286 6.18493 12.4403 6.29043 12.2783C6.60928 11.7873 6.96612 11.3154 7.35164 10.8752C7.55242 10.6461 7.5305 10.2965 7.30313 10.0941C7.07575 9.89184 6.72826 9.9139 6.52809 10.143C6.10841 10.6228 5.71916 11.1371 5.37163 11.6719C5.20534 11.9275 5.2766 12.2703 5.52998 12.4382ZM6.52977 26.0784C6.35471 25.8289 6.01247 25.7694 5.76438 25.9458C5.51684 26.1223 5.4578 26.4677 5.63287 26.7172C5.87661 27.0647 6.13993 27.4046 6.41434 27.7271C6.52277 27.8546 6.67649 27.92 6.8311 27.92C6.95764 27.92 7.08506 27.8761 7.18881 27.7863C7.41882 27.5875 7.44512 27.2379 7.24756 27.0061C6.99534 26.7101 6.75393 26.3982 6.52977 26.0784ZM12.8934 31.8749C13.1304 31.8749 13.3496 31.7188 13.42 31.4776C13.5054 31.1845 13.3397 30.8767 13.0483 30.7901C12.7341 30.6968 12.4211 30.5899 12.1177 30.4721C11.8798 30.3796 11.6416 30.2783 11.4101 30.1711C11.1348 30.0435 10.8084 30.1646 10.6815 30.4426C10.555 30.72 10.6751 31.049 10.951 31.1768C11.2032 31.2938 11.463 31.4045 11.7228 31.5052C12.054 31.6337 12.3953 31.7506 12.7381 31.8522C12.7895 31.8678 12.8422 31.8749 12.8934 31.8749ZM9.87704 29.3211C9.38897 29.0024 8.9187 28.6446 8.47974 28.2584C8.2509 28.0576 7.90458 28.0811 7.7047 28.3111C7.50538 28.5412 7.52876 28.8908 7.75702 29.0922C8.23544 29.5131 8.74745 29.903 9.27911 30.2502C9.37117 30.3106 9.47463 30.3392 9.5775 30.3392C9.75724 30.3392 9.93376 30.2502 10.0387 30.0868C10.2044 29.8299 10.1319 29.4872 9.87704 29.3211ZM27.2347 25.9455C26.9872 25.7691 26.6444 25.8289 26.4693 26.0786C26.1338 26.5578 25.7603 27.0167 25.3602 27.4437C25.1522 27.6658 25.1615 28.0163 25.3822 28.226C25.4883 28.3273 25.6239 28.3771 25.7592 28.3771C25.905 28.3771 26.0503 28.3193 26.1584 28.2039C26.5944 27.7391 27.001 27.2387 27.3668 26.7168C27.5413 26.4673 27.4826 26.1219 27.2347 25.9455ZM24.0696 28.6354C23.6125 29.0006 23.1265 29.3349 22.6247 29.6294C22.3625 29.7832 22.2737 30.1219 22.426 30.3861C22.5282 30.5631 22.7121 30.6614 22.9012 30.6614C22.995 30.6614 23.0903 30.637 23.1765 30.5863C23.7242 30.2653 24.254 29.901 24.7523 29.5028C24.9899 29.3128 25.0296 28.965 24.8411 28.7255C24.6523 28.4855 24.3071 28.4451 24.0696 28.6354ZM21.0526 30.4043C20.6934 30.5501 20.3229 30.68 19.95 30.7907C19.6589 30.8773 19.4929 31.1851 19.5782 31.4781C19.6486 31.7193 19.8672 31.8754 20.1048 31.8754C20.156 31.8754 20.2083 31.8684 20.2603 31.8528C20.6671 31.732 21.072 31.5901 21.4632 31.431C21.7447 31.3164 21.8806 30.9945 21.7675 30.7112C21.6544 30.4276 21.3341 30.2903 21.0526 30.4043ZM25.8658 10.2754C26.0794 10.0584 26.0783 9.70787 25.8629 9.49316C25.4125 9.04254 24.9259 8.62081 24.4171 8.23998C24.1736 8.05796 23.8296 8.10921 23.6487 8.35396C23.4678 8.59929 23.5184 8.94595 23.7624 9.12829C24.2294 9.47818 24.6763 9.86518 25.0898 10.2784C25.1971 10.3856 25.3371 10.4392 25.4765 10.4392C25.617 10.4386 25.7585 10.3844 25.8658 10.2754ZM26.7998 12.4198C26.9044 12.5856 27.0821 12.6766 27.2639 12.6766C27.3645 12.6766 27.4667 12.6486 27.5579 12.5906C27.8139 12.4269 27.8893 12.0849 27.7268 11.8269C27.5366 11.5253 27.3317 11.2273 27.1178 10.9416C26.9351 10.6974 26.5908 10.6494 26.3486 10.8332C26.1063 11.0173 26.0584 11.3642 26.241 11.6084C26.4374 11.869 26.625 12.1432 26.7998 12.4198ZM23.0297 7.95694C23.1738 7.68804 23.0744 7.35228 22.8076 7.20708C22.2482 6.90254 21.6628 6.63718 21.0674 6.41744C20.7816 6.3123 20.4674 6.45956 20.3631 6.74672C20.2588 7.03388 20.4055 7.35167 20.6898 7.45652C21.2358 7.65798 21.7724 7.90125 22.2853 8.18075C22.3683 8.22582 22.4574 8.24761 22.546 8.24761C22.7415 8.24732 22.9303 8.1422 23.0297 7.95694Z" fill="#181818"/>
</svg>
