<svg width="28" height="33" viewBox="0 0 28 33" fill="none" xmlns="http://www.w3.org/2000/svg">
<path d="M0.0403366 18.0086C0.115555 18.2205 0.29317 18.3844 0.518839 18.4391L2.53493 18.9447L2.08389 20.2978C2.0018 20.5438 2.06329 20.8103 2.24777 20.9948L2.45285 21.1999L2.24091 21.4187C1.98121 21.6853 1.98121 22.1157 2.24778 22.3823L3.40955 23.5303L3.40926 24.6032C3.40926 26.0041 4.46179 27.1658 5.84893 27.3094C6.68949 27.3984 7.50954 27.364 8.30236 27.3369C8.52116 27.33 8.73281 27.3231 8.94474 27.3163C10.3593 27.2888 11.0289 28.1909 11.3501 28.97C11.7466 29.913 11.931 30.9724 11.9104 32.1136C11.9036 32.3255 11.9994 32.5238 12.1633 32.6536C12.2863 32.756 12.4367 32.8109 12.5937 32.8109C12.6415 32.8109 12.6961 32.804 12.7442 32.7972L23.7673 30.3369C23.9724 30.2891 24.1432 30.1524 24.2321 29.9679C24.3211 29.7766 24.3211 29.5578 24.2252 29.3664C23.1933 27.2888 22.8515 25.4506 23.1864 23.756C23.1933 23.7151 23.2001 23.6808 23.2001 23.6399C23.2276 22.1912 24.0885 20.3324 25.9064 17.79C27.1912 15.9927 27.9088 14.0384 27.9906 12.1247C28.0864 9.90378 27.4506 7.71694 26.1043 5.6053C23.1115 1.03341 17.9037 -0.832291 11.4736 0.343245C6.91543 1.17699 3.47808 4.6555 2.92454 9.00143L2.91081 9.10382C2.90395 9.14472 2.90395 9.1859 2.91081 9.2268L3.17051 13.1495L0.136231 17.3659C-0.00705885 17.5572 -0.0345152 17.7894 0.040703 18.0082L0.0403366 18.0086ZM4.41402 13.751C4.50983 13.6212 4.55073 13.4639 4.54387 13.3069L4.27044 9.19971V9.17225C4.74894 5.42064 7.74206 2.41345 11.7124 1.68265C17.5757 0.60984 22.2846 2.2704 24.9703 6.33639C26.1592 8.19521 26.7198 10.1155 26.6377 12.0495C26.5693 13.6963 25.9338 15.405 24.8063 16.9835C22.8451 19.7307 21.9019 21.8151 21.8472 23.5372C21.5192 25.2936 21.7789 27.1455 22.6535 29.1682L13.2705 31.2593C13.2021 30.248 12.9902 29.2981 12.6212 28.4232C11.9583 26.831 10.6532 25.9289 9.03348 25.9289H8.92422C8.70542 25.9358 8.48691 25.9427 8.26125 25.9495C7.51646 25.977 6.74422 26.0041 5.99914 25.9289C5.29526 25.8606 4.78274 25.2934 4.78274 24.5826V23.2158C4.78274 23.0313 4.70753 22.8606 4.57767 22.7307L3.69618 21.8561L3.90812 21.6373C4.16782 21.3707 4.16782 20.9403 3.90125 20.6806L3.51856 20.2979L4.06513 18.6511C4.12662 18.4735 4.10603 18.2753 4.01737 18.1045C3.92842 17.9406 3.7714 17.8174 3.58692 17.7696L1.83053 17.3323L4.41402 13.751Z" fill="#181818"/>
<path d="M7.99568 17.3599C8.1733 17.4076 8.35091 17.4282 8.52881 17.4282C8.88404 17.4282 9.23269 17.3324 9.54699 17.1548C10.0186 16.8814 10.3601 16.4372 10.5037 15.9109C10.5858 15.6035 10.5858 15.2891 10.5311 14.9882L11.7338 14.2366C12.2326 14.7288 12.916 15.0363 13.6676 15.0363C14.4329 15.0363 15.1162 14.7219 15.6153 14.2163L18.1711 15.6924C18.1165 15.9861 18.1234 16.2939 18.1986 16.5944C18.3422 17.1207 18.6771 17.5649 19.1553 17.8383C19.4765 18.0228 19.8317 18.1117 20.1735 18.1117C20.8842 18.1117 21.5744 17.7428 21.9502 17.0867C22.5174 16.1093 22.1756 14.852 21.1985 14.2848C20.4263 13.8407 19.4902 13.9637 18.8478 14.5036L16.2851 13.0275C16.3466 12.7953 16.3944 12.5559 16.3944 12.3031C16.3944 11.0321 15.5198 9.97265 14.3443 9.6652V8.07297C15.1371 7.79268 15.7111 7.04102 15.7111 6.14584C15.7111 5.01841 14.7884 4.0957 13.661 4.0957C12.5336 4.0957 11.6108 5.01841 11.6108 6.14584C11.6108 7.03421 12.1849 7.78581 12.9777 8.07297V9.6652C11.8022 9.97266 10.9276 11.0321 10.9276 12.3031C10.9276 12.5628 10.9753 12.8087 11.0437 13.0479L9.82729 13.8063C9.1849 13.2732 8.25563 13.1571 7.48998 13.6013C6.51265 14.1684 6.17774 15.426 6.73831 16.4031C7.02518 16.8816 7.46249 17.2162 7.99563 17.3598L7.99568 17.3599ZM19.5856 15.7199C19.7154 15.5011 19.9408 15.3781 20.1802 15.3781C20.2963 15.3781 20.4124 15.4056 20.522 15.4671C20.85 15.6584 20.9593 16.0754 20.7748 16.4032C20.5835 16.7312 20.1665 16.8405 19.8387 16.656C19.6814 16.5671 19.5653 16.4169 19.5175 16.2393C19.4695 16.0614 19.4966 15.8769 19.5856 15.7199L19.5856 15.7199ZM13.6674 5.4692C14.0432 5.4692 14.3507 5.77666 14.3507 6.15248C14.3507 6.5283 14.0432 6.83576 13.6674 6.83576C13.2916 6.83576 12.9841 6.5283 12.9841 6.15248C12.9841 5.77666 13.2916 5.4692 13.6674 5.4692ZM13.6674 10.936C14.4191 10.936 15.0343 11.551 15.0343 12.3029C15.0343 13.0546 14.4193 13.6698 13.6674 13.6698C12.9157 13.6698 12.3005 13.0548 12.3005 12.3029C12.3008 11.5512 12.9157 10.936 13.6674 10.936ZM8.17998 14.7904C8.50803 14.599 8.92476 14.7152 9.11608 15.0432C9.20503 15.2005 9.2322 15.385 9.18444 15.5626C9.13668 15.7402 9.02714 15.8838 8.86325 15.9793C8.70595 16.0752 8.52146 16.0955 8.34385 16.0477C8.16623 15.9999 8.02266 15.8904 7.92713 15.7265C7.74265 15.3919 7.85877 14.9748 8.17996 14.7904L8.17998 14.7904Z" fill="#FB5741"/>
</svg>
