<svg width="30" height="38" viewBox="0 0 30 38" fill="none" xmlns="http://www.w3.org/2000/svg">
<path d="M18.5564 18.0962C18.228 17.8407 17.7549 17.8992 17.4986 18.227L14.1154 22.5648L12.5093 21.1624V21.1621C12.1957 20.8885 11.7195 20.9209 11.4458 21.2345C11.1718 21.548 11.2043 22.0239 11.5179 22.2979L13.7238 24.2241C13.8611 24.3438 14.0374 24.4099 14.2195 24.4099C14.2433 24.4099 14.2672 24.4087 14.2913 24.4065H14.2916C14.4975 24.3868 14.6865 24.2832 14.8139 24.1196L18.6872 19.1538C18.9433 18.8257 18.8848 18.3523 18.5564 18.0963L18.5564 18.0962Z" fill="#FB5741"/>
<path d="M15.1922 14.3439C13.3434 14.3439 11.5703 15.0783 10.2628 16.3857C8.9554 17.6931 8.2207 19.4662 8.2207 21.3151C8.2207 23.1642 8.95511 24.9374 10.2625 26.2447C11.5699 27.5521 13.3433 28.2865 15.1921 28.2865C17.041 28.2865 18.8141 27.5521 20.1215 26.2447C21.429 24.9373 22.1633 23.1642 22.1633 21.3153C22.1615 19.467 21.4262 17.6949 20.1194 16.3881C18.8123 15.0813 17.0404 14.346 15.1922 14.3439ZM15.1922 26.7794C13.7432 26.7797 12.3533 26.2039 11.3287 25.1791C10.304 24.1547 9.72818 22.7647 9.72818 21.3156C9.72818 19.8666 10.3036 18.4767 11.3284 17.4518C12.3532 16.4271 13.7429 15.8516 15.1922 15.8516C16.6413 15.8516 18.0309 16.427 19.0557 17.4518C20.0804 18.4766 20.6563 19.8663 20.6563 21.3156C20.6544 22.764 20.0783 24.1531 19.0539 25.1772C18.0297 26.2016 16.641 26.7778 15.1923 26.7793L15.1922 26.7794Z" fill="#FB5741"/>
<path d="M26.2178 2.88711H21.209L20.9938 1.86632C20.8426 1.31126 20.5065 0.824237 20.0414 0.485346C19.5763 0.146748 19.0098 -0.023639 18.435 0.00264264H11.269C10.6942 -0.0233319 10.1277 0.147049 9.66228 0.485655C9.19721 0.824561 8.86141 1.31131 8.70958 1.86631L8.49435 2.8871H3.78178C1.69635 2.8871 0 4.34724 0 6.14199V35.1784C0 36.6411 1.36926 37.831 3.05239 37.831H26.9473C28.6304 37.831 29.9997 36.6411 29.9997 35.1784L30 6.14199C30 4.34755 28.3033 2.8871 26.2179 2.8871L26.2178 2.88711ZM11.2689 1.50985H18.4349C18.904 1.46935 19.3443 1.74054 19.5193 2.17747L20.1319 5.08421C20.4111 6.41079 21.7454 7.37403 23.3039 7.37403H24.0303C24.632 7.37403 25.1403 7.73397 25.1403 8.15977V8.80698C25.1403 9.23309 24.632 9.59273 24.0303 9.59273L5.8706 9.59242C5.26884 9.59242 4.76051 9.23278 4.76051 8.80667V8.15946C4.76051 7.73335 5.26888 7.37372 5.8706 7.37372H6.39968C7.9579 7.37372 9.29185 6.4108 9.57105 5.0839L10.1836 2.1778C10.359 1.74086 10.7993 1.46967 11.2687 1.50987L11.2689 1.50985ZM5.4261 11.0639C5.57329 11.0867 5.72172 11.0988 5.87076 11.0994H24.0304C24.2333 11.0988 24.4358 11.0775 24.6343 11.0354V32.2737H5.42658L5.4261 11.0639ZM28.4922 35.1788C28.4922 35.7995 27.7847 36.3239 26.947 36.3239H3.05204C2.21404 36.3239 1.50681 35.7998 1.50681 35.1788V6.1416C1.50681 5.17804 2.52728 4.39419 3.78144 4.39419H8.17648L8.09671 4.77267C7.96497 5.39576 7.23551 5.86581 6.39964 5.86581H5.87056C4.42712 5.86581 3.25332 6.8946 3.25332 8.15905V8.80625C3.25981 9.38265 3.50008 9.93185 3.91877 10.3285V33.0265C3.91877 33.4427 4.25613 33.7801 4.67234 33.7801H25.3881C25.8043 33.7801 26.1417 33.4427 26.1417 33.0265V10.156C26.4645 9.78025 26.6439 9.30189 26.6479 8.80649V8.15928C26.6479 6.89484 25.4738 5.86605 24.0307 5.86605H23.304C22.4676 5.86605 21.7381 5.39603 21.6067 4.77291L21.5269 4.39442H26.2179C27.4721 4.39442 28.4925 5.1783 28.4925 6.14184L28.4922 35.1788Z" fill="#181818"/>
<path d="M11.1833 7.0768H18.4074C18.8236 7.0768 19.1613 6.73913 19.1613 6.32291C19.1613 5.9067 18.8236 5.56934 18.4074 5.56934H11.1833C10.7671 5.56934 10.4297 5.9067 10.4297 6.32291C10.4297 6.73913 10.7671 7.0768 11.1833 7.0768Z" fill="#181818"/>
</svg>
