<svg width="34" height="34" viewBox="0 0 34 34" fill="none" xmlns="http://www.w3.org/2000/svg">
<path fill-rule="evenodd" clip-rule="evenodd" d="M22.3513 11.9817C20.3683 10.075 17.148 10.075 15.165 11.9817C13.182 13.8884 13.182 16.9849 15.165 18.8916C17.148 20.7983 20.3683 20.7983 22.3513 18.8916C24.3343 16.9849 24.3343 13.8884 22.3513 11.9817ZM20.5549 13.709C21.5465 14.6628 21.5465 16.2105 20.5549 17.1643C19.5629 18.1178 17.9534 18.1178 16.9614 17.1643C15.9698 16.2105 15.9698 14.6628 16.9614 13.709C17.9534 12.7555 19.5629 12.7555 20.5549 13.709Z" fill="#FB5741"/>
<path fill-rule="evenodd" clip-rule="evenodd" d="M7.88785 16.9676L14.0682 23.148C14.5522 23.6319 14.5522 24.4177 14.0682 24.902C13.584 25.3862 12.7979 25.3862 12.3139 24.902L5.44327 18.0313C5.04458 17.6326 4.96484 17.0143 5.25029 16.5278C8.20314 11.4798 12.6792 7.57138 17.2531 4.06565C19.1488 2.6126 22.5613 0.8749 24.9442 0.319482C27.0526 -0.171697 30.5276 0.0229472 32.6928 0.126773C33.3313 0.15806 33.8413 0.66834 33.8726 1.30657C33.9764 3.47147 34.1711 6.94652 33.6799 9.05521C33.1245 11.4383 31.3868 14.8508 29.9337 16.7464C26.4282 21.3207 22.5197 25.7964 17.4717 28.7493C16.8811 29.0954 16.1206 28.896 15.7747 28.3057C15.4292 27.7143 15.6283 26.954 16.2186 26.6085C20.9883 23.8176 24.6518 19.5587 27.9648 15.2372C29.2397 13.5729 30.7759 10.5832 31.2631 8.49193C31.6336 6.90294 31.5458 4.46204 31.45 2.54877C29.5369 2.45296 27.0959 2.3652 25.5069 2.73566C23.4157 3.22323 20.426 4.75907 18.7617 6.03407C14.6889 9.15613 10.6722 12.5902 7.88734 16.9673L7.88785 16.9676Z" fill="#181818"/>
<path fill-rule="evenodd" clip-rule="evenodd" d="M14.4354 9.65986C14.7961 9.34812 14.937 8.86319 14.7973 8.4164C14.6578 7.96853 14.2626 7.64014 13.7838 7.57299C11.2633 7.22071 7.71572 6.85502 6.28273 7.13183C5.53434 7.27656 4.65426 7.68307 3.80171 8.20908C2.04653 9.2906 0.378926 10.8493 0.378926 10.8493C0.0662988 11.142 -0.0657021 11.5708 0.0312837 11.9805C0.127992 12.3905 0.438677 12.7216 0.85132 12.8545L8.06923 15.1792C8.57389 15.3422 9.12994 15.1768 9.45256 14.7679C10.9232 12.9074 12.6247 11.2257 14.4355 9.65983L14.4354 9.65986ZM10.8448 9.62415C9.20519 9.44157 7.59535 9.33148 6.7714 9.4907C6.0814 9.62415 5.25746 10.1327 4.49768 10.6592C4.22174 10.8501 3.95524 11.0472 3.7071 11.2387L8.02583 12.6292C8.90477 11.5775 9.85044 10.5789 10.8448 9.6241V9.62415Z" fill="#181818"/>
<path fill-rule="evenodd" clip-rule="evenodd" d="M26.4261 20.2158C26.359 19.737 26.0306 19.3419 25.5827 19.2024C25.1359 19.0626 24.6509 19.2035 24.3392 19.5642C22.7733 21.3749 21.0916 23.0764 19.2312 24.5471C18.8223 24.8697 18.6569 25.4258 18.8198 25.9304L21.1445 33.1483C21.2775 33.561 21.6085 33.8717 22.0185 33.9683C22.4283 34.0653 22.8571 33.9333 23.1498 33.6207C23.1498 33.6207 24.7085 31.9531 25.79 30.1979C26.316 29.3454 26.7225 28.4653 26.8672 27.7169C27.1441 26.284 26.7784 22.7365 26.4261 20.2158ZM24.375 23.1548C23.4201 24.1491 22.4216 25.0956 21.3698 25.9737L22.7604 30.2924C22.9518 30.0443 23.1489 29.7778 23.3398 29.5019C23.8664 28.7421 24.3749 27.9181 24.5084 27.2281C24.6676 26.4042 24.5575 24.7944 24.375 23.1548Z" fill="#181818"/>
<path fill-rule="evenodd" clip-rule="evenodd" d="M2.88789 18.7436L1.54767 20.0835C1.04656 20.5849 1.04656 21.3985 1.54795 21.8996C2.04906 22.401 2.86263 22.401 3.36402 21.8999L4.70395 20.5597C5.20534 20.0586 5.20506 19.245 4.70395 18.7436C4.20256 18.2425 3.38898 18.2422 2.88788 18.7436L2.88789 18.7436Z" fill="#FB5741"/>
<path fill-rule="evenodd" clip-rule="evenodd" d="M6.52588 22.2402L3.09183 25.6745C2.61783 26.1482 2.61783 26.9176 3.09183 27.3916C3.56557 27.8653 4.33499 27.8653 4.80872 27.3916L8.24304 23.9573C8.71678 23.4833 8.71678 22.7142 8.24304 22.2402C7.76904 21.7665 6.99989 21.7665 6.52588 22.2402Z" fill="#FB5741"/>
<path fill-rule="evenodd" clip-rule="evenodd" d="M10.0416 25.7576L6.60726 29.1918C6.13352 29.6655 6.13352 30.4349 6.60726 30.9086C7.08126 31.3826 7.85041 31.3826 8.32442 30.9086L11.7585 27.4747C12.2325 27.0007 12.2325 26.2316 11.7585 25.7576C11.2847 25.2836 10.5153 25.2836 10.0416 25.7576Z" fill="#FB5741"/>
<path fill-rule="evenodd" clip-rule="evenodd" d="M13.4511 29.2933L12.0986 30.6458C11.5996 31.1448 11.6002 31.9541 12.0989 32.4531C12.5978 32.9517 13.4072 32.9523 13.9061 32.4534L15.2587 31.1008C15.7576 30.6019 15.757 29.7925 15.2584 29.2936C14.7594 28.7949 13.9501 28.7943 13.4511 29.2933Z" fill="#FB5741"/>
</svg>
