<svg width="35" height="32" viewBox="0 0 35 32" fill="none" xmlns="http://www.w3.org/2000/svg">
<path d="M33.9928 24.4033H31.8677V21.6391C31.8672 21.0682 31.6411 20.5209 31.2397 20.1171C30.8379 19.7136 30.2935 19.4864 29.7254 19.4858H18.0422V10.2808C19.7109 10.0934 21.1664 9.05693 21.896 7.53657C22.6253 6.01649 22.526 4.22616 21.6332 2.79706C20.7404 1.36768 19.1791 0.5 17.5 0.5C15.8208 0.5 14.2596 1.36768 13.3668 2.79706C12.474 4.22616 12.3746 6.01656 13.1039 7.53657C13.8335 9.05686 15.2891 10.0933 16.9577 10.2808V19.4858H5.27455C4.70654 19.4864 4.16204 19.7133 3.7603 20.1171C3.35885 20.5206 3.1328 21.0679 3.13225 21.6388V24.4031H1.00711C0.45127 24.4039 0.000566629 24.8566 0 25.4153V30.4874C0.000553384 31.0461 0.451256 31.4991 1.00711 31.4997H6.20388C6.75972 31.4992 7.21014 31.0461 7.21099 30.4874V25.4156C7.21016 24.8566 6.75973 24.4039 6.20388 24.4033H4.21678V21.6391C4.21706 21.3571 4.32855 21.0871 4.52693 20.8877C4.72531 20.6883 4.99396 20.5762 5.27453 20.576H16.9577V24.4033H14.9018C14.3456 24.4042 13.8952 24.8569 13.8946 25.4156V30.4877C13.8952 31.0464 14.3456 31.4994 14.9018 31.5H20.0982C20.6544 31.4994 21.1048 31.0464 21.1054 30.4877V25.4156C21.1048 24.8567 20.6544 24.4039 20.0982 24.4033H18.0423V20.576H29.7255C30.006 20.5762 30.2747 20.6883 30.4731 20.8874C30.6714 21.0868 30.7829 21.3571 30.7832 21.6388V24.4031H28.7961C28.2403 24.4039 27.7899 24.8566 27.789 25.4153V30.4874C27.7898 31.0461 28.2403 31.4991 28.7961 31.4997H33.9929C34.5487 31.4992 34.9994 31.0461 35 30.4874V25.4156C34.9994 24.8567 34.5487 24.4039 33.9928 24.4033ZM5.32356 26.2379C5.53522 26.0249 5.87857 26.0246 6.09049 26.2374C6.30242 26.4501 6.30243 26.7952 6.09077 27.0082C6.08745 27.0116 6.08413 27.0146 6.08109 27.0177L3.38323 29.6652C3.17267 29.8721 2.83624 29.8721 2.62571 29.6652L1.12833 28.1957C0.916945 27.9852 0.91363 27.6423 1.12169 27.4279C1.33002 27.2135 1.67088 27.2082 1.88586 27.4157L3.00445 28.5136L5.32356 26.2379ZM19.2187 26.2379C19.4304 26.0249 19.7737 26.0246 19.9854 26.2374C20.1973 26.4501 20.1976 26.7952 19.9859 27.0082L19.9762 27.0177L17.2784 29.6652C17.0678 29.8721 16.7314 29.8721 16.5209 29.6652L15.0235 28.1957C14.8118 27.9852 14.8088 27.6423 15.0168 27.4279C15.2249 27.2135 15.566 27.2082 15.7807 27.4157L16.8993 28.5136L19.2187 26.2379ZM33.871 27.018L31.1732 29.6655C30.9623 29.8724 30.6262 29.8721 30.4154 29.6652L28.918 28.1957C28.7094 27.986 28.7063 27.6468 28.9108 27.4329C29.1152 27.219 29.4525 27.2088 29.6694 27.4101L29.6752 27.4157L30.7938 28.5136L33.1129 26.2379C33.2139 26.132 33.3528 26.0714 33.4989 26.0697C33.6447 26.0677 33.7852 26.1253 33.8884 26.229C33.9916 26.3328 34.0489 26.4738 34.0472 26.6206C34.0458 26.7671 33.9853 26.907 33.8798 27.0085L33.8702 27.018L33.871 27.018Z" fill="#181818"/>
</svg>
