<svg width="44" height="44" viewBox="0 0 44 44" fill="none" xmlns="http://www.w3.org/2000/svg">
<g filter="url(#filter0_d_979_1725)">
<path fill-rule="evenodd" clip-rule="evenodd" d="M24.7842 34.9376H19.2276C18.9932 34.9376 18.7923 34.7654 18.7686 34.531L18.1087 29.4334C17.6065 29.2612 17.1141 29.0555 16.6359 28.8164L12.5615 31.9629C12.3751 32.1111 12.1168 32.0872 11.9493 31.9247L8.01851 27.9938C7.85105 27.8264 7.84156 27.5683 7.98032 27.3816L11.1267 23.3122C10.8876 22.8293 10.682 22.3367 10.5145 21.8395L5.40744 21.1796C5.17783 21.1556 5.00586 20.9547 5.00586 20.7254V15.1687C5.00586 14.9344 5.17806 14.7335 5.40744 14.7098L10.5145 14.0594C10.6867 13.5525 10.8924 13.0598 11.1267 12.5816L7.98032 8.50723C7.83207 8.32079 7.85129 8.06248 8.01851 7.89502L11.9493 3.96419C12.1168 3.80171 12.3749 3.78724 12.5615 3.926L16.6359 7.07241C17.1189 6.83332 17.6115 6.62767 18.1087 6.46021L18.7686 1.35785C18.7925 1.1235 18.9934 0.951294 19.2276 0.951294H24.7842C25.0138 0.951294 25.2144 1.1235 25.2384 1.35785L25.8983 6.46021C26.3957 6.62767 26.8929 6.83332 27.3711 7.07241L31.4454 3.926C31.6319 3.78249 31.8949 3.80171 32.0576 3.96419L35.9885 7.89502C36.1559 8.06248 36.1702 8.32055 36.0267 8.50723L32.8802 12.5816C33.1193 13.0598 33.3202 13.5524 33.4925 14.0594L38.5995 14.7098C38.8291 14.7337 39.0011 14.9346 39.0011 15.1687V20.7254C39.0011 20.955 38.8289 21.1556 38.5995 21.1796L33.4925 21.8395C33.325 22.3369 33.1193 22.8293 32.8802 23.3122L36.0267 27.3816C36.1749 27.5681 36.1557 27.8264 35.9885 27.9938L32.0576 31.9247C31.8952 32.0872 31.6321 32.1016 31.4454 31.9629L27.3711 28.8164C26.8929 29.0555 26.3955 29.2612 25.8983 29.4334L25.2384 34.531C25.2145 34.7654 25.0233 34.9376 24.7842 34.9376ZM19.6389 34.0099H24.3779L25.0235 29.0223C25.0428 28.8454 25.167 28.6924 25.3393 28.635C25.9849 28.4293 26.6161 28.171 27.2138 27.8555C27.3716 27.7694 27.5725 27.7886 27.7112 27.8985L31.6948 30.9733L35.0468 27.6212L31.972 23.6522C31.862 23.5039 31.8477 23.3128 31.9241 23.1548C32.2446 22.5426 32.5026 21.9114 32.7035 21.2802C32.7562 21.108 32.9092 20.9837 33.0861 20.955L38.0785 20.3143V15.5706L33.0861 14.9346C32.9092 14.9154 32.7562 14.7817 32.7035 14.6094C32.5026 13.9638 32.2446 13.3326 31.9241 12.7349C31.838 12.5771 31.862 12.3762 31.972 12.2375L35.0468 8.25393L31.6948 4.90185L27.7112 7.97667C27.563 8.09147 27.3718 8.10096 27.2138 8.02458C26.6016 7.70413 25.9704 7.44606 25.3393 7.24514C25.167 7.19249 25.0428 7.03949 25.014 6.86254L24.3781 1.87495H19.6391L18.9934 6.86728C18.9742 7.04897 18.8405 7.20196 18.6682 7.25462C18.037 7.45079 17.4059 7.70886 16.7937 8.02933C16.6359 8.11543 16.435 8.09622 16.2963 7.98141L12.3127 4.91133L8.96065 8.26341L12.0355 12.2469C12.1503 12.3904 12.1598 12.5816 12.0834 12.7443C11.7677 13.3421 11.5049 13.9733 11.3039 14.6142C11.2513 14.7864 11.0983 14.9154 10.9213 14.9394L5.92902 15.5801V20.3191L10.9213 20.9647C11.0983 20.9839 11.2513 21.113 11.3039 21.2899C11.5049 21.9163 11.7629 22.5476 12.0834 23.1598C12.1695 23.3175 12.1503 23.5184 12.0355 23.6572L8.96065 27.6357L12.3127 30.9878L16.2963 27.913C16.4445 27.8029 16.6357 27.7887 16.7937 27.8651C17.4009 28.1808 18.0323 28.4436 18.6682 28.6492C18.8404 28.7019 18.9647 28.8549 18.9887 29.0366L19.6391 34.0099L19.6389 34.0099Z" fill="#181818" stroke="#181818"/>
<path fill-rule="evenodd" clip-rule="evenodd" d="M22.0036 25.5984C17.7908 25.5984 14.3574 22.1649 14.3574 17.9473C14.3574 13.7247 17.7909 10.2914 22.0036 10.2914C26.2213 10.2914 29.6547 13.7248 29.6547 17.9473C29.6547 22.1649 26.2213 25.5984 22.0036 25.5984ZM22.0036 11.2144C18.3024 11.2144 15.2853 14.2317 15.2853 17.9425C15.2853 21.6484 18.3026 24.6608 22.0036 24.6608C25.7096 24.6608 28.722 21.6482 28.722 17.9425C28.722 14.2367 25.7094 11.2144 22.0036 11.2144Z" fill="#FB5741"/>
<path fill-rule="evenodd" clip-rule="evenodd" d="M27.6482 22.8635C27.4712 22.8635 27.3038 22.7631 27.2227 22.5909C26.5533 21.0894 25.2333 19.9275 23.6649 19.4493C22.6703 20.1284 21.3409 20.1284 20.3463 19.4493C18.7827 19.9275 17.458 21.0895 16.7885 22.5909C16.6832 22.8205 16.4107 22.9304 16.1716 22.8205C15.9373 22.7152 15.8322 22.4427 15.9373 22.2036C16.7693 20.3577 18.3664 19.0045 20.3223 18.4879C20.4659 18.445 20.6188 18.4784 20.7336 18.574C21.4702 19.1718 22.5461 19.1718 23.2824 18.574C23.3924 18.4784 23.5454 18.445 23.6937 18.4879C25.6496 18.9995 27.2467 20.353 28.074 22.2036C28.1793 22.438 28.074 22.7152 27.8444 22.8205C27.7823 22.8492 27.7154 22.8635 27.6483 22.8635L27.6482 22.8635Z" fill="#FB5741"/>
<path fill-rule="evenodd" clip-rule="evenodd" d="M22.0049 18.1672C20.3742 18.1672 19.0449 16.8377 19.0449 15.2072C19.0449 13.5717 20.3744 12.2472 22.0049 12.2472C23.6404 12.2472 24.9649 13.5717 24.9649 15.2072C24.9649 16.8379 23.6404 18.1672 22.0049 18.1672ZM22.0049 13.1749C20.8858 13.1749 19.9726 14.0833 19.9726 15.2072C19.9726 16.3263 20.886 17.2395 22.0049 17.2395C23.1288 17.2395 24.0372 16.3261 24.0372 15.2072C24.0372 14.0833 23.1288 13.1749 22.0049 13.1749Z" fill="#FB5741"/>
<path fill-rule="evenodd" clip-rule="evenodd" d="M22.0053 27.3345C16.8263 27.3345 12.6133 23.1216 12.6133 17.9425C12.6133 12.7635 16.8262 8.54565 22.0053 8.54565C27.1843 8.54565 31.4021 12.7633 31.4021 17.9425C31.4021 23.1215 27.1845 27.3345 22.0053 27.3345ZM22.0053 9.47836C17.3382 9.47836 13.5411 13.2752 13.5411 17.9425C13.5411 22.6096 17.3379 26.4067 22.0053 26.4067C26.6724 26.4067 30.4694 22.6098 30.4694 17.9425C30.4694 13.2754 26.6726 9.47836 22.0053 9.47836Z" fill="#FB5741"/>
<path d="M5.01755 35.0184C5.01682 35.0191 5.01584 35.0194 5.01463 35.0194H5.0117C5.00902 35.0194 5.00683 35.0189 5.00488 35.0174C5.00293 35.0155 5.00195 35.0133 5.00195 35.0106C5.00195 35.0082 5.00293 35.0057 5.00488 35.0038C5.00683 35.0018 5.00902 35.0009 5.0117 35.0009C5.01292 35.0009 5.01389 35.0013 5.01463 35.0018C5.01584 35.0018 5.01682 35.0023 5.01755 35.0028V35.0067C5.01682 35.0055 5.01584 35.0048 5.01463 35.0048H5.0117C5.01024 35.0048 5.00902 35.0055 5.0078 35.0067C5.00707 35.0074 5.00683 35.0087 5.00683 35.0106C5.00683 35.0126 5.00707 35.0143 5.0078 35.0155C5.00902 35.0162 5.01024 35.0165 5.0117 35.0165H5.01463C5.01584 35.016 5.01682 35.0152 5.01755 35.0145V35.0184Z" fill="#181818"/>
<path d="M5.02969 35.0097H5.02867C5.02867 35.0092 5.02816 35.0087 5.02765 35.0087C5.02613 35.0087 5.02512 35.0094 5.02461 35.0107V35.0137V35.0198H5.01953V35.0056H5.02461V35.0087C5.02461 35.0074 5.02486 35.0066 5.02562 35.0066C5.02613 35.0061 5.02715 35.0056 5.02867 35.0056H5.02969V35.0097Z" fill="#181818"/>
<path d="M5.04648 35.0127V35.0137H5.03633V35.0168H5.03937H5.04242C5.04369 35.0163 5.0447 35.0158 5.04547 35.0158V35.0188C5.0447 35.0196 5.04369 35.0198 5.04242 35.0198H5.03937C5.03658 35.0198 5.03455 35.0193 5.03328 35.0178C5.03176 35.0165 5.03125 35.0148 5.03125 35.0127C5.03125 35.0107 5.03176 35.0092 5.03328 35.0076C5.03455 35.0064 5.03658 35.0056 5.03937 35.0056C5.0414 35.0056 5.04293 35.0064 5.04445 35.0076C5.04572 35.0092 5.04648 35.0107 5.04648 35.0127ZM5.0414 35.0117C5.0414 35.0104 5.0409 35.0097 5.04039 35.0097C5.04039 35.0092 5.03988 35.0087 5.03937 35.0087C5.03785 35.0087 5.03683 35.0092 5.03633 35.0097V35.0117H5.0414Z" fill="#181818"/>
<path d="M5.05398 35.0137C5.05322 35.0137 5.05246 35.0142 5.05195 35.0148V35.0158V35.0168H5.05297H5.05601C5.05652 35.0163 5.05703 35.0153 5.05703 35.0137H5.05398ZM5.06109 35.0117V35.0198H5.05703V35.0178C5.05627 35.0186 5.05525 35.0193 5.05398 35.0198H5.05195C5.05043 35.0198 5.04916 35.0196 5.04789 35.0188C5.04713 35.0183 5.04688 35.0173 5.04688 35.0158C5.04688 35.0137 5.04713 35.0125 5.04789 35.0117C5.04916 35.0112 5.05119 35.0107 5.05398 35.0107H5.05703C5.05703 35.0102 5.05652 35.0097 5.05601 35.0097C5.05525 35.0092 5.05424 35.0087 5.05297 35.0087H5.04992C5.04916 35.0087 5.0484 35.0092 5.04789 35.0097V35.0066C5.04916 35.0061 5.05018 35.0056 5.05094 35.0056H5.05398C5.05652 35.0056 5.0583 35.0064 5.05906 35.0076C5.06033 35.0084 5.06109 35.0097 5.06109 35.0117Z" fill="#181818"/>
<path d="M5.06737 35.0018V35.0057H5.07127V35.0087H5.06737V35.0145V35.0165H5.06932H5.07127V35.0194H5.06737C5.06591 35.0194 5.06469 35.0191 5.06347 35.0184C5.06274 35.0179 5.0625 35.0165 5.0625 35.0145V35.0087H5.06055V35.0057H5.0625V35.0018H5.06737Z" fill="#181818"/>
<path d="M5.08945 35.0127V35.0137H5.0793V35.0168H5.08234H5.08539C5.08666 35.0163 5.08767 35.0158 5.08843 35.0158V35.0188C5.08767 35.0196 5.08666 35.0198 5.08539 35.0198H5.08234C5.07955 35.0198 5.07752 35.0193 5.07625 35.0178C5.07473 35.0165 5.07422 35.0148 5.07422 35.0127C5.07422 35.0107 5.07473 35.0092 5.07625 35.0076C5.07752 35.0064 5.07955 35.0056 5.08234 35.0056C5.08437 35.0056 5.0859 35.0064 5.08742 35.0076C5.08869 35.0092 5.08945 35.0107 5.08945 35.0127ZM5.08437 35.0117C5.08437 35.0104 5.08387 35.0097 5.08336 35.0097C5.08336 35.0092 5.08285 35.0087 5.08234 35.0087C5.08082 35.0087 5.0798 35.0092 5.0793 35.0097V35.0117H5.08437Z" fill="#181818"/>
<path d="M5.09959 35.0077V35.0009H5.10447V35.0194H5.09959V35.0174C5.09959 35.0182 5.09886 35.0189 5.09764 35.0194H5.09569C5.09374 35.0194 5.09204 35.0189 5.09082 35.0174C5.09009 35.0162 5.08984 35.0145 5.08984 35.0126C5.08984 35.0106 5.09009 35.0091 5.09082 35.0077C5.09204 35.0065 5.09374 35.0057 5.09569 35.0057C5.09618 35.0057 5.09691 35.0062 5.09764 35.0067C5.09886 35.0067 5.09959 35.0072 5.09959 35.0077ZM5.09764 35.0165C5.09813 35.0165 5.09862 35.0162 5.09862 35.0155C5.0991 35.015 5.09959 35.014 5.09959 35.0126C5.09959 35.0113 5.0991 35.0104 5.09862 35.0096C5.09862 35.0091 5.09813 35.0087 5.09764 35.0087C5.09618 35.0087 5.0952 35.0091 5.09472 35.0096V35.0126V35.0155C5.0952 35.0162 5.09618 35.0165 5.09764 35.0165Z" fill="#181818"/>
<path d="M5.12206 35.0165C5.12328 35.0165 5.12401 35.0162 5.12401 35.0155C5.12449 35.015 5.12498 35.014 5.12498 35.0126C5.12498 35.0113 5.12449 35.0104 5.12401 35.0096C5.12401 35.0091 5.12328 35.0087 5.12206 35.0087C5.12133 35.0087 5.1206 35.0091 5.12011 35.0096V35.0126V35.0155C5.1206 35.0162 5.12133 35.0165 5.12206 35.0165ZM5.12011 35.0077C5.12011 35.0072 5.12035 35.0067 5.12108 35.0067C5.1223 35.0062 5.12328 35.0057 5.12401 35.0057C5.12596 35.0057 5.12718 35.0065 5.12791 35.0077C5.12912 35.0091 5.12986 35.0106 5.12986 35.0126C5.12986 35.0145 5.12912 35.0162 5.12791 35.0174C5.12718 35.0189 5.12596 35.0194 5.12401 35.0194H5.12108C5.12035 35.0189 5.12011 35.0182 5.12011 35.0174V35.0194H5.11523V35.0009H5.12011V35.0077Z" fill="#181818"/>
<path d="M5.13086 35.0056H5.1356L5.13845 35.0151L5.1413 35.0056H5.14604L5.14035 35.0198C5.13964 35.0217 5.13892 35.0229 5.13845 35.0236C5.13774 35.0241 5.13679 35.0246 5.1356 35.0246H5.13276V35.0208H5.13465H5.1356C5.13608 35.0208 5.13655 35.0203 5.13655 35.0198V35.0189L5.13086 35.0056Z" fill="#181818"/>
<path d="M5.1582 35.0009H5.1639L5.16864 35.0103L5.17244 35.0009H5.17813V35.0189H5.17338V35.0065L5.16959 35.0151H5.16674L5.16295 35.0065V35.0189H5.1582V35.0009Z" fill="#181818"/>
<path d="M5.18164 35.0137V35.0056H5.1857V35.0066V35.0107V35.0127V35.0148C5.18621 35.0155 5.18672 35.0158 5.18672 35.0158V35.0168H5.18875C5.18926 35.0168 5.18976 35.0165 5.18976 35.0158C5.19027 35.0153 5.19078 35.0142 5.19078 35.0127V35.0056H5.19586V35.0198H5.19078V35.0178C5.19002 35.0186 5.18926 35.0193 5.18875 35.0198H5.18672C5.18469 35.0198 5.18316 35.0196 5.18266 35.0188C5.18189 35.0175 5.18164 35.0158 5.18164 35.0137V35.0137Z" fill="#181818"/>
<path d="M5.21091 35.0116V35.0194H5.20604V35.0135V35.0116V35.0096H5.20506C5.20506 35.0091 5.20458 35.0087 5.20409 35.0087C5.20336 35.0087 5.20263 35.0091 5.20214 35.0096V35.0126V35.0194H5.19727V35.0009H5.20214V35.0077C5.20214 35.0072 5.20238 35.0067 5.20311 35.0067C5.20433 35.0062 5.20531 35.0057 5.20604 35.0057C5.20726 35.0057 5.20823 35.0065 5.20896 35.0077C5.21018 35.0084 5.21091 35.0096 5.21091 35.0116V35.0116Z" fill="#181818"/>
<path d="M5.22195 35.0137C5.22119 35.0137 5.22043 35.0142 5.21992 35.0148V35.0158V35.0168H5.22094H5.22398C5.22449 35.0163 5.225 35.0153 5.225 35.0137H5.22195ZM5.22906 35.0117V35.0198H5.225V35.0178C5.22424 35.0186 5.22322 35.0193 5.22195 35.0198H5.21992C5.2184 35.0198 5.21713 35.0196 5.21586 35.0188C5.2151 35.0183 5.21484 35.0173 5.21484 35.0158C5.21484 35.0137 5.2151 35.0125 5.21586 35.0117C5.21713 35.0112 5.21916 35.0107 5.22195 35.0107H5.225C5.225 35.0102 5.22449 35.0097 5.22398 35.0097C5.22322 35.0092 5.22221 35.0087 5.22094 35.0087H5.21789C5.21713 35.0087 5.21637 35.0092 5.21586 35.0097V35.0066C5.21713 35.0061 5.21814 35.0056 5.21891 35.0056H5.22195C5.22449 35.0056 5.22627 35.0064 5.22703 35.0076C5.2283 35.0084 5.22906 35.0097 5.22906 35.0117Z" fill="#181818"/>
<path d="M5.2428 35.0085C5.24328 35.0073 5.24399 35.0066 5.2447 35.0066C5.24518 35.0061 5.24589 35.0056 5.2466 35.0056C5.2485 35.0056 5.24968 35.0063 5.25039 35.0075C5.25087 35.0082 5.25134 35.0094 5.25134 35.0113V35.0189H5.24755V35.0123V35.0113C5.24755 35.0108 5.24707 35.0101 5.2466 35.0094C5.2466 35.0089 5.24612 35.0085 5.24565 35.0085C5.24494 35.0085 5.24423 35.0089 5.24375 35.0094C5.24304 35.0101 5.2428 35.0111 5.2428 35.0123V35.0189H5.23901V35.0123C5.23901 35.0111 5.23853 35.0101 5.23806 35.0094C5.23806 35.0089 5.23758 35.0085 5.23711 35.0085C5.2364 35.0085 5.23569 35.0089 5.23521 35.0094V35.0123V35.0189H5.23047V35.0056H5.23521V35.0075C5.23521 35.007 5.23545 35.0066 5.23616 35.0066C5.23664 35.0061 5.23758 35.0056 5.23901 35.0056C5.23948 35.0056 5.24019 35.0061 5.24091 35.0066C5.24138 35.0066 5.24209 35.0073 5.2428 35.0085Z" fill="#181818"/>
<path d="M5.27015 35.0085C5.27062 35.0073 5.27133 35.0066 5.27204 35.0066C5.27252 35.0061 5.27323 35.0056 5.27394 35.0056C5.27584 35.0056 5.27703 35.0063 5.27774 35.0075C5.27821 35.0082 5.27869 35.0094 5.27869 35.0113V35.0189H5.27489V35.0123V35.0113C5.27489 35.0108 5.27442 35.0101 5.27394 35.0094C5.27394 35.0089 5.27347 35.0085 5.27299 35.0085C5.27228 35.0085 5.27157 35.0089 5.2711 35.0094C5.27038 35.0101 5.27015 35.0111 5.27015 35.0123V35.0189H5.26635V35.0123C5.26635 35.0111 5.26588 35.0101 5.2654 35.0094C5.2654 35.0089 5.26493 35.0085 5.26445 35.0085C5.26374 35.0085 5.26303 35.0089 5.26256 35.0094V35.0123V35.0189H5.25781V35.0056H5.26256V35.0075C5.26256 35.007 5.26279 35.0066 5.26351 35.0066C5.26398 35.0061 5.26493 35.0056 5.26635 35.0056C5.26683 35.0056 5.26754 35.0061 5.26825 35.0066C5.26872 35.0066 5.26944 35.0073 5.27015 35.0085Z" fill="#181818"/>
<path d="M5.28836 35.0137C5.2876 35.0137 5.28683 35.0142 5.28633 35.0148V35.0158V35.0168H5.28734H5.29039C5.2909 35.0163 5.2914 35.0153 5.2914 35.0137H5.28836ZM5.29547 35.0117V35.0198H5.2914V35.0178C5.29064 35.0186 5.28963 35.0193 5.28836 35.0198H5.28633C5.2848 35.0198 5.28353 35.0196 5.28227 35.0188C5.2815 35.0183 5.28125 35.0173 5.28125 35.0158C5.28125 35.0137 5.2815 35.0125 5.28227 35.0117C5.28353 35.0112 5.28557 35.0107 5.28836 35.0107H5.2914C5.2914 35.0102 5.2909 35.0097 5.29039 35.0097C5.28963 35.0092 5.28861 35.0087 5.28734 35.0087H5.2843C5.28353 35.0087 5.28277 35.0092 5.28227 35.0097V35.0066C5.28353 35.0061 5.28455 35.0056 5.28531 35.0056H5.28836C5.2909 35.0056 5.29267 35.0064 5.29344 35.0076C5.2947 35.0084 5.29547 35.0097 5.29547 35.0117Z" fill="#181818"/>
<path d="M5.30662 35.0077V35.0009H5.3115V35.0194H5.30662V35.0174C5.30662 35.0182 5.30589 35.0189 5.30467 35.0194H5.30272C5.30077 35.0194 5.29907 35.0189 5.29785 35.0174C5.29712 35.0162 5.29688 35.0145 5.29688 35.0126C5.29688 35.0106 5.29712 35.0091 5.29785 35.0077C5.29907 35.0065 5.30077 35.0057 5.30272 35.0057C5.30321 35.0057 5.30394 35.0062 5.30467 35.0067C5.30589 35.0067 5.30662 35.0072 5.30662 35.0077ZM5.30467 35.0165C5.30516 35.0165 5.30565 35.0162 5.30565 35.0155C5.30614 35.015 5.30662 35.014 5.30662 35.0126C5.30662 35.0113 5.30614 35.0104 5.30565 35.0096C5.30565 35.0091 5.30516 35.0087 5.30467 35.0087C5.30321 35.0087 5.30224 35.0091 5.30175 35.0096V35.0126V35.0155C5.30224 35.0162 5.30321 35.0165 5.30467 35.0165Z" fill="#181818"/>
<path d="M5.33689 35.0018V35.0057C5.33616 35.0052 5.33518 35.0048 5.33397 35.0048H5.33104C5.33031 35.0048 5.32958 35.0052 5.32909 35.0057C5.32836 35.0057 5.32812 35.0062 5.32812 35.0067V35.0077C5.32861 35.0077 5.32958 35.0082 5.33104 35.0087H5.33299C5.33494 35.0087 5.33616 35.0094 5.33689 35.0106C5.33738 35.0113 5.33787 35.0123 5.33787 35.0135C5.33787 35.0155 5.33713 35.0172 5.33592 35.0184C5.33518 35.0191 5.33348 35.0194 5.33104 35.0194H5.32714C5.32641 35.0194 5.32544 35.0191 5.32422 35.0184V35.0145C5.32544 35.0152 5.32641 35.016 5.32714 35.0165H5.33104H5.33299C5.33348 35.016 5.33397 35.0152 5.33397 35.0145C5.33397 35.014 5.33348 35.0135 5.33299 35.0135C5.33299 35.013 5.33226 35.0126 5.33104 35.0126H5.32909C5.32714 35.0121 5.32568 35.0113 5.32519 35.0106C5.32446 35.0094 5.32422 35.0082 5.32422 35.0067C5.32422 35.0048 5.32471 35.0035 5.32617 35.0028C5.32739 35.0016 5.32909 35.0009 5.33104 35.0009C5.33153 35.0009 5.33226 35.0013 5.33299 35.0018H5.33689Z" fill="#181818"/>
<path d="M5.35349 35.0116V35.0194H5.34862V35.0135V35.0116V35.0096H5.34764C5.34764 35.0091 5.34715 35.0087 5.34667 35.0087C5.34594 35.0087 5.3452 35.0091 5.34472 35.0096V35.0126V35.0194H5.33984V35.0009H5.34472V35.0077C5.34472 35.0072 5.34496 35.0067 5.34569 35.0067C5.34691 35.0062 5.34789 35.0057 5.34862 35.0057C5.34983 35.0057 5.35081 35.0065 5.35154 35.0077C5.35276 35.0084 5.35349 35.0096 5.35349 35.0116V35.0116Z" fill="#181818"/>
<path d="M5.36453 35.0137C5.36377 35.0137 5.36301 35.0142 5.3625 35.0148V35.0158V35.0168H5.36351H5.36656C5.36707 35.0163 5.36758 35.0153 5.36758 35.0137H5.36453ZM5.37164 35.0117V35.0198H5.36758V35.0178C5.36681 35.0186 5.3658 35.0193 5.36453 35.0198H5.3625C5.36098 35.0198 5.35971 35.0196 5.35844 35.0188C5.35768 35.0183 5.35742 35.0173 5.35742 35.0158C5.35742 35.0137 5.35768 35.0125 5.35844 35.0117C5.35971 35.0112 5.36174 35.0107 5.36453 35.0107H5.36758C5.36758 35.0102 5.36707 35.0097 5.36656 35.0097C5.3658 35.0092 5.36478 35.0087 5.36351 35.0087H5.36047C5.35971 35.0087 5.35894 35.0092 5.35844 35.0097V35.0066C5.35971 35.0061 5.36072 35.0056 5.36148 35.0056H5.36453C5.36707 35.0056 5.36885 35.0064 5.36961 35.0076C5.37088 35.0084 5.37164 35.0097 5.37164 35.0117Z" fill="#181818"/>
<path d="M5.37987 35.0165C5.38109 35.0165 5.38182 35.0162 5.38182 35.0155C5.38231 35.015 5.38279 35.014 5.38279 35.0126C5.38279 35.0113 5.38231 35.0104 5.38182 35.0096C5.38182 35.0091 5.38109 35.0087 5.37987 35.0087C5.37914 35.0087 5.37841 35.0091 5.37792 35.0096V35.0126V35.0155C5.37841 35.0162 5.37914 35.0165 5.37987 35.0165ZM5.37792 35.0077C5.37792 35.0072 5.37816 35.0067 5.3789 35.0067C5.38011 35.0062 5.38109 35.0057 5.38182 35.0057C5.38377 35.0057 5.38499 35.0065 5.38572 35.0077C5.38694 35.0091 5.38767 35.0106 5.38767 35.0126C5.38767 35.0145 5.38694 35.0162 5.38572 35.0174C5.38499 35.0189 5.38377 35.0194 5.38182 35.0194H5.3789C5.37816 35.0189 5.37792 35.0182 5.37792 35.0174V35.0194H5.37305V35.0009H5.37792V35.0077Z" fill="#181818"/>
<path d="M5.40078 35.0097H5.39976C5.39976 35.0092 5.39926 35.0087 5.39875 35.0087C5.39723 35.0087 5.39621 35.0094 5.3957 35.0107V35.0137V35.0198H5.39062V35.0056H5.3957V35.0087C5.3957 35.0074 5.39596 35.0066 5.39672 35.0066C5.39723 35.0061 5.39824 35.0056 5.39976 35.0056H5.40078V35.0097Z" fill="#181818"/>
<path d="M5.4075 35.0137C5.40674 35.0137 5.40598 35.0142 5.40547 35.0148V35.0158V35.0168H5.40648H5.40953C5.41004 35.0163 5.41054 35.0153 5.41054 35.0137H5.4075ZM5.41461 35.0117V35.0198H5.41054V35.0178C5.40978 35.0186 5.40877 35.0193 5.4075 35.0198H5.40547C5.40394 35.0198 5.40268 35.0196 5.40141 35.0188C5.40064 35.0183 5.40039 35.0173 5.40039 35.0158C5.40039 35.0137 5.40064 35.0125 5.40141 35.0117C5.40268 35.0112 5.40471 35.0107 5.4075 35.0107H5.41054C5.41054 35.0102 5.41004 35.0097 5.40953 35.0097C5.40877 35.0092 5.40775 35.0087 5.40648 35.0087H5.40344C5.40268 35.0087 5.40191 35.0092 5.40141 35.0097V35.0066C5.40268 35.0061 5.40369 35.0056 5.40445 35.0056H5.4075C5.41004 35.0056 5.41181 35.0064 5.41258 35.0076C5.41384 35.0084 5.41461 35.0097 5.41461 35.0117Z" fill="#181818"/>
<path d="M5.41797 35.0057H5.42284V35.0194H5.41797V35.0057ZM5.41797 35.0009H5.42284V35.0038H5.41797V35.0009Z" fill="#181818"/>
<path d="M5.4268 35.0056H5.43797V35.0087L5.43086 35.0168H5.43797V35.0198H5.42578V35.0168L5.43289 35.0087H5.4268L5.4268 35.0056Z" fill="#181818"/>
<path d="M5.01072 35.0249V35.0278H5.00877H5.00682V35.0288V35.0298H5.01072V35.0327H5.00682V35.0434H5.00292V35.0327H5V35.0298H5.00292V35.0288C5.00292 35.0276 5.00317 35.0266 5.0039 35.0259C5.00439 35.0254 5.00585 35.0249 5.0078 35.0249H5.01072Z" fill="#181818"/>
<path d="M5.02383 35.0336H5.02281C5.02281 35.0331 5.0223 35.0326 5.0218 35.0326C5.02027 35.0326 5.01926 35.0333 5.01875 35.0346V35.0377V35.0438H5.01367V35.0295H5.01875V35.0326C5.01875 35.0313 5.019 35.0306 5.01976 35.0306C5.02027 35.03 5.02129 35.0295 5.02281 35.0295H5.02383V35.0336Z" fill="#181818"/>
<path d="M5.03156 35.0326C5.03004 35.0326 5.02902 35.0331 5.02851 35.0336V35.0366V35.0397C5.02902 35.0405 5.03004 35.0407 5.03156 35.0407C5.03207 35.0407 5.03283 35.0405 5.03359 35.0397C5.0341 35.0392 5.03461 35.0382 5.03461 35.0366C5.03461 35.0354 5.0341 35.0344 5.03359 35.0336C5.03283 35.0331 5.03207 35.0326 5.03156 35.0326ZM5.03156 35.0295C5.03359 35.0295 5.03511 35.0303 5.03664 35.0316C5.03791 35.0331 5.03867 35.0346 5.03867 35.0366C5.03867 35.0387 5.03791 35.0405 5.03664 35.0417C5.03511 35.0432 5.03359 35.0438 5.03156 35.0438C5.02877 35.0438 5.02674 35.0432 5.02547 35.0417C5.02395 35.0405 5.02344 35.0387 5.02344 35.0366C5.02344 35.0346 5.02395 35.0331 5.02547 35.0316C5.02674 35.0303 5.02877 35.0295 5.03156 35.0295Z" fill="#181818"/>
<path d="M5.05335 35.0324C5.05382 35.0312 5.05454 35.0305 5.05525 35.0305C5.05572 35.03 5.05643 35.0295 5.05715 35.0295C5.05904 35.0295 5.06023 35.0303 5.06094 35.0314C5.06141 35.0322 5.06189 35.0333 5.06189 35.0352V35.0428H5.05809V35.0362V35.0352C5.05809 35.0348 5.05762 35.034 5.05715 35.0333C5.05715 35.0329 5.05667 35.0324 5.0562 35.0324C5.05548 35.0324 5.05477 35.0329 5.0543 35.0333C5.05359 35.034 5.05335 35.035 5.05335 35.0362V35.0428H5.04955V35.0362C5.04955 35.035 5.04908 35.034 5.04861 35.0333C5.04861 35.0329 5.04813 35.0324 5.04766 35.0324C5.04695 35.0324 5.04623 35.0329 5.04576 35.0333V35.0362V35.0428H5.04102V35.0295H5.04576V35.0314C5.04576 35.031 5.046 35.0305 5.04671 35.0305C5.04718 35.03 5.04813 35.0295 5.04955 35.0295C5.05003 35.0295 5.05074 35.03 5.05145 35.0305C5.05193 35.0305 5.05264 35.0312 5.05335 35.0324Z" fill="#181818"/>
<path d="M5.07909 35.0258V35.0297H5.08299V35.0326H5.07909V35.0384V35.0404H5.08104H5.08299V35.0433H5.07909C5.07763 35.0433 5.07641 35.0431 5.07519 35.0423C5.07446 35.0418 5.07422 35.0404 5.07422 35.0384V35.0326H5.07227V35.0297H5.07422V35.0258H5.07909Z" fill="#181818"/>
<path d="M5.09958 35.0356V35.0434H5.09471V35.0376V35.0356V35.0337H5.09374C5.09374 35.0332 5.09325 35.0327 5.09276 35.0327C5.09203 35.0327 5.0913 35.0332 5.09081 35.0337V35.0366V35.0434H5.08594V35.0249H5.09081V35.0317C5.09081 35.0312 5.09105 35.0308 5.09179 35.0308C5.093 35.0303 5.09398 35.0298 5.09471 35.0298C5.09593 35.0298 5.0969 35.0305 5.09763 35.0317C5.09885 35.0325 5.09958 35.0337 5.09958 35.0356V35.0356Z" fill="#181818"/>
<path d="M5.11679 35.0366V35.0377H5.10664V35.0407H5.10969H5.11273C5.114 35.0402 5.11502 35.0397 5.11578 35.0397V35.0427C5.11502 35.0435 5.114 35.0438 5.11273 35.0438H5.10969C5.10689 35.0438 5.10486 35.0432 5.10359 35.0417C5.10207 35.0405 5.10156 35.0387 5.10156 35.0366C5.10156 35.0346 5.10207 35.0331 5.10359 35.0316C5.10486 35.0303 5.10689 35.0295 5.10969 35.0295C5.11172 35.0295 5.11324 35.0303 5.11476 35.0316C5.11603 35.0331 5.11679 35.0346 5.11679 35.0366ZM5.11172 35.0356C5.11172 35.0344 5.11121 35.0336 5.1107 35.0336C5.1107 35.0331 5.11019 35.0326 5.10969 35.0326C5.10816 35.0326 5.10715 35.0331 5.10664 35.0336V35.0356H5.11172Z" fill="#181818"/>
<path d="M5.12695 35.0249H5.13183L5.13865 35.0376V35.0249H5.14352V35.0434H5.13768L5.13183 35.0308V35.0434H5.12695L5.12695 35.0249Z" fill="#181818"/>
<path d="M5.15461 35.0326C5.15308 35.0326 5.15207 35.0331 5.15156 35.0336V35.0366V35.0397C5.15207 35.0405 5.15308 35.0407 5.15461 35.0407C5.15512 35.0407 5.15588 35.0405 5.15664 35.0397C5.15715 35.0392 5.15765 35.0382 5.15765 35.0366C5.15765 35.0354 5.15715 35.0344 5.15664 35.0336C5.15588 35.0331 5.15512 35.0326 5.15461 35.0326ZM5.15461 35.0295C5.15664 35.0295 5.15816 35.0303 5.15968 35.0316C5.16095 35.0331 5.16172 35.0346 5.16172 35.0366C5.16172 35.0387 5.16095 35.0405 5.15968 35.0417C5.15816 35.0432 5.15664 35.0438 5.15461 35.0438C5.15182 35.0438 5.14978 35.0432 5.14852 35.0417C5.14699 35.0405 5.14648 35.0387 5.14648 35.0366C5.14648 35.0346 5.14699 35.0331 5.14852 35.0316C5.14978 35.0303 5.15182 35.0295 5.15461 35.0295Z" fill="#181818"/>
<path d="M5.16406 35.0377V35.0295H5.16812V35.0306V35.0346V35.0366V35.0387C5.16863 35.0394 5.16914 35.0397 5.16914 35.0397V35.0407H5.17117C5.17168 35.0407 5.17219 35.0405 5.17219 35.0397C5.17269 35.0392 5.1732 35.0382 5.1732 35.0366V35.0295H5.17828V35.0438H5.1732V35.0417C5.17244 35.0425 5.17168 35.0432 5.17117 35.0438H5.16914C5.16711 35.0438 5.16559 35.0435 5.16508 35.0427C5.16432 35.0415 5.16406 35.0397 5.16406 35.0377V35.0377Z" fill="#181818"/>
<path d="M5.19586 35.0356V35.0438H5.19078V35.0377V35.0356V35.0336H5.18976C5.18976 35.0331 5.18926 35.0326 5.18875 35.0326C5.18799 35.0326 5.18723 35.0331 5.18672 35.0336V35.0366V35.0438H5.18164V35.0295H5.18672V35.0316C5.18672 35.0311 5.18697 35.0306 5.18773 35.0306C5.189 35.03 5.19002 35.0295 5.19078 35.0295C5.19205 35.0295 5.19306 35.0303 5.19383 35.0316C5.19509 35.0323 5.19586 35.0336 5.19586 35.0356V35.0356Z" fill="#181818"/>
<path d="M5.20508 35.0249H5.21288C5.21531 35.0249 5.21702 35.0256 5.21775 35.0269C5.21897 35.0283 5.2197 35.0298 5.2197 35.0317C5.2197 35.0337 5.21897 35.0354 5.21775 35.0366C5.21702 35.0373 5.21531 35.0376 5.21288 35.0376H5.20995V35.0434H5.20508V35.0249ZM5.20995 35.0288V35.0337H5.21288H5.21483C5.21531 35.0332 5.2158 35.0325 5.2158 35.0317C5.2158 35.0305 5.21531 35.0298 5.21483 35.0298C5.21409 35.0293 5.21336 35.0288 5.21288 35.0288H5.20995Z" fill="#181818"/>
<path d="M5.23281 35.0336H5.2318C5.2318 35.0331 5.23129 35.0326 5.23078 35.0326C5.22926 35.0326 5.22824 35.0333 5.22773 35.0346V35.0377V35.0438H5.22266V35.0295H5.22773V35.0326C5.22773 35.0313 5.22799 35.0306 5.22875 35.0306C5.22926 35.03 5.23027 35.0295 5.2318 35.0295H5.23281V35.0336Z" fill="#181818"/>
<path d="M5.2425 35.0326C5.24098 35.0326 5.23996 35.0331 5.23945 35.0336V35.0366V35.0397C5.23996 35.0405 5.24098 35.0407 5.2425 35.0407C5.24301 35.0407 5.24377 35.0405 5.24453 35.0397C5.24504 35.0392 5.24554 35.0382 5.24554 35.0366C5.24554 35.0354 5.24504 35.0344 5.24453 35.0336C5.24377 35.0331 5.24301 35.0326 5.2425 35.0326ZM5.2425 35.0295C5.24453 35.0295 5.24605 35.0303 5.24758 35.0316C5.24884 35.0331 5.24961 35.0346 5.24961 35.0366C5.24961 35.0387 5.24884 35.0405 5.24758 35.0417C5.24605 35.0432 5.24453 35.0438 5.2425 35.0438C5.23971 35.0438 5.23768 35.0432 5.23641 35.0417C5.23488 35.0405 5.23438 35.0387 5.23438 35.0366C5.23438 35.0346 5.23488 35.0331 5.23641 35.0316C5.23768 35.0303 5.23971 35.0295 5.2425 35.0295Z" fill="#181818"/>
<path d="M5.25089 35.0296H5.25564V35.0429C5.25564 35.0441 5.25493 35.0453 5.25374 35.0467C5.25303 35.0479 5.25184 35.0486 5.24994 35.0486H5.24805V35.0448H5.249H5.24994C5.25042 35.0448 5.25089 35.0441 5.25089 35.0429V35.0296ZM5.25089 35.0249H5.25564V35.0277H5.25089V35.0249Z" fill="#181818"/>
<path d="M5.27304 35.0366V35.0377H5.26289V35.0407H5.26594H5.26898C5.27025 35.0402 5.27127 35.0397 5.27203 35.0397V35.0427C5.27127 35.0435 5.27025 35.0438 5.26898 35.0438H5.26594C5.26314 35.0438 5.26111 35.0432 5.25984 35.0417C5.25832 35.0405 5.25781 35.0387 5.25781 35.0366C5.25781 35.0346 5.25832 35.0331 5.25984 35.0316C5.26111 35.0303 5.26314 35.0295 5.26594 35.0295C5.26797 35.0295 5.26949 35.0303 5.27101 35.0316C5.27228 35.0331 5.27304 35.0346 5.27304 35.0366ZM5.26797 35.0356C5.26797 35.0344 5.26746 35.0336 5.26695 35.0336C5.26695 35.0331 5.26644 35.0326 5.26594 35.0326C5.26441 35.0326 5.2634 35.0331 5.26289 35.0336V35.0356H5.26797Z" fill="#181818"/>
<path d="M5.28562 35.0306V35.0336H5.28359C5.28359 35.0331 5.28283 35.0326 5.28156 35.0326C5.2808 35.0326 5.28004 35.0331 5.27953 35.0336C5.27877 35.0344 5.27851 35.0354 5.27851 35.0366C5.27851 35.0382 5.27877 35.0392 5.27953 35.0397C5.28004 35.0405 5.2808 35.0407 5.28156 35.0407H5.28461C5.28511 35.0402 5.28562 35.0397 5.28562 35.0397V35.0438H5.28359H5.28156C5.27877 35.0438 5.27674 35.0432 5.27547 35.0417C5.27395 35.0405 5.27344 35.0387 5.27344 35.0366C5.27344 35.0346 5.27395 35.0331 5.27547 35.0316C5.27674 35.0303 5.27877 35.0295 5.28156 35.0295H5.28359C5.2841 35.0295 5.28486 35.03 5.28562 35.0306Z" fill="#181818"/>
<path d="M5.29393 35.0258V35.0297H5.29783V35.0326H5.29393V35.0384V35.0404H5.29588H5.29783V35.0433H5.29393C5.29247 35.0433 5.29125 35.0431 5.29003 35.0423C5.2893 35.0418 5.28906 35.0404 5.28906 35.0384V35.0326H5.28711V35.0297H5.28906V35.0258H5.29393Z" fill="#181818"/>
</g>
<defs>
<filter id="filter0_d_979_1725" x="0.505859" y="0.451294" width="42.9961" height="42.9863" filterUnits="userSpaceOnUse" color-interpolation-filters="sRGB">
<feFlood flood-opacity="0" result="BackgroundImageFix"/>
<feColorMatrix in="SourceAlpha" type="matrix" values="0 0 0 0 0 0 0 0 0 0 0 0 0 0 0 0 0 0 127 0" result="hardAlpha"/>
<feOffset dy="4"/>
<feGaussianBlur stdDeviation="2"/>
<feComposite in2="hardAlpha" operator="out"/>
<feColorMatrix type="matrix" values="0 0 0 0 0 0 0 0 0 0 0 0 0 0 0 0 0 0 0.25 0"/>
<feBlend mode="normal" in2="BackgroundImageFix" result="effect1_dropShadow_979_1725"/>
<feBlend mode="normal" in="SourceGraphic" in2="effect1_dropShadow_979_1725" result="shape"/>
</filter>
</defs>
</svg>
