<svg width="51" height="56" viewBox="0 0 51 56" fill="none" xmlns="http://www.w3.org/2000/svg">
<path d="M0 10C0 4.47715 4.47715 0 10 0H41C46.5228 0 51 4.47715 51 10V46C51 51.5229 46.5228 56 41 56H10C4.47715 56 0 51.5228 0 46V10Z" fill="#0E3B65"/>
<path d="M21.6433 41.456L12.166 38.2947V16.8174L21.3553 19.884L30.73 14.5227L38.8327 17.764V39.3027L30.9353 36.1427L21.6447 41.456H21.6433ZM14.8327 20.5227V36.372L20.166 38.1494V22.2934L14.8327 20.5227ZM28.166 19.056L22.8327 22.1067V37.7067L28.166 34.656V19.056ZM30.9353 17.4747L30.8327 17.536V33.2307L36.166 35.364V19.568L30.9353 17.4747Z" fill="white"/>
</svg>
