<svg width="31" height="38" viewBox="0 0 31 38" fill="none" xmlns="http://www.w3.org/2000/svg">
<path d="M27.6833 0.12521H9.22794C9.00557 0.12521 8.7917 0.213277 8.63664 0.372732L0.247815 8.76155C0.0880683 8.91662 0 9.1305 0 9.35285V35.3582C0 36.7465 1.12815 37.875 2.5168 37.875H27.6833C29.0715 37.875 30.2001 36.7469 30.2001 35.3582V2.6418C30.2001 1.25322 29.0716 0.125 27.6833 0.125L27.6833 0.12521ZM8.38905 2.98984V7.67522C8.38905 8.13662 8.01163 8.51403 7.55025 8.51403H2.86516L8.38905 2.98984ZM28.5222 35.358C28.5222 35.8194 28.1448 36.1968 27.6834 36.1968L2.51695 36.1971C2.05555 36.1971 1.67815 35.8196 1.67815 35.3583V10.1918H7.55017C8.93845 10.1918 10.067 9.06364 10.067 7.67499V1.80297H27.6835C28.1449 1.80297 28.5223 2.1804 28.5223 2.64177L28.5222 35.358Z" fill="black"/>
<path d="M25.1653 30.7444H5.03217C4.57077 30.7444 4.19336 31.1218 4.19336 31.5832C4.19336 32.0446 4.57079 32.422 5.03217 32.422H25.1653C25.6267 32.422 26.0041 32.0446 26.0041 31.5832C26.0041 31.1218 25.6264 30.7444 25.165 30.7444H25.1653Z" fill="black"/>
<path d="M25.1653 26.55H5.03217C4.57077 26.55 4.19336 26.9274 4.19336 27.3888C4.19336 27.8502 4.57079 28.2276 5.03217 28.2276H25.1653C25.6267 28.2276 26.0041 27.8502 26.0041 27.3888C26.0041 26.9274 25.6264 26.55 25.165 26.55H25.1653Z" fill="black"/>
<path d="M17.34 20.4599L16.8746 23.0436C16.8201 23.3581 16.9459 23.6727 17.1976 23.8658C17.3444 23.9749 17.5206 24.0335 17.7008 24.0335C17.8307 24.0335 17.9565 24.0042 18.0782 23.9454L20.5529 22.704L23.0275 23.9454C23.3087 24.0879 23.6524 24.0586 23.904 23.8699C24.1598 23.6812 24.2859 23.3623 24.227 23.0477L23.7616 20.464L25.7329 18.6269C25.9679 18.4045 26.06 18.0689 25.9594 17.7585C25.8587 17.448 25.5945 17.2257 25.2756 17.1798L22.5198 16.798L21.2951 14.424C21.1529 14.1431 20.8676 13.967 20.5531 13.967C20.2386 13.967 19.9533 14.1431 19.8064 14.4199L18.5817 16.7939L15.8258 17.1757C15.5069 17.2219 15.2386 17.4443 15.1421 17.7544C15.0455 18.0648 15.1336 18.4004 15.3685 18.6228L17.34 20.4599ZM19.2445 18.3963C19.513 18.3586 19.7477 18.1909 19.8735 17.9516L20.5532 16.6344L21.2325 17.9516C21.3583 18.1947 21.5933 18.3586 21.8616 18.3963L23.3046 18.5976L22.2896 19.5455C22.0798 19.7383 21.9833 20.028 22.0339 20.3088L22.2814 21.693L20.9306 21.0133C20.8133 20.9545 20.6831 20.9253 20.5532 20.9253C20.4233 20.9253 20.2931 20.9545 20.1757 21.0133L18.8208 21.6927L19.0683 20.3085C19.1186 20.0274 19.0221 19.7424 18.8126 19.5452L17.7976 18.5973L19.2445 18.3963Z" fill="black"/>
<path d="M5.03217 15.6445H11.7434C12.2048 15.6445 12.5822 15.2671 12.5822 14.8057C12.5822 14.3443 12.2048 13.9669 11.7434 13.9669H5.03217C4.57077 13.9669 4.19336 14.3443 4.19336 14.8057C4.19307 15.2671 4.57079 15.6445 5.03217 15.6445Z" fill="black"/>
<path d="M5.03217 19.8389H11.7434C12.2048 19.8389 12.5822 19.4656 12.5822 19.0001C12.5822 18.5387 12.2048 18.1613 11.7434 18.1613H5.03217C4.57077 18.1613 4.19336 18.5387 4.19336 19.0001C4.19307 19.4656 4.57079 19.8389 5.03217 19.8389Z" fill="black"/>
<path d="M5.03217 24.0334H11.7434C12.2048 24.0334 12.5822 23.656 12.5822 23.1946C12.5822 22.7332 12.2048 22.3558 11.7434 22.3558H5.03217C4.57077 22.3558 4.19336 22.7332 4.19336 23.1946C4.19307 23.656 4.57079 24.0334 5.03217 24.0334Z" fill="black"/>
</svg>
