<svg width="40" height="40" viewBox="0 0 40 40" fill="none" xmlns="http://www.w3.org/2000/svg">
<path fill-rule="evenodd" clip-rule="evenodd" d="M34.1275 31.4218L35.2101 33.8696C35.8067 35.2183 35.6838 36.7783 34.8833 38.016C34.0828 39.2533 32.7138 40 31.2453 40H23.1455C21.6769 40 20.3079 39.2533 19.5075 38.016C18.707 36.7783 18.5841 35.2179 19.1807 33.8696L22.8273 25.6252C21.1564 24.3169 20.0814 22.2758 20.0814 19.9845C20.0814 16.0389 23.2691 12.8358 27.1953 12.8358C31.1214 12.8358 34.3091 16.039 34.3091 19.9845C34.3091 22.2758 33.2341 24.317 31.5632 25.6252L32.8626 28.5627H35.6774C36.0694 28.5627 36.445 28.4062 36.7221 28.1275C36.9994 27.8491 37.1552 27.4719 37.1552 27.0778V24.2733C37.1552 23.484 37.7926 22.8435 38.5778 22.8435C39.3633 22.8435 40.0007 23.484 40.0007 24.2733V27.0778C40.0007 28.2301 39.5452 29.3347 38.7345 30.1494C37.9238 30.9641 36.8242 31.4217 35.6777 31.4217H34.1274L34.1275 31.4218ZM25.3788 26.897L21.781 35.031C21.5758 35.4954 21.6182 36.0323 21.8934 36.4582C22.1688 36.8842 22.6402 37.1411 23.1455 37.1411H31.2453C31.7506 37.1411 32.222 36.8842 32.4974 36.4582C32.7726 36.0323 32.815 35.4954 32.6098 35.031L29.012 26.897C28.4321 27.0506 27.8234 27.1327 27.1953 27.1327C26.5674 27.1327 25.9584 27.0506 25.3785 26.897H25.3788ZM27.1955 15.6951C24.8397 15.6951 22.9272 17.6169 22.9272 19.9842C22.9272 22.3515 24.8397 24.2733 27.1955 24.2733C29.5514 24.2733 31.4639 22.3515 31.4639 19.9842C31.4639 17.6169 29.5514 15.6951 27.1955 15.6951Z" fill="#FB5741"/>
<path fill-rule="evenodd" clip-rule="evenodd" d="M40 17.2388C40 18.0299 39.36 18.6717 38.5713 18.6717C37.783 18.6717 37.143 18.0298 37.143 17.2388V4.2541C37.143 3.48717 36.5232 2.86585 35.7589 2.86585H4.24141C3.47677 2.86585 2.85731 3.48718 2.85731 4.2541V24.4026C2.85731 25.1696 3.47678 25.7909 4.24141 25.7909H15.714C16.5023 25.7909 17.1423 26.4328 17.1423 27.2238C17.1423 28.0148 16.5023 28.6567 15.714 28.6567H4.24141C1.89907 28.6567 0 26.752 0 24.4026V4.2541C0 1.90475 1.89907 0 4.24141 0H35.7589C38.1013 0 40 1.90475 40 4.2541V17.2388Z" fill="#FB5741"/>
<path fill-rule="evenodd" clip-rule="evenodd" d="M7.94799 11.268C7.24788 10.9177 6.96383 10.0652 7.31404 9.36579C7.66394 8.66566 8.51642 8.3816 9.21614 8.7315L11.3158 9.78182L14.885 7.40212C15.1181 7.2469 15.3917 7.16418 15.6716 7.16418H22.761C23.5438 7.16418 24.179 7.79942 24.179 8.58192C24.179 9.36475 23.5438 9.99998 22.761 9.99998H16.1007L12.2041 12.5978C11.7808 12.88 11.2388 12.9137 10.7833 12.6859L7.94758 11.2682L7.94799 11.268Z" fill="#FB5741"/>
</svg>
