<svg width="20" height="21" viewBox="0 0 20 21" fill="none" xmlns="http://www.w3.org/2000/svg">
<mask id="mask0_6441_11209" style="mask-type:alpha" maskUnits="userSpaceOnUse" x="0" y="0" width="20" height="21">
<rect y="0.5" width="20" height="20" fill="#D9D9D9"/>
</mask>
<g mask="url(#mask0_6441_11209)">
<path d="M4.87508 14.7501C5.58341 14.2084 6.37508 13.7813 7.25008 13.4688C8.12508 13.1563 9.04175 13.0001 10.0001 13.0001C10.9584 13.0001 11.8751 13.1563 12.7501 13.4688C13.6251 13.7813 14.4167 14.2084 15.1251 14.7501C15.6112 14.1806 15.9897 13.5348 16.2605 12.8126C16.5313 12.0904 16.6667 11.3195 16.6667 10.5001C16.6667 8.65286 16.0174 7.07994 14.7188 5.78133C13.4202 4.48272 11.8473 3.83341 10.0001 3.83341C8.15286 3.83341 6.57994 4.48272 5.28133 5.78133C3.98272 7.07994 3.33341 8.65286 3.33341 10.5001C3.33341 11.3195 3.46883 12.0904 3.73966 12.8126C4.0105 13.5348 4.38897 14.1806 4.87508 14.7501ZM10.0001 11.3334C9.18064 11.3334 8.48967 11.0522 7.92717 10.4897C7.36467 9.92716 7.08341 9.23619 7.08341 8.41675C7.08341 7.5973 7.36467 6.90633 7.92717 6.34383C8.48967 5.78133 9.18064 5.50008 10.0001 5.50008C10.8195 5.50008 11.5105 5.78133 12.073 6.34383C12.6355 6.90633 12.9167 7.5973 12.9167 8.41675C12.9167 9.23619 12.6355 9.92716 12.073 10.4897C11.5105 11.0522 10.8195 11.3334 10.0001 11.3334ZM10.0001 18.8334C8.8473 18.8334 7.76397 18.6147 6.75008 18.1772C5.73619 17.7397 4.85425 17.1459 4.10425 16.3959C3.35425 15.6459 2.7605 14.764 2.323 13.7501C1.8855 12.7362 1.66675 11.6529 1.66675 10.5001C1.66675 9.3473 1.8855 8.26397 2.323 7.25008C2.7605 6.23619 3.35425 5.35425 4.10425 4.60425C4.85425 3.85425 5.73619 3.2605 6.75008 2.823C7.76397 2.3855 8.8473 2.16675 10.0001 2.16675C11.1529 2.16675 12.2362 2.3855 13.2501 2.823C14.264 3.2605 15.1459 3.85425 15.8959 4.60425C16.6459 5.35425 17.2397 6.23619 17.6772 7.25008C18.1147 8.26397 18.3334 9.3473 18.3334 10.5001C18.3334 11.6529 18.1147 12.7362 17.6772 13.7501C17.2397 14.764 16.6459 15.6459 15.8959 16.3959C15.1459 17.1459 14.264 17.7397 13.2501 18.1772C12.2362 18.6147 11.1529 18.8334 10.0001 18.8334ZM10.0001 17.1667C10.7362 17.1667 11.4306 17.0591 12.0834 16.8438C12.7362 16.6286 13.3334 16.3195 13.8751 15.9167C13.3334 15.514 12.7362 15.2049 12.0834 14.9897C11.4306 14.7744 10.7362 14.6667 10.0001 14.6667C9.26397 14.6667 8.56953 14.7744 7.91675 14.9897C7.26397 15.2049 6.66675 15.514 6.12508 15.9167C6.66675 16.3195 7.26397 16.6286 7.91675 16.8438C8.56953 17.0591 9.26397 17.1667 10.0001 17.1667ZM10.0001 9.66675C10.3612 9.66675 10.6598 9.54869 10.8959 9.31258C11.132 9.07647 11.2501 8.77786 11.2501 8.41675C11.2501 8.05564 11.132 7.75703 10.8959 7.52091C10.6598 7.2848 10.3612 7.16675 10.0001 7.16675C9.63897 7.16675 9.34036 7.2848 9.10425 7.52091C8.86814 7.75703 8.75008 8.05564 8.75008 8.41675C8.75008 8.77786 8.86814 9.07647 9.10425 9.31258C9.34036 9.54869 9.63897 9.66675 10.0001 9.66675Z" fill="#1C1B1F"/>
</g>
</svg>
