<svg width="20" height="20" viewBox="0 0 20 20" fill="none" xmlns="http://www.w3.org/2000/svg">
<mask id="mask0_6441_11197" style="mask-type:alpha" maskUnits="userSpaceOnUse" x="0" y="0" width="20" height="20">
<rect width="20" height="20" fill="#D9D9D9"/>
</mask>
<g mask="url(#mask0_6441_11197)">
<path d="M10 18.3335C8.95833 18.3335 7.98264 18.1356 7.07292 17.7397C6.16319 17.3439 5.37153 16.8092 4.69792 16.1356C4.02431 15.462 3.48958 14.6703 3.09375 13.7606C2.69792 12.8509 2.5 11.8752 2.5 10.8335C2.5 9.79183 2.69792 8.81614 3.09375 7.90641C3.48958 6.99669 4.02431 6.20502 4.69792 5.53141C5.37153 4.8578 6.16319 4.32308 7.07292 3.92725C7.98264 3.53141 8.95833 3.3335 10 3.3335C11.0417 3.3335 12.0174 3.53141 12.9271 3.92725C13.8368 4.32308 14.6285 4.8578 15.3021 5.53141C15.9757 6.20502 16.5104 6.99669 16.9063 7.90641C17.3021 8.81614 17.5 9.79183 17.5 10.8335C17.5 11.8752 17.3021 12.8509 16.9063 13.7606C16.5104 14.6703 15.9757 15.462 15.3021 16.1356C14.6285 16.8092 13.8368 17.3439 12.9271 17.7397C12.0174 18.1356 11.0417 18.3335 10 18.3335ZM12.3333 14.3335L13.5 13.1668L10.8333 10.5002V6.66683H9.16667V11.1668L12.3333 14.3335ZM4.66667 1.9585L5.83333 3.12516L2.29167 6.66683L1.125 5.50016L4.66667 1.9585ZM15.3333 1.9585L18.875 5.50016L17.7083 6.66683L14.1667 3.12516L15.3333 1.9585ZM10 16.6668C11.625 16.6668 13.0035 16.1009 14.1354 14.9689C15.2674 13.837 15.8333 12.4585 15.8333 10.8335C15.8333 9.2085 15.2674 7.83002 14.1354 6.69808C13.0035 5.56614 11.625 5.00016 10 5.00016C8.375 5.00016 6.99653 5.56614 5.86458 6.69808C4.73264 7.83002 4.16667 9.2085 4.16667 10.8335C4.16667 12.4585 4.73264 13.837 5.86458 14.9689C6.99653 16.1009 8.375 16.6668 10 16.6668Z" fill="#1C1B1F"/>
</g>
</svg>
