<svg width="41" height="19" viewBox="0 0 41 19" fill="none" xmlns="http://www.w3.org/2000/svg">
<rect x="0.468186" y="0.835801" width="40.0636" height="17.4216" rx="1.65395" fill="#306FC5"/>
<path d="M9.88519 7.24864H10.7807L10.3331 6.08911L9.88519 7.24864Z" fill="white"/>
<path d="M14.648 11.1409V11.6793H16.1541V12.2592H14.648V12.8805H16.3169L17.0902 12.0107L16.3576 11.1409H14.648Z" fill="white"/>
<path d="M26.4104 6.08911L25.9219 7.24864H26.8582L26.4104 6.08911Z" fill="white"/>
<path d="M19.0025 13.2116V10.8512L17.9441 12.0108L19.0025 13.2116Z" fill="white"/>
<path d="M20.9965 11.5137C20.9558 11.2653 20.7928 11.1409 20.5484 11.1409H19.6938V11.8863H20.5894C20.8336 11.8863 20.9965 11.7621 20.9965 11.5137Z" fill="white"/>
<path d="M23.8466 11.804C23.928 11.7624 23.9689 11.6381 23.9689 11.5141C24.0096 11.3486 23.928 11.2656 23.8466 11.2242C23.7654 11.1827 23.6431 11.1827 23.5212 11.1827H22.7069V11.8454H23.5211C23.6431 11.8454 23.7653 11.8454 23.8466 11.804Z" fill="white"/>
<path d="M29.7074 5.01221V5.50913L29.4634 5.01221H27.5505V5.50913L27.3061 5.01221H24.7011C24.2534 5.01221 23.8869 5.09511 23.5614 5.26073V5.01221H21.7298V5.05366V5.26073C21.5263 5.09517 21.2821 5.01221 20.9564 5.01221H14.4031L13.9552 6.04751L13.5075 5.01221H12.0422H11.4316V5.50913L11.2281 5.01221H11.1874H9.43712L8.62291 6.95845L7.68683 9.07038L7.66962 9.11189H7.68683H9.76277H9.78876L9.80351 9.07038L10.0478 8.44935H10.577L10.8212 9.11189H13.1818V9.07038V8.61497L13.3855 9.11183H14.5658L14.7692 8.61497V9.07038V9.11189H15.7054H20.3864H20.4271V8.03514H20.5087C20.5901 8.03514 20.5901 8.03514 20.5901 8.15943V9.07044H23.5208V8.82198C23.765 8.94639 24.1311 9.07044 24.6196 9.07044H25.8409L26.0851 8.40801H26.6548L26.899 9.07044H29.2597V8.65642V8.4494L29.6263 9.07044H29.7074H29.7483H31.5393V5.01221H29.7076H29.7074ZM15.909 8.49085H15.5019H15.2578V8.24257V6.21319L15.217 6.30818V6.30704L14.2701 8.49085H14.2401H14.0224H13.6702L12.6934 6.21319V8.49085H11.3095L11.0246 7.8697H9.64054L9.35558 8.49085H8.64006L9.84419 5.59203H10.8617L12.0014 8.3665V5.59203H12.2455H13.0798L13.099 5.63354H13.1004L13.6139 6.77068L13.9827 7.62267L13.9958 7.57973L14.8098 5.59209H15.909V8.49085H15.909ZM18.7177 6.21319H17.1302V6.7515H18.677V7.33121H17.1302V7.91115H18.7177V8.53213H16.4383V5.59209H18.7177V6.21319ZM21.6209 7.281C21.622 7.28195 21.6233 7.28261 21.6246 7.2835C21.64 7.30006 21.6532 7.31667 21.6644 7.33258C21.7424 7.43656 21.8054 7.59122 21.8086 7.81801C21.8088 7.82194 21.809 7.82581 21.8092 7.82974C21.8092 7.832 21.8096 7.83397 21.8096 7.83629C21.8096 7.8376 21.8095 7.83861 21.8095 7.83986C21.8105 7.86267 21.811 7.88596 21.811 7.91115V8.49091H21.2006V8.15949C21.2006 7.99387 21.2006 7.74535 21.0783 7.57973C21.0399 7.5406 21.0009 7.51481 20.9586 7.49647C20.8976 7.45627 20.7819 7.45562 20.5901 7.45562H19.8572V8.49091H19.1654V5.59209H20.7122C21.0783 5.59209 21.3227 5.59209 21.5263 5.71632C21.7257 5.83817 21.8462 6.04024 21.8507 6.36023C21.8413 6.80093 21.5633 7.04272 21.3633 7.12425C21.3633 7.12425 21.4992 7.15207 21.6209 7.281ZM22.9916 8.49085H22.2995V5.59203H22.9916V8.49085ZM30.9289 8.49085H30.0333L28.7308 6.29597V8.11804L28.7265 8.11375V8.49264H28.0389V8.49091H27.3468L27.1026 7.86976H25.6779L25.4336 8.53219H24.6603C24.3349 8.53219 23.9276 8.44946 23.6835 8.201C23.4392 7.95254 23.3172 7.62124 23.3172 7.08298C23.3172 6.6689 23.3985 6.25452 23.6835 5.92333C23.8868 5.67469 24.2533 5.59209 24.701 5.59209H25.3524V6.21319H24.701C24.4567 6.21319 24.3349 6.25446 24.1717 6.37893C24.0498 6.5031 23.9684 6.7515 23.9684 7.04135C23.9684 7.37272 24.0091 7.57973 24.1717 7.74535C24.2941 7.86976 24.4568 7.91121 24.6603 7.91121H24.9452L25.8813 5.63366H26.2885H26.899L28.0388 8.40813V8.26663V7.33133V7.2486V5.63372H29.0563L30.2365 7.66275V5.63372H30.9288V8.49097H30.9289V8.49085Z" fill="white"/>
<path d="M21.0394 6.79909C21.0512 6.78616 21.062 6.77151 21.0712 6.75472C21.108 6.69534 21.1503 6.58838 21.1275 6.44241C21.1266 6.42901 21.1242 6.41663 21.1214 6.40466C21.1206 6.40132 21.1207 6.3984 21.1199 6.39507L21.1194 6.39513C21.0992 6.3242 21.0475 6.2806 20.9959 6.25416C20.9143 6.21289 20.7922 6.21289 20.6702 6.21289H19.856V6.87556H20.6702C20.7922 6.87556 20.9144 6.87556 20.9959 6.83405C21.0082 6.82773 21.0191 6.81916 21.0295 6.80945L21.0296 6.80999C21.0297 6.80993 21.0339 6.80552 21.0394 6.79909Z" fill="white"/>
<path d="M33.3304 12.6317C33.3304 12.3419 33.2491 12.0519 33.1271 11.8449V9.98146H33.1252V9.85705C33.1252 9.85705 31.4191 9.85705 31.1652 9.85705C30.9114 9.85705 30.6033 10.1055 30.6033 10.1055V9.85705H28.731C28.446 9.85705 28.0799 9.93995 27.9168 10.1055V9.85705H24.5792V9.98146V10.1054C24.3352 9.8985 23.8871 9.85699 23.6837 9.85699H21.4856V9.9814V10.1053C21.2822 9.89844 20.7935 9.85693 20.5492 9.85693H18.1073L17.5373 10.4781L17.0081 9.85693H16.8377H16.5604H13.3449V9.98134V10.3085V14.0396H16.9269L17.5154 13.4407L18.0256 14.0396H18.0664H20.1304H20.2239H20.2647H20.3052V13.6256V13.0872H20.5088C20.7935 13.0872 21.16 13.0872 21.4449 12.9628V13.998V14.081H23.2766V13.998V13.0043H23.3578C23.4801 13.0043 23.4801 13.0043 23.4801 13.1285V13.998V14.081H29.0157C29.3823 14.081 29.7484 13.998 29.9519 13.8324V13.998V14.081H31.7023C32.0684 14.081 32.435 14.0396 32.6792 13.8739C33.054 13.6451 33.2902 13.2402 33.3253 12.7573C33.3269 12.743 33.329 12.7287 33.3303 12.7144L33.3279 12.712C33.3294 12.6852 33.3304 12.6587 33.3304 12.6317ZM20.5089 12.3833H19.6946V12.5072V12.7558V13.0043V13.4599H18.3567L17.578 12.5487L17.5753 12.5518L17.5373 12.5072L16.6418 13.4599H14.0368V10.5612H16.6826L17.4054 11.3666L17.5574 11.5353L17.578 11.5136L18.4329 10.5612H20.5901C21.0088 10.5612 21.4776 10.6663 21.6553 11.0997C21.6767 11.1855 21.6891 11.2809 21.6891 11.3893C21.6891 12.2175 21.1192 12.3833 20.5089 12.3833ZM24.5792 12.3418C24.6605 12.4657 24.7013 12.6316 24.7013 12.8802V13.4598H24.0094V13.0872C24.0094 12.9213 24.0094 12.6316 23.8871 12.5072C23.8059 12.3833 23.6429 12.3833 23.3989 12.3833H22.6662V13.4599H21.9743V10.5197H23.521C23.8464 10.5197 24.1313 10.5197 24.3352 10.6438C24.5385 10.7682 24.7013 10.9753 24.7013 11.3066C24.7013 11.762 24.4165 12.0104 24.2129 12.0934C24.4165 12.1759 24.5385 12.259 24.5792 12.3418ZM27.3879 11.1406H25.8002V11.679H27.347V12.2589H25.8002V12.8387H27.3879V13.4598H25.1085V10.5197H27.3879V11.1406ZM29.0973 13.4599H27.7947V12.8388H29.0973C29.2192 12.8388 29.3008 12.8388 29.3824 12.7559C29.4231 12.7144 29.4636 12.6317 29.4636 12.5488C29.4636 12.4658 29.4231 12.3834 29.3824 12.3419C29.3415 12.3005 29.26 12.259 29.1379 12.259C28.4866 12.2176 27.7133 12.259 27.7133 11.3481C27.7133 10.9339 27.9575 10.4783 28.6902 10.4783H30.0334V11.1822H28.7717C28.6496 11.1822 28.5681 11.1822 28.4866 11.2237C28.4054 11.2652 28.4054 11.3481 28.4054 11.4308C28.4054 11.5551 28.4866 11.5965 28.568 11.6376C28.6496 11.6791 28.7309 11.6791 28.8122 11.6791H29.1786C29.545 11.6791 29.7892 11.762 29.952 11.9276C30.0741 12.0519 30.1556 12.259 30.1556 12.5488C30.1556 13.1698 29.7892 13.4599 29.0973 13.4599ZM32.5978 13.1698C32.4352 13.3356 32.1501 13.4599 31.7429 13.4599H30.4407V12.8388H31.7429C31.8651 12.8388 31.9467 12.8388 32.028 12.7559C32.0685 12.7144 32.1094 12.6317 32.1094 12.5488C32.1094 12.4658 32.0685 12.3834 32.028 12.3419C31.9872 12.3005 31.9059 12.259 31.7837 12.259C31.1327 12.2176 30.3591 12.259 30.3591 11.3481C30.3591 10.9545 30.5804 10.599 31.1263 10.4934C31.1916 10.4842 31.2605 10.4783 31.336 10.4783H32.6794V11.1822H31.7837H31.4582H31.4175C31.2953 11.1822 31.214 11.1822 31.1327 11.2237C31.0917 11.2652 31.051 11.3481 31.051 11.4308C31.051 11.5551 31.0917 11.5965 31.214 11.6376C31.2953 11.6791 31.3767 11.6791 31.4582 11.6791H31.4987H31.8244C32.0023 11.6791 32.1369 11.7015 32.26 11.7455C32.3727 11.787 32.7459 11.9568 32.8294 12.4002C32.8367 12.4467 32.842 12.4951 32.842 12.5488C32.842 12.7973 32.7606 13.0043 32.5978 13.1698Z" fill="white"/>
<rect x="0.468186" y="0.835801" width="40.0636" height="17.4216" rx="1.65395" stroke="white" stroke-width="0.692109"/>
</svg>
