<svg width="20" height="21" viewBox="0 0 20 21" fill="none" xmlns="http://www.w3.org/2000/svg">
<mask id="mask0_6441_11230" style="mask-type:alpha" maskUnits="userSpaceOnUse" x="0" y="0" width="20" height="21">
<rect y="0.5" width="20" height="20" fill="#D9D9D9"/>
</mask>
<g mask="url(#mask0_6441_11230)">
<path d="M4.16667 18.8334C3.70833 18.8334 3.31597 18.6702 2.98958 18.3438C2.66319 18.0174 2.5 17.6251 2.5 17.1667V5.50008C2.5 5.04175 2.66319 4.64939 2.98958 4.323C3.31597 3.99661 3.70833 3.83341 4.16667 3.83341H5V2.16675H6.66667V3.83341H13.3333V2.16675H15V3.83341H15.8333C16.2917 3.83341 16.684 3.99661 17.0104 4.323C17.3368 4.64939 17.5 5.04175 17.5 5.50008V17.1667C17.5 17.6251 17.3368 18.0174 17.0104 18.3438C16.684 18.6702 16.2917 18.8334 15.8333 18.8334H4.16667ZM4.16667 17.1667H15.8333V8.83341H4.16667V17.1667ZM4.16667 7.16675H15.8333V5.50008H4.16667V7.16675Z" fill="#1C1B1F"/>
</g>
</svg>
