<svg width="40" height="40" viewBox="0 0 40 40" fill="none" xmlns="http://www.w3.org/2000/svg">
<path d="M22.3396 19.9906L29.4969 12.8494C30.1496 12.1967 30.1496 11.1384 29.4969 10.4856C28.8442 9.83291 27.786 9.83291 27.1333 10.4856L19.9927 17.6435L12.852 10.4856C12.1993 9.83291 11.1411 9.83291 10.4884 10.4856C9.83576 11.1384 9.83576 12.1967 10.4884 12.8494L17.6458 19.9906L10.4884 27.1317C10.1733 27.4443 9.99609 27.8697 9.99609 28.3136C9.99609 28.7574 10.1733 29.1829 10.4884 29.4955C10.801 29.8106 11.2264 29.9879 11.6702 29.9879C12.1141 29.9879 12.5395 29.8106 12.852 29.4955L19.9927 22.3377L27.1333 29.4955C27.4459 29.8106 27.8713 29.9879 28.3151 29.9879C28.759 29.9879 29.1844 29.8106 29.4969 29.4955C29.812 29.1829 29.9893 28.7574 29.9893 28.3136C29.9893 27.8697 29.812 27.4443 29.4969 27.1317L22.3396 19.9906Z" fill="white"/>
</svg>
