<svg width="262" height="197" viewBox="0 0 262 197" fill="none" xmlns="http://www.w3.org/2000/svg">
<path fill-rule="evenodd" clip-rule="evenodd" d="M89.5184 0.229544C78.3558 1.52494 68.941 9.69784 65.6958 20.9104C64.501 25.0389 64.6022 32.146 65.9154 36.2969C68.9048 45.7481 77.01 53.326 86.5265 55.5671C92.8481 57.0559 98.9963 56.397 104.901 53.5976C114.189 49.1951 120.255 40.3956 121.066 30.1506C122.077 17.3735 113.679 5.08336 101.411 1.38719C96.8814 0.0224382 93.8464 -0.27308 89.5184 0.229544ZM90.4116 0.837188C90.4116 0.946115 89.3668 1.64608 88.0894 2.39293C86.812 3.13979 84.6008 4.85184 83.1757 6.19754L80.5837 8.64375L78.3001 8.03366C77.0442 7.69809 75.9041 7.31074 75.7663 7.17299C74.9176 6.32503 82.7592 2.32552 87.1327 1.37596C88.8017 1.01352 90.2224 0.699443 90.2893 0.677951C90.3563 0.656947 90.4116 0.728262 90.4116 0.837188ZM95.7892 0.883592C95.7892 1.01792 95.6792 1.12782 95.5448 1.12782C95.4103 1.12782 95.3003 1.01792 95.3003 0.883592C95.3003 0.749265 95.4103 0.639362 95.5448 0.639362C95.6792 0.639362 95.7892 0.749265 95.7892 0.883592ZM89.5032 5.45313L87.2871 9.77844L85.0603 9.54202C81.3624 9.14979 81.2676 8.85427 84.039 6.36459C85.8802 4.71116 90.7675 1.36668 91.6768 1.13857C91.7003 1.13271 90.7225 3.07433 89.5032 5.45313ZM102.774 2.59662C105.727 3.70005 109.967 6.25518 109.967 6.93072C109.967 7.43285 107.348 8.45471 106.063 8.45471C105.608 8.45471 104.31 7.57402 103.178 6.49794C102.046 5.42187 99.975 3.75085 98.5763 2.78467L96.0337 1.02818L98.1065 1.32711C99.2461 1.49172 101.347 2.06273 102.774 2.59662ZM98.0356 3.50613C99.6235 4.54508 101.669 6.18191 102.581 7.14271L104.24 8.88944L103.07 9.1283C98.5157 10.0583 98.9718 10.2967 96.6105 5.75207C95.4284 3.47731 94.6164 1.61628 94.8051 1.61628C94.9943 1.61628 96.4477 2.46669 98.0356 3.50613ZM92.3671 6.01241V9.92009H90.4116C89.2832 9.92009 88.4561 9.68661 88.4561 9.36813C88.4561 8.82838 91.9457 2.10474 92.2253 2.10474C92.3035 2.10474 92.3671 3.86319 92.3671 6.01241ZM95.492 5.15761C98.2033 10.01 98.2013 9.92009 95.5971 9.92009H93.3448V6.01241C93.3448 3.86319 93.4441 2.10474 93.5653 2.10474C93.6866 2.10474 94.5533 3.47878 95.492 5.15761ZM154.552 7.57548C153.736 8.39121 153.819 9.89469 154.699 10.2317C155.32 10.4701 155.432 12.1548 155.432 21.2313C155.432 33.1703 155.675 34.3098 158.424 35.2672C159.477 35.6336 167.446 35.8084 183.127 35.8084C205.624 35.8084 206.303 35.8358 207.253 36.7854C208.185 37.7159 208.231 38.4134 208.231 51.4636C208.231 66.6507 208.379 67.4919 211.223 68.4824C212.265 68.8454 219.594 69.0237 233.498 69.0237C251.231 69.0237 254.384 69.1311 255.356 69.7676C256.688 70.639 257.935 70.302 258.363 68.9553C258.972 67.0366 256.463 65.7495 255.163 67.3141C254.639 67.9447 251.582 68.0467 233.17 68.0467C212.389 68.0467 211.75 68.0184 210.518 67.0508L209.25 66.0548L209.107 51.6213L208.964 37.1878L207.593 36.0097L206.221 34.8315H182.379H158.536L157.473 33.7012C156.446 32.609 156.41 32.1943 156.41 21.4897C156.41 14.9615 156.597 10.4085 156.866 10.4085C157.117 10.4085 157.465 9.95819 157.64 9.40818C158.232 7.5452 155.943 6.18631 154.552 7.57548ZM77.6773 8.73753L80.0381 9.50881L78.3827 12.02C77.4729 13.4009 76.4957 15.2345 76.2111 16.0952L75.6944 17.6597L72.5201 16.78C70.7743 16.2964 69.2089 15.7635 69.0412 15.596C68.8736 15.4289 69.0486 14.7065 69.4299 13.9914C70.3275 12.3082 74.2282 7.96625 74.8432 7.96625C75.1038 7.96625 76.3793 8.31355 77.6773 8.73753ZM113.732 10.2864C115.849 12.8704 117.463 15.298 117.217 15.5296C116.888 15.8388 111.716 17.247 110.909 17.247C110.404 17.247 109.77 16.5206 109.31 15.4153C108.89 14.4081 107.985 12.6682 107.298 11.5491L106.05 9.51516L108.13 8.77905C111.272 7.66829 111.676 7.77673 113.732 10.2864ZM84.6462 10.2205L86.8393 10.5209L85.6147 14.4945C84.9415 16.6799 84.325 18.5497 84.2453 18.6493C83.9946 18.9634 77.9466 18.1892 77.2402 17.753C76.4297 17.2524 77.0104 15.595 79.2133 12.1245C80.6883 9.80091 80.9396 9.71298 84.6462 10.2205ZM106.905 12.4845C107.755 13.8952 108.672 15.6448 108.944 16.3736C109.417 17.6382 109.358 17.7144 107.625 18.0495C106.628 18.2425 104.859 18.4159 103.695 18.4344L101.579 18.4681L100.402 14.8047C99.754 12.7898 99.2216 10.9903 99.2177 10.8057C99.2114 10.4701 101.086 10.1448 103.875 9.99824C105.176 9.92986 105.552 10.2376 106.905 12.4845ZM92.3671 15.0982V19.2008H89.0266C87.1889 19.2008 85.5565 19.0719 85.3986 18.9141C85.0999 18.6156 86.153 14.6645 87.2119 12.1089C87.7863 10.7226 87.9589 10.645 90.0948 10.8149L92.3671 10.9952V15.0982ZM99.4157 14.1956C100.11 16.2789 100.678 18.2571 100.678 18.5917C100.678 19.024 99.6132 19.2008 97.0114 19.2008H93.3448V15.0768V10.9532L95.4226 10.7661C96.5651 10.6635 97.6474 10.5409 97.8269 10.494C98.0063 10.4471 98.7215 12.1128 99.4157 14.1956ZM72.219 17.5425C73.755 17.9831 75.0715 18.3944 75.1444 18.4569C75.2172 18.5189 75.0657 19.6458 74.808 20.9612C74.5499 22.2766 74.2018 24.397 74.0346 25.6729L73.7296 27.9931H69.537H65.3444L65.6528 25.3671C66.1539 21.1097 67.8587 16.1406 68.7068 16.4659C69.1024 16.6178 70.6829 17.1024 72.219 17.5425ZM118.873 19.2291C119.376 20.6911 119.919 23.2614 120.081 24.9402L120.374 27.9931H116.149H111.922L111.901 26.1614C111.889 25.1542 111.601 23.0108 111.261 21.3989L110.642 18.4681L113.849 17.4223C115.612 16.8474 117.259 16.4205 117.507 16.4742C117.756 16.5275 118.37 17.7672 118.873 19.2291ZM82.4766 19.5256L84.0747 19.8016L83.7965 22.3099C83.6435 23.6893 83.4094 25.5327 83.2764 26.4056L83.0339 27.9931H78.9009H74.7675V26.6176C74.7675 25.0462 75.711 19.6526 76.0948 19.0318C76.3285 18.6533 78.3074 18.8066 82.4766 19.5256ZM110.415 21.1786C110.706 22.535 110.944 24.6232 110.944 25.819V27.9931H106.883H102.821L102.361 23.8671L101.9 19.7411L104.833 19.2892C110.025 18.4886 109.823 18.4203 110.415 21.1786ZM90.9689 20.1777H92.3671V24.0854V27.9931H88.1486H83.93L84.2718 24.524C84.7616 19.5598 84.786 19.5227 87.3761 19.8773C88.5827 20.0424 90.1994 20.1777 90.9689 20.1777ZM101.342 21.521C101.509 22.5287 101.647 24.3419 101.65 25.5508L101.656 27.7489H97.5003H93.3448V23.9887V20.229L95.9114 20.0493C97.3228 19.9506 99.0544 19.8295 99.7584 19.7796C100.881 19.7005 101.076 19.9149 101.342 21.521ZM74.0146 30.3133C74.1627 31.321 74.5162 33.4321 74.7997 35.0054C75.0838 36.5782 75.2476 37.9147 75.1639 37.9752C75.0804 38.0353 73.5037 38.4827 71.6607 38.9688C68.83 39.7151 68.2414 39.7469 67.8699 39.1734C67.1371 38.0417 66.0713 34.1189 65.7086 31.2194L65.3663 28.4815H69.5555H73.7452L74.0146 30.3133ZM83.2823 29.5806C83.4045 30.1848 83.6225 32.0282 83.7672 33.6768L84.0298 36.6745L80.743 37.0818C78.9352 37.306 77.1283 37.4956 76.7269 37.5034C75.999 37.518 74.8432 32.9338 74.7904 29.8248L74.7675 28.4815H78.9137C82.8217 28.4815 83.0725 28.5446 83.2823 29.5806ZM92.3671 32.3506V36.2197L88.7044 36.3804C86.2644 36.4874 84.9708 36.354 84.8281 35.9804C84.7103 35.6721 84.46 33.859 84.2718 31.9506L83.93 28.4815H88.1486H92.3671V32.3506ZM101.65 30.5575C101.647 31.6995 101.509 33.458 101.342 34.4652L101.039 36.2969H97.1918H93.3448V32.3892V28.4815H97.5003H101.656L101.65 30.5575ZM110.944 30.6425C110.944 31.8309 110.683 33.9328 110.365 35.3126C109.864 37.4809 109.647 37.7891 108.776 37.5781C108.221 37.4438 106.38 37.1805 104.684 36.9934C102.279 36.7277 101.662 36.4976 101.874 35.9457C102.023 35.5564 102.287 33.7178 102.459 31.8597L102.774 28.4815H106.859H110.944V30.6425ZM120.086 31.5667C119.928 33.2636 119.339 35.8754 118.779 37.3715L117.761 40.0908L114.231 38.9561C111.938 38.2185 110.758 37.5967 110.866 37.181C110.958 36.8288 111.282 34.7275 111.586 32.5113L112.139 28.4815H116.257H120.374L120.086 31.5667ZM85.5394 41.7207C86.2385 43.8709 86.6858 45.7056 86.5333 45.7979C86.3808 45.8902 84.9777 46.0431 83.4152 46.1379L80.5744 46.3103L78.9171 43.6238C78.0053 42.1462 77.1209 40.3555 76.9513 39.6448C76.6452 38.3636 76.6736 38.3484 80.2273 37.9142C82.1984 37.6734 83.9144 37.5517 84.0395 37.6436C84.1652 37.7354 84.8398 39.5701 85.5394 41.7207ZM92.3671 41.4257V45.5776H90.0048C87.3874 45.5776 87.5164 45.7603 85.777 39.594L85.1224 37.2738H88.745H92.3671V41.4257ZM100.413 38.8613C100.224 39.7342 99.6411 41.6025 99.117 43.0132L98.1632 45.5776H95.754H93.3448V41.4257V37.2738H97.05H100.756L100.413 38.8613ZM106.17 38.0006C107.712 38.176 109.074 38.4818 109.197 38.6806C109.47 39.1221 106.813 44.4713 105.722 45.6758C105.071 46.3948 104.458 46.4925 102.195 46.2385C100.688 46.069 99.3869 45.8736 99.3023 45.8043C99.2177 45.7344 99.7403 43.7806 100.464 41.4623C101.497 38.1511 101.95 37.2938 102.573 37.4648C103.009 37.5845 104.628 37.8258 106.17 38.0006ZM76.241 40.2207C76.5788 41.0354 77.5585 42.8701 78.4189 44.2969L79.9828 46.8921L77.2529 47.7371L74.523 48.5821L72.4174 46.2693C69.9799 43.592 68.6404 41.2421 69.226 40.671C69.5526 40.3526 74.0053 38.9732 75.3194 38.7836C75.4881 38.7592 75.9031 39.4059 76.241 40.2207ZM114.088 39.741L117.335 40.7428L116.31 42.5497C115.294 44.3428 113.304 46.7289 111.853 47.8944C111.245 48.3823 110.628 48.3447 108.699 47.7014C107.38 47.2613 106.241 46.8564 106.17 46.8012C106.098 46.746 106.822 45.4037 107.778 43.8192C108.734 42.2341 109.642 40.4424 109.795 39.8382C110.133 38.5008 110.074 38.5023 114.088 39.741ZM89.1894 50.3176C90.2649 52.3853 91.2236 54.2693 91.3204 54.5042C91.6382 55.2804 87.7741 53.0037 84.9117 50.7284C80.9772 47.6013 81.1644 47.0308 86.2561 46.6346C87.0085 46.576 87.6841 47.4245 89.1894 50.3176ZM92.3671 50.218C92.3671 52.2329 92.26 53.8814 92.129 53.8814C91.886 53.8814 88.4561 47.2784 88.4561 46.811C88.4561 46.6698 89.336 46.5545 90.4116 46.5545H92.3671V50.218ZM96.0605 49.8516C93.3717 55.0762 93.3605 55.0796 93.3522 50.5843L93.3448 46.5545H95.5511H97.757L96.0605 49.8516ZM104.1 47.4005C104.5 47.7684 99.4856 52.1625 97.0183 53.6074C95.7623 54.3425 94.6663 54.8701 94.5832 54.7792C94.4996 54.6884 95.4191 52.7961 96.6272 50.5741L98.8227 46.534L101.339 46.8549C102.723 47.0313 103.966 47.2765 104.1 47.4005ZM81.887 49.053C82.6765 49.8897 84.8423 51.6482 86.6995 52.9607C88.5568 54.2732 89.7579 55.3468 89.3688 55.3468C86.416 55.3468 78.2678 51.9496 76.4761 49.9708C75.733 49.1507 75.8127 49.053 77.7931 48.3535C78.9523 47.9437 80.0244 47.591 80.1759 47.57C80.3275 47.549 81.0975 48.2163 81.887 49.053ZM109.233 48.7394L110.7 49.3256L107.927 51.1055C105.098 52.9216 98.6936 55.3468 96.7274 55.3468C95.91 55.3468 96.3588 54.8745 98.5245 53.4555C100.112 52.4156 102.276 50.6625 103.332 49.5605C105.372 47.4308 105.807 47.3703 109.233 48.7394ZM148.258 56.164C147.399 58.2282 146.976 58.6576 145.235 59.2315C144.122 59.5988 143.21 60.0487 143.21 60.2314C143.21 60.4141 144.122 60.8639 145.235 61.2313C146.976 61.8052 147.399 62.2346 148.258 64.2988L149.256 66.6991L150.318 64.2968C151.234 62.2224 151.656 61.8111 153.405 61.2874C154.52 60.9538 155.432 60.5049 155.432 60.29C155.432 60.0751 154.52 59.5984 153.404 59.2305C151.678 58.6615 151.218 58.2038 150.316 56.1625L149.256 53.7637L148.258 56.164ZM35.8758 59.0103C34.4893 62.7416 34.3089 62.9721 32.3006 63.5734C31.1889 63.9061 30.2796 64.3437 30.2796 64.546C30.2796 64.7487 31.2143 65.2542 32.3573 65.6699C34.0777 66.2961 34.5626 66.7699 35.1767 68.4253C36.2102 71.2115 36.4531 71.3048 37.139 69.1785C37.9437 66.683 38.2493 66.3616 40.5392 65.6069C41.6186 65.2508 42.5015 64.8102 42.5015 64.6275C42.5015 64.4448 41.5888 63.9945 40.4732 63.6267C38.7411 63.0552 38.284 62.5985 37.3419 60.4957C36.4091 58.4134 36.1828 58.1843 35.8758 59.0103ZM53.8924 70.4216C39.7364 75.3087 32.5788 98.445 39.138 118.114C42.6325 128.593 49.4509 135.401 57.2378 136.186C58.678 136.331 68.1065 135.722 78.1896 134.833L96.5225 133.216L99.512 134.594C101.156 135.353 103.576 136.08 104.89 136.21C106.203 136.341 128.668 134.621 154.812 132.388L202.346 128.328L203.7 127.037C205.052 125.747 205.075 125.744 226.075 123.987L247.097 122.229L248.666 120.415C249.53 119.418 250.598 117.801 251.04 116.822C251.811 115.114 251.969 115.028 254.927 114.712C257.777 114.407 258.106 114.245 259.254 112.584C260.681 110.519 262.011 105.873 262 102.991C261.988 99.9568 260.803 95.5998 259.423 93.515C258.168 91.6217 256.695 91.0273 253.208 91.0087C252.229 91.0034 251.712 90.4797 250.611 88.3735C248.034 83.4459 249.767 83.9012 226.04 81.9141L205.053 80.1566L203.587 78.8139L202.12 77.4716L156.899 73.6401C132.027 71.5329 109.588 69.7969 107.033 69.7827C102.859 69.7588 102.093 69.9009 99.4656 71.1885L96.5416 72.6202L77.7105 71.0532C67.3531 70.1916 58.3289 69.4994 57.6567 69.5155C56.9845 69.5312 55.2906 69.939 53.8924 70.4216ZM65.558 71.8601C72.438 75.2315 77.8308 83.9124 79.6831 94.5965C80.567 99.697 80.0302 111.334 78.7 115.903C76.3236 124.063 71.4328 130.927 65.9452 133.804C63.5854 135.04 62.7729 135.201 58.8789 135.201C54.9855 135.201 54.1725 135.04 51.8146 133.805C46.2752 130.901 41.9002 124.747 39.2578 116.142C38.0161 112.099 37.911 111.11 37.8851 103.216C37.8533 93.4877 38.4023 90.5579 41.5003 83.9217C44.5274 77.4369 48.6765 73.0872 53.6299 71.2046C56.4541 70.1315 62.7342 70.4763 65.558 71.8601ZM113.367 71.931C122.686 76.733 128.896 91.3209 127.866 105.992C126.964 118.839 121.184 130.075 113.56 133.802C109.737 135.671 104.87 135.933 101.012 134.478C87.9726 129.561 81.2715 106.593 87.4656 88.0496C90.3871 79.3038 95.7926 72.9934 102.142 70.9169C104.532 70.1354 111.019 70.7215 113.367 71.931ZM79.2911 71.9446C85.5419 72.4766 91.7604 73.0359 93.1102 73.1868L95.5648 73.4623L93.251 75.9637C89.4064 80.12 86.3172 87.0356 85.0051 94.4235C84.2292 98.7904 84.3319 108.077 85.2045 112.497C86.6663 119.9 89.6924 126.234 93.7203 130.324L95.8073 132.444L92.7425 132.736C85.6631 133.411 67.491 134.966 66.6795 134.966C66.1358 134.966 66.6741 134.387 68.0894 133.45C73.2285 130.049 77.5096 123.246 79.7389 114.939C81.3184 109.053 81.3204 96.583 79.7428 90.7601C77.5609 82.7064 72.9669 75.5373 67.9496 72.3559C65.2969 70.6732 64.635 70.6976 79.2911 71.9446ZM132.527 72.4307C141.764 73.2298 161.201 74.8764 175.721 76.0897L202.12 78.2956L204.007 80.3759C212.342 89.5668 213.304 111.631 205.867 123.037C202.999 127.435 202.953 127.458 195.765 128.078C173.576 129.994 114.49 134.965 113.904 134.965C113.515 134.966 114.175 134.344 115.371 133.585C120.568 130.284 124.811 123.844 127.171 115.672C128.163 112.236 128.3 110.701 128.3 102.972C128.3 96.1156 128.112 93.5013 127.447 91.101C124.908 81.9258 120.698 75.5695 114.54 71.6169C113.681 71.0654 113.689 71.0337 114.683 71.0063C115.261 70.9902 123.291 71.6315 132.527 72.4307ZM55.2793 75.9984C52.6927 76.8244 48.7113 80.8126 46.7499 84.542C43.6905 90.3591 42.7665 94.593 42.7807 102.727C42.7944 110.84 43.5296 114.619 46.1539 120.071C49.2153 126.43 54.2322 130.576 58.8525 130.565C63.5912 130.553 68.657 126.422 71.6132 120.159C73.9559 115.195 74.8041 111.599 75.1185 105.297C76.0508 86.6082 66.4507 72.4307 55.2793 75.9984ZM101.753 76.6378C90.985 81.9991 86.6213 104.24 93.3913 119.252C97.1957 127.688 103.477 131.961 109.294 130.07C117.429 127.425 122.801 116.537 122.784 102.727C122.775 95.8498 121.795 91.1904 119.227 85.814C114.937 76.8341 108.329 73.3636 101.753 76.6378ZM228.433 82.8768L246.922 84.4819L248.103 85.9112C254.939 94.1871 254.799 113.397 247.854 120.045L246.383 121.453L227.674 123.06C217.383 123.944 208.247 124.676 207.369 124.688L205.775 124.708L206.926 122.876C213.266 112.796 213.182 91.7048 206.767 82.7035L205.72 81.2351L207.831 81.2537C208.992 81.264 218.263 81.9942 228.433 82.8768ZM258.285 93.4696C258.975 94.2887 259.875 96.0867 260.284 97.4662C261.789 102.528 260.874 109.4 258.285 112.474C257.211 113.749 256.699 113.962 254.703 113.962H252.373L253.094 111.398C254.087 107.859 254.076 97.4027 253.075 94.3014L252.326 91.9812H254.679C256.701 91.9812 257.208 92.1903 258.285 93.4696ZM252.501 126.418C252.039 127.627 251.486 128.616 251.271 128.616C251.058 128.616 250.031 128.972 248.99 129.406L247.097 130.197L249.134 130.994C251.651 131.978 251.798 132.125 252.779 134.631L253.572 136.658L254.735 134.267C255.699 132.284 256.272 131.731 258.097 131.025C260.531 130.084 260.667 130.294 256.602 128.71C255.757 128.381 255.137 127.574 254.69 126.221C254.326 125.12 253.874 124.22 253.685 124.22C253.496 124.22 252.963 125.209 252.501 126.418ZM0.737164 125.964C-0.181437 126.882 -0.241082 127.722 0.55579 128.518C1.35951 129.321 2.65846 129.254 3.39128 128.371C3.88945 127.772 5.54283 127.639 12.5177 127.639C24.0884 127.639 23.4353 126.966 23.4353 138.888V147.741L24.8643 149.169L26.2933 150.596H49.5771C74.1094 150.596 75.1102 150.681 75.9305 152.816C76.0972 153.251 76.2341 159.76 76.2341 167.282V180.956L77.6631 182.384L79.0921 183.812H116.232C148.794 183.812 153.407 183.902 153.654 184.544C153.991 185.424 155.496 185.507 156.312 184.691C157.928 183.077 155.699 180.535 154.009 182.063C153.247 182.752 149.188 182.835 116.161 182.835C79.819 182.835 79.1503 182.818 78.1896 181.858C77.2598 180.929 77.2119 180.229 77.2109 167.57C77.2104 152.427 76.9977 151.351 73.7897 150.257C72.5651 149.84 65.5844 149.667 49.2236 149.647C27.0398 149.62 26.3397 149.591 25.3908 148.643C24.4908 147.743 24.413 147.014 24.4121 139.484C24.4116 132.67 24.2683 131.017 23.5565 129.599C22.219 126.935 21.2143 126.677 12.1285 126.669C5.50568 126.663 3.88701 126.526 3.39128 125.929C2.60859 124.987 1.70319 124.999 0.737164 125.964ZM124.314 147.479C123.429 149.607 123.047 149.989 121.278 150.518C120.166 150.851 119.255 151.3 119.255 151.516C119.255 151.731 120.154 152.176 121.253 152.505C122.974 153.02 123.399 153.439 124.324 155.535L125.399 157.967L126.395 155.609C127.249 153.592 127.686 153.156 129.434 152.579C130.558 152.208 131.477 151.73 131.477 151.515C131.477 151.3 130.575 150.854 129.472 150.524C127.738 150.005 127.321 149.593 126.396 147.484L125.326 145.045L124.314 147.479ZM206.276 157.173C206.276 166.876 206.245 167.186 205.233 167.727C204.282 168.235 203.557 167.652 196.976 161.088C192.304 156.428 189.552 154.021 189.165 154.26C188.765 154.506 190.948 157.011 195.764 161.83C205.444 171.518 205.605 171.112 192.065 171.112C183.295 171.112 181.832 171.216 181.832 171.844C181.832 172.473 183.295 172.577 192.065 172.577C205.605 172.577 205.444 172.171 195.764 181.859C190.948 186.678 188.765 189.182 189.165 189.429C189.551 189.667 192.288 187.291 196.919 182.697C203.261 176.405 204.201 175.645 205.176 176.025C206.268 176.45 206.276 176.525 206.276 186.727C206.276 193.25 206.454 197 206.765 197C207.075 197 207.253 193.261 207.253 186.759C207.253 176.808 207.283 176.503 208.296 175.962C209.246 175.454 209.967 176.032 216.49 182.539C220.424 186.462 223.805 189.673 224.003 189.673C225.191 189.673 223.605 187.705 217.467 181.56C208.127 172.212 207.965 172.577 221.464 172.577C230.234 172.577 231.697 172.473 231.697 171.844C231.697 171.216 230.234 171.112 221.464 171.112C207.924 171.112 208.085 171.518 217.765 161.83C222.581 157.011 224.764 154.506 224.364 154.26C223.978 154.021 221.244 156.407 216.611 161.025C206.879 170.725 207.253 170.871 207.253 157.378C207.253 150.903 207.075 147.177 206.765 147.177C206.455 147.177 206.276 150.835 206.276 157.173Z" fill="white"/>
</svg>
