<svg width="41" height="19" viewBox="0 0 41 19" fill="none" xmlns="http://www.w3.org/2000/svg">
<rect x="0.529221" y="0.835801" width="40.0636" height="17.4216" rx="1.65395" fill="white"/>
<g clip-path="url(#clip0_6859_12914)">
<path d="M8.06402 10.9066C7.77544 11.1785 7.40056 11.2972 6.80711 11.2972H6.56062V8.04747H6.80711C7.40056 8.04747 7.76068 8.1583 8.06402 8.44491C8.38166 8.74012 8.57275 9.19752 8.57275 9.66832C8.57275 10.1401 8.38166 10.6115 8.06402 10.9066ZM6.9911 7.21483H5.64288V12.1292H6.98398C7.69712 12.1292 8.21205 11.9536 8.66407 11.5618C9.20118 11.0979 9.51882 10.3987 9.51882 9.6754C9.51882 8.22513 8.48061 7.21483 6.9911 7.21483Z" fill="#A63411"/>
<path d="M9.94153 12.1292H10.86V7.21483H9.94153V12.1292Z" fill="#A63411"/>
<path d="M13.1053 9.10105C12.5542 8.8882 12.3923 8.7478 12.3923 8.48229C12.3923 8.17279 12.6807 7.93759 13.0766 7.93759C13.3518 7.93759 13.5779 8.05556 13.8172 8.33559L14.2978 7.67882C13.9029 7.3183 13.4304 7.13397 12.9141 7.13397C12.081 7.13397 11.4455 7.73781 11.4455 8.54211C11.4455 9.21916 11.7414 9.5658 12.6041 9.88981C12.9636 10.0222 13.1466 10.1104 13.2389 10.1697C13.4225 10.2948 13.5143 10.4718 13.5143 10.6782C13.5143 11.0764 13.211 11.3714 12.8012 11.3714C12.3631 11.3714 12.0103 11.1427 11.7988 10.7159L11.2054 11.3122C11.6286 11.9605 12.1368 12.2478 12.8357 12.2478C13.7902 12.2478 14.4597 11.5855 14.4597 10.6341C14.4597 9.85331 14.1501 9.49987 13.1053 9.10105Z" fill="#A63411"/>
<path d="M14.7498 9.67541C14.7498 11.1199 15.8365 12.24 17.2351 12.24C17.6305 12.24 17.9691 12.1589 18.3866 11.9536V10.8252C18.0195 11.2087 17.6943 11.3634 17.2778 11.3634C16.3528 11.3634 15.6963 10.6635 15.6963 9.66834C15.6963 8.7248 16.3736 7.98052 17.2351 7.98052C17.6732 7.98052 18.0048 8.14367 18.3866 8.53347V7.40563C17.9835 7.19216 17.652 7.10376 17.2568 7.10376C15.8653 7.10376 14.7498 8.2465 14.7498 9.67541Z" fill="#A63411"/>
<path d="M25.6696 10.5161L24.414 7.21509H23.4106L25.4087 12.2555H25.903L27.9372 7.21509H26.9416L25.6696 10.5161Z" fill="#A63411"/>
<path d="M28.3527 12.1292H30.9574V11.2972H29.2704V9.97067H30.8952V9.13825H29.2704V8.04747H30.9574V7.21483H28.3527V12.1292Z" fill="#A63411"/>
<path d="M32.7502 9.47733H32.4819V7.9889H32.7647C33.3367 7.9889 33.6476 8.23901 33.6476 8.71729C33.6476 9.21134 33.3367 9.47733 32.7502 9.47733ZM34.5928 8.66567C34.5928 7.74565 33.9856 7.21483 32.9264 7.21483H31.5645V12.1292H32.4819V10.155H32.6016L33.8729 12.1292H35.0024L33.5202 10.0588C34.2119 9.91203 34.5928 9.41814 34.5928 8.66567Z" fill="#A63411"/>
<path d="M35.0054 7.45881H34.9887V7.34592H35.0064C35.0553 7.34592 35.0806 7.36428 35.0806 7.40147C35.0806 7.4397 35.055 7.45881 35.0054 7.45881ZM35.1794 7.39988C35.1794 7.31375 35.1226 7.26665 35.0228 7.26665H34.8899V7.69861H34.9887V7.53107L35.1046 7.69861H35.2251L35.089 7.52048C35.1472 7.50411 35.1794 7.45985 35.1794 7.39988Z" fill="#A63411"/>
<path d="M35.0422 7.79134C34.8841 7.79134 34.7547 7.65397 34.7547 7.48258C34.7547 7.31058 34.8824 7.17328 35.0422 7.17328C35.1996 7.17328 35.3279 7.31373 35.3279 7.48258C35.3279 7.65253 35.1996 7.79134 35.0422 7.79134ZM35.0436 7.10549C34.8426 7.10549 34.683 7.2729 34.683 7.48204C34.683 7.69104 34.8444 7.85864 35.0436 7.85864C35.2394 7.85864 35.3997 7.68924 35.3997 7.48204C35.3997 7.27585 35.2394 7.10549 35.0436 7.10549Z" fill="#A63411"/>
<circle cx="21.2532" cy="9.8926" r="2.42238" fill="url(#paint0_linear_6859_12914)"/>
</g>
<rect x="0.529221" y="0.835801" width="40.0636" height="17.4216" rx="1.65395" stroke="white" stroke-width="0.692109"/>
<defs>
<linearGradient id="paint0_linear_6859_12914" x1="21.2532" y1="7.47022" x2="21.2532" y2="12.315" gradientUnits="userSpaceOnUse">
<stop stop-color="#A02A1F"/>
<stop offset="1" stop-color="#F48514"/>
</linearGradient>
<clipPath id="clip0_6859_12914">
<rect width="29.7607" height="5.53687" fill="white" transform="translate(5.68073 6.77808)"/>
</clipPath>
</defs>
</svg>
