<svg width="43" height="42" viewBox="0 0 43 42" fill="none" xmlns="http://www.w3.org/2000/svg">
<path d="M37.1356 10.204L27.2921 0.360527C27.0623 0.130676 26.7487 0 26.4219 0H9.19531C7.15987 0 5.50391 1.65596 5.50391 3.69141V38.3086C5.50391 40.344 7.15987 42 9.19531 42H33.8047C35.8401 42 37.4961 40.344 37.4961 38.3086V11.0742C37.4961 10.7387 37.3552 10.4236 37.1356 10.204ZM27.6523 4.20107L33.295 9.84375H28.8828C28.2043 9.84375 27.6523 9.29176 27.6523 8.61328V4.20107ZM33.8047 39.5391H9.19531C8.51683 39.5391 7.96484 38.9871 7.96484 38.3086V3.69141C7.96484 3.01293 8.51683 2.46094 9.19531 2.46094H25.1914V8.61328C25.1914 10.6487 26.8474 12.3047 28.8828 12.3047H35.0352V38.3086C35.0352 38.9871 34.4832 39.5391 33.8047 39.5391Z" fill="white"/>
<path d="M28.8828 17.3906H14.1172C13.4376 17.3906 12.8867 17.9415 12.8867 18.6211C12.8867 19.3006 13.4376 19.8516 14.1172 19.8516H28.8828C29.5624 19.8516 30.1133 19.3006 30.1133 18.6211C30.1133 17.9415 29.5624 17.3906 28.8828 17.3906Z" fill="white"/>
<path d="M28.8828 22.3125H14.1172C13.4376 22.3125 12.8867 22.8634 12.8867 23.543C12.8867 24.2225 13.4376 24.7734 14.1172 24.7734H28.8828C29.5624 24.7734 30.1133 24.2225 30.1133 23.543C30.1133 22.8634 29.5624 22.3125 28.8828 22.3125Z" fill="white"/>
<path d="M28.8828 27.2344H14.1172C13.4376 27.2344 12.8867 27.7853 12.8867 28.4648C12.8867 29.1444 13.4376 29.6953 14.1172 29.6953H28.8828C29.5624 29.6953 30.1133 29.1444 30.1133 28.4648C30.1133 27.7853 29.5624 27.2344 28.8828 27.2344Z" fill="white"/>
<path d="M23.9609 32.1562H14.1172C13.4376 32.1562 12.8867 32.7072 12.8867 33.3867C12.8867 34.0663 13.4376 34.6172 14.1172 34.6172H23.9609C24.6405 34.6172 25.1914 34.0663 25.1914 33.3867C25.1914 32.7072 24.6405 32.1562 23.9609 32.1562Z" fill="white"/>
</svg>
