<svg width="20" height="21" viewBox="0 0 20 21" fill="none" xmlns="http://www.w3.org/2000/svg">
<path d="M10 0.333008C4.5 0.333008 0 4.82301 0 10.353C0 15.353 3.66 19.503 8.44 20.253V13.253H5.9V10.353H8.44V8.14301C8.44 5.63301 9.93 4.25301 12.22 4.25301C13.31 4.25301 14.45 4.44301 14.45 4.44301V6.91301H13.19C11.95 6.91301 11.56 7.68301 11.56 8.47301V10.353H14.34L13.89 13.253H11.56V20.253C13.9164 19.8808 16.0622 18.6785 17.6099 16.8631C19.1576 15.0476 20.0054 12.7387 20 10.353C20 4.82301 15.5 0.333008 10 0.333008Z" fill="#1877F2"/>
</svg>
