<svg width="43" height="36" viewBox="0 0 43 36" fill="none" xmlns="http://www.w3.org/2000/svg">
<mask id="path-1-outside-1_3346_24880" maskUnits="userSpaceOnUse" x="-0.5" y="-0.462891" width="44" height="37" fill="black">
<rect fill="white" x="-0.5" y="-0.462891" width="44" height="37"/>
<path d="M42.2873 14.1231C42.0093 13.4664 41.4922 12.9573 40.8312 12.6895L40.0929 12.3904V8.48977C40.0929 7.01756 38.8953 5.8199 37.4231 5.8199H23.8735L16.1024 2.67179C15.7867 2.54382 15.4274 2.69615 15.2996 3.01165C15.1717 3.32714 15.3239 3.6866 15.6395 3.8144L20.59 5.8199H7.70379L8.98077 2.66752C9.2783 1.9331 10.1179 1.57758 10.8522 1.8751L13.3547 2.88884C13.6705 3.0169 14.0297 2.86448 14.1574 2.54899C14.2853 2.2335 14.1331 1.87412 13.8176 1.74623L11.315 0.732489C9.95087 0.179763 8.39088 0.840114 7.83807 2.20454L6.37357 5.81982H5.57696C4.10483 5.81982 2.90717 7.01748 2.90717 8.48969V14.3768L0.696842 19.8333C0.42901 20.4942 0.43467 21.22 0.712756 21.8767C0.99076 22.5334 1.50789 23.0425 2.16889 23.3103L2.90726 23.6094V27.51C2.90726 28.9822 4.10491 30.1799 5.57704 30.1799H8.20754C8.54797 30.1799 8.82392 29.9039 8.82392 29.5635C8.82392 29.2231 8.54797 28.9471 8.20754 28.9471H5.57704C4.78471 28.9471 4.14002 28.3025 4.14002 27.5101V16.4933H12.2406C10.8175 17.6176 8.91892 19.5624 8.11837 22.3646C8.0297 22.6751 8.20393 23.01 8.50884 23.1161C8.83894 23.231 9.20799 23.0389 9.30389 22.7032C10.1354 19.7925 12.3832 17.8751 13.6502 16.9902V28.9471H10.6732C10.3328 28.9471 10.0569 29.223 10.0569 29.5634C10.0569 29.9039 10.3328 30.1798 10.6732 30.1798H19.1267L25.2516 32.661C25.3275 32.6918 25.4057 32.7063 25.4828 32.7063C25.7265 32.7063 25.9572 32.5609 26.0543 32.3212C26.1822 32.0057 26.0301 31.6462 25.7145 31.5184L22.4102 30.1798H35.2963L34.0193 33.3322C33.7218 34.0666 32.8819 34.4221 32.1479 34.1246L28.0052 32.4464C27.6895 32.3185 27.3303 32.4708 27.2025 32.7863C27.0746 33.1018 27.2267 33.4612 27.5423 33.589L31.6851 35.2672C32.0124 35.3999 32.3508 35.4626 32.6841 35.4626C33.7398 35.4626 34.7419 34.8322 35.162 33.7952L36.6265 30.1799H37.4231C38.8954 30.1799 40.093 28.9822 40.093 27.51V21.6229L42.3033 16.1665C42.571 15.5055 42.5653 14.7798 42.2873 14.1231ZM2.6318 22.1677C2.27603 22.0235 1.99769 21.7495 1.84799 21.3961C1.69836 21.0426 1.69533 20.6521 1.83946 20.2963L2.90717 17.6605V22.2793L2.6318 22.1677ZM8.16571 12.9686C8.06005 12.7201 7.98417 12.323 8.54092 11.7454C8.79726 11.4795 9.12203 11.3096 9.49699 11.3662C10.2423 11.4785 11.2263 12.34 12.2679 13.7919C12.6298 14.2963 12.9448 14.7972 13.188 15.2073C10.8257 14.9764 8.61639 14.0291 8.16571 12.9686ZM13.6501 13.6124C12.6715 12.1426 11.2032 10.3771 9.6814 10.1472C8.93188 10.034 8.23067 10.2909 7.65334 10.8898C7.20988 11.3497 6.53944 12.2941 7.03105 13.4508C7.3367 14.17 8.02707 14.7798 8.92499 15.2603H4.14002V8.48969C4.14002 7.69727 4.78471 7.05267 5.57704 7.05267H13.6502V13.6124H13.6501ZM38.8601 27.51C38.8601 28.3025 38.2154 28.9471 37.4231 28.9471H14.8829V16.9902C16.1499 17.8751 18.3977 19.7924 19.2292 22.7032C19.3252 23.0396 19.6938 23.23 20.0242 23.1161C20.3294 23.0109 20.5032 22.6745 20.4147 22.3646C19.6142 19.5624 17.7155 17.6176 16.2925 16.4933H38.8601V27.51ZM15.3448 15.2072C15.5855 14.8012 15.8973 14.3055 16.2562 13.8043C17.301 12.345 18.2881 11.4792 19.0357 11.3663C19.4108 11.3094 19.7357 11.4796 19.9921 11.7455C20.5489 12.3232 20.4729 12.7203 20.3673 12.9687C19.9166 14.0291 17.7071 14.9764 15.3448 15.2072ZM38.8601 15.2604H19.608C20.5058 14.7798 21.1963 14.17 21.5019 13.4509C21.9936 12.2942 21.3231 11.3498 20.8796 10.8898C20.3022 10.2908 19.6004 10.0342 18.8515 10.1473C17.3298 10.3771 15.8614 12.1427 14.8828 13.6125V7.05283H37.423C38.2153 7.05283 38.86 7.69743 38.86 8.48986V15.2604H38.8601ZM41.1606 15.7036L40.0929 18.3393V13.7206L40.3684 13.8321C40.7241 13.9763 41.0025 14.2503 41.152 14.6038C41.3017 14.9572 41.3048 15.3478 41.1606 15.7036Z"/>
</mask>
<path d="M42.2873 14.1231C42.0093 13.4664 41.4922 12.9573 40.8312 12.6895L40.0929 12.3904V8.48977C40.0929 7.01756 38.8953 5.8199 37.4231 5.8199H23.8735L16.1024 2.67179C15.7867 2.54382 15.4274 2.69615 15.2996 3.01165C15.1717 3.32714 15.3239 3.6866 15.6395 3.8144L20.59 5.8199H7.70379L8.98077 2.66752C9.2783 1.9331 10.1179 1.57758 10.8522 1.8751L13.3547 2.88884C13.6705 3.0169 14.0297 2.86448 14.1574 2.54899C14.2853 2.2335 14.1331 1.87412 13.8176 1.74623L11.315 0.732489C9.95087 0.179763 8.39088 0.840114 7.83807 2.20454L6.37357 5.81982H5.57696C4.10483 5.81982 2.90717 7.01748 2.90717 8.48969V14.3768L0.696842 19.8333C0.42901 20.4942 0.43467 21.22 0.712756 21.8767C0.99076 22.5334 1.50789 23.0425 2.16889 23.3103L2.90726 23.6094V27.51C2.90726 28.9822 4.10491 30.1799 5.57704 30.1799H8.20754C8.54797 30.1799 8.82392 29.9039 8.82392 29.5635C8.82392 29.2231 8.54797 28.9471 8.20754 28.9471H5.57704C4.78471 28.9471 4.14002 28.3025 4.14002 27.5101V16.4933H12.2406C10.8175 17.6176 8.91892 19.5624 8.11837 22.3646C8.0297 22.6751 8.20393 23.01 8.50884 23.1161C8.83894 23.231 9.20799 23.0389 9.30389 22.7032C10.1354 19.7925 12.3832 17.8751 13.6502 16.9902V28.9471H10.6732C10.3328 28.9471 10.0569 29.223 10.0569 29.5634C10.0569 29.9039 10.3328 30.1798 10.6732 30.1798H19.1267L25.2516 32.661C25.3275 32.6918 25.4057 32.7063 25.4828 32.7063C25.7265 32.7063 25.9572 32.5609 26.0543 32.3212C26.1822 32.0057 26.0301 31.6462 25.7145 31.5184L22.4102 30.1798H35.2963L34.0193 33.3322C33.7218 34.0666 32.8819 34.4221 32.1479 34.1246L28.0052 32.4464C27.6895 32.3185 27.3303 32.4708 27.2025 32.7863C27.0746 33.1018 27.2267 33.4612 27.5423 33.589L31.6851 35.2672C32.0124 35.3999 32.3508 35.4626 32.6841 35.4626C33.7398 35.4626 34.7419 34.8322 35.162 33.7952L36.6265 30.1799H37.4231C38.8954 30.1799 40.093 28.9822 40.093 27.51V21.6229L42.3033 16.1665C42.571 15.5055 42.5653 14.7798 42.2873 14.1231ZM2.6318 22.1677C2.27603 22.0235 1.99769 21.7495 1.84799 21.3961C1.69836 21.0426 1.69533 20.6521 1.83946 20.2963L2.90717 17.6605V22.2793L2.6318 22.1677ZM8.16571 12.9686C8.06005 12.7201 7.98417 12.323 8.54092 11.7454C8.79726 11.4795 9.12203 11.3096 9.49699 11.3662C10.2423 11.4785 11.2263 12.34 12.2679 13.7919C12.6298 14.2963 12.9448 14.7972 13.188 15.2073C10.8257 14.9764 8.61639 14.0291 8.16571 12.9686ZM13.6501 13.6124C12.6715 12.1426 11.2032 10.3771 9.6814 10.1472C8.93188 10.034 8.23067 10.2909 7.65334 10.8898C7.20988 11.3497 6.53944 12.2941 7.03105 13.4508C7.3367 14.17 8.02707 14.7798 8.92499 15.2603H4.14002V8.48969C4.14002 7.69727 4.78471 7.05267 5.57704 7.05267H13.6502V13.6124H13.6501ZM38.8601 27.51C38.8601 28.3025 38.2154 28.9471 37.4231 28.9471H14.8829V16.9902C16.1499 17.8751 18.3977 19.7924 19.2292 22.7032C19.3252 23.0396 19.6938 23.23 20.0242 23.1161C20.3294 23.0109 20.5032 22.6745 20.4147 22.3646C19.6142 19.5624 17.7155 17.6176 16.2925 16.4933H38.8601V27.51ZM15.3448 15.2072C15.5855 14.8012 15.8973 14.3055 16.2562 13.8043C17.301 12.345 18.2881 11.4792 19.0357 11.3663C19.4108 11.3094 19.7357 11.4796 19.9921 11.7455C20.5489 12.3232 20.4729 12.7203 20.3673 12.9687C19.9166 14.0291 17.7071 14.9764 15.3448 15.2072ZM38.8601 15.2604H19.608C20.5058 14.7798 21.1963 14.17 21.5019 13.4509C21.9936 12.2942 21.3231 11.3498 20.8796 10.8898C20.3022 10.2908 19.6004 10.0342 18.8515 10.1473C17.3298 10.3771 15.8614 12.1427 14.8828 13.6125V7.05283H37.423C38.2153 7.05283 38.86 7.69743 38.86 8.48986V15.2604H38.8601ZM41.1606 15.7036L40.0929 18.3393V13.7206L40.3684 13.8321C40.7241 13.9763 41.0025 14.2503 41.152 14.6038C41.3017 14.9572 41.3048 15.3478 41.1606 15.7036Z" fill="white"/>
<path d="M42.2873 14.1231C42.0093 13.4664 41.4922 12.9573 40.8312 12.6895L40.0929 12.3904V8.48977C40.0929 7.01756 38.8953 5.8199 37.4231 5.8199H23.8735L16.1024 2.67179C15.7867 2.54382 15.4274 2.69615 15.2996 3.01165C15.1717 3.32714 15.3239 3.6866 15.6395 3.8144L20.59 5.8199H7.70379L8.98077 2.66752C9.2783 1.9331 10.1179 1.57758 10.8522 1.8751L13.3547 2.88884C13.6705 3.0169 14.0297 2.86448 14.1574 2.54899C14.2853 2.2335 14.1331 1.87412 13.8176 1.74623L11.315 0.732489C9.95087 0.179763 8.39088 0.840114 7.83807 2.20454L6.37357 5.81982H5.57696C4.10483 5.81982 2.90717 7.01748 2.90717 8.48969V14.3768L0.696842 19.8333C0.42901 20.4942 0.43467 21.22 0.712756 21.8767C0.99076 22.5334 1.50789 23.0425 2.16889 23.3103L2.90726 23.6094V27.51C2.90726 28.9822 4.10491 30.1799 5.57704 30.1799H8.20754C8.54797 30.1799 8.82392 29.9039 8.82392 29.5635C8.82392 29.2231 8.54797 28.9471 8.20754 28.9471H5.57704C4.78471 28.9471 4.14002 28.3025 4.14002 27.5101V16.4933H12.2406C10.8175 17.6176 8.91892 19.5624 8.11837 22.3646C8.0297 22.6751 8.20393 23.01 8.50884 23.1161C8.83894 23.231 9.20799 23.0389 9.30389 22.7032C10.1354 19.7925 12.3832 17.8751 13.6502 16.9902V28.9471H10.6732C10.3328 28.9471 10.0569 29.223 10.0569 29.5634C10.0569 29.9039 10.3328 30.1798 10.6732 30.1798H19.1267L25.2516 32.661C25.3275 32.6918 25.4057 32.7063 25.4828 32.7063C25.7265 32.7063 25.9572 32.5609 26.0543 32.3212C26.1822 32.0057 26.0301 31.6462 25.7145 31.5184L22.4102 30.1798H35.2963L34.0193 33.3322C33.7218 34.0666 32.8819 34.4221 32.1479 34.1246L28.0052 32.4464C27.6895 32.3185 27.3303 32.4708 27.2025 32.7863C27.0746 33.1018 27.2267 33.4612 27.5423 33.589L31.6851 35.2672C32.0124 35.3999 32.3508 35.4626 32.6841 35.4626C33.7398 35.4626 34.7419 34.8322 35.162 33.7952L36.6265 30.1799H37.4231C38.8954 30.1799 40.093 28.9822 40.093 27.51V21.6229L42.3033 16.1665C42.571 15.5055 42.5653 14.7798 42.2873 14.1231ZM2.6318 22.1677C2.27603 22.0235 1.99769 21.7495 1.84799 21.3961C1.69836 21.0426 1.69533 20.6521 1.83946 20.2963L2.90717 17.6605V22.2793L2.6318 22.1677ZM8.16571 12.9686C8.06005 12.7201 7.98417 12.323 8.54092 11.7454C8.79726 11.4795 9.12203 11.3096 9.49699 11.3662C10.2423 11.4785 11.2263 12.34 12.2679 13.7919C12.6298 14.2963 12.9448 14.7972 13.188 15.2073C10.8257 14.9764 8.61639 14.0291 8.16571 12.9686ZM13.6501 13.6124C12.6715 12.1426 11.2032 10.3771 9.6814 10.1472C8.93188 10.034 8.23067 10.2909 7.65334 10.8898C7.20988 11.3497 6.53944 12.2941 7.03105 13.4508C7.3367 14.17 8.02707 14.7798 8.92499 15.2603H4.14002V8.48969C4.14002 7.69727 4.78471 7.05267 5.57704 7.05267H13.6502V13.6124H13.6501ZM38.8601 27.51C38.8601 28.3025 38.2154 28.9471 37.4231 28.9471H14.8829V16.9902C16.1499 17.8751 18.3977 19.7924 19.2292 22.7032C19.3252 23.0396 19.6938 23.23 20.0242 23.1161C20.3294 23.0109 20.5032 22.6745 20.4147 22.3646C19.6142 19.5624 17.7155 17.6176 16.2925 16.4933H38.8601V27.51ZM15.3448 15.2072C15.5855 14.8012 15.8973 14.3055 16.2562 13.8043C17.301 12.345 18.2881 11.4792 19.0357 11.3663C19.4108 11.3094 19.7357 11.4796 19.9921 11.7455C20.5489 12.3232 20.4729 12.7203 20.3673 12.9687C19.9166 14.0291 17.7071 14.9764 15.3448 15.2072ZM38.8601 15.2604H19.608C20.5058 14.7798 21.1963 14.17 21.5019 13.4509C21.9936 12.2942 21.3231 11.3498 20.8796 10.8898C20.3022 10.2908 19.6004 10.0342 18.8515 10.1473C17.3298 10.3771 15.8614 12.1427 14.8828 13.6125V7.05283H37.423C38.2153 7.05283 38.86 7.69743 38.86 8.48986V15.2604H38.8601ZM41.1606 15.7036L40.0929 18.3393V13.7206L40.3684 13.8321C40.7241 13.9763 41.0025 14.2503 41.152 14.6038C41.3017 14.9572 41.3048 15.3478 41.1606 15.7036Z" stroke="white" stroke-width="0.871354" mask="url(#path-1-outside-1_3346_24880)"/>
<path d="M34.617 22.4765L34.617 22.4765C34.9312 22.8565 35.0937 23.3356 35.0937 23.8557C35.0937 24.4911 34.831 25.1209 34.3827 25.5428L34.617 22.4765ZM34.617 22.4765C34.1956 21.9669 33.5473 21.6767 32.726 21.586L32.726 21.586M34.617 22.4765L32.726 21.586M32.726 21.586C32.3945 21.5495 32.2411 21.4502 32.1689 21.3702C32.0969 21.2905 32.0789 21.2004 32.0789 21.1271C32.0789 21.0766 32.0875 20.9298 32.1602 20.8026C32.2226 20.6935 32.3431 20.5759 32.63 20.5759C32.9728 20.5759 33.1211 20.7616 33.162 20.8241C33.291 21.1176 33.5844 21.3238 33.9269 21.3238C34.5692 21.3238 34.9132 20.6599 34.6811 20.1287L34.6811 20.1287M32.726 21.586L34.6811 20.1287M34.6811 20.1287L34.6794 20.1248M34.6811 20.1287L34.6794 20.1248M34.6794 20.1248C34.5225 19.784 34.1241 19.2934 33.4643 19.0524M34.6794 20.1248L33.4643 19.0524M33.2392 24.3278L33.2393 24.3278C33.3696 24.2051 33.4252 24.0064 33.4252 23.8558C33.4252 23.7636 33.4225 23.6547 33.3385 23.55C33.2544 23.4449 33.0511 23.3006 32.543 23.2445C31.7795 23.1603 31.2415 22.8571 30.8953 22.4517C30.5518 22.0494 30.4104 21.5616 30.4104 21.1272C30.4104 20.9562 30.4391 20.3683 30.8185 19.8139L33.2392 24.3278ZM33.2392 24.3278C33.1222 24.4379 32.9162 24.5092 32.5795 24.4885L32.5794 24.4885M33.2392 24.3278L32.5794 24.4885M32.5794 24.4885C32.2383 24.4677 32.0484 24.3537 31.9438 24.2561C31.841 24.1601 31.8067 24.0667 31.8024 24.0541M32.5794 24.4885L31.8024 24.0541M31.8024 24.0541C31.7952 24.027 31.7868 24.0006 31.777 23.9747L31.7349 23.8426L31.7172 23.8485C31.5728 23.6001 31.3042 23.4325 30.9953 23.4325C30.4213 23.4325 30.0144 24.0159 30.211 24.5544C30.2836 24.7793 30.6469 25.7007 31.7959 26.0374V26.4603C31.7959 26.921 32.1694 27.2945 32.6301 27.2945C33.091 27.2945 33.4643 26.921 33.4643 26.4603V26.0561C33.8816 25.9367 34.1806 25.733 34.3827 25.5428L31.8024 24.0541ZM33.4643 19.0524V18.6076C33.4643 18.1469 33.0908 17.7734 32.63 17.7734C32.1693 17.7734 31.7958 18.1469 31.7958 18.6076V19.0513C31.3979 19.1991 31.062 19.4579 30.8185 19.8139L33.4643 19.0524Z" fill="white" stroke="white" stroke-width="0.435677"/>
</svg>
