<svg width="19" height="19" viewBox="0 0 19 19" fill="none" xmlns="http://www.w3.org/2000/svg">
<path d="M16.9199 0.292969C17.4504 0.292969 17.9591 0.503682 18.3341 0.878755C18.7092 1.25383 18.9199 1.76254 18.9199 2.29297V16.293C18.9199 16.8234 18.7092 17.3321 18.3341 17.7072C17.9591 18.0823 17.4504 18.293 16.9199 18.293H2.91992C2.38949 18.293 1.88078 18.0823 1.50571 17.7072C1.13064 17.3321 0.919922 16.8234 0.919922 16.293V2.29297C0.919922 1.76254 1.13064 1.25383 1.50571 0.878755C1.88078 0.503682 2.38949 0.292969 2.91992 0.292969H16.9199ZM16.4199 15.793V10.493C16.4199 9.62836 16.0765 8.79917 15.4651 8.1878C14.8537 7.57643 14.0245 7.23297 13.1599 7.23297C12.3099 7.23297 11.3199 7.75297 10.8399 8.53297V7.42297H8.04992V15.793H10.8399V10.863C10.8399 10.093 11.4599 9.46297 12.2299 9.46297C12.6012 9.46297 12.9573 9.61047 13.2199 9.87302C13.4824 10.1356 13.6299 10.4917 13.6299 10.863V15.793H16.4199ZM4.79992 5.85297C5.24549 5.85297 5.6728 5.67597 5.98786 5.36091C6.30292 5.04585 6.47992 4.61853 6.47992 4.17297C6.47992 3.24297 5.72992 2.48297 4.79992 2.48297C4.35171 2.48297 3.92185 2.66102 3.60491 2.97796C3.28797 3.29489 3.10992 3.72475 3.10992 4.17297C3.10992 5.10297 3.86992 5.85297 4.79992 5.85297ZM6.18992 15.793V7.42297H3.41992V15.793H6.18992Z" fill="#007AB9"/>
</svg>
