<svg width="240" height="42" viewBox="0 0 240 42" fill="none" xmlns="http://www.w3.org/2000/svg">
<path fill-rule="evenodd" clip-rule="evenodd" d="M132.642 0.946211L146.596 9.05314C148.076 9.90655 148.71 11.1866 148.71 12.8932V29.107C148.71 30.8138 148.076 32.0939 146.596 32.947L132.642 41.054C131.374 41.9074 129.682 41.9074 128.203 41.054L114.249 32.947C112.98 32.0936 112.135 30.8135 112.135 29.107V12.8932C112.135 11.1863 112.98 9.90626 114.249 9.05314L128.203 0.946211C129.683 0.0927995 131.374 0.0927995 132.642 0.946211Z" fill="#FB5741"/>
<path d="M136.517 13.6745C136.569 13.5446 136.595 13.4926 136.647 13.4926C136.726 13.4926 136.726 13.5186 136.804 13.7005L139.571 20.9014C139.623 21.0313 139.623 21.0573 139.623 21.0833C139.623 21.1613 139.571 21.2133 139.467 21.2133H133.567C133.437 21.2133 133.384 21.1353 133.384 21.0573C133.384 21.0313 133.384 20.9793 133.437 20.8754L136.517 13.6745ZM145.184 27.2703C144.74 26.8284 144.453 26.2565 143.957 24.9827L138.266 10.1911C138.188 10.0091 138.083 9.93115 137.874 9.93115H137.039C136.856 9.93115 136.752 9.98314 136.647 10.1911L130.252 24.5148C129.991 25.1387 129.599 25.9185 129.208 26.4904C128.346 27.7902 127.537 27.6862 127.537 28.2581C127.537 28.5701 127.824 28.7001 128.32 28.7001H131.949C132.392 28.7001 132.706 28.5441 132.706 28.2062C132.706 27.5563 131.505 27.8942 131.505 26.4644C131.505 25.6846 131.897 24.5408 132.627 22.799C132.706 22.6431 132.81 22.5651 132.993 22.5651H139.832C140.119 22.5651 140.25 22.6431 140.328 22.851L141.216 25.1387C141.555 26.0485 141.686 26.5424 141.686 26.8804C141.686 27.8162 140.589 27.6342 140.589 28.2321C140.589 28.5181 140.824 28.7001 141.242 28.7001H145.575C146.123 28.7001 146.306 28.5181 146.306 28.2321C146.306 27.7902 145.758 27.8162 145.184 27.2703Z" fill="white"/>
<path d="M116.467 16.1124C116.467 15.6224 116.897 15.2251 117.428 15.2251H127.336C127.867 15.2251 128.298 15.6224 128.298 16.1124C128.298 16.6025 127.867 16.9997 127.336 16.9997H117.428C116.897 16.9997 116.467 16.6025 116.467 16.1124Z" fill="white"/>
<path d="M116.467 20.8443C116.467 20.3543 116.897 19.957 117.428 19.957H127.336C127.867 19.957 128.298 20.3543 128.298 20.8443C128.298 21.3344 127.867 21.7317 127.336 21.7317H117.428C116.897 21.7317 116.467 21.3344 116.467 20.8443Z" fill="white"/>
<path d="M116.467 25.5773C116.467 25.0872 116.88 24.6899 117.39 24.6899H122.642C123.152 24.6899 123.565 25.0872 123.565 25.5773C123.565 26.0673 123.152 26.4646 122.642 26.4646H117.39C116.88 26.4646 116.467 26.0673 116.467 25.5773Z" fill="white"/>
<path d="M10.5776 13.396C9.90903 12.632 8.28538 12.1544 6.5901 12.1544C4.84706 12.1544 3.41444 12.632 2.33996 13.6109C1.26549 14.566 0.716315 15.7121 0.716315 17.0493C0.716315 18.84 1.71916 20.0817 3.05628 20.6547C3.72484 20.9412 4.44115 21.2278 5.20522 21.5143C6.75724 22.0635 8.16599 22.3739 9.04945 23.4006C9.50311 23.902 9.71801 24.5228 9.71801 25.263C9.71801 26.0987 9.4076 26.815 8.76292 27.4597C8.14211 28.1044 7.25866 28.4148 6.11256 28.4148C4.7038 28.4148 3.39056 27.6507 2.22058 26.1465C1.81466 25.5973 1.31324 24.6661 1.0506 24.4512C0.93121 24.3318 0.787947 24.2602 0.596929 24.2602C0.191017 24.2602 0 24.4989 0 24.9526C0 25.263 0.0716316 26.0748 0.0716316 26.2897C0.0955087 26.8867 0.238772 27.4119 0.501421 27.8656C0.811824 28.4387 1.43263 28.8923 2.36384 29.2505C3.29505 29.5848 4.32177 29.7519 5.42012 29.7519C7.44968 29.7519 9.04945 29.1789 10.1717 28.0566C11.3178 26.9105 11.8908 25.645 11.8908 24.2602C11.8908 22.0873 10.4821 20.7025 8.69129 20.0578C7.80783 19.7474 6.94826 19.437 6.0648 19.1743C4.32177 18.6013 2.88914 17.6701 2.88914 16.0703C2.88914 15.3779 3.15179 14.757 3.70096 14.2079C4.25014 13.6587 4.96645 13.396 5.87378 13.396C6.80499 13.396 7.56906 13.6826 8.21375 14.3273C8.52415 14.6377 8.76292 14.9003 8.88231 15.0675C9.02557 15.2346 9.21659 15.4972 9.45536 15.8554C9.57474 16.0464 9.86127 16.5001 9.95678 16.6911C10.0762 16.8582 10.2911 17.0254 10.5537 17.0254C11.0074 17.0254 11.2223 16.5717 11.2223 15.6644C11.2223 14.6377 11.0074 13.8736 10.5776 13.396Z" fill="#FB5741"/>
<path d="M26.6016 28.4864C26.2196 28.3193 25.8375 28.0328 25.4316 27.603C25.0257 27.1732 24.4288 26.3614 23.6169 25.1675C22.2798 23.1857 21.7068 22.3977 21.0621 22.3977C20.8949 22.3977 20.7278 22.5171 20.6323 22.5171C20.5607 22.5171 20.5129 22.4694 20.5129 22.3977C20.5129 22.35 20.5368 22.3022 20.6084 22.2306C21.9694 20.9651 23.02 20.0339 23.7125 19.4847C24.4049 18.9117 25.0973 18.4819 25.7898 18.1954C26.2912 17.9566 26.8165 17.885 26.8165 17.4552C26.8165 17.1686 26.6016 17.0254 26.1957 17.0254H22.0888C21.5874 17.0254 21.3486 17.1925 21.3486 17.5029C21.3486 17.6701 21.468 17.8611 21.7306 18.0282C21.9933 18.1954 22.1127 18.3625 22.1127 18.5774C22.1127 18.9356 21.5874 19.6041 20.5368 20.6308C19.916 21.2278 19.0803 21.9918 18.0058 22.923C17.9581 22.9708 17.9103 22.9947 17.8864 22.9947C17.8387 22.9947 17.8148 22.9469 17.8148 22.8753V12.2738C17.8148 11.8679 17.6476 11.653 17.2895 11.653C17.1701 11.653 17.0268 11.7008 16.8358 11.7724C16.215 12.0589 15.451 12.2977 14.5197 12.4648C13.9467 12.5842 13.8273 12.7275 13.8273 13.014C13.8273 13.2289 14.0183 13.396 14.4242 13.5154C14.8063 13.6348 15.0689 13.802 15.2122 14.0169C15.3793 14.2318 15.451 14.6615 15.451 15.3062V25.2152C15.451 26.5285 15.3554 27.3642 15.1644 27.7223C15.0212 27.985 14.7824 28.2476 14.4242 28.4625C14.09 28.6774 13.9228 28.8685 13.9228 29.0356C13.9228 29.346 14.1377 29.4893 14.5914 29.4893H18.6505C19.1042 29.4893 19.3191 29.346 19.3191 29.0356C19.3191 28.5342 18.5311 28.5342 18.1013 27.7701C17.9103 27.4358 17.8148 26.6001 17.8148 25.2391V24.9765C17.8148 24.8571 17.8387 24.7855 17.9103 24.7138L18.555 24.1169C18.8654 23.8542 19.0803 23.711 19.1997 23.711C19.4146 23.711 19.6295 23.8542 19.8682 24.1647C20.1309 24.4512 20.5607 25.0481 21.2053 25.9554C21.5635 26.5046 22.1843 27.3642 22.3992 27.7223L22.8051 28.3193C23.1155 28.7252 23.3543 28.9401 23.5692 29.1072C23.9273 29.3699 24.4049 29.4893 25.0018 29.4893H26.5777C27.0075 29.4893 27.2224 29.346 27.2224 29.0356C27.2224 28.8446 27.0075 28.6536 26.6016 28.4864Z" fill="#FB5741"/>
<path d="M32.4327 12.2261C31.5731 11.3426 31.191 11.3426 30.3315 12.2261C29.4719 13.0856 29.4719 13.4677 30.3315 14.3273C31.191 15.1868 31.5731 15.1868 32.4327 14.3273C33.2922 13.4677 33.2922 13.0856 32.4327 12.2261ZM32.5759 17.3835C32.5759 16.9776 32.4088 16.7627 32.0745 16.7627C31.9551 16.7627 31.8118 16.8105 31.6208 16.8821C31 17.1448 30.236 17.3835 29.3525 17.5746C28.8988 17.6701 28.6839 17.8611 28.6839 18.1237C28.6839 18.2909 28.875 18.458 29.257 18.6013C29.6629 18.7207 29.9256 18.8878 30.0449 19.1027C30.2121 19.3653 30.2837 20.01 30.2837 21.0606V25.3108C30.2837 26.5524 30.1882 27.3642 29.9972 27.7462C29.8778 28.0089 29.639 28.2476 29.2809 28.4625C28.9466 28.6774 28.7794 28.8685 28.7794 29.0356C28.7794 29.346 28.9943 29.4893 29.4241 29.4893H33.4116C33.8653 29.4893 34.0802 29.346 34.0802 29.0356C34.0802 28.8685 33.913 28.7013 33.5788 28.4864C33.2445 28.2715 33.0057 28.0328 32.8624 27.7462C32.6714 27.3642 32.5759 26.5524 32.5759 25.3108V17.3835Z" fill="#FB5741"/>
<path d="M39.7532 12.2738C39.7532 11.8679 39.5861 11.653 39.2518 11.653C39.1324 11.653 38.9892 11.7008 38.7982 11.7724C38.1773 12.0351 37.4133 12.2738 36.5298 12.4648C36.0762 12.5603 35.8613 12.7514 35.8613 13.014C35.8613 13.1812 36.0523 13.3483 36.4343 13.4916C36.8402 13.6109 37.1029 13.7781 37.2223 13.993C37.3894 14.2556 37.461 14.9003 37.461 15.9509V25.3108C37.461 26.5524 37.3655 27.3642 37.1745 27.7462C37.0551 28.0089 36.8163 28.2476 36.4582 28.4625C36.1239 28.6774 35.9568 28.8685 35.9568 29.0356C35.9568 29.346 36.1717 29.4893 36.6015 29.4893H40.5889C41.0426 29.4893 41.2575 29.346 41.2575 29.0356C41.2575 28.8685 41.0904 28.7013 40.7561 28.4864C40.4218 28.2715 40.183 28.0328 40.0398 27.7462C39.8488 27.3642 39.7532 26.5524 39.7532 25.3108V12.2738Z" fill="#FB5741"/>
<path d="M47.005 12.2738C47.005 11.8679 46.8379 11.653 46.5036 11.653C46.3842 11.653 46.2409 11.7008 46.0499 11.7724C45.4291 12.0351 44.665 12.2738 43.7816 12.4648C43.3279 12.5603 43.113 12.7514 43.113 13.014C43.113 13.1812 43.304 13.3483 43.6861 13.4916C44.092 13.6109 44.3546 13.7781 44.474 13.993C44.6412 14.2556 44.7128 14.9003 44.7128 15.9509V25.3108C44.7128 26.5524 44.6173 27.3642 44.4263 27.7462C44.3069 28.0089 44.0681 28.2476 43.7099 28.4625C43.3757 28.6774 43.2085 28.8685 43.2085 29.0356C43.2085 29.346 43.4234 29.4893 43.8532 29.4893H47.8407C48.2944 29.4893 48.5093 29.346 48.5093 29.0356C48.5093 28.8685 48.3421 28.7013 48.0078 28.4864C47.6736 28.2715 47.4348 28.0328 47.2915 27.7462C47.1005 27.3642 47.005 26.5524 47.005 25.3108V12.2738Z" fill="#FB5741"/>
<path d="M53.8475 23.4006C53.8475 22.0396 54.1101 20.8696 54.6354 19.9145C55.1846 18.9594 56.0203 18.4819 57.1664 18.4819C58.2409 18.4819 59.0766 18.9594 59.6974 19.9384C60.3182 20.8935 60.6286 22.0873 60.6286 23.4961C60.6286 24.8571 60.3421 26.0271 59.7929 27.0538C59.2437 28.0566 58.408 28.5581 57.2619 28.5581C55.2324 28.5581 53.8475 26.6479 53.8475 23.4006ZM62.9924 22.6365C62.9924 20.9174 62.5388 19.5086 61.6314 18.4103C60.7241 17.3119 59.5541 16.7627 58.0976 16.7627C56.6411 16.7627 55.3517 17.4074 54.2056 18.6968C54.0863 18.8162 54.0146 18.8878 53.9669 18.8878C53.8952 18.8878 53.8475 18.8162 53.8475 18.6968V12.2738C53.8475 11.8679 53.6803 11.6769 53.3699 11.6769C53.2267 11.6769 53.0357 11.7246 52.7969 11.8202C52.1045 12.0828 51.3881 12.2977 50.6479 12.4648C50.1943 12.5603 49.9794 12.7275 49.9794 12.9901C49.9794 13.1812 50.1704 13.3483 50.5763 13.4916C50.9822 13.6348 51.2449 13.8258 51.3643 14.0407C51.5075 14.3034 51.5792 14.7809 51.5792 15.5211V28.8923C51.5792 29.4654 51.7463 29.7519 52.1045 29.7519C52.3194 29.7519 52.5342 29.5609 52.7253 29.1789C52.9163 28.7729 53.1312 28.5819 53.3461 28.5819C53.6565 28.5819 54.9936 29.7519 57.047 29.7519C58.2886 29.7519 59.3631 29.3938 60.2943 28.6536C61.2255 27.9134 61.8941 27.0299 62.3239 25.9793C62.7775 24.9048 62.9924 23.8065 62.9924 22.6365Z" fill="#FB5741"/>
<path d="M74.7529 23.8781C74.7529 25.1675 74.4664 26.2658 73.8933 27.1732C73.3203 28.0566 72.4846 28.5103 71.3623 28.5103C70.2162 28.5103 69.285 27.9372 68.5448 26.7673C67.8285 25.5973 67.4703 24.1647 67.4703 22.4694C67.4703 19.7951 68.7836 17.9566 70.8609 17.9566C72.5562 17.9566 73.8456 19.3892 74.347 21.1323C74.6096 21.9918 74.7529 22.8992 74.7529 23.8781ZM71.1952 16.7627C69.4044 16.7627 67.9479 17.4074 66.7779 18.6968C65.6079 19.9623 65.0349 21.5143 65.0349 23.3528C65.0349 25.2869 65.584 26.8389 66.7063 28.0089C67.8285 29.1789 69.285 29.7519 71.1236 29.7519C72.8666 29.7519 74.3231 29.1072 75.4692 27.8417C76.6153 26.5762 77.1884 25.0242 77.1884 23.1857C77.1884 21.3233 76.6392 19.7951 75.5647 18.5774C74.4902 17.3597 73.0337 16.7627 71.1952 16.7627Z" fill="#FB5741"/>
<path d="M88.86 23.8781C88.86 25.1675 88.5735 26.2658 88.0004 27.1732C87.4274 28.0566 86.5917 28.5103 85.4694 28.5103C84.3233 28.5103 83.3921 27.9372 82.6519 26.7673C81.9356 25.5973 81.5775 24.1647 81.5775 22.4694C81.5775 19.7951 82.8907 17.9566 84.968 17.9566C86.6633 17.9566 87.9527 19.3892 88.4541 21.1323C88.7167 21.9918 88.86 22.8992 88.86 23.8781ZM85.3023 16.7627C83.5115 16.7627 82.055 17.4074 80.885 18.6968C79.715 19.9623 79.142 21.5143 79.142 23.3528C79.142 25.2869 79.6912 26.8389 80.8134 28.0089C81.9356 29.1789 83.3921 29.7519 85.2307 29.7519C86.9737 29.7519 88.4302 29.1072 89.5763 27.8417C90.7224 26.5762 91.2955 25.0242 91.2955 23.1857C91.2955 21.3233 90.7463 19.7951 89.6718 18.5774C88.5974 17.3597 87.1408 16.7627 85.3023 16.7627Z" fill="#FB5741"/>
<path d="M105.928 28.4864C105.546 28.3193 105.164 28.0328 104.758 27.603C104.352 27.1732 103.755 26.3614 102.943 25.1675C101.606 23.1857 101.033 22.3977 100.388 22.3977C100.221 22.3977 100.054 22.5171 99.9586 22.5171C99.887 22.5171 99.8392 22.4694 99.8392 22.3977C99.8392 22.35 99.8631 22.3022 99.9347 22.2306C101.296 20.9651 102.346 20.0339 103.039 19.4847C103.731 18.9117 104.424 18.4819 105.116 18.1954C105.617 17.9566 106.143 17.885 106.143 17.4552C106.143 17.1686 105.928 17.0254 105.522 17.0254H101.415C100.914 17.0254 100.675 17.1925 100.675 17.5029C100.675 17.6701 100.794 17.8611 101.057 18.0282C101.32 18.1954 101.439 18.3625 101.439 18.5774C101.439 18.9356 100.914 19.6041 99.8631 20.6308C99.2423 21.2278 98.4066 21.9918 97.3321 22.923C97.2843 22.9708 97.2366 22.9947 97.2127 22.9947C97.165 22.9947 97.1411 22.9469 97.1411 22.8753V12.2738C97.1411 11.8679 96.9739 11.653 96.6158 11.653C96.4964 11.653 96.3531 11.7008 96.1621 11.7724C95.5413 12.0589 94.7772 12.2977 93.846 12.4648C93.273 12.5842 93.1536 12.7275 93.1536 13.014C93.1536 13.2289 93.3446 13.396 93.7505 13.5154C94.1326 13.6348 94.3952 13.802 94.5385 14.0169C94.7056 14.2318 94.7773 14.6615 94.7773 15.3062V25.2152C94.7773 26.5285 94.6817 27.3642 94.4907 27.7223C94.3475 27.985 94.1087 28.2476 93.7505 28.4625C93.4162 28.6774 93.2491 28.8685 93.2491 29.0356C93.2491 29.346 93.464 29.4893 93.9177 29.4893H97.9768C98.4305 29.4893 98.6453 29.346 98.6453 29.0356C98.6453 28.5342 97.8574 28.5342 97.4276 27.7701C97.2366 27.4358 97.1411 26.6001 97.1411 25.2391V24.9765C97.1411 24.8571 97.165 24.7855 97.2366 24.7138L97.8813 24.1169C98.1917 23.8542 98.4066 23.711 98.526 23.711C98.7409 23.711 98.9557 23.8542 99.1945 24.1647C99.4572 24.4512 99.887 25.0481 100.532 25.9554C100.89 26.5046 101.511 27.3642 101.726 27.7223L102.131 28.3193C102.442 28.7252 102.681 28.9401 102.895 29.1072C103.254 29.3699 103.731 29.4893 104.328 29.4893H105.904C106.334 29.4893 106.549 29.346 106.549 29.0356C106.549 28.8446 106.334 28.6536 105.928 28.4864Z" fill="#FB5741"/>
<path d="M163.177 26.9108C163.177 26.6004 163.034 26.4572 162.747 26.4572C162.413 26.4572 161.147 28.0569 159.261 28.0569C157.996 28.0569 157.017 27.5555 156.324 26.5527C155.656 25.5498 155.321 24.3321 155.321 22.8995C155.321 21.443 155.656 20.273 156.3 19.3895C156.969 18.5061 157.781 18.0524 158.76 18.0524C159.739 18.0524 160.527 18.5538 161.123 19.5328C161.243 19.7238 161.482 20.1775 161.577 20.3685C161.673 20.5356 161.888 20.7028 162.15 20.7028C162.604 20.7028 162.843 20.2252 162.843 19.2463C162.843 18.4822 162.699 17.9569 162.389 17.6465C161.816 17.0496 160.837 16.763 159.428 16.763C157.494 16.763 155.942 17.4793 154.724 18.9359C153.531 20.3685 152.934 22.0638 152.934 23.9978C152.934 25.7408 153.459 27.1496 154.486 28.2002C155.512 29.2269 156.826 29.7522 158.378 29.7522C159.333 29.7522 160.192 29.5612 160.98 29.1553C161.768 28.7494 162.317 28.3435 162.652 27.9375C163.01 27.5078 163.177 27.1735 163.177 26.9108Z" fill="#FB5741"/>
<path d="M172.175 23.1621C172.175 24.8096 172.008 25.9796 171.674 26.6721C171.125 27.7943 170.074 28.3673 169.095 28.3673C167.877 28.3673 167.185 27.5794 167.185 26.5527C167.185 25.7647 167.591 25.0962 168.379 24.5709C168.761 24.3082 169.382 23.9978 170.217 23.6397C171.077 23.2815 171.65 22.9711 171.936 22.7562C172.008 22.6846 172.08 22.6607 172.104 22.6607C172.151 22.6607 172.175 22.6846 172.175 22.7562V23.1621ZM175.255 28.0331C174.754 28.0331 174.491 27.6271 174.491 26.8153C174.491 26.1706 174.491 25.1917 174.515 23.8307C174.539 22.4697 174.563 21.4668 174.563 20.846C174.563 18.3867 172.892 16.763 169.931 16.763C169.143 16.763 168.379 16.8585 167.591 17.0734C166.827 17.2645 166.301 17.551 165.991 17.933C165.728 18.2673 165.585 18.8403 165.585 19.676C165.585 20.464 165.8 20.846 166.254 20.846C166.516 20.846 166.707 20.6789 166.803 20.5595C166.898 20.4401 167.161 19.9626 167.328 19.7477C167.83 19.0552 168.116 18.6732 168.856 18.2912C169.238 18.0763 169.644 17.9808 170.098 17.9808C171.363 17.9808 172.175 18.7687 172.175 19.9387C172.175 20.9415 171.507 21.7534 170.17 22.3503C169.907 22.4697 169.286 22.7084 168.307 23.0666C167.328 23.4248 166.612 23.759 166.134 24.0694C165.155 24.7141 164.654 25.5737 164.654 26.6721C164.654 28.3912 166.158 29.7522 168.379 29.7522C169.907 29.7522 171.363 29.0837 172.199 27.842C172.247 27.7704 172.271 27.7465 172.295 27.7465C172.318 27.7465 172.342 27.7943 172.342 27.8659C172.462 29.1792 173.274 29.7522 174.157 29.7522C174.635 29.7522 175.04 29.6089 175.399 29.2985C175.757 28.9881 175.948 28.6777 175.948 28.4151C175.948 28.1524 175.805 28.0331 175.542 28.0331H175.255Z" fill="#FB5741"/>
<path d="M183.382 28.0569C182.355 28.0569 181.519 27.5794 180.875 26.6243C180.23 25.6453 179.92 24.4515 179.92 23.0189C179.92 21.6579 180.182 20.464 180.731 19.485C181.281 18.4822 182.14 17.9808 183.286 17.9808C185.316 17.9808 186.701 19.8909 186.701 23.1382C186.701 26.1229 185.459 28.0569 183.382 28.0569ZM188.969 12.2741C188.969 11.8682 188.802 11.6533 188.468 11.6533C188.372 11.6533 188.205 11.7011 187.942 11.7966C187.226 12.0831 186.51 12.298 185.77 12.4651C185.316 12.5607 185.101 12.7278 185.101 12.9904C185.101 13.1815 185.292 13.3486 185.65 13.4919C186.032 13.6351 186.295 13.8023 186.438 13.9694C186.605 14.1843 186.701 14.6618 186.701 15.402V17.6704C186.701 17.742 186.677 17.7898 186.605 17.7898C186.557 17.7898 186.51 17.7659 186.438 17.7181C185.459 17.0734 184.409 16.763 183.286 16.763C179.848 16.7153 177.484 20.3924 177.58 23.8784C177.58 25.7886 178.081 27.2451 179.06 28.248C180.039 29.2508 181.185 29.7522 182.474 29.7522C183.979 29.7522 185.292 29.0837 186.39 27.7465C186.462 27.6749 186.51 27.651 186.557 27.651C186.653 27.651 186.701 27.7227 186.701 27.842V29.1314C186.701 29.5373 186.868 29.7522 187.202 29.7522C187.369 29.7522 187.536 29.7045 187.751 29.6089C188.348 29.3702 189.065 29.1553 189.9 28.9404C190.354 28.8449 190.569 28.6539 190.569 28.3912C190.569 28.2241 190.354 28.0569 189.924 27.8898C189.518 27.7227 189.256 27.5555 189.136 27.3406C189.017 27.1257 188.969 26.6482 188.969 25.9557V12.2741Z" fill="#FB5741"/>
<path d="M194.825 21.3236C195.135 19.4373 196.424 17.933 198.239 17.933C199.027 17.933 199.672 18.1957 200.149 18.6971C200.651 19.1985 200.889 19.7477 200.889 20.3446C200.889 21.3952 200.316 21.7295 198.884 21.7295H194.992C194.872 21.7295 194.801 21.6817 194.801 21.5862C194.801 21.5385 194.801 21.443 194.825 21.3236ZM202.537 26.4094C202.203 26.4094 200.77 28.0331 198.669 28.0331C197.451 28.0331 196.496 27.5794 195.78 26.6482C195.063 25.717 194.705 24.5947 194.705 23.2815V23.1621C194.705 22.995 194.801 22.9233 194.968 22.9233H201.439C202.752 22.8995 203.325 22.5652 203.325 21.2281C203.325 19.5567 201.868 16.763 198.454 16.763C196.663 16.763 195.183 17.4555 194.013 18.8403C192.843 20.2013 192.27 21.8011 192.27 23.6158C192.27 25.3111 192.795 26.7676 193.846 27.9614C194.896 29.1553 196.305 29.7522 198.072 29.7522C199.481 29.7522 200.651 29.3941 201.606 28.7016C202.585 27.9853 203.062 27.3884 203.062 26.9108C203.062 26.5765 202.895 26.4094 202.537 26.4094Z" fill="#FB5741"/>
<path d="M224.529 21.5146C224.529 20.0581 224.266 18.9597 223.765 18.2673C223.024 17.2645 221.998 16.763 220.637 16.763C219.037 16.763 217.748 17.4555 216.793 18.8642C216.697 19.0314 216.649 19.0075 216.578 18.8881C216.028 17.6704 214.858 16.763 213.115 16.763C211.492 16.763 210.202 17.4555 209.271 18.8403C209.223 18.912 209.176 18.9597 209.152 18.9597C209.104 18.9597 209.08 18.9359 209.08 18.8642V17.3838C209.08 16.9779 208.913 16.763 208.579 16.763C208.459 16.763 208.316 16.8108 208.101 16.8824C207.433 17.1689 206.692 17.4077 205.857 17.5749C205.427 17.6704 205.212 17.8614 205.212 18.124C205.212 18.6971 206.167 18.4822 206.573 19.103C206.74 19.3418 206.812 19.9865 206.812 21.037V25.3111C206.812 26.5766 206.716 27.3884 206.501 27.7943C206.358 28.0569 206.119 28.2957 205.785 28.5106C205.475 28.7255 205.308 28.8926 205.308 29.0598C205.308 29.3463 205.522 29.4896 205.976 29.4896H209.916C210.37 29.4896 210.584 29.3463 210.584 29.0359C210.584 28.8688 210.417 28.7016 210.083 28.4867C209.773 28.2718 209.534 28.0569 209.414 27.842C209.2 27.46 209.08 26.6243 209.08 25.3111C209.08 23.4486 209.152 22.1115 209.295 21.2997C209.462 20.4879 209.773 19.8432 210.226 19.3895C210.752 18.8642 211.396 18.6016 212.184 18.6016C213.76 18.6016 214.548 19.6283 214.548 21.6579V25.3111C214.548 26.6959 214.429 27.5794 214.19 27.9614C213.903 28.4151 213.163 28.7255 213.163 29.0359C213.163 29.3463 213.378 29.4896 213.808 29.4896H217.533C217.986 29.4896 218.201 29.3463 218.201 29.0359C218.201 28.7494 217.461 28.4151 217.175 27.9614C216.936 27.6033 216.816 26.7198 216.816 25.3111C216.816 23.377 216.864 22.016 216.984 21.2519C217.103 20.464 217.366 19.8671 217.771 19.4134C218.297 18.8642 218.965 18.6016 219.753 18.6016C221.472 18.6016 222.26 19.8432 222.26 21.5862V25.3111C222.26 26.5766 222.165 27.4123 221.95 27.7943C221.783 28.0569 221.544 28.2957 221.234 28.5106C220.923 28.7016 220.756 28.8688 220.756 29.0359C220.756 29.3463 220.971 29.4896 221.425 29.4896H225.364C225.818 29.4896 226.033 29.3463 226.033 29.0359C226.033 28.8688 225.89 28.7016 225.579 28.5345C225.293 28.3673 225.078 28.1524 224.911 27.9137C224.648 27.5555 224.529 26.6721 224.529 25.3111V21.5146Z" fill="#FB5741"/>
<path d="M235.933 17.0257C235.456 17.0257 235.217 17.1689 235.217 17.4793C235.217 18.0046 236.387 18.0285 236.387 19.1746C236.387 19.6283 236.101 20.6073 235.504 22.1354L233.808 26.4333C233.784 26.5288 233.737 26.5765 233.689 26.5765C233.665 26.5765 233.617 26.5288 233.593 26.4333L231.134 20.3446C230.871 19.7238 230.752 19.2224 230.752 18.8642C230.752 18.0285 231.874 17.933 231.874 17.4555C231.874 17.1689 231.659 17.0257 231.253 17.0257H227.362C226.86 17.0257 226.621 17.1689 226.621 17.4793C226.621 17.8614 227.171 17.9808 227.553 18.2434C227.911 18.5061 228.317 19.2701 228.77 20.5118L232.28 29.4657C232.304 29.5612 232.328 29.6328 232.328 29.6806C232.328 29.7522 232.304 29.8238 232.256 29.9194C231.85 30.7551 231.612 31.2087 230.967 31.7101C230.657 31.9728 230.322 32.1161 229.964 32.1161C229.558 32.1161 229.152 31.9489 228.794 31.6146C228.436 31.2804 228.149 31.1132 227.958 31.1132C227.409 31.1132 227.147 31.6146 227.147 32.2832C227.147 33.4532 227.911 34.0979 229.033 34.0979C229.63 34.0979 230.227 33.9307 230.824 33.5726C232.256 32.7369 233.188 31.1848 234.143 28.9165L237.438 20.9415C237.915 19.8193 238.321 19.0791 238.679 18.6732C239.205 18.0285 240.088 17.8853 239.993 17.4555C239.993 17.1689 239.754 17.0257 239.252 17.0257H235.933Z" fill="#FB5741"/>
</svg>
