<svg width="41" height="19" viewBox="0 0 41 19" fill="none" xmlns="http://www.w3.org/2000/svg">
<path d="M31.7663 9.54677C31.7673 13.2912 28.7327 16.3272 24.9883 16.3282C21.2438 16.3291 18.2078 13.2946 18.2068 9.55021C18.2068 9.54899 18.2068 9.54799 18.2068 9.54677C18.2059 5.80243 21.2405 2.76625 24.9848 2.76526C28.7293 2.76426 31.7653 5.79891 31.7663 9.54333C31.7663 9.54447 31.7663 9.54555 31.7663 9.54677Z" fill="#FF9900"/>
<path d="M15.8478 2.76749C12.1255 2.79113 9.11169 5.81943 9.11169 9.54724C9.11169 13.2896 12.149 16.3269 15.8914 16.3269C17.6479 16.3269 19.2489 15.6575 20.4537 14.5605C20.4536 14.5605 20.4534 14.5603 20.4531 14.5601H20.4546C20.7013 14.3353 20.9314 14.0928 21.1429 13.8342H19.7538C19.5684 13.6101 19.3998 13.3767 19.2484 13.1358H21.644C21.7896 12.9026 21.9216 12.6605 22.0386 12.4098H18.8529C18.7443 12.177 18.65 11.939 18.5695 11.6975H22.3223C22.5485 11.0217 22.6712 10.2987 22.6712 9.54716C22.6712 9.04889 22.6172 8.56308 22.5149 8.09534H18.3705C18.4218 7.85462 18.4867 7.6168 18.5639 7.38312H22.3181C22.2341 7.13444 22.1367 6.89212 22.0258 6.65721H18.8525C18.967 6.41266 19.0966 6.17477 19.2415 5.94507H21.6353C21.476 5.69126 21.2997 5.44878 21.1091 5.21908H19.7744C19.9808 4.97622 20.208 4.74751 20.4546 4.53426C19.2498 3.43701 17.6483 2.76749 15.8914 2.76749C15.8768 2.76749 15.8624 2.76741 15.8478 2.76749Z" fill="#CC0000"/>
<path d="M31.0857 13.0913C31.1226 13.0913 31.1585 13.1009 31.1935 13.1197C31.2287 13.1385 31.2558 13.1657 31.2754 13.201C31.295 13.2358 31.3048 13.2727 31.3048 13.3108C31.3048 13.3484 31.2951 13.3848 31.2758 13.4197C31.2566 13.4545 31.2295 13.4817 31.1946 13.5011C31.1601 13.5201 31.1236 13.5297 31.0856 13.5297C31.0477 13.5297 31.0113 13.5201 30.9765 13.5011C30.9417 13.4816 30.9148 13.4546 30.8952 13.4197C30.8759 13.3848 30.8663 13.3484 30.8663 13.3108C30.8663 13.2727 30.8761 13.2358 30.8957 13.201C30.9155 13.1657 30.9427 13.1387 30.9777 13.1197C31.013 13.1009 31.0489 13.0913 31.0857 13.0913ZM31.0857 13.1277C31.055 13.1277 31.025 13.1356 30.9957 13.1515C30.9666 13.1673 30.9439 13.1897 30.9275 13.2194C30.9109 13.2486 30.9027 13.2789 30.9027 13.3108C30.9027 13.3423 30.9108 13.3727 30.9268 13.4017C30.9432 13.4305 30.9658 13.4532 30.9947 13.4694C31.0239 13.4855 31.0541 13.4935 31.0856 13.4935C31.1173 13.4935 31.1476 13.4855 31.1766 13.4694C31.2055 13.4532 31.2281 13.4305 31.2442 13.4017C31.2602 13.3727 31.2682 13.3424 31.2682 13.3108C31.2682 13.2789 31.2601 13.2485 31.2436 13.2194C31.2273 13.1897 31.2045 13.1673 31.1752 13.1515C31.1462 13.1355 31.1164 13.1277 31.0857 13.1277ZM30.9896 13.4318V13.196H31.0709C31.0984 13.196 31.1185 13.1981 31.1309 13.2027C31.1432 13.2071 31.1531 13.2145 31.1605 13.2254C31.1678 13.2362 31.1716 13.2477 31.1716 13.26C31.1716 13.2772 31.1654 13.2922 31.153 13.3049C31.141 13.3176 31.1245 13.3249 31.1041 13.3264C31.1125 13.3299 31.1191 13.3342 31.1243 13.339C31.1339 13.3482 31.1454 13.3637 31.1592 13.3857L31.1879 13.4318H31.1415L31.1207 13.3947C31.1042 13.3655 31.091 13.3473 31.0808 13.3398C31.0738 13.3345 31.0637 13.3317 31.0504 13.3317H31.028V13.432H30.9898M31.0277 13.2991H31.0739C31.096 13.2991 31.1109 13.2957 31.1189 13.2892C31.127 13.2824 31.1311 13.2739 31.1311 13.263C31.1311 13.256 31.1292 13.2497 31.1253 13.2443C31.1214 13.2388 31.116 13.2348 31.109 13.2319C31.1022 13.2293 31.0895 13.2277 31.071 13.2277H31.0279V13.2991" fill="#FCB340"/>
<path d="M18.1436 11.492L18.2338 10.8783C18.1845 10.8783 18.112 10.8996 18.0478 10.8996C17.7965 10.8996 17.7652 10.7654 17.7849 10.6673L18.0325 9.43305H18.4145L18.4932 8.73652H18.1332L18.2065 8.31445H17.4534C17.4375 8.33037 17.0274 10.6882 17.0274 10.9754C17.0274 11.4004 17.266 11.5896 17.6025 11.5866C17.8659 11.5844 18.0712 11.5115 18.1436 11.492Z" fill="#000066"/>
<path d="M18.3718 10.3218C18.3718 11.3419 19.0451 11.5842 19.6188 11.5842C20.1484 11.5842 20.4261 11.4615 20.4261 11.4615L20.5532 10.7652C20.5532 10.7652 20.1058 10.9471 19.7421 10.9471C18.9669 10.9471 19.1028 10.3691 19.1028 10.3691L20.592 10.3736C20.592 10.3736 20.6868 9.90604 20.6868 9.71544C20.6868 9.23974 20.4277 8.65576 19.6351 8.65576C18.9093 8.65591 18.3718 9.43799 18.3718 10.3218ZM19.6379 9.30217C20.0452 9.30217 19.9701 9.76005 19.9701 9.79716H19.1687C19.1687 9.74972 19.2443 9.30217 19.6379 9.30217Z" fill="#000066"/>
<path d="M24.208 11.4914L24.3373 10.7045C24.3373 10.7045 23.9828 10.8821 23.7399 10.8821C23.2278 10.8821 23.0223 10.4911 23.0223 10.0709C23.0223 9.21874 23.4629 8.74985 23.9534 8.74985C24.3213 8.74985 24.6164 8.95636 24.6164 8.95636L24.7342 8.19173C24.7342 8.19173 24.3858 7.94007 24.0107 7.93862C22.8824 7.93418 22.2369 8.7197 22.2369 10.0776C22.2369 10.9777 22.715 11.5902 23.5764 11.5902C23.8199 11.5902 24.208 11.4914 24.208 11.4914Z" fill="#000066"/>
<path d="M14.1736 8.66675C13.6787 8.66675 13.2993 8.82583 13.2993 8.82583L13.1945 9.44768C13.1945 9.44768 13.5076 9.32043 13.9811 9.32043C14.2499 9.32043 14.4466 9.35065 14.4466 9.56911C14.4466 9.70179 14.4226 9.75076 14.4226 9.75076C14.4226 9.75076 14.2104 9.73308 14.1122 9.73308C13.4075 9.73308 12.8322 9.99951 12.8322 10.8028C12.8322 11.4358 13.2624 11.581 13.5291 11.581C14.0384 11.581 14.2401 11.2594 14.2517 11.2584L14.2458 11.5253C14.2458 11.5253 14.8813 11.5253 14.8814 11.5253L15.165 9.53743C15.165 8.69383 14.4292 8.66675 14.1736 8.66675ZM14.2837 10.2809C14.2975 10.4023 14.2523 10.9762 13.8175 10.9762C13.5933 10.9762 13.5351 10.8048 13.5351 10.7036C13.5351 10.5059 13.6425 10.2688 14.1713 10.2688C14.2945 10.2688 14.2629 10.2777 14.2837 10.2809Z" fill="#000066"/>
<path d="M15.8386 11.5663C16.0012 11.5663 16.9307 11.6077 16.9307 10.6486C16.9307 9.75176 16.0703 9.92904 16.0703 9.56865C16.0703 9.38945 16.2106 9.33298 16.467 9.33298C16.5687 9.33298 16.9603 9.36535 16.9603 9.36535L17.0513 8.72796C17.0513 8.72804 16.7979 8.67126 16.3853 8.67126C15.8513 8.67126 15.3092 8.88444 15.3092 9.6138C15.3092 10.4403 16.213 10.3573 16.213 10.7055C16.213 10.9378 15.9605 10.957 15.7659 10.957C15.4291 10.957 15.126 10.8414 15.1249 10.8469L15.0286 11.4778C15.0461 11.4832 15.2332 11.5663 15.8386 11.5663Z" fill="#000066"/>
<path d="M30.1633 8.08899L30.0329 9.06144C30.0329 9.06144 29.761 8.68612 29.3356 8.68612C28.5353 8.68612 28.1229 9.48366 28.1229 10.3998C28.1229 10.9913 28.4171 11.571 29.0181 11.571C29.4505 11.571 29.6902 11.2695 29.6902 11.2695L29.6585 11.527H30.3607L30.9122 8.09427L30.1633 8.08899ZM29.8533 9.97902C29.8533 10.3603 29.6644 10.8697 29.2732 10.8697C29.0133 10.8697 28.8915 10.6515 28.8915 10.3093C28.8915 9.74955 29.1429 9.38036 29.4602 9.38036C29.7199 9.38036 29.8533 9.55864 29.8533 9.97902Z" fill="#000066"/>
<path d="M10.2646 11.5294L10.7041 8.93774L10.7687 11.5294H11.2659L12.1937 8.93774L11.7827 11.5294H12.5217L13.0908 8.09208L11.9169 8.08313L11.2186 10.1876L11.1995 8.09208H10.1236L9.54639 11.5294H10.2646Z" fill="#000066"/>
<path d="M21.3862 11.5346C21.5963 10.3398 21.6712 9.39622 22.2839 9.59164C22.3719 9.12917 22.5816 8.727 22.6774 8.53127C22.6774 8.53127 22.6471 8.48621 22.4577 8.48621C22.1345 8.48621 21.7028 9.14226 21.7028 9.14226L21.7673 8.73664H21.0951L20.6448 11.5345H21.3862V11.5346Z" fill="#000066"/>
<path d="M25.7203 8.66675C25.2251 8.66675 24.8457 8.82583 24.8457 8.82583L24.741 9.44768C24.741 9.44768 25.0543 9.32043 25.5275 9.32043C25.7964 9.32043 25.993 9.35065 25.993 9.56911C25.993 9.70179 25.969 9.75076 25.969 9.75076C25.969 9.75076 25.757 9.73308 25.6588 9.73308C24.954 9.73308 24.3787 9.99951 24.3787 10.8028C24.3787 11.4358 24.8089 11.581 25.0756 11.581C25.5848 11.581 25.7866 11.2594 25.7981 11.2584L25.7921 11.5253H26.4279L26.7114 9.53743C26.7115 8.69383 25.9757 8.66675 25.7203 8.66675ZM25.8302 10.2809C25.8439 10.4023 25.7987 10.9762 25.364 10.9762C25.1397 10.9762 25.0815 10.8048 25.0815 10.7036C25.0815 10.5059 25.1888 10.2688 25.7178 10.2688C25.841 10.2688 25.8095 10.2777 25.8302 10.2809Z" fill="#000066"/>
<path d="M27.4434 11.5349C27.5588 10.6559 27.7724 9.42179 28.341 9.59189C28.429 9.12942 28.3442 9.13065 28.1549 9.13065C27.8314 9.13065 27.7597 9.14243 27.7597 9.14243L27.8243 8.73682H27.1521L26.7019 11.5348H27.4434V11.5349Z" fill="#000066"/>
<path d="M18.3308 11.2729L18.4212 10.6593C18.3719 10.6593 18.2992 10.6804 18.2352 10.6804C17.9839 10.6804 17.9562 10.5469 17.9722 10.4481L18.1752 9.1961H18.5571L18.6493 8.5174H18.2892L18.3625 8.09534H17.6407C17.6247 8.11125 17.2145 10.4691 17.2145 10.7562C17.2145 11.1812 17.4532 11.3706 17.7897 11.3675C18.0532 11.3653 18.2585 11.2924 18.3308 11.2729Z" fill="white"/>
<path d="M18.5604 10.1026C18.5604 11.1227 19.2337 11.3651 19.8074 11.3651C20.3368 11.3651 20.5698 11.2467 20.5698 11.2467L20.697 10.5505C20.697 10.5505 20.2942 10.728 19.9305 10.728C19.1554 10.728 19.2911 10.15 19.2911 10.15H20.7581C20.7581 10.15 20.8528 9.68229 20.8528 9.49169C20.8528 9.01606 20.6161 8.43652 19.8235 8.43652C19.0977 8.43668 18.5604 9.21875 18.5604 10.1026ZM19.8263 9.08301C20.2336 9.08301 20.1585 9.54081 20.1585 9.57784H19.3571C19.3571 9.53056 19.4328 9.08301 19.8263 9.08301Z" fill="white"/>
<path d="M24.3974 11.2728L24.5266 10.4859C24.5266 10.4859 24.1724 10.6634 23.9293 10.6634C23.4172 10.6634 23.2119 10.2724 23.2119 9.85237C23.2119 9.00021 23.6524 8.53139 24.1429 8.53139C24.5107 8.53139 24.8059 8.73791 24.8059 8.73791L24.9238 7.97328C24.9238 7.97328 24.486 7.79614 24.1108 7.79614C23.2774 7.79614 22.4667 8.51907 22.4667 9.87678C22.4667 10.7771 22.9045 11.3717 23.7659 11.3717C24.0095 11.3718 24.3974 11.2728 24.3974 11.2728Z" fill="white"/>
<path d="M14.3623 8.44836C13.8673 8.44836 13.4879 8.60744 13.4879 8.60744L13.3831 9.22929C13.3831 9.22929 13.6963 9.10205 14.1697 9.10205C14.4385 9.10205 14.6352 9.13227 14.6352 9.35072C14.6352 9.4834 14.6111 9.53237 14.6111 9.53237C14.6111 9.53237 14.399 9.51462 14.3009 9.51462C13.6766 9.51462 13.0208 9.78105 13.0208 10.5843C13.0208 11.2173 13.451 11.3625 13.7177 11.3625C14.227 11.3625 14.4465 11.032 14.4582 11.031L14.4344 11.3069H15.07L15.3536 9.31889C15.3536 8.47553 14.6179 8.44836 14.3623 8.44836ZM14.517 10.067C14.5307 10.1884 14.4408 10.7576 14.0062 10.7576C13.782 10.7576 13.7237 10.5864 13.7237 10.4851C13.7237 10.2875 13.8311 10.0503 14.36 10.0503C14.4831 10.0505 14.4962 10.0636 14.517 10.067Z" fill="white"/>
<path d="M16.0272 11.3479C16.1898 11.3479 17.1193 11.3892 17.1193 10.4301C17.1193 9.5334 16.2589 9.71054 16.2589 9.3503C16.2589 9.17094 16.3991 9.11447 16.6554 9.11447C16.7572 9.11447 17.1487 9.14684 17.1487 9.14684L17.2398 8.50946C17.2398 8.50953 16.9864 8.45276 16.5738 8.45276C16.0398 8.45276 15.4977 8.66593 15.4977 9.39529C15.4977 10.2217 16.4016 10.1388 16.4016 10.487C16.4016 10.7193 16.1491 10.7382 15.9545 10.7382C15.6177 10.7382 15.3145 10.6227 15.3134 10.6282L15.2172 11.2592C15.2346 11.2645 15.4216 11.3479 16.0272 11.3479Z" fill="white"/>
<path d="M30.377 7.87603L30.2213 8.8422C30.2213 8.8422 29.9496 8.46689 29.5242 8.46689C28.8628 8.46689 28.3115 9.26434 28.3115 10.1806C28.3115 10.7721 28.6056 11.3516 29.2067 11.3516C29.6391 11.3516 29.8788 11.0502 29.8788 11.0502L29.8471 11.3076H30.5492L31.1006 7.87488L30.377 7.87603ZM30.0418 9.75986C30.0418 10.1411 29.853 10.6504 29.4616 10.6504C29.2019 10.6504 29.0801 10.4324 29.0801 10.0901C29.0801 9.53047 29.3315 9.1612 29.6487 9.1612C29.9085 9.16112 30.0418 9.33963 30.0418 9.75986Z" fill="white"/>
<path d="M10.4531 11.3109L10.8925 8.71927L10.957 11.3109H11.4544L12.3821 8.71927L11.9712 11.3109H12.7102L13.2793 7.87354H12.1365L11.4248 9.98256L11.3878 7.87354H10.3344L9.75708 11.3109H10.4531Z" fill="white"/>
<path d="M21.5747 11.3156C21.7848 10.1207 21.8238 9.15047 22.3252 9.32807C22.413 8.8656 22.4977 8.68671 22.5935 8.49098C22.5935 8.49098 22.5486 8.48157 22.4543 8.48157C22.131 8.48157 21.8915 8.92322 21.8915 8.92322L21.9559 8.51761H21.2837L20.8334 11.3156H21.5747Z" fill="white"/>
<path d="M26.0636 8.4491C25.5686 8.4491 25.1892 8.60817 25.1892 8.60817L25.0845 9.23002C25.0845 9.23002 25.3977 9.10278 25.8711 9.10278C26.1399 9.10278 26.3364 9.133 26.3364 9.35146C26.3364 9.48414 26.3124 9.53311 26.3124 9.53311C26.3124 9.53311 26.1004 9.51536 26.0022 9.51536C25.3779 9.51536 24.7221 9.78179 24.7221 10.5851C24.7221 11.218 25.1523 11.3632 25.4189 11.3632C25.9282 11.3632 26.1478 11.0328 26.1594 11.0318L26.1357 11.3076C26.1357 11.3076 26.7711 11.3076 26.7714 11.3076L27.0549 9.31963C27.0549 8.47626 26.3192 8.4491 26.0636 8.4491ZM26.2185 10.0677C26.2322 10.1892 26.1423 10.7584 25.7075 10.7584C25.4833 10.7584 25.4251 10.5871 25.4251 10.4858C25.4251 10.2882 25.5325 10.051 26.0614 10.051C26.1844 10.0512 26.1975 10.0644 26.2185 10.0677Z" fill="white"/>
<path d="M27.6366 11.3166C27.8468 10.1217 27.8857 9.15145 28.387 9.32905C28.4749 8.86658 28.5597 8.68768 28.6554 8.49196C28.6554 8.49196 28.6105 8.48254 28.5162 8.48254C28.193 8.48254 27.9535 8.9242 27.9535 8.9242L28.0178 8.51858H27.3457L26.8954 11.3166H27.6366Z" fill="white"/>
<path d="M31.0857 10.8843C31.1223 10.8843 31.1584 10.8937 31.1933 10.9128C31.2284 10.9313 31.2557 10.9586 31.2753 10.9938C31.2949 11.0289 31.3046 11.0654 31.3046 11.1036C31.3046 11.1413 31.2949 11.1777 31.2756 11.2125C31.2564 11.2473 31.2294 11.2747 31.1946 11.2939C31.1598 11.313 31.1234 11.3226 31.0856 11.3226C31.0475 11.3226 31.0111 11.313 30.9763 11.2939C30.9415 11.2745 30.9146 11.2473 30.8953 11.2125C30.8757 11.1777 30.8661 11.1413 30.8661 11.1036C30.8661 11.0654 30.8759 11.0289 30.8955 10.9938C30.9153 10.9586 30.9427 10.9315 30.9776 10.9128C31.0129 10.8937 31.049 10.8843 31.0857 10.8843ZM31.0857 10.9204C31.055 10.9204 31.025 10.9284 30.9957 10.9443C30.9665 10.96 30.9437 10.9825 30.9273 11.0121C30.9109 11.0412 30.9026 11.0717 30.9026 11.1034C30.9026 11.1351 30.9106 11.1654 30.9266 11.1943C30.9429 11.2232 30.9655 11.2458 30.9948 11.2621C31.0237 11.278 31.0539 11.2861 31.0857 11.2861C31.1172 11.2861 31.1477 11.278 31.1766 11.2621C31.2055 11.2458 31.2282 11.2232 31.2442 11.1943C31.2604 11.1652 31.2682 11.1351 31.2682 11.1034C31.2682 11.0717 31.2601 11.0412 31.2437 11.0121C31.2274 10.9825 31.2047 10.96 31.1753 10.9443C31.1462 10.9284 31.1164 10.9204 31.0857 10.9204ZM30.9896 11.2246V10.9887H31.0708C31.0985 10.9887 31.1187 10.9909 31.1309 10.9955C31.1433 10.9997 31.153 11.0072 31.1606 11.0182C31.168 11.029 31.1718 11.0404 31.1718 11.0527C31.1718 11.0699 31.1655 11.085 31.1531 11.0977C31.141 11.1104 31.1247 11.1177 31.1043 11.1191C31.1125 11.1226 31.1192 11.1268 31.1244 11.1316C31.1338 11.1409 31.1454 11.1565 31.1592 11.1783L31.1881 11.2245H31.1415L31.1207 11.1874C31.1042 11.1581 31.091 11.1399 31.0809 11.1325C31.0739 11.1271 31.0637 11.1244 31.0503 11.1244H31.0281V11.2247L30.9896 11.2246ZM31.0278 11.0919H31.074C31.0961 11.0919 31.111 11.0886 31.119 11.082C31.127 11.0756 31.1312 11.0668 31.1312 11.0558C31.1312 11.0489 31.1293 11.0426 31.1255 11.0373C31.1216 11.0316 31.1161 11.0276 31.1092 11.0248C31.1022 11.0221 31.0897 11.0207 31.0711 11.0207H31.0278V11.0919" fill="white"/>
<rect x="0.40709" y="0.835801" width="40.0636" height="17.4216" rx="1.65395" stroke="white" stroke-width="0.692109"/>
</svg>
