<svg width="41" height="19" viewBox="0 0 41 19" fill="none" xmlns="http://www.w3.org/2000/svg">
<rect x="0.590317" y="0.835801" width="40.0636" height="17.4216" rx="1.65395" fill="white"/>
<path d="M10.0833 6.05497C9.9588 5.80516 9.76182 5.59911 9.51728 5.44439C9.26218 5.28816 8.96104 5.17873 8.61688 5.11382C8.26668 5.05042 7.86215 5.02174 7.39345 5.01721L5.22963 5.01872C5.00471 5.02174 4.78433 5.19684 4.7315 5.4142L3.27561 11.7555C3.22278 11.9698 3.36392 12.1495 3.58883 12.1495H4.62508C4.84999 12.1495 5.07264 11.9751 5.12245 11.7555L5.47793 10.2158C5.52548 10.0015 5.74738 9.82262 5.97455 9.82262H6.27116C7.53836 9.82111 8.51952 9.56223 9.22444 9.04373C9.93314 8.52447 10.2826 7.83842 10.2826 6.98858C10.2818 6.6165 10.2207 6.30404 10.0833 6.05497ZM7.84856 8.12673C7.53534 8.35617 7.09986 8.47088 6.53834 8.47088H6.28475C6.05908 8.47088 5.92096 8.29277 5.97002 8.0754L6.28173 6.72895C6.3255 6.5131 6.55268 6.33423 6.77533 6.33574L7.11496 6.33347C7.51119 6.33347 7.81384 6.40215 8.01611 6.53499C8.21612 6.66631 8.3165 6.87537 8.31499 7.15236C8.32102 7.5735 8.16027 7.89729 7.84856 8.12673Z" fill="#263B80"/>
<path d="M15.0794 6.96217C14.6884 6.74178 14.0711 6.63159 13.2273 6.63159C12.8099 6.63159 12.394 6.66405 11.9736 6.72895C11.6635 6.7765 11.6333 6.78556 11.4423 6.82707C11.0483 6.91311 10.9865 7.30633 10.9865 7.30633L10.8597 7.82785C10.788 8.16069 10.9797 8.14786 11.0597 8.11993C11.2317 8.06861 11.3276 8.01578 11.6793 7.93729C12.0152 7.86106 12.3691 7.8037 12.6499 7.80747C13.0642 7.80747 13.3812 7.85124 13.5926 7.9403C13.8009 8.03087 13.905 8.18635 13.905 8.41126L13.8869 8.55768L13.7375 8.64976C13.1495 8.68674 12.7246 8.74108 12.2091 8.8158C11.705 8.88599 11.2627 9.00901 10.8951 9.17732C10.5004 9.35091 10.2076 9.58412 10.003 9.88073C9.80529 10.1789 9.70642 10.5404 9.70642 10.9645C9.70642 11.3638 9.84982 11.6936 10.1283 11.9487C10.4083 12.1993 10.7781 12.3215 11.2204 12.3215C11.5004 12.32 11.717 12.2982 11.871 12.2612L12.3729 12.0883L12.7978 11.8529L13.1888 11.5947L13.1941 11.6023L13.1548 11.7683L13.1525 11.7751V11.7766C13.1103 11.9789 13.2325 12.1449 13.4295 12.1646L13.4333 12.1691H13.4514H14.2462H14.3956L14.4092 12.1631C14.616 12.1389 14.8099 11.9729 14.8552 11.7751L15.6107 8.50485L15.65 8.23842L15.6681 7.98861C15.6711 7.5252 15.4711 7.18179 15.0794 6.96217ZM13.4084 10.6392L13.2469 10.8521L12.8393 11.0626C12.6476 11.1404 12.4657 11.1796 12.2974 11.1796C12.0423 11.1796 11.8423 11.1426 11.7072 11.0672L11.5072 10.6785C11.5072 10.4679 11.5555 10.3011 11.6589 10.1728L12.0982 9.87394C12.2861 9.81054 12.5155 9.75695 12.7812 9.71997C13.0182 9.69054 13.4861 9.63695 13.5473 9.63544L13.619 9.76148C13.6046 9.83318 13.4718 10.3887 13.4084 10.6392Z" fill="#263B80"/>
<path d="M33.9016 6.96719C33.5084 6.74681 32.8918 6.63586 32.0502 6.63586C31.6329 6.63586 31.2162 6.66832 30.7974 6.73549C30.4864 6.78077 30.4555 6.79059 30.2638 6.83134C29.8705 6.91663 29.8094 7.31135 29.8094 7.31135L29.6826 7.83212C29.6117 8.16496 29.7988 8.14987 29.8864 8.1242C30.0592 8.07288 30.1521 8.02231 30.5008 7.9408C30.8351 7.86533 31.1921 7.80948 31.4736 7.81099C31.8864 7.81099 32.2034 7.85552 32.414 7.94458C32.6238 8.03515 32.7265 8.19213 32.7265 8.41478L32.7106 8.56044L32.5627 8.65478C31.9687 8.69026 31.543 8.7446 31.0328 8.81932C30.5302 8.88951 30.0864 9.01177 29.7181 9.18083C29.3249 9.35518 29.0283 9.58839 28.826 9.88576C28.626 10.1839 28.5286 10.5446 28.5286 10.965C28.5286 11.3673 28.6705 11.6971 28.9528 11.9507C29.2343 12.2005 29.6004 12.3258 30.0426 12.3258C30.3211 12.3228 30.5377 12.3047 30.6925 12.2647L31.1928 12.0941L31.6215 11.8586L32.0095 11.5975L32.0163 11.6058L31.9808 11.7734L31.977 11.7764L31.9785 11.7794C31.9317 11.9817 32.0548 12.1492 32.254 12.1673L32.2555 12.1711H32.2736C32.4042 12.1711 32.8555 12.1711 33.0706 12.1711H33.217L33.2329 12.1658C33.4374 12.1409 33.6306 11.9749 33.6737 11.7749L34.4314 8.50912L34.4714 8.24119L34.4933 7.99062C34.4941 7.52872 34.2963 7.18682 33.9016 6.96719ZM32.2344 10.6443L32.0661 10.8594L31.6623 11.0684C31.4706 11.1454 31.2879 11.1854 31.1227 11.1854C30.8593 11.1854 30.6645 11.1477 30.5332 11.0722L30.3309 10.685C30.3309 10.4737 30.38 10.3084 30.4789 10.1778C30.5792 10.0548 30.7325 9.95368 30.9226 9.87972C31.1083 9.81632 31.3378 9.765 31.6049 9.72651C31.8404 9.69707 32.3068 9.64198 32.3672 9.64122L32.4404 9.76726C32.4299 9.83896 32.2963 10.3922 32.2344 10.6443Z" fill="#139AD6"/>
<path d="M28.9026 6.07965C28.7727 5.82833 28.578 5.6253 28.332 5.46681C28.0799 5.30982 27.781 5.19963 27.4316 5.13623C27.0882 5.0751 26.6784 5.04189 26.2127 5.04114L24.0458 5.04265C23.8202 5.04642 23.6036 5.22152 23.5515 5.43662L22.0941 11.7809C22.0413 11.996 22.1862 12.1741 22.4065 12.1741L23.4443 12.1726C23.6647 12.1741 23.8904 11.9975 23.9424 11.7802L24.2934 10.2398C24.3447 10.0254 24.5674 9.84503 24.7915 9.84654H25.0881C26.3568 9.84654 27.3403 9.5854 28.0482 9.06841C28.7478 8.54538 29.1018 7.86083 29.1018 7.01024C29.098 6.63967 29.0339 6.32645 28.9026 6.07965ZM26.6678 8.15442C26.3553 8.37934 25.9191 8.49405 25.3606 8.49405H25.1025C24.8798 8.49632 24.7357 8.31518 24.7855 8.09933L25.0994 6.75514C25.1455 6.54004 25.3704 6.35966 25.5946 6.36193L25.9304 6.35966C26.3289 6.36193 26.6278 6.42759 26.8316 6.56042C27.0346 6.69325 27.1304 6.90156 27.1327 7.1778C27.135 7.59894 26.9787 7.92348 26.6678 8.15442Z" fill="#139AD6"/>
<path d="M37.7882 5.48738C37.8357 5.27077 37.6999 5.09492 37.4773 5.09794H36.5489C36.3587 5.09794 36.1874 5.23907 36.1036 5.41266L36.0523 5.49267L36.0055 5.69795L34.7081 11.5955L34.6659 11.7766L34.6674 11.7811C34.6243 11.9751 34.7436 12.1215 34.9277 12.1494L34.9436 12.1713H35.9074C36.0961 12.1713 36.2734 12.0279 36.3542 11.8513L36.404 11.7758L37.7912 5.48814L37.7882 5.48738Z" fill="#139AD6"/>
<path d="M22.1207 6.71151C21.8754 6.71453 20.8784 6.71151 20.8784 6.71151C20.655 6.71151 20.3682 6.89189 20.2263 7.10699C20.2263 7.10699 18.7425 9.65347 18.5983 9.90933L18.4263 9.90706L17.9644 7.12435C17.913 6.90548 17.6844 6.7183 17.3998 6.7183L16.4715 6.71981C16.2481 6.71981 16.1107 6.89793 16.1613 7.1153C16.1613 7.1153 16.8662 11.1267 17.0074 12.0709C17.073 12.5917 16.9991 12.6845 16.9991 12.6845L16.0813 14.283C15.9454 14.5004 16.0186 14.6778 16.2413 14.6778L17.3145 14.6762C17.5379 14.6762 17.8315 14.5004 17.9644 14.2823L22.0928 7.29945C22.0928 7.30021 22.4898 6.70321 22.1207 6.71151Z" fill="#263B80"/>
<rect x="0.590317" y="0.835801" width="40.0636" height="17.4216" rx="1.65395" stroke="white" stroke-width="0.692109"/>
</svg>
