<svg width="16" height="16" viewBox="0 0 16 16" fill="none" xmlns="http://www.w3.org/2000/svg">
<path d="M7.95852 0.682372L10.061 4.94865C10.1053 5.037 10.1938 5.10346 10.3045 5.1255L15.0186 5.81072C15.2842 5.85498 15.3949 6.18649 15.1957 6.36335L11.7874 9.6791C11.7211 9.74541 11.6768 9.85596 11.699 9.96652L12.4957 14.6528C12.54 14.918 12.2523 15.1171 12.0088 15.0065L7.80373 12.796C7.71526 12.7517 7.60457 12.7517 7.49388 12.796L3.28878 15.0065C3.04531 15.1391 2.75757 14.9181 2.80187 14.6528L3.59863 9.96652C3.6207 9.85596 3.57655 9.7454 3.51016 9.6791L0.101893 6.36335C-0.0972605 6.16444 0.0134318 5.83279 0.27897 5.81072L5.01485 5.1255C5.12555 5.10346 5.21401 5.03715 5.25832 4.94865L7.36083 0.682372C7.4936 0.439209 7.84774 0.439209 7.95844 0.682372H7.95852Z" fill="#FFA630"/>
</svg>
