<svg width="24" height="24" viewBox="0 0 24 24" fill="none" xmlns="http://www.w3.org/2000/svg">
<g clip-path="url(#clip0_3960_7417)">
<path d="M10.0804 4.3199C6.89923 4.3199 4.32039 6.89874 4.32039 10.0799C4.32039 13.2611 6.89923 15.8399 10.0804 15.8399C13.2616 15.8399 15.8404 13.2611 15.8404 10.0799C15.8404 6.89874 13.2616 4.3199 10.0804 4.3199ZM2.40039 10.0799C2.40039 5.83836 5.83884 2.3999 10.0804 2.3999C14.3219 2.3999 17.7604 5.83836 17.7604 10.0799C17.7604 11.8547 17.1584 13.4888 16.1475 14.7893L21.3192 19.9611C21.6941 20.336 21.6941 20.9438 21.3192 21.3187C20.9443 21.6936 20.3365 21.6936 19.9616 21.3187L14.7898 16.147C13.4893 17.1579 11.8552 17.7599 10.0804 17.7599C5.83884 17.7599 2.40039 14.3214 2.40039 10.0799Z" fill="#383838"/>
</g>
<defs>
<clipPath id="clip0_3960_7417">
<rect width="24" height="24" fill="white"/>
</clipPath>
</defs>
</svg>
