<svg width="68" height="86" viewBox="0 0 68 86" fill="none" xmlns="http://www.w3.org/2000/svg">
<path d="M65.1272 20.8784C65.1226 20.8757 65.1199 20.8704 65.1153 20.8678L56.7817 16.0389L56.7578 7.70625C56.7565 7.59091 56.7412 7.47557 56.7113 7.36356C56.7093 7.3556 56.7099 7.34765 56.7079 7.34036C56.6627 7.18459 56.5923 7.03743 56.4972 6.90619C56.4733 6.87172 56.4487 6.84056 56.4214 6.80809C56.3184 6.6775 56.1927 6.5668 56.0511 6.47997C56.0485 6.47865 56.0478 6.476 56.0452 6.47467L56.0385 6.47135L46.8028 1.11881C46.3587 0.862949 45.811 0.862287 45.3663 1.11748L37.9243 5.40081L29.6406 0.606375C27.1377 -0.578811 24.242 -0.0120618 21.4852 2.2032C19.1685 4.0664 17.4135 6.68676 16.5454 8.51483C15.7443 10.1302 15.2158 11.8676 14.9838 13.6546C14.8489 14.3705 14.8562 15.8215 14.8815 17.7935C14.8855 18.1064 14.8888 18.4013 14.8914 18.6605L0.716613 26.8216C0.684039 26.8402 0.659443 26.868 0.628199 26.8892C0.591638 26.9138 0.559064 26.9403 0.52516 26.9681C0.397525 27.0695 0.289172 27.1922 0.203419 27.3307C0.20076 27.3347 0.196771 27.3366 0.194112 27.3413L0.192782 27.3446C0.111681 27.4911 0.0571687 27.6502 0.0319088 27.8159C0.0245963 27.859 0.0186134 27.9001 0.0152896 27.9438C0.0119657 27.9836 0 28.022 0 28.0625L0.0491927 45.1181C0.0505224 45.6258 0.321753 46.0951 0.761823 46.3503L10.0041 51.7061L10.0088 51.7087C10.0793 51.7445 10.153 51.7757 10.2288 51.7995C9.73159 53.0304 9.08145 54.1944 8.29372 55.2636C6.8186 57.5968 3.66498 59.3441 1.13083 60.7473L0.83368 60.9117C0.378311 61.1649 0.0957961 61.6441 0.0971235 62.1638L0.145651 79.2194C0.146981 79.7272 0.418211 80.1965 0.858943 80.4517L10.1013 85.8074L10.1033 85.8081L10.1066 85.8101C10.3273 85.9261 10.5706 85.9917 10.8199 86.001H10.8212C10.8544 86.001 10.887 85.9904 10.9196 85.9884C11.0093 85.9851 11.0984 85.9731 11.1862 85.9532C11.2187 85.9446 11.2486 85.9261 11.2806 85.9155C11.3676 85.889 11.4514 85.8545 11.5318 85.8121L11.5372 85.8101L26.4233 77.24C26.8681 76.9835 27.142 76.5102 27.1406 75.9985L27.1287 71.7389C27.1207 68.9596 28.4828 65.6864 30.4671 63.1862C30.5189 63.2326 30.5728 63.275 30.6306 63.3128L39.8729 68.6681L39.8749 68.6687L39.8783 68.6707C39.9567 68.7118 40.0391 68.7463 40.1242 68.7721C40.2738 68.8278 40.432 68.8583 40.5915 68.8616H40.5935C40.6208 68.8616 40.6467 68.853 40.674 68.851C40.7697 68.8484 40.8654 68.8358 40.9585 68.8139C40.9931 68.8046 41.0243 68.7854 41.0582 68.7735C41.1433 68.7476 41.2251 68.7138 41.3042 68.672L41.3095 68.6701L56.1863 60.1053C56.631 59.8494 56.9043 59.3761 56.9036 58.8637L56.8571 42.6357L59.8638 40.9044C64.4408 38.2696 68.0146 32.0996 68 26.8591C67.9913 24.0745 66.9706 21.9542 65.1272 20.8784ZM59.4089 20.8678C59.0572 21.0209 58.7148 21.1932 58.3824 21.3835L56.7996 22.2942L56.791 19.3505L59.4089 20.8678ZM46.0803 4.00615L52.4655 7.70625L41.8738 13.8032L41.8685 12.0023C41.8625 10.0509 41.35 8.4349 40.4153 7.26692L46.0803 4.00615ZM17.0357 20.7266C17.4631 20.4813 17.7323 20.0339 17.7509 19.5427C17.7642 19.1874 17.7569 18.5213 17.747 17.7576C17.7323 16.6042 17.7077 14.6753 17.8161 14.0794C18.0109 12.5701 18.4563 11.1045 19.1337 9.74107C19.8343 8.26689 21.3421 5.99007 23.2845 4.42823C25.189 2.89573 26.9162 2.47883 28.3062 3.13302L33.2826 6.0164C32.9296 6.17018 32.5853 6.34319 32.2516 6.53475C27.6752 9.16954 24.1008 15.3388 24.1154 20.5794L24.1254 24.0202L10.6772 31.7623L4.29208 28.0629L17.0357 20.7266ZM2.87343 30.5468L9.24395 34.2382L9.28318 47.9818L2.91265 44.2903L2.87343 30.5468ZM2.96583 63.0001C5.70062 61.4808 8.94477 59.593 10.6491 56.8878C11.984 55.1279 13.1115 52.7012 13.6838 50.4163L15.1655 49.5632C16.6726 48.6949 18.0739 48.5066 19.0079 49.0422C19.9346 49.5738 20.4697 50.863 20.4743 52.5772C20.4863 56.7465 17.4211 62.0388 13.7815 64.134L10.0561 66.2791C9.61135 66.5349 9.33746 67.0082 9.33881 67.5206L9.38002 82.0848L3.00881 78.3933L2.96583 63.0001ZM32.7797 60.881C33.1134 60.6211 33.4644 60.3832 33.8294 60.1684C35.3417 59.2987 36.7444 59.1065 37.6811 59.6447C38.6078 60.1764 39.1422 61.4643 39.1469 63.1777L39.1522 64.9455L32.781 61.2541L32.7797 60.881Z" fill="black"/>
</svg>
