<svg width="84" height="86" viewBox="0 0 84 86" fill="none" xmlns="http://www.w3.org/2000/svg">
<path d="M84 26.4861C84 25.8849 83.6784 25.329 83.1565 25.0285L67.0316 15.739C66.5097 15.4392 65.8673 15.4392 65.3454 15.739L59.8143 18.9252V10.9733C59.8143 10.3714 59.4927 9.81545 58.9708 9.51486L42.8443 0.22544C42.3224 -0.0751466 41.68 -0.0751466 41.1581 0.22544L25.0324 9.51486C24.5105 9.81545 24.1889 10.3714 24.1889 10.9733V30.2687L18.6554 27.0809C18.1335 26.7804 17.4911 26.7804 16.9692 27.0809L0.843493 36.371C0.718299 36.4436 0.60328 36.5318 0.500782 36.6341C0.498435 36.6364 0.495305 36.638 0.492958 36.6403C0.35994 36.7785 0.251966 36.9378 0.173706 37.1127C0.152579 37.1572 0.134583 37.2009 0.117369 37.2477C0.0430359 37.4328 0.00391204 37.6295 0 37.8286V75.0267C0 75.6279 0.321595 76.1838 0.84348 76.4843L16.9684 85.7744C17.0083 85.797 17.0529 85.8064 17.0943 85.8259C17.1397 85.8478 17.1843 85.8649 17.2321 85.8829C17.4175 85.9563 17.6131 85.9953 17.8111 86H17.8134C18.0114 85.9953 18.2062 85.9555 18.3901 85.8837C18.4394 85.8657 18.4856 85.847 18.5333 85.8243C18.5732 85.8056 18.6162 85.7962 18.6553 85.7744L34.781 76.4835C35.3029 76.183 35.6237 75.627 35.6237 75.0259V68.6518L41.1573 71.8403C41.6792 72.1417 42.3224 72.1409 42.8443 71.8395L58.9708 62.5487C59.4927 62.2481 59.8143 61.693 59.8143 61.0911V54.7178L65.3454 57.9039C65.3845 57.9266 65.4283 57.9359 65.469 57.9547C65.5152 57.9765 65.5606 57.9945 65.6091 58.0124C65.9792 58.1686 66.3978 58.1686 66.7679 58.0124C66.8156 57.9945 66.861 57.9773 66.9072 57.9554C66.9486 57.9359 66.9924 57.9266 67.0323 57.9039L83.1572 48.6131C83.6784 48.3117 83.9999 47.7566 83.9999 47.1554V26.9045C83.9921 26.849 83.9812 26.7928 83.9663 26.7382C83.9843 26.6546 83.996 26.5703 83.9999 26.4844L84 26.4861ZM16.1252 81.4028L3.37434 74.0559V40.7453L16.1252 48.0898V81.4028ZM17.8122 45.1741L5.06132 37.8288L17.8122 30.4819L30.5631 37.828L17.8122 45.1741ZM40.3141 67.4684L35.6241 64.7661V37.8294C35.6202 37.6303 35.5803 37.4336 35.5067 37.2486C35.4895 37.2017 35.4715 37.158 35.4504 37.1135C35.3722 36.9386 35.2642 36.7785 35.1311 36.6404C35.1288 36.638 35.1257 36.6364 35.1233 36.6341C35.0208 36.5318 34.9058 36.4444 34.7806 36.3718L27.5633 32.2143V13.89L40.3142 21.2369L40.3141 67.4684ZM42.0011 18.32L29.2494 10.9739L42.0011 3.62703L54.7536 10.9739L44.1841 17.063L42.0011 18.32ZM64.5015 53.5323L59.8146 50.8325V34.0495L64.5015 36.7493V53.5323ZM66.1884 33.834L59.8146 30.1622V22.8145L66.1884 19.1418L78.9393 26.4879L66.1884 33.834Z" fill="black"/>
</svg>
