<svg width="43" height="86" viewBox="0 0 43 86" fill="none" xmlns="http://www.w3.org/2000/svg">
<path d="M37.1332 13.7906C37.1302 13.7834 37.1243 13.7786 37.1214 13.7714C37.1013 13.7294 37.0788 13.6886 37.054 13.649C37.0245 13.5932 36.9902 13.5398 36.9512 13.4894C36.9311 13.457 36.9087 13.4252 36.8856 13.3946C36.8519 13.3664 36.8171 13.3406 36.781 13.3167C36.7521 13.2921 36.735 13.2591 36.703 13.2369L17.4 0.190161C17.3722 0.170965 17.3403 0.169165 17.312 0.152968C17.1761 0.0803823 17.0284 0.0347925 16.8759 0.0185956C16.844 0.0161961 16.8162 0 16.7837 0H6.91016L6.89716 0.00299934C6.87116 0.00299934 6.84635 0.00899819 6.82035 0.0113977C6.76717 0.0173964 6.71458 0.0269941 6.66317 0.0401918C6.61058 0.0503896 6.55858 0.0641868 6.50836 0.0821835C6.4865 0.0905819 6.46641 0.10018 6.44573 0.109778C6.40732 0.130174 6.3701 0.152369 6.33405 0.176364C6.30214 0.19196 6.27024 0.208758 6.2401 0.227353L6.22769 0.24055C6.20406 0.258547 6.18574 0.282542 6.16388 0.302337C6.13611 0.329331 6.10952 0.357527 6.0847 0.38692C6.05575 0.415113 6.02738 0.445108 6.00139 0.476301L5.99843 0.4805L0.945852 7.69637C-0.313904 9.49005 -0.315084 12.613 0.941125 15.8439L10.6996 41.1059C10.7823 41.3219 10.9288 41.5061 11.1185 41.6344L13.5186 43.257V45.9949H11.0523C11.0446 45.9949 11.0381 45.9991 11.0304 45.9991C9.838 45.9685 8.65794 46.2498 7.60392 46.8161C4.61461 48.4412 2.90047 52.3398 2.90047 57.5114C2.90047 67.1387 8.75203 78.9265 15.9447 83.79C17.7723 85.1343 19.9486 85.9028 22.2033 86C22.4131 86 22.6181 85.9808 22.8238 85.9634H31.3851C31.615 85.9826 31.843 85.9958 32.0682 85.9958C33.8219 86.0162 35.5172 85.3575 36.8094 84.1536C38.9626 82.1607 40.1001 78.8159 40.1001 74.48C39.7857 65.281 35.9799 56.5616 29.4777 50.1456V48.3506H31.2527L31.2592 48.3518C31.2675 48.3518 31.2751 48.347 31.2834 48.3464C31.4311 48.344 31.5777 48.3116 31.713 48.2511C31.7467 48.2355 31.7721 48.2073 31.804 48.1887C31.9097 48.1305 32.0049 48.0555 32.0864 47.9661C32.0971 47.9541 32.1124 47.9499 32.1225 47.9373L41.8826 35.8463C42.6419 34.8127 43.0348 33.5494 42.9976 32.2601C42.9887 30.7676 42.7205 29.2883 42.2058 27.8901L37.1332 13.7906ZM40.6945 31.1177H33.0655C32.9544 30.0133 32.7063 28.9281 32.3275 27.8874L27.8078 15.3133H35.3073L40.11 28.663C40.3948 29.4567 40.591 30.2797 40.6945 31.1177ZM16.4466 2.26372L32.4081 13.0507H26.5531L10.596 2.26372H16.4466ZM21.667 20.1191L11.9907 13.5786L8.93878 3.8636L24.7385 14.5438L22.9339 17.8191L21.667 20.1191ZM20.5757 22.1011L16.8136 28.9289L13.075 17.0304L20.5757 22.1011ZM21.5607 44.0399L17.743 31.8786L26.0024 16.889L30.2344 28.664C31.2324 31.4414 30.9671 33.586 30.2941 34.409L21.8279 44.8912L21.5607 44.0399ZM3.0155 15.0154C1.92118 12.2002 2.11618 9.92909 2.7626 9.00891L6.52654 3.63401L6.7629 4.38625L19.3617 44.4891L19.1147 44.3223L19.1123 44.3199L15.8672 42.1262L12.6469 39.9486L3.0155 15.0154ZM17.3798 45.8689V48.3373C17.3131 48.2911 17.2481 48.2455 17.1819 48.2017C16.7263 47.894 16.2725 47.6217 15.8211 47.3775C15.7969 47.3643 15.7721 47.3463 15.7478 47.3331V47.2593C15.7827 47.1747 15.7827 47.08 15.7478 46.996V44.7657L17.3798 45.8689ZM37.8718 74.4802C37.8718 78.1101 36.9619 80.9511 35.3097 82.4808C34.4529 83.272 33.3349 83.7093 32.1768 83.7069C32.1656 83.7064 32.1561 83.7004 32.1455 83.7004H27.3605C29.1019 81.5595 30.0868 78.8875 30.1583 76.1119L30.1589 76.1089V76.0981C30.1979 75.5714 30.2275 75.0363 30.2275 74.479C30.2275 66.7292 26.4328 57.5881 21.2029 51.777H27.9355C33.6191 56.9942 37.8718 66.6608 37.8718 74.4802ZM27.2495 49.5146H19.6094V47.376L20.7722 48.1618C20.7905 48.1744 20.8112 48.1786 20.8301 48.19C20.8632 48.211 20.8981 48.2302 20.9329 48.2476C20.9566 48.2584 20.9808 48.2638 21.005 48.2734C21.0434 48.2884 21.083 48.3016 21.1238 48.3124C21.1433 48.3178 21.161 48.3286 21.1811 48.3322C21.2502 48.3454 21.32 48.352 21.3903 48.352H27.2494L27.2495 49.5146ZM30.7351 46.0892H23.7456L32.015 35.8499C32.5639 35.1342 32.9131 34.2818 33.0271 33.3821H40.6248C40.5474 33.754 40.3902 34.1043 40.1645 34.4078L30.7351 46.0892Z" fill="black"/>
</svg>
