<svg width="9" height="9" viewBox="0 0 9 9" fill="none" xmlns="http://www.w3.org/2000/svg">
<path opacity="0.74" d="M4.5 0.606567C2.43337 0.606567 0.75 2.28994 0.75 4.35657C0.75 6.42319 2.43337 8.10657 4.5 8.10657C6.56663 8.10657 8.25 6.42319 8.25 4.35657C8.25 2.28994 6.56663 0.606567 4.5 0.606567ZM4.5 1.35657C6.1613 1.35657 7.5 2.69527 7.5 4.35657C7.5 6.01786 6.1613 7.35657 4.5 7.35657C2.8387 7.35657 1.5 6.01786 1.5 4.35657C1.5 2.69527 2.8387 1.35657 4.5 1.35657ZM6.10986 2.96643L3.75 5.32629L2.89014 4.46643L2.35986 4.9967L3.75 6.38684L6.64014 3.4967L6.10986 2.96643Z" fill="#6C6C6C"/>
</svg>
