<svg width="86" height="21" viewBox="0 0 86 21" fill="none" xmlns="http://www.w3.org/2000/svg">
<path d="M23.0407 7.58252H31.5847V9.17283H28.2252V18.1127H26.3778V9.17283H23.0332V7.58252H23.0407ZM31.2197 10.4882H32.7989V11.9596H32.8287C32.8809 11.7515 32.9777 11.5509 33.1193 11.3576C33.2608 11.1644 33.4321 10.9786 33.6332 10.8226C33.8344 10.6591 34.0578 10.5328 34.3037 10.4287C34.5495 10.3321 34.8027 10.2801 35.056 10.2801C35.2497 10.2801 35.3912 10.2875 35.4657 10.295C35.5402 10.3024 35.6147 10.3173 35.6966 10.3247V11.9447C35.5774 11.9224 35.4583 11.9076 35.3316 11.8927C35.205 11.8778 35.0858 11.8704 34.9666 11.8704C34.6836 11.8704 34.4154 11.9299 34.1621 12.0413C33.9089 12.1528 33.6928 12.3237 33.5066 12.5392C33.3204 12.7622 33.1714 13.0297 33.0597 13.3567C32.9479 13.6837 32.8958 14.0552 32.8958 14.4788V18.1053H31.2123V10.4882H31.2197ZM43.4362 18.1127H41.7825V17.0501H41.7527C41.5442 17.4365 41.2387 17.7412 40.829 17.9715C40.4193 18.2019 40.0022 18.3208 39.5776 18.3208C38.572 18.3208 37.842 18.0756 37.395 17.5777C36.9481 17.0798 36.7246 16.3292 36.7246 15.326V10.4882H38.4081V15.1625C38.4081 15.8313 38.5347 16.3069 38.7954 16.5819C39.0487 16.8568 39.4137 16.998 39.8756 16.998C40.2331 16.998 40.5236 16.946 40.762 16.8345C41.0004 16.7231 41.194 16.5819 41.3356 16.3961C41.4846 16.2177 41.5888 15.9948 41.6559 15.7421C41.7229 15.4895 41.7527 15.2145 41.7527 14.9173V10.4956H43.4362V18.1127ZM46.3041 15.6678C46.3563 16.1583 46.5425 16.5001 46.8628 16.7008C47.1906 16.894 47.5779 16.998 48.0323 16.998C48.1887 16.998 48.3675 16.9832 48.5686 16.9609C48.7698 16.9386 48.9634 16.8866 49.1348 16.8197C49.3135 16.7528 49.4551 16.6488 49.5743 16.515C49.686 16.3812 49.7381 16.2103 49.7307 15.9948C49.7232 15.7793 49.6413 15.6009 49.4923 15.4672C49.3433 15.326 49.1571 15.2219 48.9262 15.1328C48.6953 15.051 48.4346 14.9767 48.1366 14.9173C47.8386 14.8578 47.5407 14.7909 47.2353 14.724C46.9224 14.6572 46.617 14.568 46.3265 14.4714C46.0359 14.3748 45.7752 14.241 45.5443 14.0701C45.3134 13.9066 45.1272 13.6911 44.9931 13.431C44.8515 13.1709 44.7845 12.8513 44.7845 12.4649C44.7845 12.0488 44.8888 11.7069 45.0899 11.4245C45.291 11.1421 45.5518 10.9192 45.8572 10.7483C46.17 10.5774 46.5127 10.4585 46.8926 10.3841C47.2725 10.3173 47.6375 10.2801 47.9802 10.2801C48.375 10.2801 48.7549 10.3247 49.1124 10.4064C49.47 10.4882 49.7977 10.6219 50.0882 10.8152C50.3788 11.0009 50.6171 11.2462 50.8108 11.5434C51.0045 11.8407 51.1237 12.2048 51.1758 12.6284H49.4178C49.3359 12.2271 49.1571 11.9522 48.8666 11.8184C48.5761 11.6772 48.2409 11.6103 47.8684 11.6103C47.7492 11.6103 47.6077 11.6177 47.4438 11.64C47.2799 11.6623 47.131 11.6995 46.982 11.7515C46.8404 11.8035 46.7213 11.8853 46.617 11.9893C46.5201 12.0933 46.468 12.2271 46.468 12.398C46.468 12.6061 46.5425 12.7696 46.684 12.8959C46.8256 13.0223 47.0118 13.1263 47.2427 13.2155C47.4736 13.2972 47.7343 13.3715 48.0323 13.431C48.3303 13.4904 48.6357 13.5573 48.9485 13.6242C49.254 13.6911 49.5519 13.7803 49.8499 13.8769C50.1478 13.9735 50.4086 14.1072 50.6395 14.2782C50.8704 14.4491 51.0566 14.6572 51.1982 14.9098C51.3397 15.1625 51.4142 15.482 51.4142 15.8536C51.4142 16.3069 51.3099 16.6859 51.1013 17.0055C50.8927 17.3176 50.6246 17.5777 50.2968 17.7709C49.9691 17.9641 49.5966 18.1127 49.1944 18.2019C48.7921 18.2911 48.3899 18.3357 47.9951 18.3357C47.5109 18.3357 47.0639 18.2837 46.6542 18.1722C46.2445 18.0607 45.887 17.8972 45.589 17.6817C45.291 17.4588 45.0527 17.1838 44.8813 16.8568C44.71 16.5299 44.6206 16.136 44.6057 15.6827H46.3041V15.6678ZM51.8611 10.4882H53.1349V8.19932H54.8184V10.4882H56.338V11.7441H54.8184V15.8164C54.8184 15.9948 54.8259 16.1434 54.8408 16.2772C54.8557 16.4035 54.8929 16.515 54.945 16.6042C54.9972 16.6933 55.0791 16.7602 55.1909 16.8048C55.3026 16.8494 55.4441 16.8717 55.6378 16.8717C55.757 16.8717 55.8762 16.8717 55.9954 16.8643C56.1145 16.8568 56.2337 16.842 56.3529 16.8122V18.1127C56.1667 18.135 55.9805 18.1499 55.8091 18.1722C55.6304 18.1945 55.4516 18.2019 55.2654 18.2019C54.8184 18.2019 54.4609 18.1573 54.1927 18.0756C53.9245 17.9938 53.7085 17.8675 53.5595 17.704C53.4031 17.5405 53.3062 17.3399 53.2467 17.0946C53.1945 16.8494 53.1573 16.567 53.1498 16.2549V11.7589H51.876V10.4882H51.8611ZM57.5299 10.4882H59.124V11.5211H59.1538C59.3921 11.0753 59.7199 10.7631 60.1445 10.5699C60.5691 10.3767 61.0235 10.2801 61.5226 10.2801C62.126 10.2801 62.6474 10.3841 63.0943 10.5996C63.5413 10.8077 63.9137 11.0975 64.2117 11.4691C64.5097 11.8407 64.7257 12.2717 64.8747 12.7622C65.0236 13.2526 65.0981 13.7803 65.0981 14.3376C65.0981 14.8504 65.0311 15.3483 64.897 15.8239C64.7629 16.3069 64.5618 16.7305 64.2936 17.1021C64.0255 17.4736 63.6828 17.7635 63.2657 17.9864C62.8485 18.2093 62.3643 18.3208 61.7982 18.3208C61.5524 18.3208 61.3066 18.2985 61.0607 18.2539C60.8149 18.2093 60.5765 18.135 60.3531 18.0384C60.1296 17.9418 59.9136 17.8155 59.7274 17.6594C59.5337 17.5034 59.3772 17.325 59.2432 17.1244H59.2134V20.9292H57.5299V10.4882V10.4882ZM63.4146 14.3079C63.4146 13.966 63.37 13.6316 63.2806 13.3047C63.1912 12.9777 63.0571 12.6953 62.8783 12.4426C62.6995 12.19 62.4761 11.9893 62.2153 11.8407C61.9472 11.6921 61.6418 11.6103 61.2991 11.6103C60.5914 11.6103 60.0551 11.8555 59.6976 12.346C59.34 12.8365 59.1612 13.4904 59.1612 14.3079C59.1612 14.6943 59.2059 15.051 59.3028 15.378C59.3996 15.705 59.5337 15.9874 59.7274 16.2252C59.9136 16.463 60.1371 16.6488 60.3978 16.7825C60.6585 16.9237 60.9639 16.9906 61.3066 16.9906C61.6939 16.9906 62.0142 16.9089 62.2824 16.7528C62.5506 16.5967 62.7666 16.3887 62.9379 16.1434C63.1092 15.8908 63.2359 15.6084 63.3104 15.2888C63.3774 14.9693 63.4146 14.6423 63.4146 14.3079V14.3079ZM66.3868 7.58252H68.0703V9.17283H66.3868V7.58252ZM66.3868 10.4882H68.0703V18.1127H66.3868V10.4882ZM69.575 7.58252H71.2585V18.1127H69.575V7.58252ZM76.4207 18.3208C75.8099 18.3208 75.2661 18.2168 74.7894 18.0161C74.3126 17.8155 73.9104 17.5331 73.5752 17.1838C73.2474 16.8271 72.9942 16.4035 72.8228 15.9131C72.6515 15.4226 72.5621 14.8801 72.5621 14.293C72.5621 13.7134 72.6515 13.1783 72.8228 12.6879C72.9942 12.1974 73.2474 11.7738 73.5752 11.4171C73.9029 11.0604 74.3126 10.7854 74.7894 10.5848C75.2661 10.3841 75.8099 10.2801 76.4207 10.2801C77.0316 10.2801 77.5753 10.3841 78.0521 10.5848C78.5288 10.7854 78.9311 11.0678 79.2663 11.4171C79.594 11.7738 79.8473 12.1974 80.0186 12.6879C80.19 13.1783 80.2794 13.7134 80.2794 14.293C80.2794 14.8801 80.19 15.4226 80.0186 15.9131C79.8473 16.4035 79.594 16.8271 79.2663 17.1838C78.9385 17.5405 78.5288 17.8155 78.0521 18.0161C77.5753 18.2168 77.0316 18.3208 76.4207 18.3208V18.3208ZM76.4207 16.9906C76.7932 16.9906 77.1209 16.9089 77.3966 16.7528C77.6722 16.5967 77.8957 16.3887 78.0744 16.136C78.2532 15.8833 78.3798 15.5935 78.4692 15.274C78.5512 14.9544 78.5959 14.6274 78.5959 14.293C78.5959 13.966 78.5512 13.6465 78.4692 13.3195C78.3873 12.9925 78.2532 12.7101 78.0744 12.4575C77.8957 12.2048 77.6722 12.0042 77.3966 11.8481C77.1209 11.6921 76.7932 11.6103 76.4207 11.6103C76.0483 11.6103 75.7205 11.6921 75.4449 11.8481C75.1693 12.0042 74.9458 12.2122 74.767 12.4575C74.5883 12.7101 74.4616 12.9925 74.3722 13.3195C74.2903 13.6465 74.2456 13.966 74.2456 14.293C74.2456 14.6274 74.2903 14.9544 74.3722 15.274C74.4542 15.5935 74.5883 15.8833 74.767 16.136C74.9458 16.3887 75.1693 16.5967 75.4449 16.7528C75.7205 16.9163 76.0483 16.9906 76.4207 16.9906V16.9906ZM80.771 10.4882H82.0448V8.19932H83.7283V10.4882H85.2479V11.7441H83.7283V15.8164C83.7283 15.9948 83.7357 16.1434 83.7506 16.2772C83.7655 16.4035 83.8028 16.515 83.8549 16.6042C83.9071 16.6933 83.989 16.7602 84.1007 16.8048C84.2125 16.8494 84.354 16.8717 84.5477 16.8717C84.6669 16.8717 84.786 16.8717 84.9052 16.8643C85.0244 16.8568 85.1436 16.842 85.2628 16.8122V18.1127C85.0766 18.135 84.8903 18.1499 84.719 18.1722C84.5402 18.1945 84.3615 18.2019 84.1752 18.2019C83.7283 18.2019 83.3707 18.1573 83.1026 18.0756C82.8344 17.9938 82.6184 17.8675 82.4694 17.704C82.313 17.5405 82.2161 17.3399 82.1565 17.0946C82.1044 16.8494 82.0671 16.567 82.0597 16.2549V11.7589H80.7859V10.4882H80.771Z" fill="white"/>
<path d="M21.0746 7.58268H13.3573L10.9736 0.255371L8.58248 7.58268L0.865234 7.57525L7.11501 12.1084L4.72386 19.4282L10.9736 14.9026L17.216 19.4282L14.8323 12.1084L21.0746 7.58268Z" fill="#00B67A"/>
<path d="M15.3676 13.7656L14.8313 12.1084L10.9727 14.9026L15.3676 13.7656Z" fill="#005128"/>
</svg>
