<svg width="93" height="24" viewBox="0 0 93 24" fill="none" xmlns="http://www.w3.org/2000/svg">
<path d="M24.8128 8.80078H34.1567V10.5441H30.4827V20.3441H28.4624V10.5441H24.8047V8.80078H24.8128ZM33.7575 11.986H35.4845V13.599H35.5171C35.5741 13.3709 35.68 13.1509 35.8348 12.9391C35.9896 12.7273 36.1769 12.5236 36.3969 12.3526C36.6168 12.1734 36.8612 12.0349 37.1301 11.9208C37.3989 11.8149 37.6759 11.7579 37.9528 11.7579C38.1646 11.7579 38.3194 11.766 38.4009 11.7742C38.4823 11.7823 38.5638 11.7986 38.6534 11.8068V13.5827C38.5231 13.5582 38.3927 13.5419 38.2542 13.5256C38.1158 13.5093 37.9854 13.5012 37.8551 13.5012C37.5455 13.5012 37.2522 13.5664 36.9753 13.6886C36.6983 13.8108 36.4621 13.9981 36.2584 14.2344C36.0547 14.4788 35.8918 14.772 35.7696 15.1305C35.6474 15.4889 35.5904 15.8962 35.5904 16.3606V20.336H33.7493V11.986H33.7575ZM47.1174 20.3441H45.309V19.1792H45.2764C45.0483 19.6028 44.7143 19.9368 44.2662 20.1893C43.8182 20.4419 43.362 20.5722 42.8976 20.5722C41.7979 20.5722 40.9996 20.3034 40.5108 19.7576C40.022 19.2118 39.7776 18.389 39.7776 17.2892V11.986H41.6187V17.11C41.6187 17.8432 41.7572 18.3646 42.0423 18.666C42.3193 18.9674 42.7184 19.1222 43.2235 19.1222C43.6145 19.1222 43.9322 19.0651 44.1929 18.9429C44.4536 18.8207 44.6654 18.666 44.8202 18.4623C44.9831 18.2668 45.0971 18.0224 45.1705 17.7454C45.2438 17.4685 45.2764 17.167 45.2764 16.8412V11.9941H47.1174V20.3441ZM50.2538 17.664C50.3108 18.2016 50.5144 18.5764 50.8647 18.7963C51.2232 19.0081 51.6468 19.1222 52.1437 19.1222C52.3148 19.1222 52.5103 19.1059 52.7302 19.0814C52.9502 19.057 53.162 19 53.3494 18.9266C53.5449 18.8533 53.6997 18.7393 53.83 18.5926C53.9522 18.446 54.0092 18.2586 54.0011 18.0224C53.9929 17.7862 53.9033 17.5907 53.7404 17.444C53.5775 17.2892 53.3738 17.1752 53.1213 17.0774C52.8687 16.9878 52.5836 16.9064 52.2578 16.8412C51.9319 16.776 51.606 16.7027 51.2721 16.6294C50.9299 16.5561 50.5959 16.4583 50.2782 16.3524C49.9605 16.2465 49.6754 16.0999 49.4228 15.9125C49.1703 15.7333 48.9666 15.497 48.82 15.2119C48.6652 14.9268 48.5919 14.5765 48.5919 14.1529C48.5919 13.6967 48.706 13.322 48.9259 13.0124C49.1459 12.7029 49.431 12.4585 49.765 12.2711C50.1071 12.0837 50.4819 11.9534 50.8973 11.8719C51.3128 11.7986 51.712 11.7579 52.0867 11.7579C52.5184 11.7579 52.9339 11.8068 53.3249 11.8964C53.7159 11.986 54.0744 12.1326 54.3921 12.3444C54.7098 12.5481 54.9705 12.8169 55.1823 13.1428C55.3941 13.4686 55.5244 13.8678 55.5814 14.3321H53.6589C53.5693 13.8922 53.3738 13.5908 53.0561 13.4442C52.7384 13.2894 52.3718 13.2161 51.9645 13.2161C51.8341 13.2161 51.6794 13.2242 51.5001 13.2487C51.3209 13.2731 51.158 13.3138 50.9951 13.3709C50.8403 13.4279 50.71 13.5175 50.5959 13.6315C50.49 13.7456 50.433 13.8922 50.433 14.0796C50.433 14.3077 50.5144 14.4869 50.6692 14.6254C50.824 14.7639 51.0277 14.8779 51.2802 14.9757C51.5327 15.0653 51.8179 15.1468 52.1437 15.2119C52.4696 15.2771 52.8036 15.3504 53.1457 15.4237C53.4797 15.497 53.8056 15.5948 54.1314 15.7007C54.4573 15.8066 54.7424 15.9532 54.9949 16.1406C55.2474 16.328 55.4511 16.5561 55.6059 16.833C55.7607 17.11 55.8421 17.4603 55.8421 17.8676C55.8421 18.3646 55.7281 18.78 55.5 19.1303C55.2719 19.4724 54.9786 19.7576 54.6202 19.9694C54.2617 20.1812 53.8544 20.3441 53.4145 20.4419C52.9746 20.5396 52.5347 20.5885 52.103 20.5885C51.5735 20.5885 51.0847 20.5315 50.6366 20.4093C50.1886 20.2871 49.7976 20.1079 49.4717 19.8716C49.1459 19.6272 48.8852 19.3258 48.6978 18.9674C48.5105 18.6089 48.4127 18.1772 48.3964 17.6803H50.2538V17.664ZM56.3309 11.986H57.7239V9.47693H59.565V11.986H61.2268V13.3627H59.565V17.8269C59.565 18.0224 59.5731 18.1853 59.5894 18.332C59.6057 18.4705 59.6465 18.5926 59.7035 18.6904C59.7605 18.7882 59.8501 18.8615 59.9723 18.9104C60.0945 18.9592 60.2493 18.9837 60.4611 18.9837C60.5914 18.9837 60.7218 18.9837 60.8521 18.9755C60.9824 18.9674 61.1128 18.9511 61.2431 18.9185V20.3441C61.0395 20.3685 60.8358 20.3848 60.6485 20.4093C60.4529 20.4337 60.2574 20.4419 60.0538 20.4419C59.565 20.4419 59.174 20.393 58.8807 20.3034C58.5874 20.2138 58.3512 20.0753 58.1883 19.8961C58.0172 19.7168 57.9113 19.4969 57.8461 19.2281C57.7891 18.9592 57.7484 18.6497 57.7402 18.3075V13.379H56.3472V11.986H56.3309ZM62.5303 11.986H64.2736V13.1183H64.3061C64.5668 12.6295 64.9253 12.2874 65.3896 12.0756C65.8539 11.8638 66.3509 11.7579 66.8967 11.7579C67.5565 11.7579 68.1268 11.8719 68.6156 12.1082C69.1043 12.3363 69.5116 12.654 69.8375 13.0613C70.1633 13.4686 70.3996 13.9411 70.5625 14.4788C70.7254 15.0164 70.8069 15.5948 70.8069 16.2058C70.8069 16.7679 70.7336 17.3137 70.587 17.835C70.4403 18.3646 70.2204 18.8289 69.9271 19.2362C69.6338 19.6435 69.2591 19.9612 68.8029 20.2056C68.3467 20.45 67.8172 20.5722 67.1981 20.5722C66.9293 20.5722 66.6604 20.5478 66.3916 20.4989C66.1228 20.45 65.8621 20.3685 65.6177 20.2626C65.3733 20.1567 65.1371 20.0183 64.9334 19.8472C64.7216 19.6761 64.5505 19.4806 64.4039 19.2606H64.3713V23.4316H62.5303V11.986ZM68.9658 16.1732C68.9658 15.7985 68.917 15.4319 68.8192 15.0734C68.7215 14.715 68.5748 14.4054 68.3793 14.1285C68.1838 13.8515 67.9394 13.6315 67.6543 13.4686C67.361 13.3057 67.027 13.2161 66.6523 13.2161C65.8784 13.2161 65.2919 13.4849 64.9008 14.0226C64.5098 14.5602 64.3143 15.2771 64.3143 16.1732C64.3143 16.5968 64.3632 16.9878 64.4691 17.3463C64.575 17.7047 64.7216 18.0143 64.9334 18.2749C65.1371 18.5356 65.3815 18.7393 65.6666 18.8859C65.9517 19.0407 66.2857 19.114 66.6604 19.114C67.084 19.114 67.4343 19.0244 67.7276 18.8533C68.0209 18.6823 68.2571 18.4542 68.4445 18.1853C68.6318 17.9084 68.7703 17.5988 68.8518 17.2485C68.9251 16.8982 68.9658 16.5398 68.9658 16.1732ZM72.2162 8.80078H74.0573V10.5441H72.2162V8.80078ZM72.2162 11.986H74.0573V20.3441H72.2162V11.986ZM75.7028 8.80078H77.5439V20.3441H75.7028V8.80078ZM83.1893 20.5722C82.5213 20.5722 81.9266 20.4582 81.4053 20.2382C80.8839 20.0183 80.444 19.7087 80.0774 19.3258C79.719 18.9348 79.442 18.4705 79.2546 17.9328C79.0673 17.3951 78.9695 16.8005 78.9695 16.1569C78.9695 15.5215 79.0673 14.935 79.2546 14.3973C79.442 13.8596 79.719 13.3953 80.0774 13.0043C80.4358 12.6133 80.8839 12.3118 81.4053 12.0919C81.9266 11.8719 82.5213 11.7579 83.1893 11.7579C83.8573 11.7579 84.452 11.8719 84.9733 12.0919C85.4947 12.3118 85.9346 12.6214 86.3012 13.0043C86.6596 13.3953 86.9366 13.8596 87.124 14.3973C87.3113 14.935 87.4091 15.5215 87.4091 16.1569C87.4091 16.8005 87.3113 17.3951 87.124 17.9328C86.9366 18.4705 86.6596 18.9348 86.3012 19.3258C85.9427 19.7168 85.4947 20.0183 84.9733 20.2382C84.452 20.4582 83.8573 20.5722 83.1893 20.5722ZM83.1893 19.114C83.5966 19.114 83.9551 19.0244 84.2565 18.8533C84.5579 18.6823 84.8023 18.4542 84.9978 18.1772C85.1933 17.9002 85.3318 17.5825 85.4295 17.2322C85.5191 16.8819 85.568 16.5235 85.568 16.1569C85.568 15.7985 85.5191 15.4482 85.4295 15.0897C85.3399 14.7313 85.1933 14.4217 84.9978 14.1448C84.8023 13.8678 84.5579 13.6478 84.2565 13.4768C83.9551 13.3057 83.5966 13.2161 83.1893 13.2161C82.782 13.2161 82.4235 13.3057 82.1221 13.4768C81.8207 13.6478 81.5763 13.8759 81.3808 14.1448C81.1853 14.4217 81.0468 14.7313 80.9491 15.0897C80.8594 15.4482 80.8106 15.7985 80.8106 16.1569C80.8106 16.5235 80.8594 16.8819 80.9491 17.2322C81.0387 17.5825 81.1853 17.9002 81.3808 18.1772C81.5763 18.4542 81.8207 18.6823 82.1221 18.8533C82.4235 19.0325 82.782 19.114 83.1893 19.114ZM87.9467 11.986H89.3398V9.47693H91.1808V11.986H92.8427V13.3627H91.1808V17.8269C91.1808 18.0224 91.189 18.1853 91.2053 18.332C91.2216 18.4705 91.2623 18.5926 91.3193 18.6904C91.3763 18.7882 91.466 18.8615 91.5881 18.9104C91.7103 18.9592 91.8651 18.9837 92.0769 18.9837C92.2073 18.9837 92.3376 18.9837 92.4679 18.9755C92.5983 18.9674 92.7286 18.9511 92.859 18.9185V20.3441C92.6553 20.3685 92.4516 20.3848 92.2643 20.4093C92.0688 20.4337 91.8733 20.4419 91.6696 20.4419C91.1808 20.4419 90.7898 20.393 90.4965 20.3034C90.2033 20.2138 89.967 20.0753 89.8041 19.8961C89.633 19.7168 89.5271 19.4969 89.462 19.2281C89.4049 18.9592 89.3642 18.6497 89.3561 18.3075V13.379H87.963V11.986H87.9467Z" fill="black"/>
<path d="M22.6615 8.80082H14.2219L11.6151 0.768555L9.00012 8.80082L0.560547 8.79267L7.3953 13.7619L4.78034 21.786L11.6151 16.8249L18.4417 21.786L15.8349 13.7619L22.6615 8.80082Z" fill="#00B67A"/>
<path d="M16.4216 15.5783L15.835 13.7617L11.6152 16.8247L16.4216 15.5783Z" fill="#005128"/>
</svg>
