<?xml version="1.0" standalone="no"?>
<!DOCTYPE svg PUBLIC "-//W3C//DTD SVG 20010904//EN"
 "http://www.w3.org/TR/2001/REC-SVG-20010904/DTD/svg10.dtd">
<svg version="1.0" xmlns="http://www.w3.org/2000/svg"
 width="141.000000pt" height="44.000000pt" viewBox="0 0 141.000000 44.000000"
 preserveAspectRatio="xMidYMid meet">

<g transform="translate(0.000000,44.000000) scale(0.100000,-0.100000)"
fill="#000000" stroke="none">
<path d="M0 220 l0 -220 705 0 705 0 0 220 0 220 -705 0 -705 0 0 -220z m196
144 c-3 -8 -1 -14 4 -14 6 0 10 -8 10 -18 0 -29 21 -42 70 -42 43 0 44 -1 20
-13 -14 -8 -61 -39 -104 -71 -43 -31 -81 -55 -83 -53 -2 2 1 16 7 31 17 45 12
64 -21 83 l-31 18 43 5 c41 5 44 7 59 52 8 25 19 44 23 41 5 -3 6 -11 3 -19z
m304 -74 c0 -5 -11 -10 -25 -10 -24 0 -25 -2 -25 -71 0 -52 -3 -70 -12 -66 -9
2 -13 25 -13 68 0 62 -1 64 -28 67 -53 6 -26 22 38 22 37 0 65 -4 65 -10z
m560 0 c0 -5 -4 -10 -10 -10 -5 0 -10 5 -10 10 0 6 5 10 10 10 6 0 10 -4 10
-10z m50 -71 c0 -60 -3 -80 -12 -77 -9 3 -14 31 -16 81 -2 64 0 77 13 77 12 0
15 -15 15 -81z m-250 57 c0 -8 6 -17 13 -20 10 -5 10 -7 0 -12 -15 -7 -18 -84
-3 -84 6 0 10 -4 10 -10 0 -16 -37 -11 -44 6 -3 9 -6 31 -6 50 0 19 -4 34 -9
34 -5 0 -4 11 2 25 13 27 37 34 37 11z m440 0 c0 -8 6 -17 13 -20 10 -5 10 -7
0 -12 -15 -7 -18 -84 -3 -84 6 0 10 -4 10 -10 0 -5 -9 -10 -20 -10 -17 0 -20
7 -20 43 0 24 -6 49 -12 56 -10 11 -10 14 0 18 6 3 12 11 12 19 0 8 5 14 10
14 6 0 10 -6 10 -14z m-780 -27 c0 -8 5 -7 15 1 12 10 19 10 27 2 9 -9 9 -12
1 -12 -22 0 -43 -32 -43 -66 0 -19 -4 -34 -10 -34 -6 0 -10 27 -10 60 0 33 4
60 10 60 6 0 10 -5 10 -11z m90 -40 c0 -47 2 -50 23 -47 19 3 22 10 25 51 4
68 27 57 27 -14 l0 -54 -39 -3 c-52 -4 -66 11 -66 69 0 37 4 49 15 49 11 0 15
-12 15 -51z m178 39 c19 -19 14 -30 -7 -18 -11 5 -27 10 -36 10 -27 0 -11 -23
22 -32 37 -10 48 -32 27 -53 -20 -20 -73 -20 -81 0 -3 9 -2 19 2 23 4 4 10 1
12 -5 6 -17 56 -17 51 -1 -3 7 -19 16 -36 20 -25 7 -32 14 -32 32 0 34 52 50
78 24z m213 -4 c15 -19 14 -71 -2 -91 -8 -9 -24 -13 -41 -11 -23 4 -30 0 -34
-19 -12 -47 -24 -21 -24 55 l0 78 44 2 c29 1 48 -4 57 -14z m59 -45 c0 -44 -3
-60 -12 -57 -12 4 -20 93 -11 111 13 23 23 -1 23 -54z m180 29 c13 -25 13 -31
0 -55 -19 -34 -63 -42 -91 -17 -23 21 -24 52 -3 82 23 33 73 27 94 -10z m-982
-53 c10 -21 9 -23 -6 -18 -33 12 -44 25 -30 34 20 13 24 11 36 -16z"/>
<path d="M934 226 c-11 -29 1 -61 23 -64 17 -3 24 3 29 22 10 42 -38 80 -52
42z"/>
<path d="M1164 226 c-3 -8 -4 -25 -2 -38 2 -17 9 -23 28 -23 22 0 25 4 25 35
0 29 -4 36 -23 38 -13 2 -24 -3 -28 -12z"/>
</g>
</svg>
