<svg width="21" height="18" viewBox="0 0 21 18" fill="none" xmlns="http://www.w3.org/2000/svg">
<path d="M20.92 2.79297C20.15 3.14297 19.32 3.37297 18.46 3.48297C19.34 2.95297 20.02 2.11297 20.34 1.10297C19.51 1.60297 18.59 1.95297 17.62 2.15297C16.83 1.29297 15.72 0.792969 14.46 0.792969C12.11 0.792969 10.19 2.71297 10.19 5.08297C10.19 5.42297 10.23 5.75297 10.3 6.06297C6.74 5.88297 3.57 4.17297 1.46 1.58297C1.09 2.21297 0.88 2.95297 0.88 3.73297C0.88 5.22297 1.63 6.54297 2.79 7.29297C2.08 7.29297 1.42 7.09297 0.84 6.79297V6.82297C0.84 8.90297 2.32 10.643 4.28 11.033C3.65073 11.2052 2.9901 11.2291 2.35 11.103C2.62161 11.9554 3.15354 12.7014 3.87102 13.2359C4.5885 13.7704 5.45545 14.0667 6.35 14.083C4.83363 15.2834 2.954 15.9323 1.02 15.923C0.68 15.923 0.34 15.903 0 15.863C1.9 17.083 4.16 17.793 6.58 17.793C14.46 17.793 18.79 11.253 18.79 5.58297C18.79 5.39297 18.79 5.21297 18.78 5.02297C19.62 4.42297 20.34 3.66297 20.92 2.79297Z" fill="#1D9BF0"/>
</svg>
