<svg width="41" height="19" viewBox="0 0 41 19" fill="none" xmlns="http://www.w3.org/2000/svg">
<rect x="0.346055" y="0.835801" width="40.0636" height="17.4216" rx="1.65395" fill="white"/>
<path d="M18.0334 5.54492L16.7455 13.5316H18.804L20.0911 5.54492H18.0334ZM24.2426 8.79825C23.5232 8.44424 23.0822 8.20531 23.0822 7.84323C23.091 7.51403 23.4552 7.17676 24.2683 7.17676C24.937 7.16001 25.4286 7.31664 25.8015 7.47248L25.9883 7.55557L26.2682 5.88456C25.8616 5.72793 25.2169 5.55535 24.4206 5.55535C22.3878 5.55535 20.9564 6.60862 20.9475 8.11503C20.9307 9.22667 21.9723 9.84354 22.7518 10.2136C23.5481 10.5932 23.8192 10.8393 23.8192 11.1766C23.8104 11.6944 23.1753 11.9333 22.5827 11.9333C21.7616 11.9333 21.3205 11.8103 20.6509 11.5217L20.3798 11.3987L20.092 13.1353C20.5755 13.3495 21.4648 13.538 22.3879 13.5476C24.5482 13.5476 25.9539 12.5103 25.9716 10.9049C25.9787 10.0242 25.4294 9.34964 24.2426 8.79825ZM31.5455 5.56964H29.9529C29.4621 5.56964 29.0892 5.71031 28.8767 6.21219L25.819 13.5316H27.9794L28.5744 11.9469H30.9914L31.3001 13.538H33.2054L31.5455 5.56964ZM29.1735 10.3477C29.2152 10.3517 30.0027 7.76084 30.0027 7.76084L30.6298 10.3477C30.6298 10.3477 29.5801 10.3477 29.1735 10.3477ZM15.0255 5.54492L13.0086 10.9711L12.7889 9.90104C12.416 8.66634 11.2469 7.32462 9.94214 6.65814L11.7889 13.5236H13.967L17.2035 5.5458H15.0255V5.54492Z" fill="#2394BC"/>
<path d="M12.1122 6.57534C11.9551 5.96636 11.4538 5.55564 10.7731 5.54688H7.57904L7.54614 5.69465C10.0377 6.30678 12.129 8.19034 12.8075 9.96206L12.1122 6.57534Z" fill="#EFC75E"/>
<rect x="0.346055" y="0.835801" width="40.0636" height="17.4216" rx="1.65395" stroke="white" stroke-width="0.692109"/>
</svg>
