<svg width="20" height="15" viewBox="0 0 20 15" fill="none" xmlns="http://www.w3.org/2000/svg">
<path d="M19.154 2.50289C18.9393 1.64993 18.3106 0.977409 17.5131 0.747767C16.0562 0.321289 10.2287 0.321289 10.2287 0.321289C10.2287 0.321289 4.40112 0.321289 2.94423 0.731364C2.16211 0.961006 1.51801 1.64993 1.30331 2.50289C0.919922 4.06117 0.919922 7.29257 0.919922 7.29257C0.919922 7.29257 0.919922 10.5404 1.30331 12.0822C1.51801 12.9352 2.14678 13.6077 2.94423 13.8374C4.41646 14.2638 10.2287 14.2638 10.2287 14.2638C10.2287 14.2638 16.0562 14.2638 17.5131 13.8538C18.3106 13.6241 18.9393 12.9516 19.154 12.0986C19.5374 10.5404 19.5374 7.30897 19.5374 7.30897C19.5374 7.30897 19.5528 4.06117 19.154 2.50289Z" fill="#FE0000"/>
<path d="M13.2191 7.29394L8.37305 4.30859V10.2793L13.2191 7.29394Z" fill="white"/>
</svg>
