<svg width="108" height="23" viewBox="0 0 108 23" fill="none" xmlns="http://www.w3.org/2000/svg">
<g opacity="0.7">
<path d="M99.7112 17.8846C99.7112 16.4628 100.925 15.3093 102.42 15.3093C103.916 15.3093 105.128 16.4628 105.128 17.8846C105.128 19.3064 103.916 20.4592 102.42 20.4592C100.925 20.4592 99.7112 19.3064 99.7112 17.8846Z" fill="white"/>
<path d="M13.3174 11.0642C13.3174 9.43295 12.9858 8.22277 12.3227 7.43436C11.6588 6.6467 10.653 6.25324 9.30093 6.25324H7.86261V16.2283H8.96305C10.4649 16.2283 11.5655 15.8051 12.2662 14.9555C12.9662 14.1075 13.3174 12.8101 13.3174 11.0642ZM18.4468 10.8943C18.4468 13.8661 17.6065 16.156 15.9259 17.7634C14.2454 19.3715 11.8829 20.1756 8.83767 20.1756H2.92041V2.36786H9.25071C12.187 2.36786 14.4539 3.09888 16.0513 4.56019C17.648 6.02225 18.4468 8.13262 18.4468 10.8943Z" fill="white"/>
<path d="M34.8376 20.1754H39.5462V2.29315H34.8376V20.1754Z" fill="white"/>
<path d="M46.1606 13.5052C46.1606 14.6454 46.3174 15.515 46.6301 16.1126C46.9437 16.711 47.4688 17.0098 48.2072 17.0098C48.9377 17.0098 49.4543 16.711 49.7553 16.1126C50.0563 15.515 50.206 14.6454 50.206 13.5052C50.206 12.3711 50.0539 11.5156 49.749 10.9381C49.4433 10.3591 48.9221 10.0692 48.183 10.0692C47.4603 10.0692 46.9437 10.3576 46.6301 10.9314C46.3174 11.5059 46.1606 12.3636 46.1606 13.5052ZM54.9984 13.5052C54.9984 15.6775 54.3995 17.372 53.1987 18.5867C51.9986 19.8021 50.3189 20.4101 48.1594 20.4101C46.0885 20.4101 44.44 19.7886 43.2164 18.5457C41.9913 17.3027 41.3792 15.6231 41.3792 13.5052C41.3792 11.3397 41.9788 9.65709 43.1797 8.45733C44.3805 7.25758 46.0642 6.65771 48.2323 6.65771C49.5719 6.65771 50.7571 6.93568 51.7839 7.49085C52.8115 8.04601 53.6048 8.84113 54.1621 9.87694C54.7202 10.9113 54.9984 12.1214 54.9984 13.5052Z" fill="white"/>
<path d="M56.8684 20.1755H61.5777V13.3317V6.89252H56.8684V20.1755Z" fill="white"/>
<path d="M56.8682 5.28577H61.5775V2.29236H56.8682V5.28577Z" fill="white"/>
<path d="M71.1186 16.7874C71.7543 16.7874 72.5115 16.6339 73.3948 16.3292V19.6713C72.7599 19.9366 72.1564 20.1266 71.5826 20.2391C71.0089 20.3531 70.3355 20.4098 69.565 20.4098C67.984 20.4098 66.8443 20.032 66.1443 19.2778C65.4475 18.5237 65.0979 17.3657 65.0979 15.803V10.3274H63.4487V6.89359H65.0979V3.5015L69.8433 2.7168V6.89359H72.8478V10.3274H69.8433V15.4975C69.8433 16.3575 70.2689 16.7874 71.1186 16.7874Z" fill="white"/>
<path d="M82.0178 16.7874C82.6536 16.7874 83.4108 16.6339 84.2942 16.3292V19.6713C83.6601 19.9366 83.0556 20.1266 82.4819 20.2391C81.9073 20.3531 81.2363 20.4098 80.4642 20.4098C78.8832 20.4098 77.7436 20.032 77.0452 19.2778C76.3468 18.5237 75.9972 17.3657 75.9972 15.803V10.3274H74.3472V6.89359H75.9972V3.45009L80.7418 2.7168V6.89359H83.7478V10.3274H80.7418V15.4975C80.7418 16.3575 81.1674 16.7874 82.0178 16.7874Z" fill="white"/>
<path d="M90.2361 11.887C90.3004 11.1597 90.5192 10.6269 90.8923 10.2863C91.267 9.94652 91.7294 9.77663 92.2828 9.77663C92.8864 9.77663 93.3661 9.96738 93.7219 10.3519C94.0801 10.7342 94.2667 11.2461 94.2816 11.887H90.2361ZM96.8769 8.22368C95.7576 7.18041 94.1695 6.65802 92.115 6.65802C89.9555 6.65802 88.2939 7.25789 87.1291 8.45764C85.965 9.65739 85.3826 11.3788 85.3826 13.6218C85.3826 15.794 86.0121 17.4692 87.2678 18.6451C88.5242 19.821 90.2886 20.4097 92.561 20.4097C93.6521 20.4097 94.5913 20.3389 95.3783 20.1981C96.1605 20.0587 96.9177 19.8068 97.6522 19.4432L96.9286 16.4498C96.3949 16.6569 95.8869 16.8164 95.4072 16.9215C94.7143 17.0742 93.954 17.151 93.1262 17.151C92.2186 17.151 91.5021 16.9401 90.9769 16.5183C90.4518 16.0958 90.1719 15.5131 90.1398 14.7709H98.5566V12.7313C98.5566 10.7692 97.997 9.26619 96.8769 8.22368Z" fill="white"/>
<path d="M24.6963 11.887C24.7606 11.1597 24.9793 10.6269 25.3523 10.2863C25.7263 9.94652 26.1896 9.77663 26.7438 9.77663C27.3458 9.77663 27.8255 9.96738 28.1821 10.3519C28.5403 10.7342 28.7261 11.2461 28.7426 11.887H24.6963ZM31.3379 8.22368C30.2178 7.18041 28.6304 6.65802 26.5753 6.65802C24.4149 6.65802 22.7539 7.25789 21.5899 8.45764C20.4259 9.65739 19.8428 11.3788 19.8428 13.6218C19.8428 15.794 20.4715 17.4692 21.7287 18.6451C22.9845 19.821 24.7488 20.4097 27.0212 20.4097C28.1123 20.4097 29.0513 20.3389 29.8383 20.1981C30.6206 20.0587 31.3779 19.8068 32.1131 19.4432L31.3889 16.4498C30.855 16.6569 30.3471 16.8164 29.8682 16.9215C29.1737 17.0742 28.4141 17.151 27.5863 17.151C26.6794 17.151 25.9623 16.9401 25.4372 16.5183C24.9112 16.0958 24.6321 15.5131 24.6 14.7709H33.0169V12.7313C33.0169 10.7692 32.4572 9.26619 31.3379 8.22368Z" fill="white"/>
</g>
</svg>
