<svg width="92" height="27" viewBox="0 0 92 27" fill="none" xmlns="http://www.w3.org/2000/svg">
<g opacity="0.7">
<path d="M88.4827 16.658L90.9889 18.1567C90.1755 19.2315 88.2299 21.0754 84.8664 21.0754C80.6895 21.0754 77.5789 18.1764 77.5789 14.4887C77.5789 10.5643 80.7225 7.90198 84.5147 7.90198C88.3289 7.90198 90.1975 10.6234 90.802 12.0926L91.1318 12.842L81.3051 16.4903C82.0525 17.8116 83.2177 18.4821 84.8664 18.4821C86.5152 18.4821 87.6584 17.7525 88.4827 16.658ZM80.7775 14.2816L87.3396 11.8363C86.9769 11.0178 85.8997 10.4361 84.6136 10.4361C82.9758 10.4361 80.7005 11.7376 80.7775 14.2816Z" fill="white"/>
<path d="M72.8413 1.18707H76.0069V20.4739H72.8413V1.18707Z" fill="white"/>
<path d="M67.851 8.41475H70.9067V20.1288C70.9067 24.99 67.7081 26.9916 63.9269 26.9916C60.3655 26.9916 58.2221 24.8421 57.4197 23.0968L60.2226 22.0516C60.7283 23.1264 61.9484 24.3984 63.9269 24.3984C66.3561 24.3984 67.851 23.0475 67.851 20.5232V19.5766H67.741C67.0156 20.3655 65.6306 21.0754 63.8719 21.0754C60.2007 21.0754 56.8372 18.2061 56.8372 14.5084C56.8372 10.7911 60.2007 7.89215 63.8719 7.89215C65.6196 7.89215 67.0156 8.59223 67.741 9.36134H67.851V8.41475ZM68.0708 14.5084C68.0708 12.1814 66.3451 10.4854 64.1467 10.4854C61.9264 10.4854 60.0578 12.1814 60.0578 14.5084C60.0578 16.8059 61.9264 18.4723 64.1467 18.4723C66.3451 18.4822 68.0708 16.8059 68.0708 14.5084Z" fill="white"/>
<path d="M39.459 14.4591C39.459 18.2553 36.1614 21.0458 32.1165 21.0458C28.0715 21.0458 24.7739 18.2455 24.7739 14.4591C24.7739 10.6432 28.0715 7.86255 32.1165 7.86255C36.1614 7.86255 39.459 10.6432 39.459 14.4591ZM36.2494 14.4591C36.2494 12.0926 34.3368 10.4657 32.1165 10.4657C29.8961 10.4657 27.9835 12.0926 27.9835 14.4591C27.9835 16.8059 29.8961 18.4525 32.1165 18.4525C34.3368 18.4525 36.2494 16.8059 36.2494 14.4591Z" fill="white"/>
<path d="M55.4961 14.4887C55.4961 18.2849 52.1986 21.0754 48.1536 21.0754C44.1086 21.0754 40.811 18.2849 40.811 14.4887C40.811 10.6727 44.1086 7.90198 48.1536 7.90198C52.1986 7.90198 55.4961 10.6629 55.4961 14.4887ZM52.2755 14.4887C52.2755 12.1222 50.3629 10.4952 48.1426 10.4952C45.9222 10.4952 44.0097 12.1222 44.0097 14.4887C44.0097 16.8354 45.9222 18.4821 48.1426 18.4821C50.3739 18.4821 52.2755 16.8256 52.2755 14.4887Z" fill="white"/>
<path d="M12.705 18.1863C8.09945 18.1863 4.49413 14.8535 4.49413 10.722C4.49413 6.59056 8.09945 3.25777 12.705 3.25777C15.1892 3.25777 17.0028 4.13534 18.3438 5.25941L20.5532 3.27749C18.6846 1.67025 16.1894 0.447571 12.705 0.447571C6.39572 0.447571 1.08667 5.06221 1.08667 10.722C1.08667 16.3819 6.39572 20.9965 12.705 20.9965C16.1125 20.9965 18.6846 19.9908 20.6961 18.1173C22.7625 16.2635 23.4001 13.6604 23.4001 11.5503C23.4001 10.8897 23.3121 10.2093 23.2132 9.70643H12.705V12.4476H20.1904C19.9706 14.1633 19.3661 15.3367 18.4757 16.1354C17.3985 17.1115 15.6948 18.1863 12.705 18.1863Z" fill="white"/>
</g>
</svg>
