<svg width="69" height="21" viewBox="0 0 69 21" fill="none" xmlns="http://www.w3.org/2000/svg">
<path d="M4.84695 14.903C5.13328 15.5473 5.52969 16.0982 6.03627 16.5557C6.54284 17.0132 7.14299 17.3633 7.8367 17.6061C8.53048 17.8489 9.28479 17.9703 10.0997 17.9703C10.8926 17.9703 11.6359 17.8442 12.3296 17.5921C13.0234 17.3399 13.6291 16.9851 14.1466 16.5277C14.6641 16.0701 15.0661 15.524 15.3524 14.889C15.6388 14.2541 15.7819 13.5446 15.7819 12.7602V0.659424H19.2507V20.2671H15.8149V18.4464C15.0441 19.1373 14.1356 19.6695 13.0894 20.0431C12.0432 20.4165 10.9146 20.6032 9.70328 20.6032C8.46988 20.6032 7.31916 20.4211 6.25096 20.057C5.18284 19.6929 4.25777 19.1747 3.47598 18.5024C2.69419 17.8301 2.07745 17.0226 1.62599 16.0795C1.17446 15.1365 0.94873 14.0861 0.94873 12.9282V0.659424H4.41749V12.7602C4.41749 13.5446 4.56062 14.2588 4.84695 14.903Z" fill="white"/>
<path d="M25.2299 0.659424V7.80221C26.0007 7.14863 26.8928 6.63048 27.9058 6.24763C28.9189 5.86477 30.0202 5.67338 31.2094 5.67338C32.4428 5.67338 33.5989 5.86942 34.6782 6.26157C35.7573 6.65372 36.6933 7.18595 37.4862 7.85824C38.2791 8.53054 38.9068 9.32414 39.3693 10.2392C39.8318 11.1542 40.063 12.1253 40.063 13.1524C40.063 14.1794 39.8318 15.1458 39.3693 16.0514C38.9068 16.9571 38.2791 17.7461 37.4862 18.4183C36.6933 19.0906 35.7573 19.6228 34.6782 20.015C33.5989 20.4071 32.4427 20.6032 31.2094 20.6032C30.0201 20.6032 28.9134 20.4118 27.8893 20.0289C26.8652 19.6461 25.9677 19.1279 25.1969 18.4743V20.2671H21.8933V0.659424H25.2299ZM25.6098 15.0851C25.9071 15.6827 26.3201 16.2056 26.8487 16.6537C27.3773 17.1019 27.9939 17.4568 28.6987 17.7182C29.4035 17.9796 30.1633 18.1103 30.9782 18.1103C31.7711 18.1103 32.5198 17.9796 33.2246 17.7182C33.9293 17.4568 34.5404 17.102 35.0581 16.6537C35.5757 16.2056 35.9886 15.6827 36.2969 15.0851C36.6053 14.4875 36.7594 13.8433 36.7594 13.1524C36.7594 12.4614 36.6053 11.8125 36.2969 11.2056C35.9886 10.5986 35.5757 10.0711 35.0581 9.62295C34.5405 9.17483 33.9294 8.82464 33.2246 8.57257C32.5198 8.32049 31.771 8.19436 30.9782 8.19436C30.1854 8.19436 29.4365 8.32043 28.7318 8.57257C28.027 8.8247 27.4104 9.17483 26.8817 9.62295C26.3532 10.0711 25.9347 10.5986 25.6264 11.2056C25.3181 11.8125 25.1639 12.4614 25.1639 13.1524C25.1638 13.8433 25.3125 14.4875 25.6098 15.0851Z" fill="white"/>
<path d="M41.9458 10.2673C42.3862 9.37089 42.9919 8.58195 43.7627 7.90035C44.5335 7.21875 45.4476 6.68188 46.5047 6.28973C47.5619 5.89758 48.7071 5.70154 49.9404 5.70154C51.1518 5.70154 52.275 5.88828 53.3101 6.26172C54.3452 6.63521 55.2372 7.15343 55.986 7.81637C56.7348 8.47924 57.3185 9.2636 57.7369 10.1693C58.1554 11.075 58.3646 12.06 58.3646 13.1245V14.0489H44.6547C44.7649 14.6277 44.9851 15.1646 45.3155 15.6594C45.6459 16.1543 46.0587 16.5838 46.5543 16.9479C47.0498 17.3121 47.6114 17.5969 48.2391 17.8023C48.8668 18.0077 49.533 18.1104 50.2378 18.1104C52.242 18.1104 53.8608 17.4101 55.0941 16.0095L57.5057 17.5221C56.6688 18.4745 55.6337 19.2215 54.4004 19.763C53.167 20.3045 51.7795 20.5753 50.2379 20.5753C48.9825 20.5753 47.8097 20.3885 46.7195 20.0151C45.6294 19.6416 44.6824 19.1187 43.8785 18.4464C43.0746 17.7741 42.4414 16.9852 41.9789 16.0795C41.5164 15.1739 41.2852 14.1887 41.2852 13.1244C41.285 12.116 41.5053 11.1636 41.9458 10.2673ZM46.5873 9.16078C45.6513 9.82372 45.0291 10.7061 44.7208 11.8078H54.995C54.7087 10.7061 54.0975 9.82372 53.1615 9.16078C52.2254 8.4979 51.1298 8.16643 49.8744 8.16643C48.619 8.16643 47.5233 8.4979 46.5873 9.16078Z" fill="white"/>
<path d="M64.6082 9.48283C63.9034 10.1364 63.551 11.0234 63.551 12.1439V20.2672H60.2144V5.98151H63.5179V7.74621C63.9364 7.16731 64.4815 6.70978 65.1532 6.37366C65.8249 6.03748 66.6233 5.86938 67.5484 5.86938H68.7046V8.50243H67.3171C66.2159 8.50249 65.3129 8.82925 64.6082 9.48283Z" fill="white"/>
</svg>
