<svg width="126" height="27" viewBox="0 0 126 27" fill="none" xmlns="http://www.w3.org/2000/svg">
<g opacity="0.7">
<path d="M0.976807 5.56592C0.976807 5.56592 4.07756 16.7266 4.57243 18.5382C5.15003 20.6526 6.19076 21.4308 9.19139 20.906L11.1276 13.9864C11.6183 12.2676 11.9474 11.0423 12.2629 9.29384H12.3184C12.54 11.0594 12.8556 12.2728 13.2595 13.9924C13.2595 13.9924 14.0476 17.1337 14.4513 18.7836C14.8559 20.433 15.9822 21.4725 18.9213 20.9066L23.5347 5.56709H19.8099L18.2349 12.1991C17.8115 14.1295 17.4272 15.6379 17.131 17.404H17.0784C16.8092 15.6556 16.4667 14.2069 16.0362 12.3261L14.3962 5.56709H10.5153L8.76112 12.1558C8.26415 14.1579 7.79933 15.7746 7.50374 17.4808H7.45021C7.1475 15.874 6.74432 13.8421 6.30773 11.904C6.30773 11.904 5.26553 7.19147 4.89986 5.56709L0.977169 5.56753L0.976807 5.56592ZM36.4851 5.56592V20.9054H40.0314V17.6481V5.56519H36.4851V5.56592ZM86.4318 5.56592V16.8821C86.4318 18.4423 86.766 19.5354 87.4812 20.2032C88.106 20.7873 89.1352 21.1655 90.3684 21.1655C91.4169 21.1655 92.4485 20.9908 92.9346 20.8317L92.8889 18.3974C92.5272 18.4757 92.111 18.5382 91.5418 18.5382C90.3338 18.5382 89.9286 17.8586 89.9286 16.4577V12.1282H93.0171V9.19332H89.9286V5.56596H86.4316L86.4318 5.56592ZM28.5598 9.12193C26.3559 9.12193 24.6064 9.66549 23.6528 10.1496L24.3507 12.2487C25.2234 11.7654 26.6131 11.3653 27.9289 11.3653C30.1074 11.3604 30.4636 12.4473 30.4636 13.1444V13.3093C25.7166 13.303 22.7181 14.7458 22.7181 17.6869C22.7181 19.4826 24.2445 21.1654 26.8987 21.1654C28.5326 21.1654 29.899 20.5931 30.718 19.676H30.7983C30.7983 19.676 31.3406 21.6676 34.3282 20.906C34.1712 20.0771 34.1203 19.1933 34.1203 18.1288V14.0309C34.1203 11.4192 32.8507 9.12198 28.5599 9.12198L28.5598 9.12193ZM49.7736 9.12193C47.5544 9.12193 46.5572 10.1098 45.9525 10.9479H45.9V9.38207H42.5156V20.9061H46.0808V14.1477C46.0808 13.8309 46.122 13.4959 46.2479 13.2044C46.5433 12.524 47.264 11.728 48.4147 11.728C49.8533 11.728 50.5264 12.7963 50.5264 14.338V20.906H54.0878V14.0659C54.0878 13.7634 54.135 13.3991 54.2363 13.1317C54.5291 12.3577 55.3061 11.7279 56.3757 11.7279C57.8341 11.7279 58.534 12.7776 58.534 14.5917V20.906H62.0979V14.1187C62.0979 10.5392 60.0287 9.12199 57.6929 9.12199C56.6584 9.12199 55.8419 9.34983 55.1037 9.74792C54.4832 10.0824 53.9278 10.5576 53.4422 11.1833H53.3897C52.8248 9.9413 51.4994 9.12199 49.773 9.12199L49.7736 9.12193ZM69.3511 9.12193C67.1477 9.12193 65.3985 9.66549 64.444 10.1496L65.1429 12.2487C66.0148 11.7654 67.4053 11.3653 68.7205 11.3653C70.8975 11.3604 71.2545 12.4473 71.2545 13.1444V13.3093C66.5082 13.303 63.5094 14.7458 63.5094 17.6869C63.5094 19.4826 65.0366 21.1654 67.6921 21.1654C69.3247 21.1654 70.6916 20.5931 71.509 19.676H71.5897C71.5897 19.676 72.1319 21.6676 75.1199 20.906C74.9628 20.0771 74.9123 19.1933 74.9123 18.1288V14.0309C74.9123 11.4192 73.6424 9.12198 69.3511 9.12198L69.3511 9.12193ZM84.1565 9.12193C82.7912 9.12193 81.238 9.896 80.5861 11.5553H80.4865V9.38192H77.2771V20.906H80.9358V15.0049C80.9358 14.6866 80.9577 14.409 81.0151 14.1545C81.2857 12.9184 82.3621 12.1282 83.9069 12.1282C84.331 12.1282 84.6345 12.1685 84.9629 12.2102V9.19322C84.6876 9.14435 84.4992 9.12183 84.1566 9.12183L84.1565 9.12193ZM30.5781 15.3514V16.789C30.5781 17.0017 30.557 17.2211 30.49 17.4129C30.2155 18.2114 29.2738 18.8861 28.0967 18.8861C27.1153 18.8861 26.3356 18.3969 26.3356 17.3619C26.3356 15.7787 28.3196 15.3411 30.5782 15.3514H30.5781ZM71.3694 15.3514V16.789C71.3694 17.0017 71.3479 17.2211 71.2812 17.4129C71.0068 18.2114 70.0654 18.8861 68.8883 18.8861C67.9067 18.8861 67.1269 18.3969 67.1269 17.3619C67.1269 15.7787 69.1109 15.3411 71.3695 15.3514H71.3694Z" fill="white"/>
<path d="M112.191 0.0186768C111.047 0.0186768 110.137 0.580269 110.137 1.26394L110.832 8.17954C110.909 8.59619 111.49 8.91757 112.192 8.91757C112.896 8.91677 113.475 8.59566 113.553 8.17954L114.252 1.26394C114.252 0.580327 113.339 0.0187355 112.193 0.0187355L112.191 0.0186768ZM100.861 5.56604C100.266 5.57842 99.5911 5.9737 99.1616 6.6278C98.5872 7.49878 98.689 8.47212 99.3611 8.81359L106.526 11.7446C106.974 11.8908 107.582 11.6116 107.934 11.0785C107.934 11.0784 107.934 11.0783 107.934 11.0782C108.287 10.5425 108.26 9.94012 107.888 9.67294L101.416 5.68598C101.248 5.60047 101.059 5.562 100.861 5.56612L100.861 5.56604ZM123.522 5.56604C123.324 5.56191 123.135 5.60038 122.968 5.68589L116.495 9.67285C116.125 9.94002 116.098 10.5424 116.45 11.0781L116.45 11.0784C116.803 11.6115 117.409 11.8907 117.857 11.7445L125.025 8.81365C125.7 8.47218 125.797 7.49889 125.226 6.62786C124.795 5.97375 124.119 5.57849 123.524 5.5661L123.522 5.56604ZM106.794 14.6902C106.701 14.6891 106.611 14.7017 106.527 14.7295L99.362 17.6569C98.69 17.9999 98.5882 18.9736 99.1626 19.8455C99.7353 20.7148 100.745 21.128 101.417 20.7871L107.889 16.8033C108.261 16.5328 108.289 15.9306 107.935 15.3954L107.938 15.3966C107.652 14.9607 107.196 14.6949 106.794 14.6901L106.794 14.6902ZM117.592 14.6902C117.191 14.695 116.736 14.9607 116.449 15.3967L116.452 15.3955C116.1 15.9307 116.127 16.5329 116.497 16.8033L122.969 20.7872C123.64 21.1281 124.651 20.7149 125.226 19.8456C125.796 18.9737 125.7 18 125.025 17.657L117.859 14.7296C117.774 14.7017 117.685 14.6892 117.592 14.6903L117.592 14.6902ZM112.19 17.5563C111.489 17.557 110.909 17.877 110.833 18.2926L110.138 25.2079C110.138 25.8927 111.047 26.4532 112.192 26.4532C113.339 26.4532 114.251 25.8927 114.251 25.2079L113.554 18.2926C113.476 17.877 112.897 17.5571 112.193 17.5563H112.19H112.19Z" fill="white"/>
</g>
</svg>
