<svg width="116" height="28" viewBox="0 0 116 28" fill="none" xmlns="http://www.w3.org/2000/svg">
<g opacity="0.7">
<path d="M43.4047 6.23383H37.0934C36.8845 6.23371 36.6823 6.30038 36.5235 6.42183C36.3646 6.54328 36.2594 6.71152 36.2268 6.89624L33.6743 21.381C33.6625 21.4482 33.6672 21.5169 33.688 21.5824C33.7088 21.6478 33.7451 21.7085 33.7946 21.7601C33.8441 21.8118 33.9055 21.8532 33.9745 21.8816C34.0436 21.91 34.1187 21.9246 34.1948 21.9245H37.2078C37.4169 21.9246 37.6191 21.8578 37.778 21.7362C37.9369 21.6146 38.042 21.4461 38.0744 21.2613L38.7628 17.3545C38.7951 17.1698 38.9001 17.0014 39.0588 16.8798C39.2175 16.7582 39.4195 16.6914 39.6284 16.6913H41.6264C45.7838 16.6913 48.1832 14.8907 48.8098 11.3225C49.0922 9.76148 48.8218 8.53494 48.005 7.67595C47.108 6.7327 45.5171 6.23383 43.4047 6.23383ZM44.1328 11.5241C43.7877 13.551 42.0573 13.551 40.3842 13.551H39.4319L40.1 9.76561C40.1196 9.65487 40.1826 9.55401 40.2779 9.48118C40.3731 9.40835 40.4943 9.36833 40.6196 9.36833H41.0561C42.1958 9.36833 43.2709 9.36833 43.8264 9.9498C44.1577 10.2967 44.2592 10.8121 44.1328 11.5241ZM62.2703 11.4588H59.248C59.1227 11.4588 59.0016 11.4988 58.9063 11.5717C58.8111 11.6445 58.748 11.7454 58.7284 11.8561L58.5946 12.6127L58.3833 12.3385C57.729 11.4886 56.27 11.2044 54.8138 11.2044C51.474 11.2044 48.6215 13.4684 48.066 16.6442C47.7771 18.2284 48.1878 19.7432 49.1918 20.7996C50.1128 21.7709 51.4306 22.1756 52.9985 22.1756C55.6895 22.1756 57.1818 20.6269 57.1818 20.6269L57.047 21.3786C57.035 21.4458 57.0394 21.5145 57.06 21.58C57.0805 21.6455 57.1167 21.7063 57.166 21.7581C57.2152 21.8099 57.2765 21.8516 57.3455 21.8801C57.4145 21.9087 57.4896 21.9236 57.5657 21.9237H60.288C60.4971 21.9238 60.6993 21.857 60.8582 21.7354C61.0171 21.6138 61.1222 21.4453 61.1546 21.2604L62.788 12.0023C62.8 11.9353 62.7956 11.8667 62.7752 11.8013C62.7547 11.7359 62.7186 11.6753 62.6693 11.6236C62.6201 11.5719 62.5589 11.5304 62.49 11.502C62.4211 11.4735 62.3462 11.4588 62.2703 11.4588ZM58.0575 16.7235C57.7659 18.2688 56.3955 19.3062 54.6476 19.3062C53.77 19.3062 53.0687 19.0543 52.6183 18.5769C52.1717 18.1028 52.0019 17.428 52.144 16.6764C52.4162 15.1442 53.8097 14.073 55.5308 14.073C56.389 14.073 57.0867 14.3282 57.5463 14.8097C58.0068 15.2962 58.1895 15.9752 58.0575 16.7235ZM78.3665 11.4588H75.3294C75.1862 11.459 75.0452 11.4905 74.9186 11.5505C74.792 11.6105 74.6837 11.6973 74.6031 11.8032L70.4143 17.3256L68.6388 12.0188C68.5843 11.857 68.473 11.7151 68.3215 11.6143C68.1699 11.5134 67.986 11.4589 67.7972 11.4588H64.8127C64.7289 11.4586 64.6463 11.4763 64.5717 11.5105C64.4972 11.5446 64.4328 11.5942 64.3839 11.6552C64.3351 11.7161 64.3032 11.7866 64.291 11.8607C64.2787 11.9349 64.2864 12.0106 64.3135 12.0816L67.6587 20.8681L64.5137 24.8418C64.4578 24.9122 64.4247 24.9951 64.4179 25.0813C64.4111 25.1675 64.431 25.2537 64.4753 25.3305C64.5196 25.4072 64.5867 25.4716 64.6691 25.5165C64.7516 25.5614 64.8463 25.5852 64.9428 25.5851H67.9762C68.1178 25.5853 68.2574 25.5548 68.3829 25.4961C68.5085 25.4374 68.6162 25.3523 68.6969 25.2482L78.7983 12.1981C78.8531 12.1275 78.8852 12.0448 78.8912 11.959C78.8972 11.8732 78.8768 11.7876 78.8323 11.7115C78.7879 11.6353 78.7209 11.5715 78.6388 11.527C78.5567 11.4824 78.4625 11.4589 78.3665 11.4588Z" fill="white"/>
<path d="M88.4217 6.23392H82.1095C81.9007 6.234 81.6988 6.30076 81.5401 6.42219C81.3814 6.54363 81.2764 6.71176 81.2438 6.89634L78.6913 21.3811C78.6794 21.4482 78.6839 21.5168 78.7045 21.5822C78.7251 21.6476 78.7613 21.7082 78.8106 21.7599C78.8599 21.8115 78.9211 21.853 78.9901 21.8814C79.059 21.9099 79.134 21.9246 79.2099 21.9246H82.4491C82.5952 21.9244 82.7365 21.8776 82.8474 21.7925C82.9584 21.7074 83.0318 21.5896 83.0545 21.4604L83.7789 17.3546C83.8112 17.1699 83.9162 17.0015 84.0749 16.8799C84.2336 16.7583 84.4356 16.6915 84.6445 16.6913H86.6415C90.7999 16.6913 93.1983 14.8908 93.8258 11.3226C94.1092 9.76158 93.8369 8.53503 93.0202 7.67604C92.1241 6.7328 90.5341 6.23392 88.4217 6.23392ZM89.1498 11.5242C88.8056 13.5511 87.0753 13.5511 85.4012 13.5511H84.4498L85.1189 9.76571C85.138 9.65496 85.2009 9.55401 85.296 9.48114C85.3911 9.40827 85.5123 9.36828 85.6375 9.36842H86.074C87.2128 9.36842 88.2888 9.36842 88.8444 9.94989C89.1757 10.2968 89.2762 10.8122 89.1498 11.5242ZM107.286 11.4589H104.266C104.141 11.4586 104.019 11.4985 103.924 11.5714C103.829 11.6443 103.766 11.7454 103.747 11.8562L103.613 12.6128L103.401 12.3386C102.747 11.4887 101.289 11.2045 99.8326 11.2045C96.4929 11.2045 93.6413 13.4685 93.0857 16.6443C92.7978 18.2285 93.2066 19.7433 94.2107 20.7997C95.1335 21.771 96.4495 22.1757 98.0174 22.1757C100.708 22.1757 102.201 20.627 102.201 20.627L102.066 21.3786C102.054 21.446 102.058 21.5149 102.079 21.5805C102.1 21.6461 102.136 21.707 102.185 21.7588C102.235 21.8107 102.296 21.8523 102.366 21.8808C102.435 21.9092 102.51 21.9239 102.586 21.9238H105.308C105.517 21.9237 105.719 21.8568 105.877 21.7352C106.036 21.6136 106.141 21.4453 106.173 21.2605L107.808 12.0024C107.819 11.9351 107.815 11.8664 107.794 11.801C107.773 11.7355 107.736 11.6749 107.687 11.6233C107.637 11.5717 107.576 11.5302 107.507 11.5019C107.438 11.4735 107.362 11.4588 107.286 11.4589ZM103.074 16.7236C102.784 18.2689 101.412 19.3063 99.6637 19.3063C98.788 19.3063 98.0847 19.0544 97.6344 18.577C97.1877 18.1029 97.0198 17.4281 97.1601 16.6765C97.4341 15.1443 98.8258 14.0731 100.547 14.0731C101.405 14.0731 102.103 14.3283 102.562 14.8098C103.025 15.2963 103.207 15.9752 103.074 16.7236ZM110.849 6.6312L108.259 21.3811C108.247 21.4482 108.252 21.5168 108.272 21.5822C108.293 21.6476 108.329 21.7082 108.378 21.7599C108.428 21.8115 108.489 21.853 108.558 21.8814C108.627 21.9099 108.702 21.9246 108.778 21.9246H111.382C111.815 21.9246 112.182 21.6438 112.248 21.2614L114.803 6.7774C114.815 6.71026 114.81 6.64162 114.79 6.57619C114.769 6.51077 114.733 6.45011 114.684 6.39839C114.634 6.34668 114.573 6.30512 114.504 6.27659C114.435 6.24805 114.36 6.23321 114.284 6.23309H111.368C111.243 6.23349 111.122 6.27377 111.027 6.34672C110.932 6.41967 110.869 6.52052 110.849 6.6312Z" fill="#E5ECE9"/>
<path d="M7.46474 24.7395L7.94739 21.9956L6.87228 21.9733H1.73853L5.30622 1.72667C5.31684 1.66481 5.35195 1.60842 5.40514 1.56779C5.45833 1.52716 5.52606 1.50498 5.59599 1.50531H14.2522C17.1259 1.50531 19.1091 2.04053 20.1446 3.09693C20.63 3.5925 20.9391 4.11038 21.0886 4.68029C21.2455 5.27828 21.2483 5.99273 21.0951 6.86412L21.084 6.92772V7.48606L21.5694 7.7322C21.94 7.90023 22.2731 8.12753 22.5522 8.40287C22.9675 8.82659 23.2361 9.36511 23.3496 10.0036C23.4668 10.6602 23.428 11.4416 23.2361 12.3262C23.0146 13.3437 22.6565 14.23 22.173 14.9552C21.7463 15.6048 21.1726 16.1675 20.4888 16.6071C19.8465 17.0151 19.0833 17.3249 18.2204 17.5231C17.3843 17.718 16.431 17.8163 15.3855 17.8163H14.7118C14.2301 17.8163 13.7622 17.9716 13.3949 18.2499C13.0281 18.5312 12.7848 18.9199 12.7083 19.3468L12.6576 19.5938L11.8049 24.4297L11.7661 24.6073C11.7559 24.6635 11.7384 24.6916 11.7126 24.7106C11.6875 24.7289 11.6563 24.7391 11.624 24.7395H7.46474Z" fill="white"/>
<path d="M22.029 6.99213C22.0031 7.13997 21.9736 7.29112 21.9404 7.4464C20.7988 12.692 16.8934 14.5042 11.9054 14.5042H9.36576C8.75576 14.5042 8.24174 14.9007 8.14669 15.4392L6.84641 22.8199L6.47819 24.9121C6.46353 24.9951 6.46913 25.0799 6.49461 25.1608C6.52009 25.2416 6.56485 25.3166 6.62581 25.3805C6.68676 25.4444 6.76247 25.4957 6.8477 25.5309C6.93294 25.5661 7.02569 25.5844 7.11957 25.5844H11.6239C12.1573 25.5844 12.6105 25.2375 12.6944 24.7667L12.7387 24.5619L13.5868 19.7449L13.6413 19.4806C13.7243 19.0081 14.1784 18.6612 14.7118 18.6612H15.3854C19.7495 18.6612 23.1659 17.0754 24.1644 12.4864C24.5815 10.5693 24.3656 8.96864 23.2619 7.84286C22.9121 7.49461 22.4943 7.20632 22.029 6.99213Z" fill="#E5ECE9"/>
<path d="M20.8348 6.56593C20.4704 6.47156 20.0996 6.3979 19.7247 6.3454C18.9839 6.24351 18.2353 6.19463 17.4859 6.19921H10.7011C10.4429 6.19903 10.1932 6.28153 9.99702 6.4318C9.80086 6.58208 9.67123 6.7902 9.63158 7.01856L8.18826 15.2005L8.14673 15.4392C8.19169 15.1787 8.33933 14.9413 8.56293 14.7698C8.78653 14.5983 9.07133 14.5041 9.3658 14.5042H11.9055C16.8934 14.5042 20.7989 12.6912 21.9404 7.4464C21.9746 7.29112 22.0032 7.13997 22.029 6.99213C21.7278 6.85075 21.4138 6.73222 21.0905 6.63779C21.0057 6.61262 20.9205 6.58866 20.8348 6.56593Z" fill="#EAEBED"/>
<path d="M9.63137 7.01858C9.67069 6.79016 9.80025 6.58194 9.99651 6.43174C10.1928 6.28155 10.4427 6.19934 10.7009 6.20006H17.4857C18.2895 6.20006 19.0397 6.24714 19.7245 6.34625C20.1878 6.41143 20.6448 6.50892 21.0912 6.63782C21.428 6.73776 21.7409 6.85587 22.0297 6.99215C22.3693 5.05363 22.027 3.73375 20.8559 2.5386C19.5648 1.22285 17.2346 0.659546 14.253 0.659546H5.59672C4.98764 0.659546 4.46809 1.056 4.37396 1.59535L0.768422 22.0502C0.751628 22.1451 0.758018 22.2422 0.787151 22.3348C0.816285 22.4273 0.867471 22.5131 0.937189 22.5863C1.00691 22.6594 1.0935 22.7182 1.19102 22.7585C1.28853 22.7989 1.39465 22.8198 1.50208 22.82H6.84624L8.18805 15.2005L9.63137 7.01858Z" fill="white"/>
</g>
</svg>
