<svg width="94" height="23" viewBox="0 0 94 23" fill="none" xmlns="http://www.w3.org/2000/svg">
<g opacity="0.7">
<path d="M87.4902 17.9465C87.4902 16.5246 88.5557 15.3711 89.8674 15.3711C91.1799 15.3711 92.244 16.5246 92.244 17.9465C92.244 19.3683 91.1799 20.5211 89.8674 20.5211C88.5557 20.5211 87.4902 19.3683 87.4902 17.9465Z" fill="white"/>
<path d="M11.6747 11.126C11.6747 9.49478 11.3838 8.2846 10.8019 7.49619C10.2192 6.70853 9.33662 6.31506 8.15007 6.31506H6.88786V16.2902H7.85356C9.17152 16.2902 10.1373 15.8669 10.7523 15.0174C11.3665 14.1693 11.6747 12.872 11.6747 11.126V11.126ZM16.1761 10.9561C16.1761 13.9279 15.4387 16.2178 13.9639 17.8252C12.4891 19.4333 10.4159 20.2374 7.74353 20.2374H2.55078V2.42969H8.10601C10.6828 2.42969 12.6721 3.16071 14.074 4.62202C15.4752 6.08408 16.1761 8.19444 16.1761 10.9561" fill="white"/>
<path d="M30.5586 20.2377H34.6906V2.35547H30.5586V20.2377Z" fill="white"/>
<path d="M40.4968 13.5673C40.4968 14.7074 40.6344 15.577 40.9088 16.1746C41.184 16.773 41.6448 17.0719 42.2928 17.0719C42.9339 17.0719 43.3872 16.773 43.6513 16.1746C43.9155 15.577 44.0468 14.7074 44.0468 13.5673C44.0468 12.4331 43.9134 11.5776 43.6458 11.0001C43.3775 10.4211 42.9202 10.1312 42.2715 10.1312C41.6373 10.1312 41.184 10.4196 40.9088 10.9934C40.6344 11.5679 40.4968 12.4256 40.4968 13.5673ZM48.2525 13.5673C48.2525 15.7395 47.7269 17.434 46.6731 18.6487C45.62 19.8641 44.1459 20.4721 42.2509 20.4721C40.4335 20.4721 38.9868 19.8506 37.9131 18.6077C36.838 17.3647 36.3008 15.6851 36.3008 13.5673C36.3008 11.4017 36.8271 9.7191 37.8809 8.51935C38.9346 7.31959 40.4122 6.71973 42.3148 6.71973C43.4904 6.71973 44.5305 6.99769 45.4316 7.55286C46.3334 8.10802 47.0295 8.90314 47.5186 9.93895C48.0083 10.9733 48.2525 12.1834 48.2525 13.5673Z" fill="white"/>
<path d="M49.8926 20.238H54.0253V13.3942V6.95508H49.8926V20.238Z" fill="white"/>
<path d="M49.8945 5.3479H54.0272V2.35449H49.8945V5.3479Z" fill="white"/>
<path d="M62.3988 16.8499C62.9566 16.8499 63.6211 16.6964 64.3963 16.3917V19.7338C63.8391 19.9991 63.3095 20.1891 62.806 20.3016C62.3024 20.4156 61.7115 20.4723 61.0354 20.4723C59.6479 20.4723 58.6478 20.0945 58.0335 19.3403C57.422 18.5862 57.1152 17.4282 57.1152 15.8655V10.3899H55.668V6.95609H57.1152V3.564L61.2796 2.7793V6.95609H63.9162V10.3899H61.2796V15.56C61.2796 16.42 61.6531 16.8499 62.3988 16.8499" fill="white"/>
<path d="M71.9639 16.8499C72.5218 16.8499 73.1863 16.6964 73.9615 16.3917V19.7338C73.4051 19.9991 72.8746 20.1891 72.3711 20.3016C71.8669 20.4156 71.2781 20.4723 70.6005 20.4723C69.2131 20.4723 68.213 20.0945 67.6001 19.3403C66.9872 18.5862 66.6804 17.4282 66.6804 15.8655V10.3899H65.2324V6.95609H66.6804V3.51259L70.8441 2.7793V6.95609H73.482V10.3899H70.8441V15.56C70.8441 16.42 71.2176 16.8499 71.9639 16.8499" fill="white"/>
<path d="M79.1753 11.9487C79.2317 11.2214 79.4237 10.6886 79.7511 10.348C80.08 10.0082 80.4858 9.83834 80.9714 9.83834C81.5011 9.83834 81.922 10.0291 82.2343 10.4136C82.5486 10.7959 82.7124 11.3078 82.7255 11.9487H79.1753V11.9487ZM85.003 8.28538C84.0207 7.24212 82.627 6.71973 80.8242 6.71973C78.9291 6.71973 77.4708 7.31959 76.4487 8.51935C75.4272 9.7191 74.916 11.4405 74.916 13.6835C74.916 15.8557 75.4684 17.5309 76.5704 18.7068C77.673 19.8827 79.2214 20.4714 81.2155 20.4714C82.173 20.4714 82.9972 20.4006 83.6878 20.2598C84.3743 20.1204 85.0388 19.8685 85.6833 19.5049L85.0484 16.5115C84.58 16.7186 84.1342 16.8781 83.7132 16.9832C83.1051 17.1359 82.438 17.2127 81.7115 17.2127C80.9151 17.2127 80.2863 17.0018 79.8254 16.58C79.3645 16.1575 79.119 15.5748 79.0908 14.8326H86.4771V12.793C86.4771 10.8309 85.9859 9.3279 85.003 8.28538Z" fill="white"/>
<path d="M21.6616 11.9487C21.718 11.2214 21.9099 10.6886 22.2373 10.348C22.5655 10.0082 22.9721 9.83834 23.4584 9.83834C23.9867 9.83834 24.4076 10.0291 24.7206 10.4136C25.035 10.7959 25.198 11.3078 25.2125 11.9487H21.6616V11.9487ZM27.49 8.28538C26.507 7.24212 25.114 6.71973 23.3105 6.71973C21.4147 6.71973 19.9571 7.31959 18.9355 8.51935C17.9141 9.7191 17.4023 11.4405 17.4023 13.6835C17.4023 15.8557 17.9541 17.5309 19.0574 18.7068C20.1594 19.8827 21.7077 20.4714 23.7019 20.4714C24.6594 20.4714 25.4834 20.4006 26.174 20.2598C26.8605 20.1204 27.5251 19.8685 28.1703 19.5049L27.5347 16.5115C27.0663 16.7186 26.6205 16.8781 26.2002 16.9832C25.5908 17.1359 24.9242 17.2127 24.1978 17.2127C23.4019 17.2127 22.7726 17.0018 22.3117 16.58C21.8502 16.1575 21.6053 15.5748 21.5771 14.8326H28.9634V12.793C28.9634 10.8309 28.4723 9.3279 27.49 8.28538" fill="white"/>
</g>
</svg>
