<svg width="83" height="31" viewBox="0 0 83 31" fill="none" xmlns="http://www.w3.org/2000/svg">
<path d="M17.312 20.2205C17.312 16.3566 14.2286 14.4976 10.7047 13.5134L8.17184 12.7843C5.9694 12.2011 5.78586 11.0711 5.78586 10.5243C5.78586 9.10267 6.9605 8.00911 8.68575 8.00911C10.4844 8.00911 11.5856 9.17558 11.5489 10.8888H16.5778C16.6513 7.06136 14.045 4.36391 10.0439 3.89004V0.5H7.4377V3.89004C3.58342 4.40036 0.683537 6.98846 0.683537 10.5972C0.683537 12.675 1.60122 15.7005 6.70355 17.0857L9.49331 17.8876C11.5489 18.5073 12.2097 19.4915 12.2097 20.4757C12.2097 21.9338 11.0717 23.0273 9.05282 23.0273C6.81367 23.0273 5.56562 21.788 5.56562 20.0018H0.5C0.5 23.6835 3.21635 26.5632 7.4377 27.11V30.5H10.0439V27.11C13.9716 26.7454 17.312 24.3396 17.312 20.2205Z" fill="#FB5741"/>
<path d="M36.017 18.8718V3.81713H33.1538L19.5354 21.7151V23.1367H31.1349V27.6932H36.017V23.1367H39.6877V18.8718H36.017ZM31.1349 12.5656V18.8718H26.3996L31.1349 12.5656Z" fill="#FB5741"/>
<path d="M57.9554 18.8718V3.81713H55.0922L41.4738 21.7151V23.1367H53.0733V27.6932H57.9554V23.1367H61.6261V18.8718H57.9554ZM53.0733 12.5656V18.8718H48.338L53.0733 12.5656Z" fill="#FB5741"/>
<path d="M74.6079 11.5085C72.9194 11.5085 71.341 12.0188 70.203 12.8208L71.1574 8.22783H80.8482V3.78068H67.1563L65.064 15.8098L67.8905 17.596C69.3588 16.3202 71.3042 15.4453 73.1763 15.4453C75.7458 15.4453 77.6179 17.1221 77.6179 19.455C77.6179 21.8973 75.6724 23.647 72.9194 23.647C71.084 23.647 68.955 22.4441 68.1474 20.7673L64.4033 23.246C65.9817 26.1258 69.6157 28.1306 73.1396 28.1306C78.1318 28.1306 82.5 24.8135 82.5 19.4915C82.5 14.8985 79.233 11.5085 74.6079 11.5085Z" fill="#FB5741"/>
</svg>
