<svg width="94" height="21" viewBox="0 0 94 21" fill="none" xmlns="http://www.w3.org/2000/svg">
<g opacity="0.7">
<path d="M87.541 16.4465C87.541 15.0246 88.6131 13.8711 89.933 13.8711C91.2537 13.8711 92.3245 15.0246 92.3245 16.4465C92.3245 17.8683 91.2537 19.0211 89.933 19.0211C88.6131 19.0211 87.541 17.8683 87.541 16.4465Z" fill="white"/>
<path d="M11.2513 9.62599C11.2513 7.99478 10.9585 6.7846 10.373 5.99619C9.78667 5.20853 8.89856 4.81506 7.7046 4.81506H6.43449V14.7902H7.40624C8.73243 14.7902 9.70428 14.3669 10.3231 13.5174C10.9412 12.6693 11.2513 11.372 11.2513 9.62599ZM15.7808 9.45611C15.7808 12.4279 15.0388 14.7178 13.5548 16.3252C12.0708 17.9333 9.98462 18.7374 7.29552 18.7374H2.07031V0.929688H7.66026C10.2531 0.929688 12.2549 1.66071 13.6655 3.12202C15.0755 4.58408 15.7808 6.69444 15.7808 9.45611Z" fill="white"/>
<path d="M30.2539 18.7377H34.4118V0.855469H30.2539V18.7377Z" fill="white"/>
<path d="M40.2535 12.0663C40.2535 13.2064 40.3919 14.076 40.6681 14.6737C40.945 15.2721 41.4087 15.5709 42.0607 15.5709C42.7058 15.5709 43.1619 15.2721 43.4277 14.6737C43.6935 14.076 43.8257 13.2064 43.8257 12.0663C43.8257 10.9321 43.6914 10.0766 43.4222 9.4991C43.1522 8.92009 42.692 8.6302 42.0393 8.6302C41.4012 8.6302 40.945 8.91861 40.6681 9.4924C40.3919 10.0669 40.2535 10.9247 40.2535 12.0663ZM48.0577 12.0663C48.0577 14.2385 47.5288 15.9331 46.4684 17.1477C45.4087 18.3631 43.9254 18.9712 42.0185 18.9712C40.1898 18.9712 38.7341 18.3497 37.6537 17.1067C36.5718 15.8637 36.0312 14.1841 36.0312 12.0663C36.0312 9.90077 36.5608 8.21812 37.6212 7.01837C38.6816 5.81862 40.1683 5.21875 42.0829 5.21875C43.2658 5.21875 44.3124 5.49672 45.2191 6.05188C46.1265 6.60705 46.827 7.40216 47.3192 8.43797C47.812 9.47229 48.0577 10.6825 48.0577 12.0663Z" fill="white"/>
<path d="M49.709 18.7361H53.8675V11.8923V5.45312H49.709V18.7361Z" fill="white"/>
<path d="M49.709 3.84692H53.8675V0.853516H49.709V3.84692Z" fill="white"/>
<path d="M62.2924 15.348C62.8538 15.348 63.5223 15.1945 64.3024 14.8897V18.2318C63.7417 18.4971 63.2088 18.6872 62.7021 18.7997C62.1955 18.9137 61.6009 18.9703 60.9205 18.9703C59.5243 18.9703 58.5179 18.5925 57.8998 17.8384C57.2845 17.0843 56.9758 15.9263 56.9758 14.3636V8.88796H55.5195V5.45414H56.9758V2.06205L61.1663 1.27734V5.45414H63.8193V8.88796H61.1663V14.0581C61.1663 14.918 61.5421 15.348 62.2924 15.348Z" fill="white"/>
<path d="M71.9181 15.348C72.4794 15.348 73.1482 15.1945 73.9282 14.8897V18.2318C73.3683 18.4971 72.8345 18.6872 72.3278 18.7997C71.8205 18.9137 71.228 18.9703 70.5462 18.9703C69.1501 18.9703 68.1437 18.5925 67.527 17.8384C66.9103 17.0843 66.6016 15.9263 66.6016 14.3636V8.88796H65.1445V5.45414H66.6016V2.01063L70.7913 1.27734V5.45414H73.4457V8.88796H70.7913V14.0581C70.7913 14.918 71.1671 15.348 71.9181 15.348Z" fill="white"/>
<path d="M79.1726 10.4477C79.2294 9.72042 79.4226 9.18761 79.752 8.84706C80.083 8.50725 80.4913 8.33736 80.98 8.33736C81.5129 8.33736 81.9365 8.52811 82.2507 8.91263C82.567 9.29491 82.7318 9.80686 82.745 10.4477H79.1726ZM85.0367 6.78441C84.0483 5.74114 82.6459 5.21875 80.8318 5.21875C78.9248 5.21875 77.4575 5.81862 76.429 7.01837C75.4011 8.21812 74.8867 9.93952 74.8867 12.1825C74.8867 14.3548 75.4426 16.0299 76.5514 17.2058C77.661 18.3817 79.219 18.9704 81.2256 18.9704C82.1891 18.9704 83.0184 18.8996 83.7134 18.7588C84.4041 18.6195 85.0727 18.3676 85.7213 18.0039L85.0824 15.0105C84.6111 15.2177 84.1625 15.3771 83.7389 15.4822C83.127 15.635 82.4557 15.7117 81.7247 15.7117C80.9232 15.7117 80.2906 15.5008 79.8268 15.079C79.363 14.6565 79.1159 14.0738 79.0876 13.3316H86.52V11.292C86.52 9.32995 86.0258 7.82692 85.0367 6.78441Z" fill="white"/>
<path d="M21.2996 10.4477C21.3563 9.72042 21.5494 9.18761 21.8789 8.84706C22.2091 8.50725 22.6182 8.33736 23.1076 8.33736C23.6392 8.33736 24.0627 8.52811 24.3777 8.91263C24.694 9.29491 24.8581 9.80686 24.8726 10.4477H21.2996ZM27.1644 6.78441C26.1753 5.74114 24.7736 5.21875 22.9588 5.21875C21.0511 5.21875 19.5844 5.81862 18.5565 7.01837C17.5286 8.21812 17.0137 9.93952 17.0137 12.1825C17.0137 14.3548 17.5688 16.0299 18.6791 17.2058C19.7879 18.3817 21.3459 18.9704 23.3526 18.9704C24.3161 18.9704 25.1452 18.8996 25.8402 18.7588C26.531 18.6195 27.1997 18.3676 27.849 18.0039L27.2094 15.0105C26.738 15.2177 26.2894 15.3771 25.8665 15.4822C25.2533 15.635 24.5825 15.7117 23.8515 15.7117C23.0507 15.7117 22.4175 15.5008 21.9538 15.079C21.4893 14.6565 21.2429 14.0738 21.2145 13.3316H28.647V11.292C28.647 9.32995 28.1528 7.82692 27.1644 6.78441Z" fill="white"/>
</g>
</svg>
