<svg width="111" height="27" viewBox="0 0 111 27" fill="none" xmlns="http://www.w3.org/2000/svg">
<g opacity="0.7">
<path d="M0 6.16428C0 6.16428 2.7381 16.8387 3.1751 18.5713C3.68514 20.5936 4.60416 21.3379 7.25384 20.8359L8.96359 14.2179C9.39692 12.574 9.68757 11.402 9.96612 9.72976H10.0151C10.2108 11.4184 10.4895 12.5789 10.8461 14.2236C10.8461 14.2236 11.5421 17.228 11.8985 18.8061C12.2559 20.3835 13.2504 21.3777 15.8458 20.8365L19.9197 6.1654H16.6305L15.2397 12.5084C14.8658 14.3547 14.5265 15.7974 14.2648 17.4865H14.2184C13.9807 15.8143 13.6783 14.4287 13.2981 12.6299L11.85 6.1654H8.42293L6.8739 12.467C6.43505 14.3818 6.02459 15.9281 5.76358 17.5599H5.71631C5.449 16.0232 5.09298 14.0798 4.70745 12.2262C4.70745 12.2262 3.78713 7.719 3.46424 6.1654L0.000320255 6.16582L0 6.16428ZM31.3554 6.16428V20.8354H34.487V17.72V6.16357H31.3554V6.16428ZM75.4606 6.16428V16.9874C75.4606 18.4796 75.7558 19.5251 76.3873 20.1638C76.939 20.7224 77.8478 21.0841 78.9368 21.0841C79.8626 21.0841 80.7736 20.9171 81.2029 20.7649L81.1626 18.4367C80.8431 18.5115 80.4756 18.5713 79.973 18.5713C78.9062 18.5713 78.5484 17.9213 78.5484 16.5815V12.4406H81.2758V9.63362H78.5484V6.16432H75.4604L75.4606 6.16428ZM24.3571 9.56534C22.4109 9.56534 20.866 10.0852 20.0239 10.5482L20.6402 12.5559C21.4109 12.0936 22.638 11.711 23.7999 11.711C25.7237 11.7062 26.0382 12.7458 26.0382 13.4125V13.5702C21.8464 13.5642 19.1986 14.9442 19.1986 17.7571C19.1986 19.4746 20.5465 21.0841 22.8902 21.0841C24.333 21.0841 25.5396 20.5366 26.2628 19.6595H26.3337C26.3337 19.6595 26.8126 21.5644 29.4508 20.836C29.3122 20.0431 29.2672 19.1978 29.2672 18.1797V14.2604C29.2672 11.7625 28.1461 9.56538 24.3571 9.56538L24.3571 9.56534ZM43.0898 9.56534C41.1302 9.56534 40.2495 10.5101 39.7156 11.3117H39.6692V9.81414H36.6806V20.8361H39.8288V14.3722C39.8288 14.0691 39.8652 13.7487 39.9764 13.4699C40.2373 12.8191 40.8737 12.0579 41.8898 12.0579C43.1601 12.0579 43.7546 13.0796 43.7546 14.5542V20.8359H46.8994V14.2938C46.8994 14.0046 46.9411 13.6562 47.0306 13.4004C47.2891 12.6601 47.9752 12.0578 48.9198 12.0578C50.2076 12.0578 50.8256 13.0617 50.8256 14.7968V20.836H53.9727V14.3444C53.9727 10.9209 52.1455 9.5654 50.0829 9.5654C49.1694 9.5654 48.4484 9.78331 47.7965 10.1641C47.2486 10.4839 46.7581 10.9384 46.3293 11.5368H46.2829C45.7841 10.349 44.6138 9.5654 43.0892 9.5654L43.0898 9.56534ZM60.3776 9.56534C58.4319 9.56534 56.8873 10.0852 56.0444 10.5482L56.6616 12.5559C57.4315 12.0936 58.6594 11.711 59.8207 11.711C61.7431 11.7062 62.0584 12.7458 62.0584 13.4125V13.5702C57.8672 13.5642 55.2191 14.9442 55.2191 17.7571C55.2191 19.4746 56.5677 21.0841 58.9126 21.0841C60.3543 21.0841 61.5613 20.5366 62.2831 19.6595H62.3543C62.3543 19.6595 62.8331 21.5644 65.4717 20.836C65.3329 20.0431 65.2884 19.1978 65.2884 18.1797V14.2604C65.2884 11.7625 64.167 9.56538 60.3776 9.56538L60.3776 9.56534ZM73.4514 9.56534C72.2458 9.56534 70.8743 10.3057 70.2986 11.8927H70.2107V9.814H67.3766V20.8359H70.6074V15.192C70.6074 14.8875 70.6268 14.6221 70.6774 14.3786C70.9163 13.1964 71.8668 12.4406 73.231 12.4406C73.6055 12.4406 73.8735 12.4792 74.1635 12.519V9.63352C73.9204 9.58678 73.7541 9.56524 73.4515 9.56524L73.4514 9.56534ZM26.1393 15.5234V16.8984C26.1393 17.1017 26.1207 17.3116 26.0615 17.4951C25.8191 18.2587 24.9876 18.9041 23.9481 18.9041C23.0814 18.9041 22.393 18.4361 22.393 17.4462C22.393 15.9321 24.1449 15.5135 26.1394 15.5234H26.1393ZM62.1598 15.5234V16.8984C62.1598 17.1017 62.1408 17.3116 62.082 17.4951C61.8396 18.2587 61.0084 18.9041 59.9689 18.9041C59.1021 18.9041 58.4135 18.4361 58.4135 17.4462C58.4135 15.9321 60.1655 15.5135 62.1599 15.5234H62.1598Z" fill="white"/>
<path d="M98.2077 0.858887C97.1967 0.858887 96.3932 1.39601 96.3932 2.04989L97.0071 8.66415C97.0749 9.06264 97.588 9.37003 98.2083 9.37003C98.8298 9.36926 99.3411 9.06214 99.4103 8.66415L100.027 2.04989C100.027 1.39606 99.2214 0.858943 98.209 0.858943L98.2077 0.858887ZM88.2022 6.16453C87.6773 6.17638 87.0811 6.55443 86.7018 7.18002C86.1946 8.01306 86.2845 8.94398 86.8779 9.27058L93.2051 12.0738C93.6003 12.2137 94.1372 11.9467 94.448 11.4368C94.4481 11.4367 94.448 11.4366 94.448 11.4365C94.7603 10.9241 94.7361 10.348 94.4074 10.0925L88.6929 6.27924C88.5444 6.19746 88.3775 6.16066 88.2025 6.16461L88.2022 6.16453ZM108.213 6.16453C108.038 6.16058 107.872 6.19738 107.724 6.27916L102.008 10.0924C101.681 10.3479 101.657 10.9241 101.968 11.4364L101.968 11.4367C102.28 11.9466 102.815 12.2136 103.211 12.0738L109.541 9.27063C110.136 8.94404 110.222 8.01316 109.718 7.18008C109.337 6.55447 108.74 6.17644 108.215 6.16459L108.213 6.16453ZM93.4414 14.8911C93.3596 14.89 93.2802 14.9021 93.2059 14.9287L86.8788 17.7286C86.2853 18.0566 86.1955 18.9879 86.7027 19.8218C87.2084 20.6532 88.0997 21.0484 88.6933 20.7224L94.4083 16.9121C94.7371 16.6534 94.7613 16.0775 94.4489 15.5656L94.4515 15.5667C94.1989 15.1498 93.7962 14.8956 93.4414 14.891L93.4414 14.8911ZM102.977 14.8911C102.623 14.8957 102.221 15.1499 101.967 15.5668L101.97 15.5657C101.659 16.0776 101.683 16.6535 102.01 16.9122L107.725 20.7225C108.317 21.0485 109.21 20.6533 109.718 19.8219C110.221 18.9879 110.136 18.0567 109.54 17.7287L103.212 14.9288C103.138 14.9022 103.059 14.8901 102.977 14.8912L102.977 14.8911ZM98.2068 17.6323C97.5876 17.633 97.0757 17.9391 97.008 18.3365L96.394 24.9505C96.394 25.6055 97.1976 26.1415 98.2086 26.1415C99.2215 26.1415 100.027 25.6055 100.027 24.9505L99.4111 18.3365C99.3419 17.9391 98.8306 17.6331 98.2091 17.6323H98.2068H98.2068Z" fill="white"/>
</g>
</svg>
