<svg width="81" height="30" viewBox="0 0 81 30" fill="none" xmlns="http://www.w3.org/2000/svg">
<g opacity="0.7">
<path d="M77.9567 18.7189L80.1698 20.2176C79.4515 21.2924 77.7335 23.1363 74.7634 23.1363C71.075 23.1363 68.3281 20.2374 68.3281 16.5496C68.3281 12.6252 71.1041 9.96289 74.4528 9.96289C77.8209 9.96289 79.4709 12.6843 80.0048 14.1535L80.296 14.9029L71.6186 18.5512C72.2786 19.8725 73.3074 20.543 74.7634 20.543C76.2193 20.543 77.2288 19.8134 77.9567 18.7189ZM71.1527 16.3425L76.9473 13.8972C76.627 13.0788 75.6758 12.497 74.5401 12.497C73.0939 12.497 71.0847 13.7986 71.1527 16.3425Z" fill="white"/>
<path d="M64.1445 3.24805H66.9399V22.5349H64.1445V3.24805Z" fill="white"/>
<path d="M59.7374 10.4757H62.4357V22.1898C62.4357 27.0509 59.6112 29.0526 56.2723 29.0526C53.1274 29.0526 51.2347 26.903 50.5262 25.1578L53.0012 24.1126C53.4477 25.1873 54.5251 26.4593 56.2723 26.4593C58.4173 26.4593 59.7374 25.1085 59.7374 22.5842V21.6376H59.6403C58.9997 22.4264 57.7767 23.1364 56.2237 23.1364C52.9818 23.1364 50.0117 20.267 50.0117 16.5694C50.0117 12.8521 52.9818 9.95312 56.2237 9.95312C57.767 9.95312 58.9997 10.6532 59.6403 11.4223H59.7374V10.4757ZM59.9315 16.5694C59.9315 14.2424 58.4076 12.5464 56.4664 12.5464C54.5057 12.5464 52.8557 14.2424 52.8557 16.5694C52.8557 18.8669 54.5057 20.5333 56.4664 20.5333C58.4076 20.5431 59.9315 18.8669 59.9315 16.5694Z" fill="white"/>
<path d="M34.6668 16.5184C34.6668 20.3147 31.7549 23.1051 28.183 23.1051C24.6111 23.1051 21.6992 20.3048 21.6992 16.5184C21.6992 12.7025 24.6111 9.92188 28.183 9.92188C31.7549 9.92188 34.6668 12.7025 34.6668 16.5184ZM31.8326 16.5184C31.8326 14.152 30.1437 12.525 28.183 12.525C26.2223 12.525 24.5334 14.152 24.5334 16.5184C24.5334 18.8652 26.2223 20.5119 28.183 20.5119C30.1437 20.5119 31.8326 18.8652 31.8326 16.5184Z" fill="white"/>
<path d="M48.8269 16.5496C48.8269 20.3458 45.9151 23.1363 42.3432 23.1363C38.7713 23.1363 35.8594 20.3458 35.8594 16.5496C35.8594 12.7336 38.7713 9.96289 42.3432 9.96289C45.9151 9.96289 48.8269 12.7238 48.8269 16.5496ZM45.983 16.5496C45.983 14.1831 44.2941 12.5562 42.3335 12.5562C40.3728 12.5562 38.6839 14.1831 38.6839 16.5496C38.6839 18.8964 40.3728 20.543 42.3335 20.543C44.3038 20.543 45.983 18.8865 45.983 16.5496Z" fill="white"/>
<path d="M11.0408 20.2466C6.97385 20.2466 3.79019 16.9138 3.79019 12.7823C3.79019 8.6508 6.97385 5.31801 11.0408 5.31801C13.2344 5.31801 14.8359 6.19558 16.0201 7.31966L17.9711 5.33773C16.321 3.73049 14.1177 2.50781 11.0408 2.50781C5.46938 2.50781 0.78125 7.12245 0.78125 12.7823C0.78125 18.4421 5.46938 23.0568 11.0408 23.0568C14.0497 23.0568 16.321 22.051 18.0972 20.1775C19.922 18.3238 20.485 15.7207 20.485 13.6105C20.485 12.9499 20.4073 12.2695 20.32 11.7667H11.0408V14.5078H17.6507C17.4566 16.2235 16.9228 17.3969 16.1366 18.1956C15.1854 19.1718 13.6809 20.2466 11.0408 20.2466Z" fill="white"/>
</g>
</svg>
