<svg width="60" height="21" viewBox="0 0 60 21" fill="none" xmlns="http://www.w3.org/2000/svg">
<path d="M3.77238 14.9018C4.02522 15.5461 4.37527 16.097 4.8226 16.5545C5.26993 17.012 5.79988 17.3621 6.41246 17.6049C7.0251 17.8477 7.69119 17.969 8.41079 17.969C9.11096 17.969 9.7673 17.843 10.3799 17.5908C10.9926 17.3387 11.5274 16.9839 11.9844 16.5265C12.4414 16.0689 12.7964 15.5227 13.0492 14.8878C13.302 14.2529 13.4284 13.5433 13.4284 12.759V0.658203H16.4915V20.2659H13.4576V18.4452C12.7769 19.1361 11.9746 19.6683 11.0509 20.0418C10.127 20.4153 9.13039 20.602 8.06074 20.602C6.97159 20.602 5.95545 20.4199 5.01219 20.0558C4.06899 19.6917 3.25211 19.1735 2.56175 18.5012C1.87139 17.8289 1.32679 17.0214 0.928131 16.0783C0.529407 15.1352 0.330078 14.0849 0.330078 12.927V0.658203H3.39315V12.759C3.39315 13.5433 3.51954 14.2575 3.77238 14.9018Z" fill="white"/>
<path d="M21.7706 0.658203V7.80099C22.4513 7.14741 23.239 6.62926 24.1336 6.24641C25.0281 5.86355 26.0006 5.67216 27.0507 5.67216C28.1399 5.67216 29.1608 5.8682 30.1138 6.26035C31.0668 6.6525 31.8933 7.18472 32.5934 7.85702C33.2936 8.52932 33.8479 9.32292 34.2563 10.2379C34.6647 11.153 34.8689 12.1241 34.8689 13.1511C34.8689 14.1781 34.6647 15.1445 34.2563 16.0502C33.8479 16.9559 33.2936 17.7449 32.5934 18.4171C31.8933 19.0894 31.0668 19.6216 30.1138 20.0138C29.1608 20.4059 28.1398 20.602 27.0507 20.602C26.0005 20.602 25.0233 20.4106 24.119 20.0277C23.2146 19.6449 22.4221 19.1267 21.7414 18.4731V20.2658H18.8242V0.658203H21.7706ZM22.1061 15.0839C22.3686 15.6815 22.7333 16.2043 23.2 16.6525C23.6668 17.1007 24.2113 17.4555 24.8337 17.717C25.456 17.9784 26.127 18.1091 26.8466 18.1091C27.5467 18.1091 28.2079 17.9784 28.8303 17.717C29.4526 17.4555 29.9922 17.1008 30.4494 16.6525C30.9064 16.2044 31.271 15.6815 31.5433 15.0839C31.8155 14.4863 31.9517 13.8421 31.9517 13.1511C31.9517 12.4602 31.8155 11.8112 31.5433 11.2043C31.271 10.5974 30.9064 10.0699 30.4494 9.62173C29.9923 9.17361 29.4526 8.82342 28.8303 8.57135C28.2079 8.31927 27.5467 8.19314 26.8466 8.19314C26.1465 8.19314 25.4852 8.31921 24.8629 8.57135C24.2406 8.82348 23.696 9.17361 23.2292 9.62173C22.7625 10.0699 22.393 10.5974 22.1207 11.2043C21.8484 11.8112 21.7123 12.4602 21.7123 13.1511C21.7122 13.8421 21.8435 14.4863 22.1061 15.0839Z" fill="white"/>
<path d="M36.5326 10.2649C36.9215 9.36857 37.4564 8.57963 38.137 7.89803C38.8176 7.21643 39.6248 6.67956 40.5583 6.28741C41.4918 5.89526 42.5031 5.69922 43.5922 5.69922C44.6619 5.69922 45.6537 5.88597 46.5678 6.2594C47.4818 6.63289 48.2695 7.15111 48.9307 7.81405C49.592 8.47693 50.1074 9.26129 50.4768 10.1669C50.8464 11.0727 51.0311 12.0577 51.0311 13.1222V14.0465H38.9247C39.022 14.6254 39.2165 15.1623 39.5082 15.6571C39.7999 16.1519 40.1645 16.5815 40.6021 16.9456C41.0397 17.3098 41.5356 17.5946 42.0899 17.7999C42.6442 18.0053 43.2324 18.1081 43.8548 18.1081C45.6246 18.1081 47.0541 17.4078 48.1432 16.0072L50.2727 17.5198C49.5337 18.4722 48.6197 19.2192 47.5306 19.7607C46.4414 20.3022 45.2162 20.573 43.8549 20.573C42.7463 20.573 41.7107 20.3862 40.748 20.0127C39.7853 19.6393 38.9491 19.1164 38.2392 18.4441C37.5294 17.7718 36.9703 16.9828 36.5619 16.0772C36.1535 15.1715 35.9492 14.1864 35.9492 13.122C35.9491 12.1137 36.1436 11.1613 36.5326 10.2649ZM40.6313 9.15846C39.8047 9.8214 39.2553 10.7038 38.9831 11.8055H48.0556C47.8028 10.7038 47.2631 9.8214 46.4365 9.15846C45.61 8.49558 44.6424 8.16411 43.5339 8.16411C42.4254 8.16411 41.4578 8.49558 40.6313 9.15846Z" fill="white"/>
<path d="M56.544 9.48064C55.9217 10.1342 55.6105 11.0212 55.6105 12.1417V20.265H52.6641V5.97931H55.5813V7.74401C55.9508 7.16512 56.4321 6.70758 57.0253 6.37146C57.6184 6.03528 58.3235 5.86719 59.1403 5.86719H60.1613V8.50023H58.9361C57.9637 8.50029 57.1663 8.82705 56.544 9.48064Z" fill="white"/>
</svg>
