<svg width="102" height="29" viewBox="0 0 102 29" fill="none" xmlns="http://www.w3.org/2000/svg">
<g opacity="0.7">
<path d="M37.7523 9.26563H32.1791C31.9946 9.26551 31.8161 9.33218 31.6758 9.45363C31.5355 9.57508 31.4426 9.74332 31.4139 9.92804L29.1599 24.4128C29.1495 24.48 29.1536 24.5487 29.172 24.6142C29.1903 24.6796 29.2224 24.7403 29.2661 24.7919C29.3098 24.8436 29.364 24.885 29.425 24.9134C29.486 24.9418 29.5524 24.9564 29.6195 24.9563H32.2801C32.4648 24.9564 32.6433 24.8896 32.7837 24.768C32.924 24.6464 33.0168 24.4779 33.0454 24.2931L33.6533 20.3863C33.6818 20.2016 33.7745 20.0332 33.9147 19.9116C34.0548 19.79 34.2332 19.7232 34.4177 19.7231H36.1819C39.8531 19.7231 41.9719 17.9225 42.5252 14.3543C42.7745 12.7933 42.5358 11.5667 41.8146 10.7077C41.0225 9.7645 39.6176 9.26563 37.7523 9.26563ZM38.3952 14.5559C38.0905 16.5828 36.5625 16.5828 35.0851 16.5828H34.2441L34.8341 12.7974C34.8513 12.6867 34.907 12.5858 34.9912 12.513C35.0753 12.4401 35.1822 12.4001 35.2929 12.4001H35.6783C36.6847 12.4001 37.6341 12.4001 38.1247 12.9816C38.4172 13.3285 38.5069 13.8439 38.3952 14.5559ZM54.4114 14.4906H51.7426C51.632 14.4906 51.525 14.5306 51.4409 14.6035C51.3568 14.6763 51.3011 14.7772 51.2838 14.8879L51.1657 15.6445L50.979 15.3703C50.4013 14.5204 49.1129 14.2362 47.827 14.2362C44.8778 14.2362 42.3589 16.5002 41.8684 19.676C41.6133 21.2602 41.9759 22.775 42.8626 23.8314C43.6758 24.8027 44.8395 25.2074 46.2241 25.2074C48.6003 25.2074 49.918 23.6587 49.918 23.6587L49.7991 24.4104C49.7885 24.4776 49.7924 24.5463 49.8105 24.6118C49.8286 24.6773 49.8605 24.7381 49.9041 24.7899C49.9476 24.8417 50.0017 24.8834 50.0626 24.9119C50.1236 24.9405 50.1899 24.9554 50.257 24.9555H52.661C52.8456 24.9556 53.0242 24.8888 53.1645 24.7672C53.3048 24.6456 53.3976 24.4771 53.4262 24.2922L54.8686 15.0341C54.8792 14.9671 54.8753 14.8985 54.8573 14.8331C54.8392 14.7677 54.8073 14.7071 54.7638 14.6554C54.7203 14.6037 54.6663 14.5622 54.6055 14.5338C54.5446 14.5053 54.4784 14.4906 54.4114 14.4906ZM50.6914 19.7553C50.4339 21.3006 49.2237 22.338 47.6803 22.338C46.9053 22.338 46.286 22.0861 45.8883 21.6087C45.4939 21.1346 45.344 20.4598 45.4694 19.7082C45.7098 18.176 46.9404 17.1048 48.4602 17.1048C49.218 17.1048 49.8341 17.36 50.2399 17.8415C50.6466 18.328 50.8079 19.007 50.6914 19.7553ZM68.6251 14.4906H65.9432C65.8167 14.4908 65.6922 14.5223 65.5805 14.5823C65.4687 14.6423 65.3731 14.7291 65.3019 14.835L61.603 20.3574L60.0351 15.0506C59.987 14.8888 59.8887 14.7469 59.7549 14.6461C59.621 14.5452 59.4587 14.4907 59.2919 14.4906H56.6565C56.5825 14.4904 56.5096 14.5081 56.4437 14.5423C56.3779 14.5764 56.321 14.626 56.2779 14.687C56.2348 14.7479 56.2066 14.8184 56.1958 14.8925C56.185 14.9667 56.1918 15.0424 56.2156 15.1134L59.1697 23.8999L56.3925 27.8736C56.3431 27.944 56.3139 28.0269 56.3079 28.1131C56.3019 28.1993 56.3194 28.2855 56.3585 28.3623C56.3977 28.439 56.4569 28.5034 56.5297 28.5483C56.6025 28.5932 56.6862 28.617 56.7714 28.6169H59.45C59.5751 28.6171 59.6983 28.5866 59.8092 28.5279C59.92 28.4692 60.0152 28.3841 60.0865 28.28L69.0065 15.2299C69.0548 15.1593 69.0832 15.0766 69.0885 14.9908C69.0937 14.905 69.0758 14.8194 69.0365 14.7433C68.9972 14.6671 68.9381 14.6033 68.8656 14.5588C68.793 14.5142 68.7099 14.4907 68.6251 14.4906Z" fill="white"/>
<path d="M77.5024 9.26645H71.9284C71.7441 9.26653 71.5658 9.33329 71.4257 9.45472C71.2855 9.57616 71.1928 9.74429 71.164 9.92887L68.91 24.4137C68.8995 24.4808 68.9035 24.5494 68.9217 24.6147C68.9399 24.6801 68.9719 24.7407 69.0154 24.7924C69.0589 24.844 69.113 24.8855 69.1739 24.914C69.2347 24.9424 69.301 24.9571 69.368 24.9571H72.2283C72.3574 24.9569 72.4821 24.9101 72.5801 24.825C72.6781 24.7399 72.7429 24.6222 72.7629 24.4929L73.4026 20.3871C73.4311 20.2024 73.5238 20.0341 73.664 19.9125C73.8041 19.7909 73.9825 19.724 74.167 19.7239H75.9304C79.6024 19.7239 81.7204 17.9233 82.2745 14.3552C82.5247 12.7941 82.2843 11.5676 81.5631 10.7086C80.7718 9.76533 79.3677 9.26645 77.5024 9.26645ZM78.1454 14.5567C77.8414 16.5836 76.3135 16.5836 74.8352 16.5836H73.995L74.5858 12.7982C74.6028 12.6875 74.6583 12.5865 74.7423 12.5137C74.8263 12.4408 74.9332 12.4008 75.0438 12.401H75.4293C76.4349 12.401 77.3851 12.401 77.8756 12.9824C78.1682 13.3293 78.257 13.8447 78.1454 14.5567ZM94.1608 14.4914H91.4936C91.383 14.4911 91.2759 14.5311 91.1919 14.604C91.1078 14.6769 91.0524 14.7779 91.0356 14.8887L90.9174 15.6453L90.73 15.3711C90.1522 14.5212 88.8647 14.2371 87.5788 14.2371C84.6296 14.2371 82.1115 16.501 81.6209 19.6768C81.3667 21.261 81.7277 22.7758 82.6143 23.8322C83.4292 24.8035 84.5913 25.2082 85.9758 25.2082C88.3521 25.2082 89.6698 23.6596 89.6698 23.6596L89.5508 24.4112C89.5402 24.4785 89.5441 24.5474 89.5624 24.613C89.5806 24.6787 89.6127 24.7395 89.6564 24.7914C89.7001 24.8432 89.7544 24.8848 89.8155 24.9133C89.8766 24.9418 89.9432 24.9564 90.0104 24.9563H92.4136C92.5981 24.9562 92.7765 24.8893 92.9166 24.7677C93.0567 24.6461 93.1494 24.4778 93.178 24.2931L94.6212 15.0349C94.6314 14.9677 94.6272 14.899 94.6087 14.8335C94.5903 14.7681 94.5581 14.7075 94.5143 14.6558C94.4706 14.6042 94.4163 14.5628 94.3553 14.5344C94.2943 14.506 94.2279 14.4914 94.1608 14.4914ZM90.4407 19.7561C90.1848 21.3015 88.9731 22.3389 87.4296 22.3389C86.6563 22.3389 86.0353 22.0869 85.6376 21.6095C85.2432 21.1354 85.0949 20.4606 85.2188 19.709C85.4608 18.1769 86.6897 17.1056 88.2095 17.1056C88.9674 17.1056 89.5834 17.3608 89.9893 17.8424C90.3975 18.3288 90.5589 19.0078 90.4407 19.7561ZM97.3071 9.66374L95.0197 24.4137C95.0092 24.4808 95.0132 24.5494 95.0314 24.6147C95.0496 24.6801 95.0815 24.7407 95.1251 24.7924C95.1686 24.844 95.2227 24.8855 95.2835 24.914C95.3444 24.9424 95.4106 24.9571 95.4777 24.9571H97.7773C98.1595 24.9571 98.4839 24.6763 98.5425 24.2939L100.798 9.80993C100.809 9.74279 100.805 9.67415 100.786 9.60873C100.768 9.5433 100.736 9.48265 100.693 9.43093C100.649 9.37921 100.595 9.33765 100.534 9.30912C100.474 9.28058 100.407 9.26575 100.34 9.26562H97.7651C97.6546 9.26602 97.5478 9.3063 97.4638 9.37925C97.3799 9.4522 97.3244 9.55305 97.3071 9.66374Z" fill="#E5ECE9"/>
<path d="M6.01549 27.7732L6.44169 25.0294L5.49232 25.0071H0.958984L4.10942 4.76042C4.1188 4.69856 4.1498 4.64217 4.19677 4.60154C4.24374 4.56091 4.30355 4.53874 4.3653 4.53907H12.0091C14.5468 4.53907 16.298 5.07429 17.2123 6.13068C17.641 6.62626 17.914 7.14413 18.046 7.71404C18.1845 8.31203 18.187 9.02649 18.0517 9.89787L18.0419 9.96147V10.5198L18.4706 10.7659C18.7978 10.934 19.0919 11.1613 19.3384 11.4366C19.7051 11.8603 19.9423 12.3989 20.0425 13.0373C20.146 13.694 20.1118 14.4753 19.9423 15.3599C19.7467 16.3775 19.4305 17.2637 19.0035 17.9889C18.6267 18.6386 18.1202 19.2013 17.5163 19.6408C16.9491 20.0489 16.2752 20.3586 15.5133 20.5568C14.7749 20.7518 13.9331 20.85 13.0099 20.85H12.415C11.9896 20.85 11.5764 21.0053 11.2521 21.2837C10.9282 21.565 10.7134 21.9537 10.6458 22.3805L10.601 22.6275L9.84801 27.4635L9.81378 27.6411C9.80482 27.6972 9.78934 27.7253 9.76652 27.7443C9.74442 27.7626 9.71684 27.7728 9.68829 27.7732H6.01549Z" fill="white"/>
<path d="M18.8758 10.0234C18.853 10.1713 18.8269 10.3224 18.7976 10.4777C17.7895 15.7234 14.3408 17.5355 9.93624 17.5355H7.69361C7.15496 17.5355 6.70106 17.932 6.61712 18.4705L5.46891 25.8512L5.14377 27.9434C5.13081 28.0264 5.13576 28.1112 5.15826 28.1921C5.18076 28.2729 5.22029 28.3479 5.27411 28.4118C5.32794 28.4757 5.39479 28.527 5.47006 28.5622C5.54533 28.5974 5.62723 28.6157 5.71013 28.6157H9.6877C10.1587 28.6157 10.5588 28.2688 10.633 27.798L10.6721 27.5932L11.421 22.7762L11.4691 22.5119C11.5424 22.0394 11.9434 21.6925 12.4144 21.6925H13.0093C16.863 21.6925 19.8798 20.1067 20.7615 15.5177C21.1298 13.6007 20.9391 12 19.9645 10.8742C19.6556 10.5259 19.2867 10.2376 18.8758 10.0234Z" fill="#E5ECE9"/>
<path d="M17.8214 9.59749C17.4995 9.50312 17.1721 9.42946 16.841 9.37696C16.1869 9.27507 15.5258 9.22618 14.8641 9.23076H8.87285C8.64485 9.23058 8.4243 9.31309 8.25108 9.46336C8.07786 9.61363 7.96339 9.82176 7.92838 10.0501L6.65386 18.232L6.61719 18.4707C6.65689 18.2103 6.78726 17.9728 6.98471 17.8013C7.18216 17.6298 7.43365 17.5356 7.69368 17.5358H9.93631C14.3409 17.5358 17.7896 15.7228 18.7976 10.478C18.8278 10.3227 18.853 10.1715 18.8759 10.0237C18.6099 9.8823 18.3326 9.76377 18.0471 9.66935C17.9722 9.64417 17.897 9.62021 17.8214 9.59749Z" fill="#EAEBED"/>
<path d="M7.92821 10.0504C7.96293 9.82202 8.07733 9.6138 8.25064 9.4636C8.42395 9.31341 8.64466 9.2312 8.87269 9.23192H14.8639C15.5737 9.23192 16.2362 9.279 16.8409 9.37811C17.25 9.44329 17.6536 9.54078 18.0477 9.66968C18.3452 9.76962 18.6214 9.88773 18.8765 10.024C19.1764 8.08549 18.8741 6.76562 17.8399 5.57046C16.6999 4.25471 14.6422 3.69141 12.0093 3.69141H4.36543C3.82759 3.69141 3.36879 4.08787 3.28567 4.62721L0.101826 25.082C0.0869957 25.177 0.0926379 25.2741 0.118364 25.3666C0.14409 25.4592 0.18929 25.545 0.250854 25.6181C0.312418 25.6913 0.388885 25.75 0.474995 25.7904C0.561105 25.8307 0.654815 25.8517 0.749678 25.8518H5.46881L6.65369 18.2324L7.92821 10.0504Z" fill="white"/>
</g>
</svg>
