<svg width="49" height="17" viewBox="0 0 49 17" fill="none" xmlns="http://www.w3.org/2000/svg">
<g opacity="0.7" clip-path="url(#clip0_3557_17919)">
<path d="M3.24814 11.9041C3.44999 12.4185 3.72945 12.8583 4.08657 13.2235C4.44369 13.5888 4.86677 13.8683 5.35581 14.0621C5.8449 14.2559 6.37666 14.3528 6.95114 14.3528C7.51011 14.3528 8.03409 14.2522 8.52318 14.0509C9.01228 13.8496 9.43922 13.5664 9.80407 13.2011C10.1689 12.8359 10.4523 12.3998 10.6541 11.893C10.856 11.3861 10.9569 10.8196 10.9569 10.1934V0.532959H13.4023V16.1865H10.9802V14.7329C10.4368 15.2845 9.79629 15.7094 9.05881 16.0076C8.32128 16.3057 7.52562 16.4548 6.67168 16.4548C5.80218 16.4548 4.99096 16.3094 4.23792 16.0187C3.48493 15.728 2.83279 15.3144 2.28165 14.7776C1.73052 14.2409 1.29574 13.5962 0.977477 12.8433C0.659162 12.0905 0.500031 11.2519 0.500031 10.3276V0.532959H2.94539V10.1934C2.94539 10.8196 3.04629 11.3898 3.24814 11.9041Z" fill="white"/>
<path d="M17.6174 0.532959V6.2353C18.1608 5.71352 18.7897 5.29986 19.5039 4.99422C20.218 4.68857 20.9944 4.53577 21.8328 4.53577C22.7023 4.53577 23.5173 4.69228 24.2781 5.00535C25.0389 5.31841 25.6987 5.74331 26.2577 6.28003C26.8166 6.81675 27.2591 7.4503 27.5852 8.18079C27.9112 8.91133 28.0742 9.68655 28.0742 10.5065C28.0742 11.3264 27.9112 12.0979 27.5852 12.8209C27.2591 13.544 26.8166 14.1739 26.2577 14.7105C25.6987 15.2472 25.0389 15.6721 24.2781 15.9852C23.5173 16.2982 22.7022 16.4548 21.8328 16.4548C20.9943 16.4548 20.2142 16.302 19.4922 15.9963C18.7702 15.6907 18.1375 15.277 17.5941 14.7552V16.1864H15.2652V0.532959H17.6174ZM17.8852 12.0495C18.0948 12.5266 18.386 12.944 18.7586 13.3018C19.1312 13.6596 19.566 13.9429 20.0628 14.1516C20.5596 14.3603 21.0953 14.4646 21.6698 14.4646C22.2287 14.4646 22.7566 14.3603 23.2534 14.1516C23.7502 13.9429 24.181 13.6596 24.546 13.3018C24.9108 12.944 25.2019 12.5266 25.4193 12.0495C25.6367 11.5724 25.7453 11.0581 25.7453 10.5065C25.7453 9.95488 25.6367 9.43682 25.4193 8.9523C25.2019 8.46778 24.9108 8.04665 24.546 7.68885C24.1811 7.3311 23.7503 7.05154 23.2534 6.8503C22.7565 6.64906 22.2287 6.54836 21.6698 6.54836C21.1108 6.54836 20.5829 6.64901 20.0861 6.8503C19.5893 7.05158 19.1546 7.3311 18.7819 7.68885C18.4093 8.04665 18.1143 8.46778 17.8969 8.9523C17.6796 9.43682 17.5709 9.95488 17.5709 10.5065C17.5708 11.0581 17.6756 11.5724 17.8852 12.0495Z" fill="white"/>
<path d="M29.4015 8.20332C29.7119 7.48772 30.139 6.85788 30.6823 6.31374C31.2257 5.76959 31.8701 5.34099 32.6154 5.02792C33.3606 4.71486 34.168 4.55835 35.0374 4.55835C35.8914 4.55835 36.6832 4.70744 37.413 5.00556C38.1427 5.30373 38.7715 5.71744 39.2993 6.24669C39.8272 6.77589 40.2387 7.40207 40.5337 8.12509C40.8287 8.84815 40.9762 9.63455 40.9762 10.4843V11.2223H31.3112C31.3888 11.6845 31.5441 12.1131 31.777 12.5081C32.0099 12.9031 32.301 13.246 32.6503 13.5367C32.9996 13.8275 33.3956 14.0548 33.8381 14.2188C34.2806 14.3827 34.7502 14.4648 35.2471 14.4648C36.66 14.4648 37.8012 13.9057 38.6706 12.7876L40.3707 13.9951C39.7807 14.7554 39.051 15.3518 38.1816 15.7841C37.3121 16.2164 36.3339 16.4326 35.2471 16.4326C34.3621 16.4326 33.5354 16.2835 32.7668 15.9853C31.9983 15.6872 31.3307 15.2697 30.764 14.733C30.1973 14.1963 29.7509 13.5665 29.4249 12.8434C29.0988 12.1204 28.9358 11.334 28.9358 10.4842C28.9357 9.67924 29.091 8.91891 29.4015 8.20332ZM32.6736 7.31998C32.0137 7.84923 31.5751 8.55364 31.3578 9.43322H38.6007C38.3989 8.55364 37.968 7.84923 37.3081 7.31998C36.6483 6.79078 35.8759 6.52616 34.9909 6.52616C34.1059 6.52616 33.3335 6.79078 32.6736 7.31998Z" fill="white"/>
<path d="M45.3777 7.57712C44.8809 8.0989 44.6325 8.80702 44.6325 9.70154V16.1866H42.2802V4.78189H44.6091V6.19072C44.9041 5.72856 45.2884 5.3633 45.7619 5.09496C46.2355 4.82658 46.7983 4.69238 47.4504 4.69238H48.2655V6.79443H47.2874C46.5111 6.79448 45.8745 7.05535 45.3777 7.57712Z" fill="white"/>
</g>
<defs>
<clipPath id="clip0_3557_17919">
<rect width="47.7655" height="15.9218" fill="white" transform="translate(0.500031 0.532959)"/>
</clipPath>
</defs>
</svg>
