<svg width="59" height="27" viewBox="0 0 59 27" fill="none" xmlns="http://www.w3.org/2000/svg">
<path d="M25.7515 7.41992L23.8672 18.7758H26.8809L28.7667 7.41992H25.7515Z" fill="white"/>
<path d="M21.3377 7.43208L18.386 15.1764L18.0713 14.0071C17.4892 12.5982 15.8366 10.5747 13.8965 9.29951L16.5955 18.7696L19.7843 18.764L24.5304 7.42969L21.3377 7.43208Z" fill="white"/>
<path d="M16.9266 8.24582C16.7514 7.55408 16.2437 7.34792 15.6136 7.32324H10.9411L10.9023 7.54931C14.5385 8.45517 16.9444 10.6378 17.9428 13.2623L16.9266 8.24582Z" fill="white"/>
<path d="M34.8736 9.59671C35.8596 9.58079 36.5742 9.80208 37.1292 10.0313L37.4013 10.1627L37.809 7.70142C37.2122 7.47137 36.2766 7.22461 35.1092 7.22461C32.1312 7.22461 30.0322 8.76488 30.0159 10.9722C29.9965 12.6032 31.5111 13.5139 32.6552 14.0575C33.8295 14.6147 34.2233 14.969 34.2179 15.4665C34.2085 16.2267 33.2815 16.5753 32.4157 16.5753C31.2088 16.5753 30.5678 16.4042 29.578 15.9807L29.1896 15.7992L28.7656 18.3409C29.471 18.6585 30.7724 18.9315 32.1235 18.9458C35.2914 18.9458 37.3501 17.4239 37.3718 15.0653C37.385 13.775 36.5812 12.7903 34.8395 11.9823C33.7853 11.4554 33.1404 11.1051 33.1466 10.5734C33.1466 10.1014 33.6939 9.59671 34.8736 9.59671Z" fill="white"/>
<path d="M45.5404 7.43262H43.2119C42.4887 7.43262 41.9508 7.6348 41.633 8.37509L37.1582 18.7821H40.323C40.323 18.7821 40.8393 17.3827 40.9563 17.0762C41.3028 17.0762 44.3777 17.081 44.8157 17.081C44.9056 17.4774 45.1831 18.7821 45.1831 18.7821H47.9789L45.5404 7.43262ZM41.8237 14.7519C42.0717 14.1 43.0243 11.5782 43.0243 11.5782C43.0081 11.6093 43.2701 10.9215 43.4259 10.4941L43.6289 11.4732C43.6289 11.4732 44.2064 14.1844 44.3273 14.7519H41.8237Z" fill="white"/>
<rect x="0.5" y="0.5" width="57.8863" height="25.1717" rx="1.68097" stroke="white"/>
</svg>
