<svg width="60" height="27" viewBox="0 0 60 27" fill="none" xmlns="http://www.w3.org/2000/svg">
<g clip-path="url(#clip0_4029_7264)">
<path d="M46.4748 13.1375C46.4763 18.3849 42.1515 22.6397 36.8151 22.6411C31.4785 22.6424 27.1518 18.3898 27.1504 13.1423C27.1504 13.1406 27.1504 13.1392 27.1504 13.1375C27.149 7.89012 31.4738 3.63518 36.81 3.63379C42.1466 3.6324 46.4734 7.88519 46.4748 13.1327C46.4748 13.1343 46.4748 13.1358 46.4748 13.1375Z" fill="white"/>
<path d="M23.7894 3.63677C18.4847 3.6699 14.1895 7.91379 14.1895 13.138C14.1895 18.3826 18.5181 22.6391 23.8517 22.6391C26.3549 22.6391 28.6367 21.701 30.3536 20.1636C30.3536 20.1636 30.3533 20.1634 30.3529 20.1631H30.3549C30.7065 19.8481 31.0344 19.5082 31.3358 19.1457H29.3563C29.0919 18.8318 28.8517 18.5046 28.6359 18.167H32.05C32.2576 17.8403 32.4456 17.501 32.6125 17.1496H28.0722C27.9175 16.8234 27.7831 16.4898 27.6684 16.1514H33.0167C33.3391 15.2043 33.514 14.1911 33.514 13.1379C33.514 12.4396 33.437 11.7588 33.2913 11.1033H27.3848C27.458 10.7659 27.5503 10.4327 27.6605 10.1052H33.0107C32.8911 9.75667 32.7522 9.41707 32.5942 9.08787H28.0717C28.2348 8.74516 28.4197 8.41177 28.6261 8.08987H32.0377C31.8106 7.73418 31.5594 7.39436 31.2877 7.07246H29.3856C29.6797 6.7321 30.0035 6.41159 30.3549 6.11274C28.6379 4.57504 26.3555 3.63677 23.8517 3.63677C23.8309 3.63677 23.8103 3.63666 23.7894 3.63677Z" fill="white"/>
<path d="M27.3272 15.5576L27.456 14.6977C27.3857 14.6977 27.2822 14.7273 27.1909 14.7273C26.8328 14.7273 26.7933 14.5401 26.8161 14.4016L27.1054 12.6471H27.6497L27.7811 11.696H27.2679L27.3724 11.1045H26.3436C26.3209 11.1268 25.7363 14.4311 25.7363 14.8335C25.7363 15.4291 26.0765 15.6944 26.556 15.6901C26.9316 15.687 27.2241 15.5848 27.3272 15.5576Z" fill="black"/>
<path d="M27.6523 13.9179C27.6523 15.3475 28.612 15.6872 29.4295 15.6872C30.1841 15.6872 30.5162 15.5213 30.5162 15.5213L30.6974 14.5456C30.6974 14.5456 30.1234 14.7943 29.605 14.7943C28.5003 14.7943 28.6938 13.9843 28.6938 13.9843H30.7844C30.7844 13.9843 30.9194 13.3288 30.9194 13.0617C30.9194 12.3952 30.582 11.583 29.4525 11.583C28.4181 11.5832 27.6523 12.6792 27.6523 13.9179ZM29.4564 12.489C30.037 12.489 29.9299 13.1306 29.9299 13.1825H28.7878C28.7878 13.1162 28.8957 12.489 29.4564 12.489Z" fill="black"/>
<path d="M35.9703 15.5568L36.1543 14.454C36.1543 14.454 35.6496 14.7028 35.3031 14.7028C34.5734 14.7028 34.2807 14.1549 34.2807 13.5662C34.2807 12.372 34.9086 11.715 35.6076 11.715C36.1318 11.715 36.5525 12.0044 36.5525 12.0044L36.7204 10.9328C36.7204 10.9328 36.0965 10.6846 35.5618 10.6846C34.3741 10.6846 33.2188 11.6977 33.2188 13.6004C33.2188 14.8621 33.8426 15.6954 35.0703 15.6954C35.4174 15.6955 35.9703 15.5568 35.9703 15.5568Z" fill="black"/>
<path d="M21.6678 11.5996C20.9624 11.5996 20.4216 11.8225 20.4216 11.8225L20.2723 12.694C20.2723 12.694 20.7187 12.5157 21.3933 12.5157C21.7764 12.5157 22.0567 12.558 22.0567 12.8642C22.0567 13.0501 22.0223 13.1188 22.0223 13.1188C22.0223 13.1188 21.7202 13.0939 21.5802 13.0939C20.6905 13.0939 19.7559 13.4673 19.7559 14.593C19.7559 15.48 20.369 15.6835 20.7491 15.6835C21.4749 15.6835 21.7878 15.2204 21.8044 15.219L21.7705 15.6056H22.6764L23.0805 12.8196C23.0805 11.6377 22.032 11.5996 21.6678 11.5996ZM21.8882 13.868C21.9078 14.0382 21.7797 14.8358 21.1603 14.8358C20.8408 14.8358 20.7577 14.5959 20.7577 14.4539C20.7577 14.177 20.9107 13.8446 21.6645 13.8446C21.8399 13.8448 21.8586 13.8633 21.8882 13.868Z" fill="black"/>
<path d="M24.0431 15.6618C24.2748 15.6618 25.5995 15.7197 25.5995 14.3756C25.5995 13.1189 24.3733 13.3672 24.3733 12.8623C24.3733 12.611 24.5731 12.5318 24.9385 12.5318C25.0835 12.5318 25.6415 12.5772 25.6415 12.5772L25.7713 11.684C25.7713 11.6841 25.4101 11.6045 24.8221 11.6045C24.0611 11.6045 23.2886 11.9032 23.2886 12.9254C23.2886 14.0836 24.5766 13.9673 24.5766 14.4552C24.5766 14.7809 24.2168 14.8074 23.9395 14.8074C23.4595 14.8074 23.0274 14.6455 23.0259 14.6532L22.8887 15.5374C22.9135 15.5449 23.18 15.6618 24.0431 15.6618Z" fill="black"/>
<path d="M44.4905 10.7965L44.2686 12.1505C44.2686 12.1505 43.8814 11.6246 43.2752 11.6246C42.3326 11.6246 41.5469 12.7421 41.5469 14.0262C41.5469 14.8551 41.9659 15.6673 42.8226 15.6673C43.4389 15.6673 43.7805 15.2448 43.7805 15.2448L43.7353 15.6056H44.7359L45.5218 10.7949L44.4905 10.7965ZM44.0128 13.4366C44.0128 13.9709 43.7438 14.6846 43.186 14.6846C42.8158 14.6846 42.6423 14.379 42.6423 13.8994C42.6423 13.1151 43.0005 12.5976 43.4525 12.5976C43.8228 12.5975 44.0128 12.8476 44.0128 13.4366Z" fill="black"/>
<path d="M16.0974 15.6091L16.7236 11.9772L16.8156 15.6091H17.5244L18.8466 11.9772L18.2609 15.6091H19.3141L20.1252 10.792H18.4966L17.4823 13.7476L17.4295 10.792H15.9282L15.1055 15.6091H16.0974Z" fill="black"/>
<path d="M31.9471 15.6181C32.2465 13.9436 32.302 12.5839 33.0166 12.8328C33.1417 12.1847 33.2624 11.934 33.399 11.6597C33.399 11.6597 33.335 11.6465 33.2006 11.6465C32.7399 11.6465 32.3985 12.2654 32.3985 12.2654L32.4903 11.697H31.5324L30.8906 15.6181H31.9471Z" fill="black"/>
<path d="M38.3415 11.5986C37.6361 11.5986 37.0953 11.8216 37.0953 11.8216L36.9461 12.693C36.9461 12.693 37.3925 12.5147 38.0672 12.5147C38.4503 12.5147 38.7303 12.5571 38.7303 12.8632C38.7303 13.0491 38.6962 13.1178 38.6962 13.1178C38.6962 13.1178 38.394 13.0929 38.254 13.0929C37.3643 13.0929 36.4297 13.4663 36.4297 14.592C36.4297 15.479 37.0428 15.6825 37.4228 15.6825C38.1486 15.6825 38.4615 15.2194 38.4781 15.218L38.4444 15.6046C38.4444 15.6046 39.3499 15.6046 39.3502 15.6046L39.7543 12.8186C39.7544 11.6367 38.7058 11.5986 38.3415 11.5986ZM38.5622 13.867C38.5819 14.0372 38.4536 14.8349 37.834 14.8349C37.5145 14.8349 37.4316 14.5949 37.4316 14.4529C37.4316 14.176 37.5846 13.8436 38.3384 13.8436C38.5137 13.8438 38.5324 13.8623 38.5622 13.867Z" fill="black"/>
<path d="M40.5837 15.6162C40.8833 13.9416 40.9388 12.5819 41.6531 12.8308C41.7784 12.1827 41.8993 11.932 42.0357 11.6577C42.0357 11.6577 41.9717 11.6445 41.8373 11.6445C41.3766 11.6445 41.0353 12.2635 41.0353 12.2635L41.127 11.695H40.1691L39.5273 15.6162H40.5837Z" fill="black"/>
<path d="M45.5004 15.0127C45.5526 15.0127 45.6041 15.0259 45.6537 15.0527C45.7037 15.0786 45.7427 15.1168 45.7706 15.1663C45.7986 15.2154 45.8124 15.2665 45.8124 15.32C45.8124 15.3729 45.7986 15.4239 45.771 15.4727C45.7436 15.5215 45.7052 15.5598 45.6555 15.5867C45.606 15.6135 45.5541 15.627 45.5003 15.627C45.4459 15.627 45.394 15.6135 45.3444 15.5867C45.2949 15.5596 45.2565 15.5215 45.229 15.4727C45.2011 15.4239 45.1875 15.3729 45.1875 15.32C45.1875 15.2665 45.2013 15.2154 45.2294 15.1663C45.2575 15.1168 45.2965 15.0789 45.3464 15.0527C45.3967 15.0259 45.4481 15.0127 45.5004 15.0127ZM45.5004 15.0633C45.4566 15.0633 45.4139 15.0745 45.3721 15.0969C45.3305 15.1187 45.2981 15.1504 45.2746 15.1918C45.2513 15.2326 45.2395 15.2754 45.2395 15.3198C45.2395 15.3642 45.2509 15.4067 45.2736 15.4472C45.2969 15.4876 45.3292 15.5194 45.3708 15.5422C45.412 15.5645 45.4551 15.5758 45.5004 15.5758C45.5453 15.5758 45.5887 15.5645 45.6299 15.5422C45.6711 15.5194 45.7034 15.4876 45.7263 15.4472C45.7493 15.4063 45.7606 15.3642 45.7606 15.3198C45.7606 15.2754 45.7489 15.2326 45.7255 15.1918C45.7023 15.1504 45.6699 15.1187 45.6281 15.0969C45.5866 15.0746 45.5442 15.0633 45.5004 15.0633ZM45.3635 15.4897V15.1591H45.4792C45.5186 15.1591 45.5474 15.1622 45.5648 15.1685C45.5825 15.1744 45.5963 15.185 45.6071 15.2003C45.6177 15.2156 45.623 15.2316 45.623 15.2487C45.623 15.2728 45.6141 15.294 45.5964 15.3118C45.5792 15.3296 45.556 15.3399 45.527 15.3418C45.5385 15.3467 45.5481 15.3526 45.5555 15.3593C45.569 15.3723 45.5855 15.3942 45.6052 15.4248L45.6463 15.4896H45.5799L45.5503 15.4375C45.5268 15.3965 45.5079 15.371 45.4935 15.3606C45.4836 15.3529 45.4691 15.3492 45.45 15.3492H45.4182V15.4898L45.3635 15.4897ZM45.4178 15.3036H45.4837C45.5152 15.3036 45.5365 15.299 45.5478 15.2898C45.5592 15.2808 45.5652 15.2684 45.5652 15.2531C45.5652 15.2434 45.5625 15.2346 45.5571 15.2272C45.5515 15.2192 45.5438 15.2135 45.5338 15.2096C45.5239 15.2058 45.5061 15.2039 45.4795 15.2039H45.4179V15.3036" fill="black"/>
</g>
<rect x="1.38672" y="0.5" width="57.8863" height="25.1717" rx="1.68097" stroke="white"/>
<defs>
<clipPath id="clip0_4029_7264">
<rect width="32.7146" height="19.3016" fill="white" transform="translate(13.9727 3.43457)"/>
</clipPath>
</defs>
</svg>
