<svg width="60" height="27" viewBox="0 0 60 27" fill="none" xmlns="http://www.w3.org/2000/svg">
<g clip-path="url(#clip0_3982_9398)">
<path d="M12.0451 15.0509C11.6281 15.4439 11.0865 15.6153 10.229 15.6153H9.87287V10.9199H10.229C11.0865 10.9199 11.6068 11.0801 12.0451 11.4942C12.504 11.9207 12.7801 12.5816 12.7801 13.2618C12.7801 13.9434 12.504 14.6246 12.0451 15.0509ZM10.4949 9.71689H8.54688V16.8174H10.4846C11.515 16.8174 12.259 16.5637 12.9121 15.9977C13.6881 15.3274 14.1471 14.3171 14.1471 13.2721C14.1471 11.1766 12.647 9.71689 10.4949 9.71689Z" fill="white"/>
<path d="M14.7578 16.8174H16.0849V9.71689H14.7578V16.8174Z" fill="white"/>
<path d="M19.3291 12.4426C18.5327 12.1351 18.2989 11.9323 18.2989 11.5486C18.2989 11.1014 18.7155 10.7616 19.2875 10.7616C19.6851 10.7616 20.0119 10.9321 20.3576 11.3367L21.0519 10.3877C20.4814 9.86682 19.7987 9.6005 19.0528 9.6005C17.8491 9.6005 16.9309 10.473 16.9309 11.6351C16.9309 12.6133 17.3584 13.1141 18.6048 13.5823C19.1242 13.7735 19.3886 13.901 19.5221 13.9867C19.7873 14.1674 19.92 14.4232 19.92 14.7214C19.92 15.2967 19.4817 15.7229 18.8896 15.7229C18.2567 15.7229 17.7469 15.3926 17.4413 14.7759L16.584 15.6374C17.1954 16.5741 17.9297 16.9893 18.9394 16.9893C20.3185 16.9893 21.2859 16.0323 21.2859 14.6577C21.2859 13.5296 20.8387 13.0189 19.3291 12.4426Z" fill="white"/>
<path d="M21.7051 13.2721C21.7051 15.3592 23.2753 16.9775 25.2961 16.9775C25.8673 16.9775 26.3565 16.8603 26.9599 16.5637V14.9333C26.4294 15.4875 25.9595 15.711 25.3578 15.711C24.0213 15.711 23.0727 14.6997 23.0727 13.2619C23.0727 11.8986 24.0513 10.8232 25.2961 10.8232C25.929 10.8232 26.4081 11.0589 26.9599 11.6221V9.99257C26.3774 9.68414 25.8984 9.55641 25.3274 9.55641C23.3169 9.55641 21.7051 11.2075 21.7051 13.2721Z" fill="white"/>
<path d="M37.4827 14.4868L35.6685 9.71733H34.2188L37.1058 17H37.8199L40.7591 9.71733H39.3206L37.4827 14.4868Z" fill="white"/>
<path d="M41.3594 16.8174H45.1228V15.6153H42.6853V13.6987H45.0329V12.4959H42.6853V10.9199H45.1228V9.71689H41.3594V16.8174Z" fill="white"/>
<path d="M47.7131 12.9859H47.3255V10.8353H47.7341C48.5605 10.8353 49.0098 11.1967 49.0098 11.8877C49.0098 12.6016 48.5605 12.9859 47.7131 12.9859ZM50.3755 11.8131C50.3755 10.4838 49.4981 9.71689 47.9677 9.71689H46V16.8174H47.3255V13.965H47.4985L49.3354 16.8174H50.9673L48.8256 13.826C49.8251 13.614 50.3755 12.9004 50.3755 11.8131Z" fill="white"/>
<path d="M50.9716 10.0695H50.9475V9.90643H50.9731C51.0437 9.90643 51.0803 9.93296 51.0803 9.98669C51.0803 10.0419 51.0432 10.0695 50.9716 10.0695ZM51.223 9.9844C51.223 9.85995 51.1409 9.7919 50.9967 9.7919H50.8047V10.416H50.9475V10.174L51.1149 10.416H51.2891L51.0924 10.1586C51.1765 10.135 51.223 10.071 51.223 9.9844Z" fill="white"/>
<path d="M51.0248 10.5502C50.7963 10.5502 50.6094 10.3517 50.6094 10.1041C50.6094 9.85559 50.7939 9.65721 51.0248 9.65721C51.2522 9.65721 51.4376 9.86014 51.4376 10.1041C51.4376 10.3497 51.2522 10.5502 51.0248 10.5502ZM51.0268 9.55926C50.7364 9.55926 50.5059 9.80114 50.5059 10.1033C50.5059 10.4053 50.739 10.6475 51.0268 10.6475C51.3097 10.6475 51.5414 10.4027 51.5414 10.1033C51.5414 9.80541 51.3097 9.55926 51.0268 9.55926Z" fill="white"/>
<circle cx="31.1016" cy="13.5859" r="3.5" fill="#D9D9D9"/>
</g>
<rect x="1.1582" y="0.5" width="57.8863" height="25.1717" rx="1.68097" stroke="white"/>
<defs>
<clipPath id="clip0_3982_9398">
<rect width="43" height="8" fill="white" transform="translate(8.60156 9.08594)"/>
</clipPath>
</defs>
</svg>
