<svg width="60" height="27" viewBox="0 0 60 27" fill="none" xmlns="http://www.w3.org/2000/svg">
<g clip-path="url(#clip0_3982_9266)">
<path d="M38.37 8.10938L37.6895 9.7616H39.0574L38.37 8.10938Z" fill="white"/>
<path d="M14.8505 8.10938L14.1777 9.7616H15.5287L14.8505 8.10938Z" fill="white"/>
<path d="M30.4635 8.34543C30.3461 8.279 30.1654 8.27051 29.9939 8.27051H28.7734V9.19047H29.9777C30.1684 9.19047 30.3291 9.18738 30.4674 9.1055C30.5948 9.0383 30.6713 8.89231 30.6713 8.71156C30.6713 8.53391 30.5917 8.40568 30.4635 8.34543Z" fill="white"/>
<path d="M34.7068 15.4753C34.5863 15.4035 34.4087 15.4004 34.2341 15.4004H33.0137V16.3312H34.2179C34.411 16.3312 34.5755 16.325 34.7092 16.247C34.8374 16.1682 34.9138 16.0268 34.9138 15.8484C34.9115 15.67 34.8351 15.5417 34.7068 15.4753Z" fill="white"/>
<path d="M29.8833 15.3975H28.5918V16.4534H29.8709C30.2517 16.4534 30.4889 16.2649 30.4889 15.9073C30.4881 15.5427 30.2417 15.3975 29.8833 15.3975Z" fill="white"/>
<path d="M48.1877 16.02C48.1807 16.0131 48.173 16.0053 48.166 15.9999C48.3537 15.8779 48.4789 15.6662 48.4789 15.4252V14.5424C48.4789 14.1631 48.1722 13.8572 47.7937 13.8572H45.8086C45.1899 13.8572 44.7233 14.0395 44.3834 14.3145C44.2884 14.0488 44.0443 13.8572 43.7454 13.8572H41.7603C41.2142 13.8572 40.7839 13.9924 40.4564 14.2149C40.3375 14.0024 40.1235 13.8572 39.8671 13.8572H36.5611C36.2946 13.8572 36.0698 14.0125 35.9562 14.2342C35.9091 14.2009 35.8744 14.1623 35.8249 14.133C35.3453 13.8765 34.8355 13.8572 34.3102 13.8572H32.0215C31.755 13.8572 31.5295 14.014 31.4167 14.2373C31.0683 14.0109 30.5809 13.8572 29.888 13.8572H26.7226C26.5318 13.8572 26.3503 13.9345 26.2198 14.075L25.4698 14.8838L24.7499 14.0843C24.6209 13.9368 24.4362 13.8564 24.2408 13.8564H20.2566C19.8781 13.8564 19.5723 14.1631 19.5723 14.5416V18.6872C19.5723 19.0665 19.8789 19.3724 20.2566 19.3724H24.1813C24.3721 19.3724 24.5537 19.2928 24.6834 19.1522L25.4396 18.3342L26.1572 19.1414C26.287 19.2882 26.4739 19.3708 26.6693 19.3708H28.595C28.9743 19.3708 29.2801 19.0642 29.2801 18.6872V17.9797H29.8309C30.5006 17.9797 30.9849 17.8422 31.3371 17.6328V18.6872C31.3371 19.0649 31.6438 19.3708 32.0223 19.3708H33.0179C33.3972 19.3708 33.7031 19.0642 33.7031 18.6872V17.8561H34.0762C34.1673 17.8561 34.2314 17.8592 34.2778 17.8623C34.2808 17.9364 34.2808 18.0252 34.2793 18.0839V18.6872C34.2793 19.0649 34.5875 19.3708 34.9644 19.3708H35.9586C36.0698 19.3708 36.1702 19.3407 36.2614 19.2936C36.354 19.3391 36.4537 19.3708 36.5634 19.3708H39.8701C39.9775 19.3708 40.0772 19.3407 40.1675 19.2967C40.2579 19.3407 40.3552 19.3708 40.4649 19.3708H42.3944C43.0085 19.3708 43.5091 19.2202 43.8837 18.9545C43.9864 19.1986 44.229 19.3708 44.5124 19.3708H46.442C47.8455 19.3708 48.682 18.6254 48.682 17.3779C48.682 16.8002 48.526 16.3699 48.1877 16.02ZM29.8317 17.2945H28.5958V18.6857H26.6701L25.4497 17.3138L24.1813 18.6857H20.2566V14.5393H24.2408L25.4613 15.8987L26.7219 14.5393H29.8873C30.6728 14.5393 31.5573 14.7594 31.5573 15.9072C31.5573 17.0574 30.6983 17.2968 29.8317 17.2945ZM35.3105 16.7608C35.5299 16.8411 35.7098 16.9871 35.7933 17.1091C35.9346 17.3115 35.9532 17.5 35.9578 17.8653V18.6872H34.9637V18.1681C34.9637 17.9194 34.9876 17.5494 34.8022 17.3563C34.6601 17.2088 34.44 17.174 34.0769 17.174H33.0187V18.6872H32.023V14.5416H34.3117C34.8123 14.5416 35.1769 14.5624 35.5036 14.7362C35.8157 14.9247 36.0126 15.1842 36.0126 15.6562C36.0126 16.3189 35.57 16.6565 35.3105 16.7608ZM39.8686 15.3982H37.5482V16.1529H39.8114V16.9995H37.5482V17.8229L39.8686 17.8275V18.6872H36.5626V14.5416H39.8686V15.3982ZM42.3952 18.6826H40.4657V17.792H42.3867C42.5736 17.792 42.7073 17.7688 42.7907 17.6892C42.8587 17.6259 42.9066 17.5309 42.9066 17.4181C42.9066 17.2976 42.8556 17.2026 42.7861 17.1447C42.7088 17.0813 42.6069 17.0528 42.4331 17.0528C41.5077 17.0226 40.3467 17.0813 40.3467 15.7705C40.3467 15.1673 40.7237 14.5362 41.7634 14.5362H43.7485V15.4183H41.931C41.7495 15.4183 41.6328 15.426 41.534 15.494C41.425 15.562 41.3841 15.6616 41.3841 15.7929C41.3841 15.9497 41.476 16.054 41.6004 16.1019C41.7062 16.1382 41.8174 16.149 41.9866 16.149L42.5188 16.1645C43.0556 16.1791 43.4256 16.2718 43.6489 16.4982C43.8435 16.6982 43.9462 16.9516 43.9462 17.3772C43.9462 18.2709 43.3909 18.6872 42.3952 18.6826ZM46.4435 18.6826H44.514V17.792H46.4358C46.6227 17.792 46.7563 17.7688 46.839 17.6892C46.907 17.6259 46.9549 17.5309 46.9549 17.4181C46.9549 17.2976 46.9039 17.2026 46.8344 17.1447C46.7579 17.0813 46.6559 17.0528 46.4814 17.0528C45.5552 17.0226 44.395 17.0813 44.395 15.7705C44.395 15.1673 44.772 14.5362 45.8117 14.5362H47.7968V15.4183H45.98C45.7978 15.4183 45.6803 15.426 45.5822 15.494C45.4733 15.562 45.4332 15.6616 45.4332 15.7929C45.4332 15.9497 45.5259 16.054 45.6487 16.1019C45.7553 16.1382 45.8657 16.149 46.0349 16.149L46.5671 16.1645C47.1047 16.1791 47.4755 16.2718 47.6987 16.4982C47.8918 16.6982 47.9961 16.9516 47.9961 17.3772C47.9961 18.2709 47.4392 18.6872 46.4435 18.6826Z" fill="white"/>
<path d="M45.0744 6.72363H44.0602C43.6809 6.72363 43.375 7.03029 43.375 7.408V7.83593L42.9046 7.055C42.7795 6.85031 42.5578 6.7244 42.3191 6.7244H40.809C40.4305 6.7244 40.1247 7.03106 40.1247 7.40878V7.99042L39.7608 7.1392C39.6535 6.88816 39.4063 6.7244 39.1329 6.7244H37.6483C37.4976 6.7244 37.354 6.77384 37.2396 6.86035C37.1261 6.77461 36.9832 6.7244 36.8295 6.7244H35.8724C35.0583 6.7244 34.4558 6.92137 34.0124 7.30604C33.9615 6.97931 33.6903 6.7244 33.3489 6.7244H32.337C32.0667 6.7244 31.8404 6.8843 31.7276 7.10985C31.6851 7.07895 31.6527 7.04187 31.6048 7.01407C31.1398 6.74526 30.6508 6.7244 30.0615 6.7244H27.7828C27.6546 6.7244 27.5426 6.76921 27.4391 6.83023C27.3379 6.76921 27.2243 6.7244 27.0961 6.7244H23.787C23.6472 6.7244 23.5259 6.77616 23.4178 6.84722C23.3089 6.77616 23.1876 6.7244 23.0486 6.7244H21.3971C21.1237 6.7244 20.8757 6.88893 20.7684 7.14229L20.1798 8.52957L19.5317 7.12221C19.4189 6.87966 19.1756 6.7244 18.9099 6.7244H17.2924C16.914 6.7244 16.6081 7.03106 16.6081 7.40878V8.00432L16.2365 7.13765C16.1284 6.88662 15.8812 6.72363 15.607 6.72363H14.1363C13.8621 6.72363 13.6149 6.88739 13.5068 7.13843L11.7333 11.2841C11.6421 11.4965 11.6645 11.7375 11.7904 11.9306C11.9171 12.1221 12.1318 12.238 12.362 12.238H13.4388C13.7138 12.238 13.9633 12.0712 14.0691 11.8163L14.2784 11.3126H15.4263L15.6325 11.8132C15.7375 12.0696 15.9878 12.2372 16.2659 12.2372H18.2812C18.6596 12.2372 18.9655 11.9306 18.9655 11.5529V11.5366L19.0953 11.8309C19.205 12.0781 19.4506 12.238 19.721 12.238L20.5915 12.2395C20.8634 12.2395 21.1075 12.0797 21.2172 11.8317L21.3485 11.5382V11.5552C21.3485 11.9329 21.6543 12.2388 22.0328 12.2388H23.0486C23.1876 12.2388 23.3089 12.1862 23.4178 12.116C23.5259 12.1862 23.6472 12.2388 23.787 12.2388H27.0961C27.2243 12.2388 27.3379 12.194 27.4391 12.1329C27.5418 12.194 27.6546 12.2388 27.7828 12.2388H28.7746C29.1531 12.2388 29.459 11.9321 29.459 11.5544V10.731H29.8375C29.9232 10.731 29.9842 10.7333 30.0298 10.7364C30.0344 10.8067 30.0329 10.8901 30.0329 10.9457L30.0313 11.0369L30.0352 11.5598C30.0383 11.9352 30.3449 12.2388 30.7203 12.2388H31.7199C31.8319 12.2388 31.9331 12.204 32.0265 12.1561C32.1215 12.2048 32.2235 12.2388 32.3363 12.2388H33.3481C33.6803 12.2388 33.9429 11.9993 34.007 11.6873C34.5686 12.1592 35.3595 12.2388 35.7998 12.2388H36.9608C37.2373 12.2388 37.4876 12.0688 37.5919 11.8101L37.7935 11.3134H38.9351L39.1444 11.817C39.2503 12.0712 39.499 12.238 39.7763 12.238H41.7923C42.1708 12.238 42.4767 11.9313 42.4767 11.5536V10.8994L43.0846 11.9074C43.209 12.1121 43.4306 12.238 43.6716 12.238H45.0744C45.4529 12.238 45.7588 11.9313 45.7588 11.5536V7.408C45.7588 7.03029 45.4513 6.72363 45.0744 6.72363ZM23.0478 11.5529H22.0321L22.0282 8.30634L20.5915 11.5529H19.721L18.2819 8.30325V11.5529H16.2651L15.8843 10.6283H13.8219L13.4373 11.5529H12.3605L14.1348 7.40723H15.6055L17.2917 11.3327V7.40723H18.9091L20.206 10.2196L21.3964 7.40723H23.0478V11.5529ZM27.0953 8.27081H24.7765V9.01775H27.0405V9.86742H24.7765V10.6955H27.0953V11.5529H23.7862V7.40723H27.0953V8.27081ZM31.0633 9.62951C31.2803 9.71293 31.4657 9.85815 31.5538 9.97865C31.6944 10.1849 31.7183 10.3687 31.7183 10.7387V11.5521H30.7188L30.7142 11.0291C30.7142 10.7804 30.7381 10.422 30.5581 10.222C30.4137 10.0767 30.1928 10.0451 29.8359 10.0451H28.7738V11.5529H27.782H27.7812V7.408H30.0599C30.5666 7.408 30.9397 7.42114 31.2595 7.60652C31.5731 7.7919 31.7608 8.06225 31.7608 8.52494C31.7608 9.18536 31.3197 9.52755 31.0633 9.62951ZM33.3489 11.5529H32.337V7.40723H33.3489V11.5529ZM45.0744 11.5529H43.6709L41.7916 8.44151V11.5529H39.7755L39.3893 10.6283H37.33L36.9577 11.5529H35.7975C35.3163 11.5529 34.7084 11.4463 34.3639 11.0948C34.0132 10.7426 33.8325 10.2652 33.8325 9.5121C33.8325 8.89725 33.9414 8.33492 34.3631 7.89C34.6821 7.5594 35.1834 7.40723 35.8678 7.40723H36.8248V8.29553H35.8863C35.5256 8.29553 35.3209 8.34882 35.1247 8.54116C34.9556 8.71573 34.8405 9.04555 34.8405 9.48043C34.8405 9.9238 34.9285 10.2436 35.1139 10.4529C35.2676 10.6174 35.5457 10.6669 35.8045 10.6669H36.2486L37.6483 7.40723H39.1329L40.809 11.3281V7.40723H42.3191L44.0602 10.2946V7.40723H45.0744V11.5529ZM36.2316 8.98067L35.8014 9.98405C35.7064 9.98405 35.6423 9.97324 35.6067 9.96397C35.5735 9.90218 35.5279 9.76546 35.5279 9.4812C35.5279 9.19386 35.5975 9.04478 35.6067 9.03165C35.6353 9.00384 35.6592 8.9799 35.8917 8.9799L36.2316 8.98067Z" fill="white"/>
<path d="M26.084 16.622L27.6057 18.312V14.9883L26.084 16.622Z" fill="white"/>
<path d="M23.7248 15.4014H21.2422V16.1545H23.4166V17.0011H21.2422V17.826H23.6769L24.8085 16.6079L23.7248 15.4014Z" fill="white"/>
</g>
<rect x="1.27344" y="0.5" width="57.8863" height="25.1717" rx="1.68097" stroke="white"/>
<defs>
<clipPath id="clip0_3982_9266">
<rect width="37.0766" height="13.9037" fill="white" transform="translate(11.6777 6.13379)"/>
</clipPath>
</defs>
</svg>
