<svg width="60" height="27" viewBox="0 0 60 27" fill="none" xmlns="http://www.w3.org/2000/svg">
<path d="M14.7604 8.04337C14.5805 7.68241 14.2959 7.38471 13.9426 7.16116C13.574 6.93543 13.1389 6.77731 12.6416 6.68353C12.1356 6.59193 11.5511 6.55049 10.8739 6.54395L7.7475 6.54613C7.42253 6.55049 7.10411 6.80348 7.02777 7.11754L4.92422 16.2798C4.84789 16.5895 5.05181 16.8491 5.37678 16.8491H6.87402C7.19898 16.8491 7.52067 16.5971 7.59265 16.2798L8.10627 14.0552C8.17497 13.7455 8.49557 13.4871 8.82381 13.4871H9.25237C11.0833 13.4849 12.5009 13.1109 13.5194 12.3617C14.5434 11.6114 15.0483 10.6202 15.0483 9.3923C15.0472 8.85469 14.9589 8.40323 14.7604 8.04337ZM11.5315 11.0368C11.0789 11.3683 10.4497 11.534 9.6384 11.534H9.272C8.94594 11.534 8.74638 11.2767 8.81726 10.9626L9.26763 9.01717C9.33088 8.70529 9.65912 8.44685 9.98081 8.44903L10.4715 8.44575C11.044 8.44575 11.4813 8.54499 11.7736 8.73691C12.0626 8.92666 12.2076 9.22873 12.2054 9.62893C12.2141 10.2374 11.9819 10.7052 11.5315 11.0368Z" fill="white"/>
<path d="M21.98 9.35361C21.4151 9.03519 20.5231 8.87598 19.3039 8.87598C18.7009 8.87598 18.1 8.92287 17.4926 9.01665C17.0444 9.08535 17.0008 9.09843 16.7249 9.15841C16.1557 9.28273 16.0663 9.85087 16.0663 9.85087L15.8831 10.6044C15.7795 11.0853 16.0564 11.0668 16.172 11.0264C16.4207 10.9523 16.5592 10.8759 17.0673 10.7625C17.5526 10.6524 18.064 10.5695 18.4697 10.575C19.0684 10.575 19.5264 10.6382 19.8317 10.7669C20.1327 10.8977 20.2832 11.1224 20.2832 11.4473L20.257 11.6589L20.0411 11.7919C19.1916 11.8454 18.5777 11.9239 17.8329 12.0318C17.1044 12.1333 16.4654 12.311 15.9343 12.5542C15.364 12.805 14.9409 13.142 14.6454 13.5705C14.3597 14.0013 14.2168 14.5236 14.2168 15.1365C14.2168 15.7133 14.424 16.1899 14.8264 16.5585C15.2309 16.9205 15.7653 17.0972 16.4043 17.0972C16.8089 17.095 17.1219 17.0634 17.3443 17.0099L18.0695 16.7602L18.6834 16.42L19.2483 16.047L19.2559 16.0579L19.1992 16.2978L19.196 16.3076V16.3098C19.1349 16.6021 19.3116 16.842 19.5962 16.8703L19.6016 16.8769H19.6278H20.7761H20.992L21.0116 16.8682C21.3104 16.8333 21.5907 16.5934 21.6561 16.3076L22.7477 11.5826L22.8044 11.1976L22.8306 10.8367C22.8349 10.1671 22.5459 9.67094 21.98 9.35361ZM19.5656 14.6665L19.3323 14.974L18.7434 15.2782C18.4664 15.3905 18.2036 15.4473 17.9604 15.4473C17.5919 15.4473 17.3029 15.3938 17.1077 15.2848L16.8187 14.7232C16.8187 14.4189 16.8885 14.1779 17.0379 13.9925L17.6726 13.5607C17.9441 13.4691 18.2756 13.3917 18.6594 13.3382C19.0019 13.2957 19.678 13.2183 19.7663 13.2161L19.8699 13.3982C19.8492 13.5018 19.6572 14.3044 19.5656 14.6665Z" fill="white"/>
<path d="M49.1753 9.35958C48.6071 9.04116 47.7162 8.88086 46.5003 8.88086C45.8973 8.88086 45.2953 8.92775 44.6901 9.0248C44.2408 9.09023 44.1961 9.10441 43.9191 9.1633C43.351 9.28652 43.2627 9.85685 43.2627 9.85685L43.0795 10.6093C42.977 11.0902 43.2474 11.0684 43.3739 11.0313C43.6236 10.9571 43.7578 10.8841 44.2616 10.7663C44.7446 10.6573 45.2604 10.5766 45.6672 10.5787C46.2637 10.5787 46.7217 10.6431 47.0259 10.7718C47.3291 10.9026 47.4774 11.1294 47.4774 11.4511L47.4545 11.6616L47.2408 11.7979C46.3826 11.8492 45.7675 11.9277 45.0303 12.0356C44.3041 12.1371 43.6629 12.3137 43.1307 12.558C42.5626 12.8099 42.134 13.1468 41.8418 13.5765C41.5528 14.0072 41.4121 14.5285 41.4121 15.1359C41.4121 15.7171 41.6171 16.1937 42.025 16.5601C42.4317 16.921 42.9606 17.102 43.5996 17.102C44.002 17.0977 44.315 17.0715 44.5385 17.0137L45.2615 16.7673L45.8809 16.427L46.4414 16.0497L46.4513 16.0617L46.4 16.3038L46.3945 16.3082L46.3967 16.3125C46.3291 16.6048 46.5069 16.8469 46.7948 16.873L46.7969 16.8785H46.8231C47.0118 16.8785 47.6639 16.8785 47.9747 16.8785H48.1862L48.2091 16.8709C48.5046 16.8349 48.7838 16.595 48.846 16.306L49.9408 11.5874L49.9986 11.2003L50.0302 10.8383C50.0313 10.1709 49.7456 9.67692 49.1753 9.35958ZM46.7664 14.6724L46.5232 14.9832L45.9398 15.2853C45.6628 15.3965 45.3989 15.4543 45.1601 15.4543C44.7795 15.4543 44.4982 15.3998 44.3084 15.2907L44.0162 14.7313C44.0162 14.426 44.0871 14.1872 44.2299 13.9985C44.375 13.8208 44.5963 13.6746 44.8711 13.5678C45.1394 13.4762 45.4709 13.402 45.8569 13.3464C46.1972 13.3039 46.8711 13.2243 46.9583 13.2232L47.0641 13.4053C47.0488 13.5089 46.8558 14.3082 46.7664 14.6724Z" fill="white"/>
<path d="M41.9507 8.07668C41.7631 7.71355 41.4818 7.42021 41.1263 7.19121C40.7621 6.96438 40.3302 6.80517 39.8253 6.71357C39.3292 6.62524 38.737 6.57726 38.0642 6.57617L34.9334 6.57835C34.6073 6.5838 34.2944 6.8368 34.2191 7.14759L32.1134 16.3142C32.0371 16.625 32.2464 16.8824 32.5649 16.8824L34.0643 16.8802C34.3827 16.8824 34.7088 16.6272 34.784 16.3131L35.2911 14.0874C35.3652 13.7777 35.6869 13.5171 36.0108 13.5193H36.4394C38.2725 13.5193 39.6934 13.142 40.7163 12.395C41.7271 11.6393 42.2386 10.6502 42.2386 9.42125C42.2331 8.88582 42.1404 8.43327 41.9507 8.07668ZM38.7218 11.0744C38.2703 11.3994 37.64 11.5651 36.833 11.5651H36.4601C36.1384 11.5684 35.9301 11.3067 36.0021 10.9948L36.4557 9.05267C36.5222 8.74188 36.8472 8.48125 37.1711 8.48452L37.6563 8.48125C38.2321 8.48452 38.664 8.5794 38.9584 8.77132C39.2517 8.96325 39.3902 9.26422 39.3935 9.66334C39.3968 10.2718 39.171 10.7407 38.7218 11.0744Z" fill="white"/>
<path d="M54.7895 7.22095C54.8582 6.90798 54.6619 6.6539 54.3402 6.65826H52.9989C52.7241 6.65826 52.4765 6.86218 52.3555 7.11299L52.2813 7.22858L52.2137 7.5252L50.3392 16.0463L50.2781 16.308L50.2803 16.3145C50.2181 16.5948 50.3904 16.8063 50.6565 16.8467L50.6794 16.8783H52.072C52.3446 16.8783 52.6008 16.6711 52.7175 16.4159L52.7895 16.3069L54.7938 7.22204L54.7895 7.22095Z" fill="white"/>
<path d="M32.153 8.98938C31.7986 8.99374 30.3581 8.98938 30.3581 8.98938C30.0353 8.98938 29.6209 9.25001 29.4159 9.5608C29.4159 9.5608 27.272 13.2401 27.0637 13.6098L26.8151 13.6065L26.1477 9.58588C26.0736 9.26964 25.7432 8.9992 25.3321 8.9992L23.9908 9.00138C23.668 9.00138 23.4695 9.25873 23.5426 9.57279C23.5426 9.57279 24.5611 15.3687 24.765 16.7329C24.8599 17.4854 24.753 17.6195 24.753 17.6195L23.427 19.9291C23.2307 20.2432 23.3365 20.4995 23.6582 20.4995L25.2088 20.4973C25.5316 20.4973 25.9558 20.2432 26.1477 19.9281L32.1127 9.83887C32.1127 9.83996 32.6863 8.97739 32.153 8.98938Z" fill="white"/>
<rect x="1.04492" y="0.5" width="57.8863" height="25.1717" rx="1.68097" stroke="white"/>
</svg>
